<svg width="988" height="465" viewBox="0 0 988 465" fill="none" xmlns="http://www.w3.org/2000/svg">
<path d="M55.923 463.83C55.923 463.83 -35.2709 365.965 40.501 260.01C107.729 166.002 186.112 172.425 243.618 210.576C268.112 226.826 338.727 212.578 398.832 116.92C480.798 -13.532 764.917 65.5867 713.114 266.292C688.043 363.418 789.411 366.948 737.761 464.034L55.923 463.83Z" fill="#EBF3FA"/>
<path d="M795.432 333.926C789.011 310.227 749.001 317.634 749.001 317.634C749.001 317.634 721.833 359.104 713.932 360.092C706.028 361.081 730.232 320.101 730.232 320.101C714.921 318.622 675.9 337.382 675.9 337.382C675.9 337.382 678.369 385.765 670.467 384.779C662.563 383.791 670.467 341.826 670.467 341.826C655.648 346.271 641.82 363.549 641.82 363.549C624.531 391.689 661.577 412.425 661.577 412.425C661.577 412.425 662.072 429.212 651.698 448.466C651.698 448.466 649.357 452.022 646.979 458.065H651.019C651.349 456.983 651.713 455.935 652.116 454.93C652.116 454.921 652.119 454.916 652.125 454.913C652.13 454.899 652.136 454.884 652.142 454.87C652.417 454.245 652.815 453.359 653.312 452.277L653.315 452.274C653.315 452.272 653.318 452.272 653.318 452.269C654.551 449.855 655.386 448.069 655.912 446.782C655.915 446.779 655.915 446.774 655.915 446.771C659.614 439.191 664.941 429.311 668.493 427.241C668.493 427.241 668.047 426.613 667.629 425.389C667.905 425.98 668.192 426.596 668.493 427.241C675.408 442.054 709.983 444.522 729.249 440.571C748.512 436.621 740.116 431.191 729.743 422.376C719.37 413.561 697.638 415.884 691.217 412.428C684.796 408.972 694.18 405.516 707.022 406.504C719.864 407.493 726.285 420.329 747.032 422.303C767.778 424.276 783.584 385.274 783.584 385.274C769.259 389.718 743.574 381.817 742.588 376.882C741.6 371.946 779.635 372.437 785.561 370.958C791.48 369.472 801.853 357.625 795.432 333.926Z" fill="#DFEBFD"/>
<path d="M250.176 340.392C250.176 340.392 251.94 354.469 249.301 354.637C246.658 354.805 248.465 338.808 248.465 338.808C248.465 338.808 235.907 331.79 230.799 331.972C230.799 331.972 237.99 346.055 235.39 345.566C232.791 345.078 224.625 330.771 224.625 330.771C224.625 330.771 211.507 327.499 208.896 335.229C206.285 342.957 209.481 347.097 211.419 347.711C213.354 348.321 225.977 348.932 225.548 350.55C225.119 352.166 216.442 354.265 211.78 352.499C211.78 352.499 216.226 365.755 223.148 365.522C230.069 365.289 232.458 361.163 236.737 361.098C241.016 361.032 244.059 362.37 241.857 363.384C239.658 364.4 232.498 363.185 228.878 365.897C225.259 368.609 222.363 370.239 228.671 371.94C234.978 373.641 246.497 373.528 249.091 368.757C249.204 368.55 249.312 368.351 249.414 368.16C249.25 368.558 249.091 368.757 249.091 368.757C250.227 369.515 251.793 372.903 252.864 375.49C253.011 375.927 253.253 376.538 253.614 377.367C253.759 377.742 253.872 378.046 253.952 378.259C255.858 384.03 254.068 393.682 254.068 393.682L255.409 394.134C259.035 384.518 254.225 376.14 254.225 376.14C251.176 369.543 251.682 363.986 251.682 363.986C251.682 363.986 264.39 357.863 259.231 348.179C259.234 348.179 254.997 342.167 250.176 340.392Z" fill="#AFCDFB"/>
<path d="M155.144 403.224C154.004 385.859 182.536 381.644 182.536 381.644C182.536 381.644 210.28 403.219 215.806 402.066C221.332 400.916 195.69 378.992 195.69 378.992C205.617 374.485 236.092 378.109 236.092 378.109C236.092 378.109 245.55 411.119 250.622 408.643C255.694 406.166 240.755 379.841 240.755 379.841C251.713 379.421 264.956 387.832 264.956 387.832C283.012 402.736 262.936 425.142 262.936 425.142C262.936 425.142 266.462 436.51 277.838 447.044C277.838 447.044 280.224 448.889 283.208 452.397L280.5 453.322C280.031 452.672 279.545 452.053 279.045 451.474C279.042 451.468 279.04 451.465 279.037 451.462C279.028 451.454 279.023 451.445 279.014 451.437C278.684 451.082 278.216 450.579 277.633 449.966L277.63 449.963C277.63 449.96 277.628 449.963 277.628 449.96C276.244 448.622 275.275 447.62 274.627 446.876C274.624 446.873 274.624 446.87 274.622 446.867C270.4 442.633 264.558 437.232 261.7 436.658C261.7 436.658 261.856 436.136 261.853 435.218C261.805 435.678 261.754 436.155 261.7 436.658C260.464 448.177 237.848 457.767 224.023 459.539C210.197 461.311 214.581 455.742 219.511 447.452C224.44 439.163 239.55 435.732 243.062 431.941C246.573 428.15 239.487 427.985 231.103 431.595C222.719 435.204 221.36 445.286 207.905 451.371C194.446 457.457 174.89 434.931 174.89 434.931C185.516 434.625 200.924 423.433 200.452 419.894C199.981 416.356 174.592 425.418 170.276 425.784C165.957 426.153 156.28 420.59 155.144 403.224Z" fill="#CDE0FB"/>
<path d="M689.447 91.7846C689.447 91.7846 686.407 89.49 685.62 86.0595C685.037 83.5149 686.498 80.3201 686.617 80.1752L682.543 79.363C682.543 79.363 681.335 84.7673 683.378 88.3626C684.003 89.4645 685.822 90.9809 686.989 91.5461C688.279 92.1708 689.447 91.7846 689.447 91.7846Z" fill="#6BB7BF"/>
<path d="M696.527 89.3053L700.235 93.5453C700.235 93.5453 689.757 96.3255 683.768 88.9163C683.765 88.9163 692.587 91.8981 696.527 89.3053Z" fill="#86D1CD"/>
<path d="M505.454 36.0892C505.454 36.0892 509.235 29.8159 515.909 33.6554L519.566 29.6796C519.566 29.6796 515.748 27.1521 507.673 32.6473C502.385 36.2425 505.454 36.0892 505.454 36.0892Z" fill="#F99746"/>
<path d="M501.715 42.2403C501.715 42.2403 500.445 35.4019 511.71 30.3555C511.71 30.3555 507.67 32.6472 506.826 39.5992L501.715 42.2403Z" fill="#F99746"/>
<path d="M272.133 239.722C272.133 239.722 265.939 237.283 268.371 230.731L264.257 228.059C264.257 228.059 262.569 231.858 268.715 238.257C272.732 242.445 272.133 239.722 272.133 239.722Z" fill="#5685D8"/>
<path d="M278.21 242.136C278.21 242.136 272.272 244.305 266.05 234.985C266.05 234.985 268.712 238.256 275.071 237.961L278.21 242.136Z" fill="#739AF0"/>
<path d="M289.978 153.881C289.978 153.881 293.396 151.723 293.756 149.116C293.756 149.116 297.083 149.295 297.805 150.374C297.805 150.374 296.276 154.69 294.478 155.5C294.475 155.5 290.429 155.77 289.978 153.881Z" fill="#F1A34F"/>
<path d="M65.6061 309.849C65.6061 309.849 61.9609 307.546 61.5745 304.766C61.5745 304.766 58.023 304.959 57.2559 306.109C57.2559 306.109 58.8867 310.713 60.8073 311.576C60.8102 311.576 65.1288 311.863 65.6061 309.849Z" fill="#F1A34F"/>
<path d="M474.218 106.614C474.218 106.614 469.124 103.4 468.589 99.5146C468.589 99.5146 463.629 99.7816 462.558 101.389C462.558 101.389 464.836 107.818 467.518 109.025C467.515 109.025 473.547 109.429 474.218 106.614Z" fill="#86D1CD"/>
<path d="M786.942 91.6654L818.605 190.754C820.002 195.125 817.565 199.847 813.192 201.245L639.283 256.764C634.91 258.161 630.185 255.725 628.787 251.354L597.125 152.265C595.727 147.895 598.165 143.172 602.537 141.775L776.447 86.2554C780.82 84.8554 785.544 87.292 786.942 91.6654Z" fill="#CDE0FB"/>
<path d="M686.929 217.622L640.578 232.42C638.618 233.045 636.501 231.955 635.873 229.995L635.731 229.549C635.103 227.59 636.197 225.474 638.157 224.847L684.509 210.048C686.469 209.423 688.586 210.514 689.214 212.473L689.356 212.919C689.981 214.879 688.89 216.994 686.929 217.622Z" fill="#AFCDFB"/>
<path d="M748.009 198.121L701.658 212.916C699.698 213.541 697.581 212.451 696.953 210.491L696.811 210.045C696.183 208.086 697.277 205.97 699.237 205.342L745.589 190.544C747.549 189.919 749.666 191.01 750.294 192.969L750.436 193.415C751.061 195.38 749.97 197.496 748.009 198.121Z" fill="#AFCDFB"/>
<path d="M692.84 164.647C693.379 166.337 693.527 167.814 693.283 169.08C692.976 170.679 692.05 171.724 690.501 172.218C688.953 172.712 687.592 172.397 686.415 171.273C685.481 170.381 684.745 169.092 684.205 167.402C683.665 165.712 683.515 164.244 683.75 162.989C684.057 161.39 684.989 160.342 686.549 159.845C688.109 159.348 689.476 159.66 690.652 160.785C691.572 161.671 692.303 162.958 692.84 164.647ZM690.711 165.317C690.373 164.258 689.97 163.406 689.498 162.764C688.782 161.802 688.004 161.455 687.166 161.722C686.305 161.998 685.864 162.727 685.847 163.912C685.827 164.713 685.986 165.647 686.33 166.717C687.251 169.6 688.447 170.807 689.919 170.335C690.768 170.063 691.2 169.324 691.212 168.118C691.223 167.331 691.058 166.397 690.711 165.317Z" fill="#AFCDFB"/>
<path d="M702.357 161.609C702.897 163.298 703.044 164.775 702.8 166.042C702.493 167.641 701.567 168.686 700.019 169.18C698.47 169.674 697.109 169.359 695.933 168.234C694.998 167.342 694.262 166.053 693.723 164.363C693.183 162.674 693.032 161.203 693.268 159.95C693.575 158.351 694.507 157.303 696.067 156.806C697.626 156.309 698.993 156.622 700.169 157.746C701.087 158.632 701.817 159.919 702.357 161.609ZM700.229 162.279C699.891 161.22 699.487 160.368 699.016 159.726C698.3 158.763 697.521 158.417 696.683 158.684C695.822 158.959 695.382 159.689 695.365 160.873C695.345 161.674 695.504 162.608 695.848 163.679C696.768 166.561 697.964 167.768 699.436 167.297C700.286 167.024 700.718 166.286 700.729 165.079C700.74 164.292 700.575 163.361 700.229 162.279Z" fill="#AFCDFB"/>
<path d="M716.78 157.002C717.32 158.692 717.468 160.169 717.223 161.435C716.916 163.034 715.99 164.079 714.442 164.573C712.893 165.067 711.532 164.752 710.356 163.628C709.421 162.736 708.685 161.447 708.145 159.757C707.606 158.067 707.455 156.596 707.691 155.344C707.998 153.745 708.93 152.697 710.489 152.2C712.049 151.703 713.416 152.015 714.592 153.14C715.513 154.029 716.24 155.315 716.78 157.002ZM714.652 157.675C714.314 156.616 713.907 155.764 713.439 155.122C712.723 154.159 711.944 153.813 711.106 154.08C710.245 154.355 709.805 155.085 709.788 156.27C709.768 157.07 709.927 158.005 710.271 159.075C711.191 161.958 712.387 163.165 713.859 162.693C714.709 162.421 715.141 161.682 715.152 160.475C715.163 159.689 714.999 158.754 714.652 157.675Z" fill="#AFCDFB"/>
<path d="M726.298 153.966C726.837 155.656 726.985 157.133 726.741 158.399C726.434 159.998 725.508 161.043 723.959 161.538C722.411 162.032 721.05 161.716 719.873 160.592C718.939 159.7 718.203 158.411 717.663 156.721C717.123 155.031 716.973 153.56 717.208 152.308C717.515 150.709 718.447 149.661 720.007 149.164C721.567 148.667 722.934 148.98 724.11 150.107C725.028 150.99 725.758 152.277 726.298 153.966ZM724.169 154.637C723.831 153.577 723.428 152.725 722.956 152.084C722.24 151.121 721.462 150.774 720.624 151.041C719.763 151.317 719.322 152.047 719.305 153.231C719.285 154.032 719.444 154.966 719.788 156.037C720.709 158.919 721.905 160.126 723.377 159.655C724.226 159.382 724.658 158.644 724.67 157.437C724.681 156.65 724.513 155.716 724.169 154.637Z" fill="#AFCDFB"/>
<path d="M735.816 150.928C736.356 152.617 736.503 154.094 736.259 155.361C735.952 156.959 735.026 158.005 733.478 158.499C731.929 158.993 730.568 158.678 729.392 157.553C728.457 156.661 727.721 155.372 727.182 153.682C726.642 151.993 726.491 150.524 726.727 149.269C727.034 147.67 727.966 146.622 729.526 146.125C731.085 145.628 732.452 145.941 733.628 147.068C734.546 147.951 735.276 149.238 735.816 150.928ZM733.685 151.598C733.347 150.539 732.943 149.687 732.472 149.045C731.756 148.082 730.977 147.736 730.139 148.003C729.278 148.278 728.838 149.008 728.821 150.192C728.801 150.993 728.96 151.927 729.304 152.998C730.224 155.88 731.421 157.087 732.892 156.616C733.742 156.343 734.174 155.605 734.185 154.398C734.199 153.611 734.032 152.677 733.685 151.598Z" fill="#AFCDFB"/>
<path d="M745.331 147.889C745.871 149.579 746.018 151.056 745.774 152.322C745.467 153.921 744.541 154.966 742.992 155.46C741.444 155.954 740.083 155.639 738.907 154.515C737.972 153.623 737.236 152.333 736.696 150.644C736.156 148.954 736.006 147.486 736.242 146.231C736.549 144.632 737.48 143.584 739.04 143.087C740.6 142.59 741.967 142.902 743.143 144.03C744.064 144.913 744.791 146.199 745.331 147.889ZM743.203 148.559C742.865 147.5 742.461 146.648 741.989 146.006C741.273 145.044 740.495 144.697 739.657 144.964C738.796 145.239 738.356 145.969 738.338 147.154C738.319 147.954 738.478 148.889 738.821 149.959C739.742 152.842 740.938 154.049 742.41 153.577C743.26 153.305 743.691 152.566 743.703 151.359C743.714 150.573 743.549 149.641 743.203 148.559Z" fill="#AFCDFB"/>
<path d="M759.755 143.286C760.295 144.975 760.443 146.452 760.199 147.719C759.892 149.318 758.966 150.363 757.417 150.857C755.869 151.351 754.508 151.036 753.331 149.911C752.397 149.019 751.661 147.73 751.121 146.04C750.581 144.351 750.431 142.882 750.666 141.627C750.973 140.028 751.905 138.98 753.465 138.483C755.025 137.986 756.391 138.299 757.568 139.423C758.485 140.309 759.216 141.596 759.755 143.286ZM757.625 143.956C757.286 142.897 756.88 142.045 756.411 141.403C755.695 140.44 754.917 140.094 754.079 140.361C753.218 140.636 752.777 141.366 752.76 142.55C752.74 143.351 752.9 144.285 753.243 145.356C754.164 148.238 755.36 149.445 756.832 148.974C757.681 148.701 758.113 147.963 758.125 146.756C758.136 145.969 757.971 145.035 757.625 143.956Z" fill="#AFCDFB"/>
<path d="M769.271 140.247C769.811 141.937 769.959 143.414 769.714 144.68C769.407 146.279 768.481 147.324 766.933 147.818C765.384 148.312 764.023 147.997 762.847 146.873C761.912 145.981 761.176 144.691 760.637 143.002C760.097 141.312 759.946 139.841 760.182 138.589C760.489 136.99 761.421 135.942 762.981 135.445C764.54 134.948 765.907 135.26 767.083 136.385C768.004 137.271 768.731 138.557 769.271 140.247ZM767.143 140.917C766.805 139.858 766.401 139.006 765.93 138.364C765.214 137.402 764.435 137.055 763.597 137.322C762.736 137.597 762.296 138.327 762.279 139.512C762.259 140.312 762.418 141.247 762.762 142.317C763.682 145.2 764.879 146.407 766.35 145.935C767.2 145.663 767.632 144.924 767.643 143.717C767.654 142.931 767.49 141.996 767.143 140.917Z" fill="#AFCDFB"/>
<path d="M778.789 137.208C779.329 138.898 779.476 140.375 779.232 141.641C778.925 143.24 777.999 144.285 776.45 144.779C774.902 145.274 773.541 144.958 772.365 143.834C771.43 142.942 770.694 141.653 770.154 139.963C769.614 138.273 769.464 136.802 769.7 135.55C770.007 133.951 770.938 132.903 772.498 132.406C774.058 131.909 775.425 132.222 776.601 133.349C777.519 134.232 778.249 135.519 778.789 137.208ZM776.661 137.879C776.323 136.819 775.919 135.967 775.447 135.326C774.732 134.363 773.953 134.016 773.115 134.283C772.254 134.559 771.814 135.289 771.796 136.473C771.777 137.274 771.936 138.208 772.279 139.279C773.2 142.161 774.396 143.368 775.868 142.897C776.718 142.624 777.149 141.886 777.161 140.679C777.172 139.892 777.005 138.961 776.661 137.879Z" fill="#AFCDFB"/>
<path d="M788.306 134.17C788.846 135.859 788.994 137.336 788.75 138.603C788.443 140.202 787.516 141.247 785.968 141.741C784.42 142.235 783.059 141.92 781.882 140.795C780.948 139.903 780.212 138.614 779.672 136.924C779.132 135.235 778.981 133.764 779.217 132.511C779.524 130.912 780.456 129.864 782.016 129.367C783.576 128.87 784.942 129.183 786.119 130.307C787.036 131.194 787.766 132.48 788.306 134.17ZM786.175 134.84C785.837 133.781 785.434 132.929 784.962 132.287C784.246 131.324 783.468 130.978 782.63 131.245C781.769 131.52 781.328 132.25 781.311 133.434C781.291 134.235 781.45 135.169 781.794 136.24C782.715 139.122 783.911 140.329 785.383 139.858C786.232 139.585 786.664 138.847 786.675 137.64C786.687 136.853 786.522 135.922 786.175 134.84Z" fill="#AFCDFB"/>
<path d="M660.972 139.81L615.613 154.29C613.652 154.918 611.536 153.824 610.908 151.865C610.283 149.905 611.374 147.79 613.334 147.162L658.694 132.682C660.654 132.057 662.771 133.147 663.399 135.107C664.024 137.069 662.933 139.185 660.972 139.81Z" fill="#AFCDFB"/>
<path d="M771.145 112.998C770.73 111.703 769.901 110.658 768.847 109.96C768.54 109.755 768.125 109.866 767.96 110.195L767.818 110.479C767.682 110.752 767.764 111.087 768.017 111.258C768.779 111.769 769.378 112.53 769.679 113.467C769.98 114.407 769.932 115.372 769.608 116.23C769.5 116.517 769.625 116.838 769.898 116.98L770.179 117.128C770.503 117.298 770.907 117.147 771.037 116.804C771.489 115.625 771.56 114.291 771.145 112.998Z" fill="#AFCDFB"/>
<path d="M774.083 112.059C773.404 109.931 771.986 108.239 770.208 107.177C769.907 106.998 769.515 107.117 769.355 107.432L769.273 107.594C769.128 107.881 769.233 108.23 769.509 108.395C770.995 109.292 772.177 110.71 772.745 112.487C773.313 114.265 773.174 116.102 772.484 117.696C772.356 117.991 772.469 118.337 772.756 118.488L772.915 118.573C773.225 118.738 773.617 118.607 773.759 118.286C774.592 116.386 774.765 114.188 774.083 112.059Z" fill="#AFCDFB"/>
<path d="M776.661 111.238C775.751 108.392 773.834 106.14 771.424 104.754C771.12 104.581 770.734 104.7 770.575 105.013C770.43 105.302 770.535 105.655 770.816 105.816C772.97 107.055 774.683 109.065 775.496 111.61C776.308 114.154 776.078 116.787 775.041 119.042C774.905 119.337 775.024 119.683 775.311 119.837C775.621 119.999 776.007 119.874 776.152 119.556C777.311 117.028 777.57 114.083 776.661 111.238Z" fill="#AFCDFB"/>
<path d="M779.45 110.346C778.291 106.719 775.828 103.868 772.742 102.139C772.438 101.968 772.052 102.085 771.893 102.397L771.754 102.676C771.606 102.968 771.714 103.323 771.998 103.482C774.751 105.03 776.947 107.577 777.982 110.815C779.016 114.052 778.703 117.4 777.357 120.254C777.217 120.55 777.337 120.902 777.624 121.052L777.899 121.197C778.209 121.359 778.592 121.231 778.74 120.916C780.255 117.724 780.607 113.973 779.45 110.346Z" fill="#AFCDFB"/>
<path d="M662.416 177.702H563.403V462.765H662.416V177.702Z" fill="#FFA412"/>
<path d="M563.404 177.702H301.823V462.765H563.404V177.702Z" fill="#FFB93E"/>
<path d="M563.403 337.104V317.151L301.823 317.151V337.104L563.403 337.104Z" fill="#FFA412"/>
<path d="M662.417 337.104V317.151H563.404V337.104H662.417Z" fill="#FA9712"/>
<path d="M482.174 180.758C482.174 180.758 541.271 142.374 581.442 154.708L573.155 162.443L576.888 175.444C576.888 175.444 532.219 160.904 480.952 182.944L482.174 180.758Z" fill="#F99746"/>
<path d="M478.87 172.065C478.87 172.065 468.442 170.804 452.901 168.668C411.644 162.994 334.366 151.129 320.496 140.148C298.701 122.895 350.345 49.6297 372.703 39.4601C395.057 29.2991 478.87 172.065 478.87 172.065Z" fill="#F99746"/>
<path d="M642.371 80.8284C646.096 98.9809 477.335 177.395 477.335 177.395C477.335 177.395 480.406 169.097 485.401 156.102C485.401 156.102 485.41 156.091 485.415 156.079C503.659 108.622 547.615 -1.50787 562.057 0.0171425C563.508 0.167655 565.205 0.687351 567.1 1.51659C589.284 11.2715 638.939 64.113 642.371 80.8284Z" fill="#F99746"/>
<path d="M565.677 17.6556C555.372 35.5496 486.49 154.23 485.413 156.079C503.659 108.622 547.615 -1.50787 562.057 0.0171425C562.057 0.0171425 564.918 -0.0652137 567.1 1.51659C569.734 3.4335 571.368 7.77282 565.677 17.6556Z" fill="#ED7D2B"/>
<path d="M452.929 168.668H452.901C411.644 162.994 334.366 151.129 320.495 140.147C314.233 122.515 330.482 121.078 342.31 119.837C354.127 118.593 452.929 168.668 452.929 168.668Z" fill="#ED7D2B"/>
<path d="M447.395 177.679C447.395 177.679 456.856 156.167 475.474 154.977C494.922 153.733 505.966 177.679 505.966 177.679H447.395Z" fill="#ED7D2B"/>
<path d="M567.6 177.702H293.894V216.909H567.6V177.702Z" fill="#FFC261"/>
<path d="M670.763 177.702H567.6V216.909H670.763V177.702Z" fill="#FA9712"/>
<path d="M456.981 174.419C456.981 174.419 403.374 157.445 367.2 168.668C325.502 181.604 327.974 233.028 327.974 233.028L337.782 228.998L351.022 235.206C351.022 235.206 353.255 180.752 387.25 173.127C416.642 166.536 456.981 174.419 456.981 174.419Z" fill="#F99746"/>
<path d="M429.481 177.702H409.519V462.734H429.481V177.702Z" fill="#FFA412"/>
<path d="M246.239 92.128L227.911 98.2678L245.603 151.03L263.931 144.89L246.239 92.128Z" fill="#ED7D2B"/>
<path d="M227.913 98.2672L179.496 114.487L197.188 167.249L245.605 151.029L227.913 98.2672Z" fill="#F99746"/>
<path d="M237.789 127.776L236.551 124.084L188.134 140.304L189.372 143.996L237.789 127.776Z" fill="#FFB93E"/>
<path d="M256.116 121.64L254.878 117.948L236.55 124.088L237.788 127.78L256.116 121.64Z" fill="#F69B34"/>
<path d="M214.533 101.843C214.533 101.843 227.117 90.1375 238.322 89.2288L236.72 91.3019L238.578 93.392C238.578 93.392 226.063 94.2496 214.368 102.34L214.533 101.843Z" fill="#FFB93E"/>
<path d="M211.905 102.466C211.905 102.466 209.897 102.88 206.888 103.448C198.898 104.956 183.86 107.552 180.612 106.379C175.507 104.539 180.519 87.7749 184.028 84.5062C187.534 81.2375 211.905 102.466 211.905 102.466Z" fill="#FFB93E"/>
<path d="M236.505 75.4418C238.32 78.5714 211.951 103.548 211.951 103.548C211.951 103.548 212.005 101.821 212.122 99.1064C212.122 99.1064 212.122 99.1036 212.122 99.1008C212.554 89.1868 213.855 66.0759 216.622 65.4625C216.901 65.4001 217.247 65.3915 217.648 65.4285C222.364 65.8573 234.834 72.5594 236.505 75.4418Z" fill="#FFB93E"/>
<path d="M218.39 68.5034C217.594 72.4536 212.21 98.6912 212.125 99.1001C212.557 89.1861 213.858 66.0753 216.625 65.4619C216.625 65.4619 217.151 65.2688 217.651 65.4278C218.259 65.6181 218.83 66.3224 218.39 68.5034Z" fill="#F69B34"/>
<path d="M206.894 103.445L206.888 103.448C198.899 104.956 183.86 107.551 180.613 106.379C178.36 103.502 181.278 102.229 183.389 101.267C185.5 100.301 206.894 103.445 206.894 103.445Z" fill="#F69B34"/>
<path d="M206.431 105.456C206.431 105.456 206.845 100.886 210.218 99.5119C213.741 98.075 217.27 101.824 217.27 101.824L206.431 105.456Z" fill="#F69B34"/>
<path d="M228.687 98.0088L178.026 114.98L180.46 122.237L231.121 105.266L228.687 98.0088Z" fill="#FFA15A"/>
<path d="M247.783 91.6108L228.688 98.0078L231.121 105.265L250.216 98.8678L247.783 91.6108Z" fill="#F78639"/>
<path d="M208.002 104.257C208.002 104.257 197.026 104.439 191.028 108.759C184.113 113.737 187.764 123.103 187.764 123.103L189.329 121.748L192.165 122.078C192.165 122.078 189.199 111.86 195.017 108.341C200.046 105.3 208.002 104.257 208.002 104.257Z" fill="#FFBE55"/>
<path d="M203.12 106.575L199.427 107.812L217.271 161.029L220.965 159.792L203.12 106.575Z" fill="#FFB93E"/>
<path d="M565.472 207.944C565.472 207.944 558.224 212.212 562.67 220.479C562.67 220.479 556.326 219.317 554.957 217.426C554.957 217.426 555.116 218.215 555.352 218.613C555.352 218.613 549.519 217.293 547.609 214.859C545.7 212.425 555.059 183.282 570.222 190.831C570.222 190.831 584.087 193.401 578.658 208.787C573.228 224.174 578.36 225.531 578.36 225.531C578.36 225.531 576.746 225.858 576.058 225.673C576.058 225.673 575.152 225.023 575.101 224.412C575.101 224.412 575.067 225.338 575.254 225.684C575.254 225.684 569.575 224.742 567.361 221.922C565.148 219.102 563.824 210.98 565.472 207.944Z" fill="#233862"/>
<path d="M555.007 232.713C554.999 232.716 554.99 232.719 554.982 232.721C554.936 232.719 554.945 232.713 555.007 232.713Z" fill="#FFB27D"/>
<path d="M572.623 227.647C572.836 229.555 573.092 231.265 573.203 232.08C573.459 233.906 556.113 232.719 555.008 232.716C555.778 232.381 558.13 224.921 558.878 222.078C559.781 218.627 560.488 214.899 560.488 214.899L572.734 215.671L573.461 215.717C573.01 217.386 572.689 218.963 572.464 220.425C572.436 220.621 572.407 220.823 572.382 221.016C572.16 222.634 572.359 225.29 572.623 227.647Z" fill="#FFB27D"/>
<path d="M558.798 213.66C558.798 213.66 556.812 207.367 557.215 202.539C557.502 199.095 562.409 187.34 574.208 192.341C574.208 192.341 577.678 193.634 580.428 196.78C582.616 199.282 585.428 204.181 578.314 213.686L576.246 216.986L558.798 213.66Z" fill="#233862"/>
<path d="M572.623 227.647C564.057 225.139 560.42 215.248 560.42 215.248C564.042 215.353 568.765 217.869 572.467 220.422C572.438 220.618 572.41 220.82 572.384 221.013C572.16 222.634 572.359 225.29 572.623 227.647Z" fill="#ED975D"/>
<path d="M573.229 224.171C573.229 224.171 557.753 220.348 560.281 210.749C562.813 201.154 562.52 194.196 572.507 196.229C582.497 198.265 583.443 202.431 583.377 205.839C583.312 209.25 577.32 224.918 573.229 224.171Z" fill="#FFB27D"/>
<path d="M579.589 197.854C579.589 197.854 572.389 207.992 565.471 207.944C558.556 207.895 556.206 205.416 556.206 205.416C556.206 205.416 562.218 202.786 565.071 196.175C565.071 196.175 577.825 191.654 579.589 197.854Z" fill="#233862"/>
<path d="M578.3 198.49C578.3 198.49 580.786 201.838 580.905 204.482C581.027 207.129 580.039 212.249 581.553 212.468C581.553 212.468 586.758 205.658 584.332 200.384C581.76 194.795 578.3 198.49 578.3 198.49Z" fill="#233862"/>
<path d="M578.785 199.026C578.785 199.026 572.657 210.02 563.488 211.633C563.488 211.633 573.577 206.552 576.33 198.955C579.084 191.356 578.785 199.026 578.785 199.026Z" fill="#233862"/>
<path d="M570.813 218.019C570.813 218.019 571.007 219.482 571.939 219.826C572.87 220.172 575.345 220.797 575.598 220.643C575.848 220.487 576.777 219.348 576.777 219.348C576.777 219.348 572.873 217.852 570.813 218.019Z" fill="white"/>
<path d="M565.034 364.826C564.838 365.647 564.642 366.459 564.446 367.266C563.278 372.114 562.193 376.606 561.508 380.366C560.619 385.262 560.409 388.903 561.576 390.433C566.384 396.732 561.576 446.723 561.576 446.723L556.107 452.354C556.107 452.354 546.598 403 544.018 395.267C542.844 391.751 541.137 376.737 539.628 361.407C539.551 360.64 539.478 359.874 539.404 359.107C539.142 356.426 538.892 353.754 538.648 351.15C537.296 336.646 536.281 324.228 536.281 324.228C536.281 324.228 546.367 317.139 555.533 316.35C560.931 315.878 566.011 317.597 568.517 324.228C572.171 333.875 568.469 350.533 565.034 364.826Z" fill="#FFB27D"/>
<path d="M565.034 364.826C557.539 359.416 546.996 349.789 543.169 334.005C542.436 326.159 548.626 318.704 555.533 316.347C560.932 315.876 566.012 317.594 568.518 324.225C572.171 333.875 568.469 350.533 565.034 364.826Z" fill="#ED975D"/>
<path d="M592.366 269.504L629.199 279.014V283.314C629.199 283.314 592.545 282.885 590.181 278.804C587.814 274.718 592.366 269.504 592.366 269.504Z" fill="#FFB27D"/>
<path d="M629.197 411.196L627.475 418.301C627.475 418.301 577.649 392.578 571.205 387.639C568.617 385.654 565.196 374.877 562.028 362.682C557.309 344.51 553.149 323.194 553.149 323.194C553.149 323.194 560.136 296.343 578.831 312.777C590.02 322.612 588.281 341.562 587.053 356.298C586.238 366.187 585.65 374.181 589.361 376.254C596.597 380.292 617.835 398.891 624.557 411.684L629.197 411.196Z" fill="#FFB27D"/>
<path d="M544.677 291.842C531.664 288.534 517.361 268.354 517.361 268.354L521.026 265.176C524.819 269.646 540.591 277.345 540.591 277.345C540.506 273.252 540.614 269.524 540.872 266.127C542.622 243.045 551.328 235.357 553.703 233.667C554.087 233.395 554.305 233.278 554.305 233.278C554.305 233.278 554.314 233.446 554.328 233.764C554.362 234.448 554.425 235.831 554.49 237.728C554.973 251.86 555.55 294.611 544.677 291.842Z" fill="#FFB27D"/>
<path d="M554.982 264.142C554.309 280.608 551.842 296.914 544.671 295.863C535.881 294.58 533.591 286.378 533.122 280.281C532.832 276.487 533.25 273.508 533.25 273.508C533.25 273.508 537.577 273.488 538.276 272.843C541.6 269.776 540.611 239.685 542.256 236.561C543.901 233.437 554.576 231.432 554.576 231.432C554.576 231.432 555.652 247.867 554.982 264.142Z" fill="white"/>
<path d="M554.982 264.142C554.309 280.607 551.843 296.914 544.672 295.863C535.881 294.579 533.591 286.378 533.122 280.281C535.281 280.173 539.08 279.645 540.592 277.344C542.754 274.05 549.499 252.839 549.499 252.839C549.499 252.839 552.15 257.602 554.982 264.142Z" fill="#DFEBFD"/>
<path d="M610.442 269.504C612.826 272.886 611.513 279.446 606.515 284.725C603.413 288.005 599.208 289.945 592.366 288.937C589.383 288.497 581.052 283.797 580.175 278.063C580.018 277.023 579.93 276.416 579.93 276.416C579.93 276.416 576.137 280.213 575.995 280.928C575.93 281.252 575.603 284.12 575.552 284.512C575.492 284.986 575.83 286.727 575.83 286.727C575.83 286.727 557.706 294.651 542.725 285.628C542.725 285.628 538.452 249.037 541.52 242.948C543.046 239.923 551.598 234.031 554.575 231.429C555.243 230.844 555.925 229.081 555.74 227.942C555.59 226.982 556.695 225.363 557.621 225.659C559.411 226.232 564.48 228.737 568.045 227.783C569.821 227.312 572.074 225.258 573.796 225.73C575.901 226.303 573.677 231.367 574.87 231.432C576.512 231.512 585.388 233.287 586.135 234.718C586.394 235.215 588.945 241.968 592.142 250.902C592.142 250.902 592.144 250.908 592.147 250.925C598.142 267.683 606.944 264.539 610.442 269.504Z" fill="white"/>
<path d="M579.93 276.413C579.93 276.413 579.49 262.455 578.362 262.625C577.234 262.796 560.954 278.458 564.824 284.725C568.688 290.99 579.93 276.413 579.93 276.413Z" fill="#DFEBFD"/>
<path d="M592.366 333.645C592.366 333.645 586.093 335.582 576.847 336.86C565.403 338.441 549.404 339.012 535.116 333.645C535.116 333.645 533.94 312.394 537.323 301.316C540.71 290.235 542.293 284.935 542.293 284.935C542.293 284.935 555.857 288.335 569.631 285.699C571.566 285.333 573.503 284.842 575.41 284.206C575.41 284.206 583.908 302.239 586.243 309.966C588.579 317.693 592.366 333.645 592.366 333.645Z" fill="#2B478B"/>
<path d="M592.366 333.645C592.366 333.645 586.093 335.582 576.848 336.86C559.897 327.252 568.162 286.83 568.162 286.83C568.665 286.421 569.157 286.046 569.631 285.699C571.566 285.333 573.504 284.842 575.41 284.206C575.41 284.206 583.908 302.239 586.244 309.966C588.579 317.693 592.366 333.645 592.366 333.645Z" fill="#233862"/>
<path d="M556.698 288.937C546.649 288.937 542.509 285.481 542.202 285.245L541.552 280.514C541.648 280.585 555.13 288.678 575.996 280.928L575.552 284.512C567.529 287.491 561.915 288.937 556.698 288.937Z" fill="#B64C41"/>
<path d="M629.2 279.011C629.2 279.011 635.957 275.683 638.644 275.362C641.332 275.041 645.844 274.933 645.844 275.362C645.844 275.791 641.008 278.796 639.718 279.011C638.428 279.23 635.957 281.056 636.709 281.269C637.462 281.485 641.437 280.57 641.491 281.269C641.545 281.968 639.073 282.397 638.644 282.933C638.215 283.47 636.709 284.115 634.292 283.794C631.874 283.473 629.2 283.311 629.2 283.311V279.011Z" fill="#FFB27D"/>
<path d="M521.018 265.167L517.345 268.368C517.345 268.368 510.818 263.602 510.506 261.651V261.455C510.506 259.425 514.648 255.205 518.086 255.049C518.439 255.049 518.751 255.128 519.024 255.284C520.857 256.429 521.072 261.203 521.058 263.67C521.053 264.571 521.018 265.167 521.018 265.167Z" fill="#FFB27D"/>
<path d="M629.197 411.196L627.475 418.301C627.475 418.301 577.649 392.578 571.205 387.639C568.617 385.654 565.196 374.877 562.028 362.683C566.282 363.554 575.464 364.02 587.056 356.299C586.241 366.187 585.653 374.181 589.363 376.254C596.6 380.293 617.838 398.891 624.56 411.685L629.197 411.196Z" fill="#2B478B"/>
<path d="M639.048 413.953C639.048 413.953 639.034 413.95 639.002 413.942C638.778 413.885 637.755 413.547 637.076 411.92C636.627 410.847 636.494 409.966 636.084 408.904L634.403 406.002C632.644 403.684 632.024 404.227 632.024 404.227C632.024 404.227 631.564 404.817 630.885 405.593C629.763 406.876 628.041 408.665 626.822 409.126C625.956 409.449 625.416 409.989 625.081 410.486C624.657 411.113 624.561 411.679 624.561 411.679C624.561 411.679 628.175 412.309 627.859 414.087C627.246 417.532 627.39 418.156 627.453 418.27L627.476 418.293C627.476 418.293 633.638 421.516 635.607 422.149C639.113 423.271 640.946 425.654 642.082 426.741C642.542 427.181 643.179 427.386 643.807 427.284C644.73 427.139 645.929 426.841 646.193 426.276L639.048 413.953Z" fill="#233862"/>
<path d="M561.576 390.434C566.383 396.732 561.576 446.723 561.576 446.723L556.107 452.354C556.107 452.354 546.597 403 544.018 395.267C542.844 391.751 541.137 376.737 539.628 361.407C544.185 363.441 555.308 367.868 564.446 367.266C563.278 372.114 562.193 376.606 561.508 380.366C560.619 385.262 560.411 388.903 561.576 390.434Z" fill="#233862"/>
<path d="M567.077 454.859L564.125 456.455C563.051 456.836 562.167 456.943 561.082 457.361C559.434 457.991 558.272 459.232 558.218 459.457C557.386 462.839 556.204 462.626 556.204 462.626L544.347 462.737C543.788 462.458 544.737 460.064 545.191 459.619C546.314 458.514 549.666 459.071 550.891 455.6C551.581 453.649 554.982 447.586 554.982 447.586L555.005 447.566C555.118 447.507 555.749 447.382 559.176 448.092C560.946 448.458 561.679 444.865 561.679 444.865C561.679 444.865 562.241 444.976 562.858 445.419C563.347 445.766 563.869 446.322 564.168 447.197C564.591 448.427 566.333 450.199 567.583 451.357C568.341 452.059 568.918 452.536 568.918 452.536C568.918 452.536 569.444 453.166 567.077 454.859Z" fill="#233862"/>
<path d="M447.884 318.153H397.529V463.126H447.884V318.153Z" fill="#4A75CB"/>
<path d="M397.528 318.153H264.498V463.126H397.528V318.153Z" fill="#739AF0"/>
<path d="M397.528 399.219V389.072H264.498V399.219H397.528Z" fill="#AFCDFB"/>
<path d="M447.884 399.218V389.071H397.529V399.218H447.884Z" fill="#88B3FF"/>
<path d="M361.542 315.924C361.542 315.924 402.327 297.422 430.753 304.451L425.077 308.248L427.938 314.95C427.938 314.95 396.31 306.709 360.724 317.017L361.542 315.924Z" fill="#4A75CB"/>
<path d="M354.556 315.214C354.556 315.214 349.254 314.572 341.35 313.487C320.367 310.602 281.068 304.567 274.013 298.981C262.93 290.209 289.194 252.947 300.564 247.776C311.932 242.607 354.556 315.214 354.556 315.214Z" fill="#72A9F7"/>
<path d="M437.706 268.813C439.601 278.043 353.774 317.923 353.774 317.923C353.774 317.923 355.337 313.703 357.877 307.095C357.877 307.095 357.88 307.089 357.886 307.083C367.165 282.947 389.517 226.939 396.864 227.715C397.603 227.791 398.466 228.056 399.43 228.476C410.709 233.44 435.962 260.314 437.706 268.813Z" fill="#72A9F7"/>
<path d="M398.702 236.686C393.46 245.788 358.431 306.143 357.883 307.083C367.162 282.947 389.514 226.939 396.861 227.715C396.861 227.715 398.316 227.672 399.427 228.476C400.765 229.453 401.597 231.662 398.702 236.686Z" fill="#4A75CB"/>
<path d="M341.364 313.487H341.35C320.368 310.602 281.068 304.567 274.014 298.981C270.829 290.013 279.094 289.283 285.108 288.653C291.115 288.019 341.364 313.487 341.364 313.487Z" fill="#4A75CB"/>
<path d="M338.548 318.071C338.548 318.071 343.358 307.132 352.828 306.524C362.718 305.891 368.335 318.071 368.335 318.071H338.548Z" fill="#4A75CB"/>
<path d="M399.663 318.153H260.467V338.092H399.663V318.153Z" fill="#88B3FF"/>
<path d="M452.129 318.153H399.663V338.092H452.129V318.153Z" fill="#3969B7"/>
<path d="M343.407 316.483C343.407 316.483 316.143 307.85 297.746 313.558C276.542 320.135 277.798 346.291 277.798 346.291L282.785 344.24L289.518 347.398C289.518 347.398 290.655 319.704 307.943 315.827C322.891 312.476 343.407 316.483 343.407 316.483Z" fill="#4A75CB"/>
<path d="M329.42 318.153H319.269V464.375H329.42V318.153Z" fill="#AFCDFB"/>
<path d="M103.405 258.627C103.405 258.627 140.9 286.094 150.074 285.429C159.246 284.768 191.729 264.732 191.729 264.732L184.856 256.565C184.856 256.565 155.439 267.459 150.052 264.457C144.665 261.452 123.626 235.959 114.798 237.319C105.971 238.682 97.2509 248.752 103.405 258.627Z" fill="#233862"/>
<path d="M81.2922 465H70.0837C68.6716 464.233 67.4158 462.481 67.018 459.865C66.4697 456.256 62.4238 454.288 61.5487 451.334C60.6736 448.384 65.1599 444.229 65.1599 444.229L65.91 443.263L66.6913 442.261L74.1296 444.013C74.1296 444.013 74.3142 445.785 74.425 448.04C74.5074 449.667 74.55 451.547 74.4563 453.197C74.2375 457.133 75.5587 461.373 79.0562 462.14C81.6445 462.702 81.528 464.239 81.2922 465Z" fill="#233862"/>
<path d="M146.345 465H120.711C119.478 463.495 119.933 457.946 120.12 456.134C120.16 455.768 120.186 455.557 120.186 455.557C120.186 455.557 128.939 448.56 130.141 453.919C130.178 454.086 130.224 454.251 130.272 454.413C131.786 459.425 138.582 461.703 142.506 462.336C145.052 462.751 145.995 464.074 146.345 465Z" fill="#233862"/>
<path d="M141.461 321.981C141.461 321.981 140.131 338.558 138.568 358.482C136.446 385.549 133.892 418.795 133.639 425.094C133.201 436.031 131.451 453.524 131.451 453.524C131.451 453.524 127.297 457.679 118.981 455.929C118.981 455.929 111.571 430.956 109.454 404.534C109.42 404.102 109.389 403.665 109.355 403.227C107.386 376.328 104.323 319.687 104.323 319.687L141.461 321.981Z" fill="#F99746"/>
<path d="M141.46 321.981C141.46 321.981 140.131 338.558 138.568 358.482L109.452 404.531C109.417 404.099 109.386 403.662 109.352 403.224C107.383 376.325 104.32 319.684 104.32 319.684L141.46 321.981Z" fill="#ED7D2B"/>
<path d="M135.389 323.949C135.389 323.949 111.432 383.978 95.6773 412.19C79.9258 440.401 75.002 448.273 75.002 448.273C75.002 448.273 65.9755 444.664 65.1572 442.204C65.1572 442.204 71.1806 387.741 81.7299 374.465C87.6907 366.962 94.6943 344.45 95.021 336.575C95.3506 328.703 97.1548 313.121 97.1548 313.121L135.389 323.949Z" fill="#F99746"/>
<path d="M119.597 238.475C110.656 242.528 93.6201 236.552 93.6201 236.552C93.6201 236.552 101.414 229.092 99.3536 215.779L107.238 220.703L112.594 224.046C112.594 224.046 112.852 226.366 112.81 230.492C112.798 231.577 112.767 232.79 112.702 234.119C116.955 235.828 119.597 238.475 119.597 238.475Z" fill="#FFB27D"/>
<path d="M112.593 224.045C112.593 224.045 112.852 226.366 112.809 230.492C107.289 230.216 100.098 222.217 100.098 222.217C102.757 221.089 105.149 220.658 107.238 220.7L112.593 224.045Z" fill="#ED975D"/>
<path d="M115.409 223.483C115.409 223.483 100.365 227.882 97.768 218.474C95.1712 209.065 91.4805 203.298 100.979 200.091C110.474 196.885 113.341 199.958 114.971 202.889C116.599 205.819 119.256 222.098 115.409 223.483Z" fill="#FFB27D"/>
<path d="M142.392 316.069C142.861 320.405 143.079 323.106 142.974 323.211C142.721 323.478 142.415 323.657 142.042 323.702C138.548 324.077 128.603 327.238 119.884 327.394C112.539 327.573 105.854 326.196 98.5777 323.935C97.6145 323.637 95.3671 322.765 95.2933 321.734C95.1881 320.613 95.1029 318.971 94.9949 316.907C94.6256 309.727 94.0005 297.38 91.4662 283.351C91.0002 280.741 90.611 278.137 90.2899 275.569C87.909 256.432 89.6762 239.134 96.6201 232.511C97.2168 231.966 101.456 233.44 105.351 234.809C108.954 236.075 112.372 235.854 115.506 234.814L119.06 237.265C123.41 240.423 128.285 244.842 131.05 252.106C133.405 258.289 135.718 269.668 137.667 281.513C138.548 286.883 139.394 292.305 140.062 297.462L140.085 297.647C140.193 298.152 140.261 298.714 140.323 299.226C140.448 300.143 140.565 301.043 140.684 301.929C141.403 307.441 141.988 312.357 142.392 316.069Z" fill="#2B478B"/>
<path d="M97.6428 217.554C97.6428 217.554 99.1855 217.099 98.6713 214.961C98.157 212.822 97.8161 209.988 99.6458 210.304C101.476 210.619 101.731 212.022 102.356 211.11C102.981 210.198 102.575 206.722 107.797 205.848C113.019 204.973 115.372 206.544 117.685 205.175C119.997 203.809 119.679 200.1 119.679 200.1C119.679 200.1 119.145 201.503 118.145 202.048C118.145 202.048 121.546 195.991 116.372 192.739C111.195 189.49 106.689 192.569 103.979 193.063C98.0093 194.15 94.1708 194.98 92.682 199.166C91.1961 203.352 93.327 214.217 97.6428 217.554Z" fill="#2B478B"/>
<path d="M142.392 316.069C141.653 316.205 128.822 318.508 120.1 312.763C111.119 306.85 100.598 271.792 100.598 271.792C100.598 271.792 120.77 294.216 121.162 295.102C121.489 295.846 136.039 300.469 140.678 301.932C141.403 307.441 141.988 312.357 142.392 316.069Z" fill="#233862"/>
<path d="M246.935 203.563L147.146 204.979L148.563 304.722L248.352 303.306L246.935 203.563Z" fill="#ED7D2B"/>
<path d="M225.64 203.866L125.851 205.282L127.268 305.026L227.058 303.609L225.64 203.866Z" fill="#F99746"/>
<path d="M138.934 235.905C138.8 226.491 145.255 218.789 154.961 218.65C164.57 218.514 171.147 225.934 171.284 235.445C171.417 244.765 164.962 252.561 155.256 252.7C145.647 252.836 139.07 245.416 138.934 235.905ZM193.982 218.857L205.304 218.695L157.634 285.958L146.312 286.12L193.982 218.857ZM161.294 235.587C161.231 231.117 158.7 227.252 154.896 227.306C150.901 227.363 148.861 231.197 148.926 235.76C148.989 240.23 151.52 244.092 155.325 244.038C159.319 243.985 161.356 240.057 161.294 235.587ZM180.33 269.367C180.196 259.953 186.652 252.251 196.357 252.112C205.966 251.976 212.543 259.396 212.68 268.907C212.813 278.228 206.358 286.023 196.653 286.162C187.044 286.299 180.466 278.878 180.33 269.367ZM202.69 269.049C202.628 264.579 200.096 260.717 196.292 260.771C192.294 260.828 190.257 264.662 190.322 269.225C190.385 273.695 192.916 277.56 196.721 277.506C200.715 277.45 202.753 273.519 202.69 269.049Z" fill="white"/>
<path d="M176.12 308.177C172.75 308.114 168.432 306.666 167.045 305.979C164.704 304.814 163.511 303.687 163.511 303.687L163.866 301.469L164.292 298.822C164.292 298.822 164.553 298.78 164.985 298.737C165.414 298.691 166.022 298.646 166.707 298.635C166.707 298.635 167.815 298.97 168.733 298.152C169.648 297.334 171.335 296.78 172.614 297.084C173.89 297.391 176.634 297.104 176.722 297.553C176.938 298.632 172.938 298.436 172.472 299.112C172.049 299.725 172.435 300.137 172.512 300.214C172.517 300.217 172.523 300.222 172.529 300.228C174.87 302.588 182.927 303.445 182.606 305.317C182.481 306.013 177.543 308.205 176.12 308.177Z" fill="#FFB27D"/>
<path d="M94.456 258.363C94.456 258.363 112.912 301.009 121.16 305.073C129.408 309.137 167.046 305.979 167.046 305.979L167.293 298.7C167.293 298.7 134.878 292.282 131.75 286.969C128.621 281.655 123.368 249.028 115.063 245.739C106.758 242.454 94.1406 246.733 94.456 258.363Z" fill="#2B478B"/>
<path d="M747.189 372.528C746.78 372.778 746.365 373.019 745.945 373.249C745.803 373.329 745.658 373.406 745.516 373.48C745.189 373.653 744.862 373.82 744.533 373.985C728.744 381.735 709.486 375.785 700.903 360.226C692.718 345.382 697.116 326.997 710.549 317.341C711.62 316.571 712.748 315.856 713.933 315.205C714.359 314.973 714.785 314.745 715.217 314.535C715.635 314.328 716.058 314.129 716.481 313.942C717.78 313.362 719.098 312.877 720.431 312.476C722.411 311.88 724.42 311.479 726.434 311.266C732.679 310.605 738.964 311.746 744.535 314.47C750.448 317.358 755.559 322.032 758.977 328.229C767.58 343.837 762.276 363.355 747.189 372.528Z" fill="#FFB93E"/>
<path d="M730.154 374.769C719.135 374.769 708.987 368.782 703.674 359.147C699.778 352.084 698.869 343.928 701.111 336.181C703.353 328.433 708.478 322.024 715.544 318.13C720.005 315.674 725.039 314.373 730.102 314.373C741.121 314.373 751.269 320.36 756.582 329.995C760.478 337.058 761.387 345.214 759.145 352.961C756.904 360.709 751.778 367.118 744.712 371.012C740.248 373.471 735.217 374.769 730.154 374.769ZM730.1 316.174C725.341 316.174 720.607 317.395 716.414 319.707C709.768 323.367 704.949 329.396 702.841 336.68C700.733 343.965 701.588 351.635 705.251 358.278C710.248 367.34 719.789 372.968 730.154 372.968C734.913 372.968 739.646 371.747 743.84 369.436C750.485 365.775 755.304 359.746 757.412 352.462C759.52 345.177 758.665 337.507 755.003 330.864C750.005 321.802 740.464 316.174 730.1 316.174Z" fill="#FFA412"/>
<path d="M730.127 322.339L736.787 335.831L751.683 337.995L740.904 348.497L743.45 363.327L730.127 356.324L716.802 363.327L719.348 348.497L708.568 337.995L723.465 335.831L730.127 322.339Z" fill="#FFA412"/>
<path d="M767.057 291.879C766.827 292.021 766.591 292.154 766.355 292.288C766.276 292.333 766.193 292.376 766.114 292.418C765.929 292.518 765.745 292.611 765.56 292.702C756.65 297.076 745.779 293.719 740.935 284.935C736.315 276.558 738.799 266.181 746.379 260.731C746.984 260.297 747.621 259.893 748.288 259.524C748.527 259.391 748.771 259.266 749.013 259.146C749.249 259.03 749.487 258.916 749.726 258.811C750.459 258.485 751.203 258.209 751.953 257.985C753.07 257.65 754.204 257.423 755.34 257.303C758.866 256.931 762.412 257.573 765.557 259.112C768.893 260.742 771.779 263.381 773.708 266.879C778.564 275.686 775.572 286.702 767.057 291.879Z" fill="#FFB93E"/>
<path d="M757.442 293.145C751.223 293.145 745.495 289.766 742.498 284.327C740.299 280.34 739.784 275.737 741.052 271.366C742.316 266.993 745.211 263.375 749.197 261.177C751.714 259.791 754.556 259.055 757.414 259.055C763.633 259.055 769.361 262.435 772.359 267.873C774.558 271.86 775.072 276.464 773.805 280.834C772.54 285.208 769.645 288.826 765.659 291.021C763.139 292.413 760.298 293.145 757.442 293.145ZM757.411 260.075C754.726 260.075 752.055 260.765 749.686 262.069C745.936 264.136 743.214 267.538 742.026 271.65C740.838 275.762 741.319 280.09 743.387 283.839C746.208 288.954 751.592 292.131 757.442 292.131C760.127 292.131 762.798 291.441 765.168 290.138C768.918 288.07 771.64 284.668 772.827 280.556C774.018 276.444 773.535 272.116 771.467 268.367C768.645 263.25 763.261 260.075 757.411 260.075Z" fill="#FFA412"/>
<path d="M757.429 263.554L761.188 271.168L769.595 272.389L763.512 278.316L764.946 286.688L757.429 282.734L749.908 286.688L751.343 278.316L745.26 272.389L753.667 271.168L757.429 263.554Z" fill="#FFA412"/>
<path d="M446.104 49.5244C445.968 49.6919 445.826 49.8566 445.681 50.0185C445.633 50.0725 445.581 50.1293 445.533 50.1804C445.42 50.3025 445.306 50.4246 445.189 50.5439C439.623 56.2236 430.517 56.5814 424.517 51.2368C418.792 46.1392 417.9 37.6367 422.176 31.5026C422.517 31.0141 422.889 30.5398 423.298 30.0826C423.443 29.9179 423.593 29.7589 423.744 29.6027C423.892 29.4522 424.039 29.3017 424.193 29.1597C424.659 28.7166 425.148 28.3105 425.656 27.9414C426.412 27.3904 427.207 26.9162 428.034 26.5214C430.597 25.3003 433.45 24.8402 436.234 25.164C439.189 25.5076 442.073 26.7316 444.462 28.8586C450.48 34.226 451.159 43.3448 446.104 49.5244Z" fill="#CDE0FB"/>
<path d="M434.603 53.8238C431.25 53.8238 428.057 52.6112 425.534 50.3649C422.809 47.9396 421.195 44.5971 420.985 40.9592C420.775 37.3185 421.997 33.8141 424.423 31.0907C426.849 28.3672 430.193 26.7513 433.836 26.544C437.475 26.331 440.984 27.555 443.709 29.9803C446.434 32.4055 448.047 35.7481 448.258 39.3859C448.468 43.0266 447.246 46.531 444.82 49.2545C442.394 51.9779 439.052 53.591 435.41 53.8011C435.14 53.8153 434.87 53.8238 434.603 53.8238ZM434.64 27.3335C434.387 27.3335 434.137 27.342 433.884 27.3562C430.461 27.555 427.315 29.0715 425.034 31.6331C422.752 34.1946 421.605 37.4889 421.801 40.9109C421.999 44.333 423.517 47.4767 426.079 49.7571C428.642 52.0375 431.938 53.1848 435.362 52.9889C438.785 52.7901 441.93 51.2736 444.212 48.7121C446.493 46.1505 447.641 42.8562 447.445 39.4342C447.246 36.0122 445.729 32.8684 443.166 30.588C440.794 28.4751 437.791 27.3335 434.64 27.3335Z" fill="#AFCDFB"/>
<path d="M431.276 30.6931L436.146 35.4442L442.823 34.1265L439.808 40.2237L443.127 46.1647L436.39 45.1821L431.765 50.1718L430.617 43.4668L424.44 40.6099L430.467 37.4463L431.276 30.6931Z" fill="#AFCDFB"/>
<path d="M402.27 452.919C402.026 453.217 401.776 453.513 401.514 453.805C401.426 453.905 401.338 454.001 401.25 454.098C401.049 454.319 400.844 454.532 400.637 454.745C390.695 464.889 374.429 465.531 363.71 455.986C353.484 446.882 351.89 431.697 359.527 420.735C360.135 419.86 360.803 419.014 361.53 418.199C361.792 417.906 362.056 417.62 362.329 417.344C362.59 417.074 362.86 416.807 363.13 416.552C363.962 415.762 364.837 415.038 365.744 414.376C367.091 413.391 368.514 412.545 369.991 411.843C374.571 409.662 379.663 408.842 384.638 409.421C389.917 410.034 395.065 412.221 399.335 416.021C410.086 425.591 411.297 441.881 402.27 452.919Z" fill="#CDE0FB"/>
<path d="M381.728 460.595C375.742 460.595 370.037 458.429 365.531 454.416C360.664 450.082 357.78 444.116 357.405 437.612C357.03 431.109 359.209 424.85 363.545 419.988C367.88 415.126 373.85 412.241 380.356 411.866C386.857 411.485 393.124 413.669 397.988 418.003C402.855 422.337 405.739 428.303 406.117 434.806C406.492 441.31 404.31 447.569 399.977 452.431C395.644 457.293 389.672 460.178 383.166 460.553C382.686 460.584 382.206 460.595 381.728 460.595ZM381.791 413.28C381.342 413.28 380.893 413.292 380.441 413.32C374.324 413.672 368.71 416.384 364.633 420.959C360.556 425.531 358.507 431.419 358.859 437.533C359.212 443.647 361.925 449.259 366.502 453.334C371.077 457.409 376.966 459.459 383.083 459.104C389.201 458.752 394.815 456.04 398.892 451.465C402.969 446.893 405.017 441.006 404.665 434.892C404.313 428.777 401.599 423.166 397.022 419.091C392.783 415.316 387.419 413.28 381.791 413.28Z" fill="#AFCDFB"/>
<path d="M375.785 419.278L384.484 427.763L396.412 425.412L391.025 436.306L396.952 446.915L384.922 445.163L376.657 454.072L374.606 442.096L363.573 436.993L374.339 431.344L375.785 419.278Z" fill="#AFCDFB"/>
<path d="M782.812 464.813H0.889294C0.400609 464.813 0 464.412 0 463.924V463.62C0 463.131 0.400609 462.731 0.889294 462.731H782.815C783.303 462.731 783.704 463.131 783.704 463.62V463.924C783.701 464.415 783.3 464.813 782.812 464.813Z" fill="#2E3552"/>
<path d="M486.168 280.372C486.168 280.372 482.46 282.899 478.338 282.482C475.278 282.172 472.263 279.341 472.147 279.153L469.706 283.393C469.706 283.393 475.283 286.773 480.065 285.847C481.531 285.563 483.906 284.109 484.977 283.018C486.162 281.817 486.168 280.372 486.168 280.372Z" fill="#6BB7BF"/>
<path d="M486.068 271.543L492.197 269.004C492.197 269.004 491.356 281.735 480.829 285.625C480.829 285.628 487.48 276.913 486.068 271.543Z" fill="#86D1CD"/>
<path d="M529.067 423.737C529.067 423.737 531.744 426.767 534.375 426.707C534.375 426.707 534.727 430.021 533.775 430.902C533.775 430.902 529.269 430.078 528.184 428.431C528.184 428.431 527.274 424.481 529.067 423.737Z" fill="#F99746"/>
<path d="M487.08 382.079C487.08 382.079 484.656 379.139 484.69 375.621C484.716 373.011 486.881 370.242 487.032 370.131L483.256 368.393C483.256 368.393 480.823 373.369 481.974 377.339C482.326 378.554 483.741 380.451 484.744 381.275C485.855 382.184 487.08 382.079 487.08 382.079Z" fill="#CDE0FB"/>
<path d="M494.543 381.315L497.163 386.301C497.163 386.301 486.324 386.568 482.224 377.969C482.221 377.969 490.108 382.922 494.543 381.315Z" fill="#CDE0FB"/>
<path d="M87.5 349H987.5" stroke="white"/>
</svg>
