<svg width="665" height="212" viewBox="0 0 665 212" fill="none" xmlns="http://www.w3.org/2000/svg">
<path opacity="0.1" d="M133.431 127.738V128.738H134.431V127.738H133.431ZM52.1787 127.738V126.738H51.1787V127.738H52.1787ZM52.1787 211V212H53.1787V211H52.1787ZM1.79102 211H0.791016V212H1.79102V211ZM1.79102 1.98438V0.984375H0.791016V1.98438H1.79102ZM141.613 1.98438H142.613V0.984375H141.613V1.98438ZM141.613 40.8877V41.8877H142.613V40.8877H141.613ZM52.1787 40.8877V39.8877H51.1787V40.8877H52.1787ZM52.1787 88.9785H51.1787V89.9785H52.1787V88.9785ZM133.431 88.9785H134.431V87.9785H133.431V88.9785ZM133.431 126.738H52.1787V128.738H133.431V126.738ZM51.1787 127.738V211H53.1787V127.738H51.1787ZM52.1787 210H1.79102V212H52.1787V210ZM2.79102 211V1.98438H0.791016V211H2.79102ZM1.79102 2.98438H141.613V0.984375H1.79102V2.98438ZM140.613 1.98438V40.8877H142.613V1.98438H140.613ZM141.613 39.8877H52.1787V41.8877H141.613V39.8877ZM51.1787 40.8877V88.9785H53.1787V40.8877H51.1787ZM52.1787 89.9785H133.431V87.9785H52.1787V89.9785ZM132.431 88.9785V127.738H134.431V88.9785H132.431ZM240.235 137.213L241.13 136.766L240.853 136.213H240.235V137.213ZM212.96 137.213V136.213H211.96V137.213H212.96ZM212.96 211V212H213.96V211H212.96ZM162.572 211H161.572V212H162.572V211ZM162.572 1.98438V0.984375H161.572V1.98438H162.572ZM315.027 101.324L314.177 100.797L314.174 100.803L315.027 101.324ZM287.465 124.58L287.037 123.676L286.1 124.12L286.577 125.04L287.465 124.58ZM331.105 208.847H332.105V208.603L331.993 208.387L331.105 208.847ZM331.105 211V212H332.105V211H331.105ZM277.129 211L276.234 211.447L276.511 212H277.129V211ZM212.96 98.3096H211.96V99.3096H212.96V98.3096ZM266.362 90.8447L265.642 90.1514L265.641 90.1516L266.362 90.8447ZM266.362 48.6396L265.635 49.3263L265.642 49.333L266.362 48.6396ZM212.96 40.8877V39.8877H211.96V40.8877H212.96ZM240.235 136.213H212.96V138.213H240.235V136.213ZM211.96 137.213V211H213.96V137.213H211.96ZM212.96 210H162.572V212H212.96V210ZM163.572 211V1.98438H161.572V211H163.572ZM162.572 2.98438H244.829V0.984375H162.572V2.98438ZM244.829 2.98438C269.479 2.98438 288.612 8.45737 302.35 19.2787L303.588 17.7076C289.381 6.51724 269.754 0.984375 244.829 0.984375V2.98438ZM302.35 19.2787C316.048 30.0687 322.928 45.312 322.928 65.1484H324.928C324.928 44.7895 317.834 28.9294 303.588 17.7076L302.35 19.2787ZM322.928 65.1484C322.928 79.5626 319.988 91.4252 314.177 100.797L315.877 101.851C321.934 92.0826 324.928 79.828 324.928 65.1484H322.928ZM314.174 100.803C308.459 110.172 299.44 117.806 287.037 123.676L287.893 125.484C300.564 119.487 309.92 111.617 315.881 101.845L314.174 100.803ZM286.577 125.04L330.217 209.307L331.993 208.387L288.353 124.12L286.577 125.04ZM330.105 208.847V211H332.105V208.847H330.105ZM331.105 210H277.129V212H331.105V210ZM278.023 210.553L241.13 136.766L239.341 137.66L276.234 211.447L278.023 210.553ZM212.96 99.3096H244.829V97.3096H212.96V99.3096ZM244.829 99.3096C254.564 99.3096 262.046 96.7765 267.083 91.5378L265.641 90.1516C261.108 94.8661 254.235 97.3096 244.829 97.3096V99.3096ZM267.083 91.5381C272.189 86.2318 274.684 78.9219 274.684 69.7422H272.684C272.684 78.5546 270.297 85.3132 265.642 90.1514L267.083 91.5381ZM274.684 69.7422C274.684 60.5625 272.189 53.2526 267.083 47.9463L265.642 49.333C270.297 54.1712 272.684 60.9297 272.684 69.7422H274.684ZM267.089 47.953C261.963 42.5249 254.483 39.8877 244.829 39.8877V41.8877C254.124 41.8877 261 44.4185 265.635 49.3263L267.089 47.953ZM244.829 39.8877H212.96V41.8877H244.829V39.8877ZM211.96 40.8877V98.3096H213.96V40.8877H211.96ZM483.991 122.427V123.427H484.991V122.427H483.991ZM404.749 122.427V121.427H403.749V122.427H404.749ZM404.749 172.24H403.749V173.24H404.749V172.24ZM498.347 172.24H499.347V171.24H498.347V172.24ZM498.347 211V212H499.347V211H498.347ZM354.361 211H353.361V212H354.361V211ZM354.361 1.98438V0.984375H353.361V1.98438H354.361ZM498.634 1.98438H499.634V0.984375H498.634V1.98438ZM498.634 40.8877V41.8877H499.634V40.8877H498.634ZM404.749 40.8877V39.8877H403.749V40.8877H404.749ZM404.749 84.959H403.749V85.959H404.749V84.959ZM483.991 84.959H484.991V83.959H483.991V84.959ZM483.991 121.427H404.749V123.427H483.991V121.427ZM403.749 122.427V172.24H405.749V122.427H403.749ZM404.749 173.24H498.347V171.24H404.749V173.24ZM497.347 172.24V211H499.347V172.24H497.347ZM498.347 210H354.361V212H498.347V210ZM355.361 211V1.98438H353.361V211H355.361ZM354.361 2.98438H498.634V0.984375H354.361V2.98438ZM497.634 1.98438V40.8877H499.634V1.98438H497.634ZM498.634 39.8877H404.749V41.8877H498.634V39.8877ZM403.749 40.8877V84.959H405.749V40.8877H403.749ZM404.749 85.959H483.991V83.959H404.749V85.959ZM482.991 84.959V122.427H484.991V84.959H482.991ZM648.505 122.427V123.427H649.505V122.427H648.505ZM569.263 122.427V121.427H568.263V122.427H569.263ZM569.263 172.24H568.263V173.24H569.263V172.24ZM662.86 172.24H663.86V171.24H662.86V172.24ZM662.86 211V212H663.86V211H662.86ZM518.875 211H517.875V212H518.875V211ZM518.875 1.98438V0.984375H517.875V1.98438H518.875ZM663.147 1.98438H664.147V0.984375H663.147V1.98438ZM663.147 40.8877V41.8877H664.147V40.8877H663.147ZM569.263 40.8877V39.8877H568.263V40.8877H569.263ZM569.263 84.959H568.263V85.959H569.263V84.959ZM648.505 84.959H649.505V83.959H648.505V84.959ZM648.505 121.427H569.263V123.427H648.505V121.427ZM568.263 122.427V172.24H570.263V122.427H568.263ZM569.263 173.24H662.86V171.24H569.263V173.24ZM661.86 172.24V211H663.86V172.24H661.86ZM662.86 210H518.875V212H662.86V210ZM519.875 211V1.98438H517.875V211H519.875ZM518.875 2.98438H663.147V0.984375H518.875V2.98438ZM662.147 1.98438V40.8877H664.147V1.98438H662.147ZM663.147 39.8877H569.263V41.8877H663.147V39.8877ZM568.263 40.8877V84.959H570.263V40.8877H568.263ZM569.263 85.959H648.505V83.959H569.263V85.959ZM647.505 84.959V122.427H649.505V84.959H647.505Z" fill="black"/>
</svg>
