<svg width="400" height="300" viewBox="0 0 400 300" fill="none" xmlns="http://www.w3.org/2000/svg">
<path d="M133.06 191.46L125.03 204.63L112.73 201.34L114.44 185.55L133.06 191.46Z" fill="#FFD200"/>
<path d="M229.5 57.51C229.5 57.51 230.01 65.16 228.62 70.22C228.484 70.7087 228.252 71.1657 227.939 71.565C227.626 71.9642 227.238 72.2979 226.796 72.5468C226.354 72.7957 225.867 72.955 225.363 73.0156C224.859 73.0762 224.349 73.0369 223.86 72.9C221.32 72.16 218.11 70.43 217.33 66.36L215.18 59.62C214.888 58.2237 215.037 56.7711 215.607 55.4632C216.176 54.1554 217.139 53.0569 218.36 52.32C222.75 49.3 229.42 52.83 229.5 57.51Z" fill="#F4A28C"/>
<path d="M218 60.3799L205.81 82.3699L218.41 88.2199L222.12 70.3299L218 60.3799Z" fill="#F4A28C"/>
<path d="M214.38 56.2199L214.05 66.0699C215.169 66.53 216.413 66.587 217.569 66.2313C218.726 65.8757 219.723 65.1293 220.39 64.1199C221.091 63.0928 221.477 61.8838 221.502 60.6407C221.527 59.3976 221.189 58.1741 220.53 57.1199C224.359 57.7691 228.228 58.1599 232.11 58.2899C232.91 58.2899 234.65 58.6699 234.81 55.1899C234.81 55.1899 236.22 49.6099 232.34 48.1899C228.46 46.7699 214.05 48.2199 214.38 56.2199Z" fill="#24285B"/>
<path d="M229.57 62.1299L231.76 65.8899L229.3 66.4599L229.57 62.1299Z" fill="#F4A28C"/>
<path d="M128.14 223.54C128.14 223.54 123.67 224.7 122.98 228.54C122.29 232.38 118.37 233.08 117.7 229.48C117.03 225.88 122.39 217.22 122.39 217.22L128 218L128.14 223.54Z" fill="#0987FB"/>
<path d="M166.22 191.49C166.22 191.49 170.91 227.49 128.14 217.41V224C128.14 224 138.72 232.8 156 229C162.417 227.519 168.412 224.595 173.53 220.45L190.74 206.72L188.42 195L173.3 187.86L166.22 191.49Z" fill="#24285B"/>
<path d="M299.29 90.0599C315.682 90.0599 328.97 76.7718 328.97 60.38C328.97 43.9881 315.682 30.7 299.29 30.7C282.899 30.7 269.61 43.9881 269.61 60.38C269.61 76.7718 282.899 90.0599 299.29 90.0599Z" fill="#FFD200"/>
<path opacity="0.08" d="M299.29 90.0599C315.682 90.0599 328.97 76.7718 328.97 60.38C328.97 43.9881 315.682 30.7 299.29 30.7C282.899 30.7 269.61 43.9881 269.61 60.38C269.61 76.7718 282.899 90.0599 299.29 90.0599Z" fill="black"/>
<path d="M198.88 126.2C198.88 126.2 227.82 165 250.3 177.51C272.78 190.02 315.81 123 315.81 123L307.56 116.89L260.45 152.7C260.45 152.7 233.37 91.85 212.74 92.5C192.11 93.15 190 115 198.88 126.2Z" fill="#0987FB"/>
<path opacity="0.46" d="M198.88 126.2C198.88 126.2 227.82 165 250.3 177.51C272.78 190.02 315.81 123 315.81 123L307.56 116.89L260.45 152.7C260.45 152.7 233.37 91.85 212.74 92.5C192.11 93.15 190 115 198.88 126.2Z" fill="white"/>
<path opacity="0.45" d="M193.91 271.99C259.908 271.99 313.41 264.298 313.41 254.81C313.41 245.322 259.908 237.63 193.91 237.63C127.912 237.63 74.4102 245.322 74.4102 254.81C74.4102 264.298 127.912 271.99 193.91 271.99Z" fill="#E6E6E6"/>
<path d="M204.39 80.3101L218.45 86.7301C224.136 89.5371 228.86 93.9699 232.022 99.4661C235.184 104.962 236.642 111.274 236.21 117.6C235.71 125.27 234.01 128.97 231.59 139.91C228.69 153.06 228.94 166.84 217.8 174.41C209.46 180.08 198.42 189.29 195.93 199.58L153.83 179.42C153.83 179.42 135.2 77.1001 204.39 80.3101Z" fill="#0987FB"/>
<path opacity="0.08" d="M207 96.0601C207 96.0601 230.42 118.38 202.11 145.47C173.8 172.56 183.4 108 207 96.0601Z" fill="black"/>
<path d="M192.5 114.7H129.12C108.404 114.7 91.6104 131.494 91.6104 152.21V155.29C91.6104 176.006 108.404 192.8 129.12 192.8H192.5C213.217 192.8 230.01 176.006 230.01 155.29V152.21C230.01 131.494 213.217 114.7 192.5 114.7Z" fill="#FFD200"/>
<path opacity="0.08" d="M139.94 192.81H166.33C166.33 192.81 138.63 158.17 155.03 119.65C155.03 119.65 125.61 117.31 125.88 116.27C126.15 115.23 127.42 146.2 127.42 146.2L139.94 192.81Z" fill="black"/>
<path d="M182.37 81.1199C182.37 81.1199 134.37 86.8699 112.26 100.12C90.1503 113.37 126.84 184.12 126.84 184.12L138.84 178.86L128.65 121.31C128.65 121.31 194.9 128.2 204.65 109.99C214.4 91.7799 196.48 78.9999 182.37 81.1199Z" fill="#0987FB"/>
<path opacity="0.46" d="M182.37 81.1199C182.37 81.1199 134.37 86.8699 112.26 100.12C90.1503 113.37 126.84 184.12 126.84 184.12L138.84 178.86L128.65 121.31C128.65 121.31 194.9 128.2 204.65 109.99C214.4 91.7799 196.48 78.9999 182.37 81.1199Z" fill="white"/>
<path d="M225.74 241.43C225.74 241.43 229.74 243.72 232.95 241.43C236.16 239.14 239.43 241.43 237.39 244.43C235.35 247.43 225.49 249.95 225.49 249.95L222 245.47L225.74 241.43Z" fill="#0987FB"/>
<path d="M307.56 116.87C307.56 116.87 306.86 104.23 309.42 103.47C311.98 102.71 313.17 108.84 313.17 108.84C313.17 108.84 316.17 98.06 321.76 99.39C327.35 100.72 315.81 123 315.81 123L307.56 116.87Z" fill="#F4A28C"/>
<path d="M127.47 183.6C127.47 183.6 126.47 197.6 132.83 197.18C133.593 197.134 134.347 196.986 135.07 196.74C136.279 196.306 137.387 195.631 138.327 194.756C139.267 193.881 140.02 192.825 140.539 191.65C141.059 190.476 141.335 189.209 141.351 187.925C141.366 186.641 141.121 185.367 140.63 184.18L138.8 179.6L127.47 183.6Z" fill="#F4A28C"/>
<path d="M228.36 149.62H222.25C215.744 149.62 210.47 154.894 210.47 161.4C210.47 167.906 215.744 173.18 222.25 173.18H228.36C234.866 173.18 240.14 167.906 240.14 161.4C240.14 154.894 234.866 149.62 228.36 149.62Z" fill="#FFD200"/>
<path opacity="0.35" d="M228.36 149.62H222.25C215.744 149.62 210.47 154.894 210.47 161.4C210.47 167.906 215.744 173.18 222.25 173.18H228.36C234.866 173.18 240.14 167.906 240.14 161.4C240.14 154.894 234.866 149.62 228.36 149.62Z" fill="white"/>
<path d="M205.85 147.37C208.402 147.37 210.47 145.301 210.47 142.75C210.47 140.198 208.402 138.13 205.85 138.13C203.299 138.13 201.23 140.198 201.23 142.75C201.23 145.301 203.299 147.37 205.85 147.37Z" fill="#24285B"/>
<path d="M299.29 84.65C315.682 84.65 328.97 71.3619 328.97 54.97C328.97 38.5782 315.682 25.29 299.29 25.29C282.899 25.29 269.61 38.5782 269.61 54.97C269.61 71.3619 282.899 84.65 299.29 84.65Z" fill="#FFD200"/>
<path opacity="0.46" d="M299.29 74.94C310.319 74.94 319.26 65.9991 319.26 54.97C319.26 43.9409 310.319 35 299.29 35C288.261 35 279.32 43.9409 279.32 54.97C279.32 65.9991 288.261 74.94 299.29 74.94Z" fill="white"/>
<path d="M187.69 195.54C187.69 195.54 216.53 206.02 227.52 240.48L222.01 245.48C222.01 245.48 208.24 222.83 176.72 205.33L187.69 195.54Z" fill="#24285B"/>
<path d="M171.25 131.71C171.25 131.71 163.62 120.08 168.65 113.66C173.68 107.24 187.04 122.66 187.04 122.66L171.25 131.71Z" fill="#FFD200"/>
<path opacity="0.08" d="M231.33 166.61C233.091 166.61 234.52 164.277 234.52 161.4C234.52 158.523 233.091 156.19 231.33 156.19C229.568 156.19 228.14 158.523 228.14 161.4C228.14 164.277 229.568 166.61 231.33 166.61Z" fill="black"/>
<path opacity="0.08" d="M220.95 166.61C222.712 166.61 224.14 164.277 224.14 161.4C224.14 158.523 222.712 156.19 220.95 156.19C219.188 156.19 217.76 158.523 217.76 161.4C217.76 164.277 219.188 166.61 220.95 166.61Z" fill="black"/>
<path d="M180.59 191.91L188.63 205.08L200.93 201.78L199.21 185.99L180.59 191.91Z" fill="#FFD200"/>
<path d="M93.2004 142.75C93.2004 142.75 78.5904 138.3 66.4404 145.25C66.4404 145.25 83.8104 142.83 91.6104 153.76L93.2004 142.75Z" fill="#FFD200"/>
<path d="M300.56 40.6499C301.26 40.6499 301.47 40.8899 301.47 41.5799V43.0599C302.69 43.1913 303.852 43.6513 304.831 44.391C305.81 45.1306 306.57 46.1222 307.03 47.2599C307.39 47.9899 307.24 48.3799 306.43 48.7399L304.94 49.4099C304.25 49.7399 303.94 49.5899 303.52 48.8599C303.212 48.1093 302.67 47.4782 301.975 47.0602C301.279 46.6422 300.468 46.4598 299.66 46.5399C297.09 46.5399 295.91 47.2899 295.91 49.0199C295.979 49.5392 296.225 50.0191 296.605 50.3794C296.985 50.7397 297.478 50.9587 298 50.9999C298.719 51.1564 299.447 51.2667 300.18 51.3299C301.545 51.3956 302.893 51.6618 304.18 52.1199C304.831 52.3394 305.434 52.6786 305.96 53.1199C306.496 53.6844 306.913 54.3502 307.188 55.0784C307.463 55.8065 307.589 56.5822 307.56 57.3599C307.56 60.6499 305.36 62.8899 301.46 63.4599V64.9999C301.46 65.6999 301.25 65.9399 300.55 65.9399H298.9C298.21 65.9399 297.96 65.6999 297.96 64.9999V63.4899C296.614 63.3901 295.327 62.8958 294.26 62.0688C293.192 61.2418 292.393 60.1188 291.96 58.8399C291.899 58.704 291.868 58.5559 291.871 58.4067C291.874 58.2575 291.911 58.1109 291.978 57.9776C292.045 57.8443 292.141 57.7277 292.259 57.6364C292.377 57.5451 292.514 57.4814 292.66 57.4499L294.14 56.8999C294.89 56.6299 295.22 56.8099 295.56 57.5699C295.865 58.3841 296.43 59.0746 297.168 59.534C297.906 59.9934 298.775 60.1959 299.64 60.1099C302.42 60.1099 303.81 59.2299 303.81 57.4499C303.832 57.0369 303.716 56.6283 303.481 56.2882C303.246 55.948 302.904 55.6954 302.51 55.5699C301.544 55.2339 300.533 55.0418 299.51 54.9999C298.139 54.9171 296.789 54.6202 295.51 54.1199C294.867 53.8969 294.271 53.5579 293.75 53.1199C293.186 52.5938 292.739 51.9553 292.438 51.2456C292.136 50.5359 291.987 49.7709 292 48.9999C292 45.7299 294.06 43.5599 297.92 42.9999V41.5799C297.92 40.8899 298.17 40.6499 298.86 40.6499H300.56Z" fill="white"/>
</svg>
