<svg width="331" height="389" viewBox="0 0 331 389" fill="none" xmlns="http://www.w3.org/2000/svg">
<g opacity="0.2">
<path opacity="0.0909" d="M87.9406 293.72L96.9306 288.7C97.3006 288.49 114.171 279.28 114.491 279.47L120.291 276.63C122.911 275.12 126.751 274.62 130.071 274.62C132.961 274.62 136.051 275.52 138.121 276.72L178.691 299.83L187.341 304.76L236.561 332.8C238.151 333.72 239.621 335.13 240.381 336.52C240.981 337.62 241.351 338.81 241.391 340.07C241.491 343.32 239.491 346.41 235.881 348.49L226.891 353.51C226.521 353.72 209.651 362.93 209.331 362.74L203.531 365.58C200.911 367.09 197.071 367.59 193.751 367.59C190.861 367.59 187.771 366.69 185.701 365.49L145.131 342.38L136.481 337.45L87.2606 309.41C85.6706 308.49 84.2006 307.08 83.4406 305.69C82.8406 304.59 82.4706 303.4 82.4306 302.14C82.3406 298.88 84.3406 295.8 87.9406 293.72Z" fill="black"/>
<path opacity="0.1818" d="M88.8399 294.43L97.5899 289.59C98.3199 289.17 114.12 280.86 114.75 281.22L120.38 278.9C122.73 277.54 126.82 277.45 129.81 277.45C132.41 277.45 135.71 278.56 137.57 279.64L176.95 302.09L185.35 306.88L233.12 334.12C234.55 334.95 236.18 336.42 236.89 337.66C237.5 338.72 237.92 339.84 237.99 341.04C238.18 344.16 236.28 347.17 232.74 349.22L223.99 354.06C223.26 354.48 207.46 362.79 206.83 362.43L201.2 364.75C198.85 366.11 194.76 366.2 191.77 366.2C189.17 366.2 185.87 365.09 184.01 364.01L144.63 341.56L136.23 336.77L88.4599 309.53C87.0299 308.7 85.3999 307.23 84.6899 305.99C84.0799 304.93 83.6599 303.81 83.5899 302.61C83.4099 299.48 85.2999 296.47 88.8399 294.43Z" fill="black"/>
<path opacity="0.2727" d="M89.7402 295.14L98.2502 290.48C99.3502 289.85 114.07 282.43 115.02 282.98L120.47 281.18C122.56 279.97 126.9 280.3 129.55 280.3C131.86 280.3 135.37 281.62 137.03 282.58L175.21 304.37L183.35 309.02L229.68 335.46C230.95 336.19 232.74 337.74 233.4 338.82C234.02 339.84 234.49 340.89 234.59 342.03C234.87 345.02 233.08 347.96 229.6 349.97L221.09 354.63C219.99 355.26 205.27 362.68 204.32 362.13L198.87 363.93C196.78 365.14 192.44 364.81 189.79 364.81C187.48 364.81 183.97 363.49 182.31 362.53L144.13 340.74L135.99 336.09L89.6602 309.65C88.3902 308.92 86.6002 307.37 85.9402 306.29C85.3202 305.27 84.8602 304.22 84.7502 303.08C84.4702 300.09 86.2602 297.15 89.7402 295.14Z" fill="black"/>
<path opacity="0.3636" d="M90.64 295.86L98.91 291.39C100.37 290.54 114.01 284.03 115.28 284.76L120.56 283.48C122.39 282.42 126.97 283.16 129.3 283.16C131.32 283.16 135.04 284.69 136.49 285.52L173.48 306.66L181.37 311.17L226.25 336.82C227.36 337.46 229.32 339.06 229.92 340C230.55 340.98 231.06 341.95 231.21 343.04C231.59 345.9 229.89 348.77 226.48 350.74L218.21 355.21C216.75 356.06 203.11 362.57 201.84 361.84L196.56 363.12C194.73 364.18 190.15 363.44 187.82 363.44C185.8 363.44 182.08 361.91 180.63 361.08L143.64 339.94L135.75 335.43L90.87 309.78C89.76 309.14 87.8 307.54 87.2 306.6C86.57 305.62 86.06 304.65 85.91 303.56C85.53 300.69 87.22 297.83 90.64 295.86Z" fill="black"/>
<path opacity="0.4545" d="M91.5399 296.57L99.5599 292.28C101.39 291.22 113.95 285.6 115.54 286.51L120.65 285.75C122.22 284.84 127.04 286 129.04 286C130.77 286 134.69 287.73 135.94 288.45L171.74 308.93L179.37 313.3L222.81 338.15C223.76 338.7 225.9 340.36 226.43 341.15C227.07 342.09 227.63 342.99 227.81 344.02C228.28 346.75 226.69 349.54 223.34 351.48L215.32 355.77C213.49 356.83 200.93 362.45 199.34 361.54L194.23 362.3C192.66 363.21 187.84 362.05 185.84 362.05C184.11 362.05 180.19 360.32 178.94 359.6L143.14 339.12L135.51 334.75L92.0699 309.9C91.1199 309.35 88.9799 307.69 88.4499 306.9C87.8099 305.96 87.2499 305.06 87.0699 304.03C86.5899 301.3 88.1899 298.5 91.5399 296.57Z" fill="black"/>
<path opacity="0.5455" d="M92.43 297.28L100.21 293.17C102.41 291.9 113.89 287.17 115.79 288.27L120.73 288.03C122.04 287.28 127.11 288.84 128.77 288.84C130.22 288.84 134.34 290.78 135.38 291.38L169.99 311.2L177.37 315.43L219.36 339.48C220.15 339.94 222.47 341.65 222.93 342.3C223.58 343.21 224.19 344.03 224.4 345C224.97 347.6 223.48 350.32 220.19 352.22L212.41 356.33C210.21 357.6 198.73 362.33 196.83 361.23L191.89 361.47C190.58 362.23 185.51 360.66 183.85 360.66C182.4 360.66 178.28 358.72 177.24 358.12L142.63 338.3L135.25 334.07L93.26 310.02C92.47 309.56 90.15 307.85 89.69 307.2C89.04 306.29 88.43 305.47 88.22 304.5C87.65 301.9 89.15 299.18 92.43 297.28Z" fill="black"/>
<path opacity="0.6364" d="M93.3305 298L100.871 294.07C103.431 292.59 113.841 288.76 116.061 290.04L120.821 290.31C121.871 289.71 127.181 291.69 128.511 291.69C129.671 291.69 134.001 293.84 134.831 294.32L168.251 313.49L175.371 317.58L215.911 340.83C216.551 341.2 219.041 342.96 219.431 343.47C220.091 344.35 220.751 345.08 221.001 346C221.671 348.46 220.271 351.11 217.051 352.98L209.511 356.91C206.951 358.39 196.541 362.22 194.321 360.94L189.561 360.67C188.511 361.27 183.201 359.29 181.871 359.29C180.711 359.29 176.381 357.14 175.551 356.66L142.131 337.49L135.011 333.4L94.4705 310.15C93.8305 309.78 91.3405 308.02 90.9505 307.51C90.2905 306.63 89.6305 305.9 89.3805 304.98C88.7105 302.51 90.1105 299.86 93.3305 298Z" fill="black"/>
<path opacity="0.7273" d="M94.2304 298.71L101.53 294.96C104.46 293.27 113.79 290.33 116.33 291.8L120.92 292.59C121.7 292.14 127.26 294.53 128.26 294.53C129.13 294.53 133.67 296.89 134.29 297.25L166.52 315.76L173.39 319.71L212.49 342.17C212.97 342.45 215.74 344.2 215.96 344.63C216.79 345.33 217.34 346.13 217.62 346.99C218.39 349.32 217.09 351.9 213.93 353.73L206.63 357.48C203.7 359.17 194.37 362.11 191.83 360.64L187.24 359.85C186.46 360.3 180.9 357.91 179.9 357.91C179.03 357.91 174.49 355.55 173.87 355.19L141.64 336.68L134.77 332.73L95.6704 310.27C95.1904 309.99 92.4204 308.24 92.2004 307.81C91.3704 307.11 90.8204 306.31 90.5404 305.45C89.7704 303.11 91.0704 300.54 94.2304 298.71Z" fill="black"/>
<path opacity="0.8182" d="M95.1307 299.42L102.181 295.85C105.481 293.95 113.731 291.9 116.581 293.55L121.001 294.86C121.521 294.56 127.331 297.36 127.991 297.36C128.571 297.36 133.321 299.92 133.731 300.16L164.761 318.01L171.381 321.82L209.031 343.48C209.351 343.66 212.301 345.47 212.451 345.76C213.311 346.4 213.891 347.15 214.201 347.95C215.071 350.15 213.861 352.66 210.771 354.45L203.721 358.02C200.421 359.92 192.171 361.97 189.321 360.32L184.901 359.01C184.381 359.31 178.571 356.51 177.911 356.51C177.331 356.51 172.581 353.95 172.171 353.71L141.141 335.86L134.531 332.05L96.8807 310.39C96.5607 310.21 93.6107 308.4 93.4607 308.11C92.6007 307.47 92.0207 306.72 91.7107 305.92C90.8207 303.72 92.0307 301.21 95.1307 299.42Z" fill="black"/>
<path opacity="0.9091" d="M96.0207 300.14L102.831 296.75C106.491 294.64 113.661 293.49 116.841 295.32L121.091 297.15C121.351 297 127.401 300.22 127.731 300.22C128.021 300.22 132.971 302.99 133.181 303.11L163.021 320.31L169.381 323.98L205.581 344.84C205.741 344.93 208.871 346.79 208.951 346.93C209.831 347.51 210.451 348.2 210.801 348.94C211.771 351.01 210.661 353.44 207.621 355.2L200.811 358.59C197.151 360.7 189.981 361.85 186.801 360.02L182.551 358.19C182.291 358.34 176.241 355.12 175.911 355.12C175.621 355.12 170.671 352.35 170.461 352.23L140.621 335.03L134.261 331.36L98.0607 310.5C97.9007 310.41 94.7707 308.55 94.6907 308.41C93.8007 307.83 93.1907 307.14 92.8407 306.4C91.8807 304.33 92.9907 301.89 96.0207 300.14Z" fill="black"/>
<path opacity="0.2" d="M184.3 359.72L140.12 334.21L95.9401 308.7C92.4501 306.69 92.8901 303.17 96.9201 300.84L103.49 297.63C107.52 295.3 113.61 295.05 117.1 297.07L161.28 322.58L205.46 348.09C208.95 350.1 208.51 353.62 204.48 355.95L197.91 359.16C193.88 361.48 187.79 361.74 184.3 359.72Z" fill="black"/>
</g>
<path d="M187.22 353.71L115.63 309.16C107.55 304.14 104.66 291.05 109.16 279.93L188.86 83.06C191.15 77.41 186.07 76.04 190.27 74.08C190.43 74.01 199.43 71.22 199.6 71.18C203.71 70.1 207.82 69.66 211.63 72.03L283.22 116.58C291.3 121.6 294.19 134.69 289.69 145.81L209.99 342.68C207.6 348.59 203.6 352.75 199.16 354.6C198.9 354.71 187.99 358.23 187.72 358.29C184.12 359.12 190.75 355.91 187.22 353.71Z" fill="url(#paint0_linear)"/>
<g style="mix-blend-mode:screen">
<path d="M282.3 116.79L210.71 72.24C206.9 69.87 276.84 118.05 276.84 118.05C284.92 123.07 287.81 136.16 283.31 147.28C283.31 147.28 206.69 348.8 209.08 342.89L288.78 146.02C293.28 134.9 290.38 121.81 282.3 116.79Z" fill="url(#paint1_radial)"/>
</g>
<path opacity="0.6" d="M179.25 356.19L107.66 311.64C99.5802 306.61 96.6902 293.53 101.19 282.41L180.89 85.54C185.39 74.42 195.59 69.48 203.66 74.51L275.25 119.06C283.33 124.09 286.22 137.17 281.72 148.29L202.02 345.16C197.52 356.28 187.33 361.22 179.25 356.19Z" fill="url(#paint2_radial)"/>
<path d="M177.38 356.87L105.79 312.32C97.7101 307.3 94.8201 294.21 99.3201 283.09L179.02 86.22C183.52 75.1 193.72 70.16 201.79 75.19L273.38 119.74C281.46 124.77 284.35 137.85 279.85 148.97L200.15 345.84C195.65 356.95 185.46 361.89 177.38 356.87Z" fill="url(#paint3_linear)"/>
<path d="M101.261 284.45L181.061 87.34C185.011 77.59 193.941 73.26 201.021 77.67L272.231 121.98C279.311 126.38 281.851 137.86 277.901 147.6L198.101 344.71C194.151 354.46 185.221 358.79 178.141 354.38L106.931 310.07C99.8506 305.67 97.3106 294.2 101.261 284.45Z" fill="url(#paint4_linear)"/>
<path d="M104.31 285.73L183.7 89.61C187 81.45 194.48 77.83 200.41 81.51L270.11 124.88C276.04 128.57 278.16 138.17 274.86 146.33L195.47 342.44C192.17 350.6 184.69 354.22 178.76 350.54L109.06 307.17C103.13 303.49 101.01 293.89 104.31 285.73Z" fill="url(#paint5_linear)"/>
<path d="M260.34 120.92C258.68 125.02 254.53 126.6 251.07 124.45L212.07 100.18C208.61 98.03 207.15 92.96 208.81 88.86L200.54 83.71C194.96 80.23 188.26 82.78 185.58 89.4L105.3 287.72C102.62 294.34 104.98 302.52 110.56 305.99L178.64 348.35C184.22 351.83 190.92 349.28 193.6 342.66L273.88 144.34C276.56 137.72 274.2 129.54 268.62 126.07L260.34 120.92Z" fill="url(#paint6_linear)"/>
<path d="M182.58 97.59L169.97 128.6L236.88 169.88C241.55 172.79 247.72 170.79 249.8 165.69L255.62 151.37C257.25 147.37 255.76 142.77 252.09 140.49L182.58 97.59Z" fill="url(#paint7_linear)"/>
<path d="M171.77 183.05L167.66 193.15C165.62 198.17 167.49 203.94 172.1 206.8L233.24 244.73L245.85 213.72L187.94 177.79C182.08 174.15 174.37 176.66 171.77 183.05Z" fill="url(#paint8_linear)"/>
<path d="M132.48 220.14L119.87 251.15L189.29 294.01C194.13 297.03 200.53 294.95 202.68 289.67L208.26 275.96C209.95 271.81 208.4 267.05 204.6 264.68L132.48 220.14Z" fill="url(#paint9_linear)"/>
<path d="M263.8 194.57L269.18 181.28C269.87 179.58 271.91 177.63 273.74 176.93C275.57 176.23 276.5 177.03 275.81 178.73L270.43 192.02C269.74 193.72 267.7 195.67 265.87 196.37C264.03 197.07 263.11 196.27 263.8 194.57Z" fill="url(#paint10_linear)"/>
<g style="mix-blend-mode:screen">
<path d="M264.85 196.13C264.06 196.11 264.11 195.29 264.39 194.58L269.77 181.29C270.38 179.78 272.25 177.98 273.85 177.36C274.19 177.23 274.5 177.16 274.74 177.17C275.53 177.19 275.48 178.01 275.2 178.72L269.82 192.01C269.21 193.52 267.34 195.32 265.74 195.94C265.4 196.06 265.09 196.13 264.85 196.13Z" fill="url(#paint11_linear)"/>
</g>
<g style="mix-blend-mode:screen">
<path d="M265.08 194.94L270.46 181.65C271.07 180.14 272.94 178.34 274.54 177.72C274.84 177.6 275.11 177.55 275.33 177.54C275.25 177.33 275.07 177.18 274.74 177.17C274.5 177.16 274.2 177.23 273.85 177.36C272.25 177.98 270.38 179.77 269.77 181.29L264.39 194.58C264.11 195.28 264.06 196.11 264.85 196.13C264.88 196.13 264.92 196.12 264.95 196.12C264.83 195.81 264.91 195.35 265.08 194.94Z" fill="url(#paint12_radial)"/>
</g>
<path d="M268.62 126.07L260.35 120.92C258.69 125.02 254.54 126.6 251.08 124.45L212.08 100.18C208.62 98.03 207.16 92.96 208.82 88.86L200.55 83.71C194.97 80.23 188.27 82.78 185.59 89.4L105.31 287.72C102.63 294.34 104.99 302.52 110.57 305.99L178.65 348.35C184.23 351.83 190.93 349.28 193.61 342.66L273.89 144.34C276.56 137.72 274.2 129.54 268.62 126.07ZM192.5 342.64C191.67 344.69 190.4 346.37 188.84 347.49C187.41 348.51 185.75 349.04 184.05 349C182.51 348.97 180.93 348.48 179.49 347.58L111.41 305.22C106.08 301.9 103.82 294.06 106.37 287.74L186.65 89.42C188.27 85.42 191.51 82.99 195.1 83.06C196.64 83.09 198.22 83.58 199.66 84.48L207.51 89.36C206.03 93.7 207.59 98.7 211.2 100.95L250.2 125.22C251.33 125.92 252.55 126.29 253.83 126.32C256.58 126.38 259.12 124.9 260.67 122.44L267.75 126.85C273.08 130.17 275.34 138.01 272.78 144.33L192.5 342.64Z" fill="#BCBEC0"/>
<path d="M186.61 322.61L187.01 321.63L186.08 321.05L187.17 318.36C187.68 318.41 188.17 318.1 188.4 317.52C188.71 316.75 188.44 315.79 187.79 315.39C187.14 314.98 186.36 315.28 186.04 316.05C185.81 316.63 185.9 317.3 186.23 317.78L185.14 320.47L184.21 319.89L183.81 320.87C180.36 319.68 176.66 321.51 175.06 325.46C173.23 329.98 174.84 335.56 178.65 337.94C182.46 340.31 187.04 338.57 188.87 334.05C190.47 330.09 189.44 325.33 186.61 322.61ZM186.86 334.03C186.52 334.87 185.73 335.27 184.97 334.99C182.05 333.91 179.3 332.2 176.85 329.95C176.17 329.33 175.95 328.23 176.31 327.34L177.06 325.48C177.37 324.7 178.21 324.49 178.79 325.03C181.24 327.28 183.99 328.99 186.91 330.08C187.61 330.34 187.97 331.3 187.65 332.07L186.86 334.03ZM184.71 330.69C184.25 330.4 183.69 330.61 183.47 331.16C183.25 331.71 183.44 332.39 183.91 332.67C184.37 332.96 184.93 332.75 185.15 332.2C185.37 331.66 185.18 330.98 184.71 330.69ZM179.71 327.58C179.25 327.29 178.69 327.5 178.47 328.05C178.25 328.6 178.44 329.28 178.91 329.56C179.37 329.85 179.93 329.64 180.15 329.09C180.37 328.55 180.17 327.87 179.71 327.58Z" fill="url(#paint13_linear)"/>
<g style="mix-blend-mode:screen">
<path d="M149.589 227.8L36.8695 162.59L18.5595 173.31C14.1695 175.92 11.4795 180.64 11.4795 185.75V205.87C11.4795 213.85 15.7295 221.22 22.6395 225.22L120.869 281.94C123.159 283.27 125.99 283.25 128.27 281.91L149.57 269.52V227.8H149.589Z" fill="url(#paint14_linear)"/>
</g>
<path d="M125.379 279.07L26.1394 221.9C20.7294 218.77 16.3394 210.39 16.3394 203.17V181.14C16.3394 177.48 12.7594 177.4 14.5794 176.08C14.7294 175.97 19.5894 173.29 19.7494 173.2C21.4694 172.22 23.6994 172.32 26.1394 173.73L125.379 230.9C130.789 234.03 135.179 242.41 135.179 249.63V271.66C135.179 275.61 133.869 278.39 131.789 279.59C131.719 279.63 126.779 282.44 126.709 282.47C125.019 283.34 127.729 280.43 125.379 279.07Z" fill="url(#paint15_linear)"/>
<path d="M120.47 281.85L21.2297 224.68C15.8197 221.55 11.4297 213.17 11.4297 205.95V183.92C11.4297 176.7 15.8197 173.39 21.2297 176.51L120.47 233.68C125.88 236.81 130.27 245.19 130.27 252.41V274.44C130.27 281.66 125.89 284.98 120.47 281.85Z" fill="url(#paint16_linear)"/>
<g style="mix-blend-mode:screen">
<path d="M122.02 232.69L22.7798 175.52C20.0298 173.93 17.5398 174.01 15.7598 175.42C17.1698 175.19 18.7898 175.52 20.5298 176.52L119.77 233.69C125.18 236.82 129.57 245.2 129.57 252.42V274.45C129.57 278 128.51 280.6 126.78 281.96C129.78 281.46 131.82 278.36 131.82 273.45V251.42C131.82 244.2 127.43 235.81 122.02 232.69Z" fill="url(#paint17_radial)"/>
</g>
<path d="M54.5605 207.68V210.05L117.761 246.21V243.84L54.5605 207.68Z" fill="white"/>
<path d="M79.8305 241.72L54.5605 227.38V229.75L79.8305 244.09V241.72Z" fill="white"/>
<path d="M93.7705 239.92L54.5605 217.53V219.9L93.7705 242.29V239.92Z" fill="white"/>
<path d="M70.5205 231.42L54.5605 222.45V224.82L70.5205 233.79V231.42Z" fill="white"/>
<path d="M72.8506 232.77V235.14L105.131 253.69V251.32L72.8506 232.77Z" fill="white"/>
<path d="M82.1699 243.07V245.44L100.27 255.89V253.52L82.1699 243.07Z" fill="white"/>
<path d="M96.1006 243.63L117.761 256.06V253.69L96.1006 241.26V243.63Z" fill="white"/>
<path d="M107.46 255.04L117.76 260.98V258.61L107.46 252.67V255.04Z" fill="white"/>
<path d="M54.5605 214.97L117.761 251.13V248.76L54.5605 212.6V214.97Z" fill="white"/>
<path d="M102.601 257.24L117.761 265.91V263.54L102.601 254.87V257.24Z" fill="white"/>
<path d="M54.5605 234.67L117.761 270.83V268.46L54.5605 232.3V234.67Z" fill="white"/>
<path d="M43.3002 218.72C41.7502 217.4 40.3602 215.72 39.2502 213.87C38.5802 212.75 38.6002 211.53 39.2602 211.16C40.1002 210.67 40.8402 209.89 41.3302 208.86C42.0402 209.06 42.9202 208.79 42.9202 207.82C42.9202 206.83 42.4802 205.75 41.9002 205.2C41.7302 200.95 40.2802 196.59 35.3902 193.77C30.5102 190.95 29.0602 193.64 28.8802 197.68C28.2902 197.55 27.8602 198.12 27.8602 199.12C27.8602 200.09 28.7402 201.37 29.4502 201.99C29.9302 203.58 30.6702 205.22 31.5202 206.68C32.1702 207.81 32.1902 209.05 31.5302 209.4C30.4302 209.97 29.0302 210.04 27.4802 209.57C25.4302 208.95 23.9102 210.19 23.9102 212.71V217.09C23.9102 217.94 24.5102 218.97 25.2502 219.4L45.5602 231.13C46.3002 231.56 46.9002 231.22 46.9002 230.37V225.99C46.8802 223.46 45.3502 220.47 43.3002 218.72Z" fill="white"/>
<g style="mix-blend-mode:screen">
<path d="M133.46 237.4C135.32 241.93 134.74 246.47 132.17 247.53C129.59 248.59 125.99 245.77 124.13 241.24C122.27 236.71 122.85 232.17 125.42 231.11C127.99 230.05 131.59 232.86 133.46 237.4Z" fill="url(#paint18_radial)"/>
</g>
<g style="mix-blend-mode:screen">
<path d="M236 125.42L124.12 60.59L108.14 70.31C103.75 72.92 101.06 77.64 101.06 82.75V102.87C101.06 110.85 105.31 118.23 112.22 122.22L209.62 178.56C211.91 179.89 214.74 179.87 217.02 178.53L236 167.14V125.42Z" fill="url(#paint19_linear)"/>
</g>
<path d="M214.129 175.69L115.719 118.9C110.309 115.77 105.919 107.39 105.919 100.17V78.14C105.919 74.48 102.339 74.4 104.159 73.08C104.309 72.97 109.169 70.29 109.329 70.2C111.049 69.22 113.279 69.32 115.719 70.73L214.129 127.52C219.539 130.65 223.929 139.03 223.929 146.25V168.28C223.929 172.23 222.619 175.01 220.539 176.21C220.469 176.25 215.529 179.06 215.459 179.09C213.769 179.96 216.479 177.05 214.129 175.69Z" fill="url(#paint20_linear)"/>
<path d="M209.22 178.47L110.81 121.68C105.4 118.55 101.01 110.17 101.01 102.95V80.93C101.01 73.71 105.4 70.4 110.81 73.52L209.22 130.31C214.63 133.44 219.02 141.82 219.02 149.04V171.07C219.02 178.28 214.64 181.6 209.22 178.47Z" fill="url(#paint21_linear)"/>
<g style="mix-blend-mode:screen">
<path d="M210.77 129.31L112.36 72.52C109.61 70.93 107.12 71.01 105.34 72.42C106.75 72.19 108.37 72.52 110.11 73.52L208.52 130.31C213.93 133.44 218.32 141.82 218.32 149.04V171.07C218.32 174.62 217.26 177.22 215.53 178.58C218.53 178.08 220.57 174.98 220.57 170.07V148.04C220.57 140.82 216.18 132.43 210.77 129.31Z" fill="url(#paint22_radial)"/>
</g>
<path d="M144.15 104.68V107.05L206.51 142.83V140.46L144.15 104.68Z" fill="white"/>
<path d="M169.42 138.72L144.15 124.38V126.75L169.42 141.09V138.72Z" fill="white"/>
<path d="M183.35 136.92L144.15 114.53V116.9L183.35 139.29V136.92Z" fill="white"/>
<path d="M160.1 128.42L144.15 119.45V121.82L160.1 130.79V128.42Z" fill="white"/>
<path d="M162.44 129.77V132.14L193.88 150.31V147.94L162.44 129.77Z" fill="white"/>
<path d="M171.75 140.07V142.44L189.85 152.89V150.52L171.75 140.07Z" fill="white"/>
<path d="M185.69 140.63L206.51 152.68V150.31L185.69 138.26V140.63Z" fill="white"/>
<path d="M196.21 151.66L206.51 157.6V155.23L196.21 149.29V151.66Z" fill="white"/>
<path d="M144.15 111.97L206.51 147.75V145.38L144.15 109.6V111.97Z" fill="white"/>
<path d="M192.19 154.24L206.51 162.53V160.16L192.19 151.87V154.24Z" fill="white"/>
<path d="M144.15 131.67L206.51 167.45V165.08L144.15 129.3V131.67Z" fill="white"/>
<path d="M132.89 115.72C131.34 114.4 129.95 112.72 128.84 110.87C128.17 109.75 128.19 108.53 128.85 108.16C129.69 107.67 130.43 106.89 130.92 105.86C131.63 106.06 132.51 105.79 132.51 104.82C132.51 103.83 132.07 102.75 131.49 102.2C131.32 97.95 129.87 93.59 124.98 90.77C120.1 87.95 118.65 90.64 118.47 94.68C117.88 94.55 117.45 95.12 117.45 96.12C117.45 97.09 118.33 98.37 119.04 98.99C119.52 100.58 120.26 102.22 121.11 103.68C121.76 104.81 121.78 106.05 121.12 106.4C120.02 106.97 118.62 107.04 117.07 106.57C115.02 105.95 113.5 107.19 113.5 109.71V114.09C113.5 114.94 114.1 115.97 114.84 116.4L135.15 128.13C135.89 128.56 136.49 128.22 136.49 127.37V122.99C136.46 120.46 134.94 117.47 132.89 115.72Z" fill="white"/>
<g style="mix-blend-mode:screen">
<path d="M222.21 134.02C224.07 138.55 223.49 143.09 220.92 144.15C218.34 145.21 214.74 142.39 212.88 137.86C211.02 133.33 211.6 128.79 214.17 127.73C216.74 126.67 220.34 129.48 222.21 134.02Z" fill="url(#paint23_radial)"/>
</g>
<g style="mix-blend-mode:screen">
<path d="M193.96 298.51C193.96 310.04 189.11 340.24 183.13 340.24C177.15 340.24 172.3 310.05 172.3 298.51C172.3 288.36 177.15 285.91 183.13 285.91C189.11 285.91 193.96 288.36 193.96 298.51Z" fill="url(#paint24_linear)"/>
<path d="M193.379 298.37C193.379 309.63 188.789 339.54 183.119 339.54C177.459 339.54 172.859 309.63 172.859 298.37C172.859 288.46 177.449 286.07 183.119 286.07C188.789 286.07 193.379 288.46 193.379 298.37Z" fill="url(#paint25_linear)"/>
<path d="M192.799 298.23C192.799 309.22 188.469 338.83 183.119 338.83C177.779 338.83 173.439 309.21 173.439 298.23C173.439 288.56 177.769 286.23 183.119 286.23C188.469 286.23 192.799 288.56 192.799 298.23Z" fill="url(#paint26_linear)"/>
<path d="M192.22 298.09C192.22 308.8 188.15 338.13 183.12 338.13C178.09 338.13 174.02 308.8 174.02 298.09C174.02 288.66 178.09 286.39 183.12 286.39C188.15 286.39 192.22 288.66 192.22 298.09Z" fill="url(#paint27_linear)"/>
<path d="M191.64 297.95C191.64 308.39 187.83 337.43 183.12 337.43C178.41 337.43 174.6 308.39 174.6 297.95C174.6 288.76 178.41 286.55 183.12 286.55C187.83 286.55 191.64 288.76 191.64 297.95Z" fill="url(#paint28_linear)"/>
<path d="M191.06 297.81C191.06 307.97 187.5 336.72 183.12 336.72C178.73 336.72 175.18 307.97 175.18 297.81C175.18 288.86 178.74 286.71 183.12 286.71C187.51 286.71 191.06 288.86 191.06 297.81Z" fill="url(#paint29_linear)"/>
<path d="M190.49 297.67C190.49 307.56 187.19 336.02 183.13 336.02C179.07 336.02 175.77 307.56 175.77 297.67C175.77 288.96 179.07 286.87 183.13 286.87C187.19 286.87 190.49 288.97 190.49 297.67Z" fill="url(#paint30_linear)"/>
<path d="M189.91 297.53C189.91 307.15 186.87 335.32 183.12 335.32C179.37 335.32 176.33 307.15 176.33 297.53C176.33 289.07 179.37 287.03 183.12 287.03C186.87 287.03 189.91 289.07 189.91 297.53Z" fill="url(#paint31_linear)"/>
<path d="M189.33 297.39C189.33 306.73 186.55 334.62 183.12 334.62C179.69 334.62 176.91 306.73 176.91 297.39C176.91 289.17 179.69 287.19 183.12 287.19C186.55 287.19 189.33 289.17 189.33 297.39Z" fill="url(#paint32_linear)"/>
<path d="M188.75 297.25C188.75 306.32 186.23 333.91 183.12 333.91C180.01 333.91 177.49 306.31 177.49 297.25C177.49 289.27 180.01 287.35 183.12 287.35C186.23 287.35 188.75 289.27 188.75 297.25Z" fill="url(#paint33_linear)"/>
<path d="M188.169 297.11C188.169 305.9 185.909 333.21 183.119 333.21C180.329 333.21 178.069 305.9 178.069 297.11C178.069 289.37 180.329 287.5 183.119 287.5C185.909 287.5 188.169 289.37 188.169 297.11Z" fill="url(#paint34_linear)"/>
<path d="M187.589 296.97C187.589 305.49 185.589 332.51 183.119 332.51C180.649 332.51 178.649 305.49 178.649 296.97C178.649 289.47 180.649 287.66 183.119 287.66C185.589 287.66 187.589 289.47 187.589 296.97Z" fill="url(#paint35_linear)"/>
</g>
<path d="M191.84 282.78H174.5V285.23C174.5 285.25 174.5 285.28 174.5 285.3C174.5 288.09 178.38 290.35 183.17 290.35C187.96 290.35 191.84 288.09 191.84 285.3C191.84 285.28 191.84 285.25 191.84 285.23V282.78Z" fill="url(#paint36_linear)"/>
<path d="M160.69 225.45C159.33 231.59 152.29 252.61 147.56 251.56C142.83 250.51 141.89 227.85 143.57 221.65C145.02 216.31 149.27 213.55 153.99 214.6C158.72 215.66 161.89 220.05 160.69 225.45Z" fill="url(#paint37_linear)"/>
<path d="M183.17 287.87C187.958 287.87 191.84 285.609 191.84 282.82C191.84 280.031 187.958 277.77 183.17 277.77C178.382 277.77 174.5 280.031 174.5 282.82C174.5 285.609 178.382 287.87 183.17 287.87Z" fill="url(#paint38_linear)"/>
<path d="M221.759 219.48C221.759 240.82 204.459 285.5 183.119 285.5C161.779 285.5 144.479 240.82 144.479 219.48C144.479 200.7 161.779 196.17 183.119 196.17C204.459 196.17 221.759 200.7 221.759 219.48Z" fill="url(#paint39_linear)"/>
<path d="M221.759 219.48C221.759 240.82 204.459 285.5 183.119 285.5C161.779 285.5 144.479 240.82 144.479 219.48C144.479 200.7 161.779 196.17 183.119 196.17C204.459 196.17 221.759 200.7 221.759 219.48Z" fill="url(#paint40_radial)"/>
<path opacity="0.0727" d="M183.199 238.08C203.888 238.08 220.659 228.315 220.659 216.27C220.659 204.225 203.888 194.46 183.199 194.46C162.511 194.46 145.739 204.225 145.739 216.27C145.739 228.315 162.511 238.08 183.199 238.08Z" fill="url(#paint41_linear)"/>
<path opacity="0.1455" d="M183.189 237.67C203.624 237.67 220.189 228.022 220.189 216.12C220.189 204.218 203.624 194.57 183.189 194.57C162.755 194.57 146.189 204.218 146.189 216.12C146.189 228.022 162.755 237.67 183.189 237.67Z" fill="url(#paint42_linear)"/>
<path opacity="0.2182" d="M183.17 237.25C203.35 237.25 219.71 227.723 219.71 215.97C219.71 204.217 203.35 194.69 183.17 194.69C162.989 194.69 146.63 204.217 146.63 215.97C146.63 227.723 162.989 237.25 183.17 237.25Z" fill="url(#paint43_linear)"/>
<path opacity="0.2909" d="M183.159 236.85C203.091 236.85 219.249 227.439 219.249 215.83C219.249 204.221 203.091 194.81 183.159 194.81C163.227 194.81 147.069 204.221 147.069 215.83C147.069 227.439 163.227 236.85 183.159 236.85Z" fill="url(#paint44_linear)"/>
<path opacity="0.3636" d="M183.14 236.43C202.818 236.43 218.77 227.14 218.77 215.68C218.77 204.22 202.818 194.93 183.14 194.93C163.462 194.93 147.51 204.22 147.51 215.68C147.51 227.14 163.462 236.43 183.14 236.43Z" fill="url(#paint45_linear)"/>
<path opacity="0.4364" d="M183.129 236.01C202.559 236.01 218.309 226.841 218.309 215.53C218.309 204.219 202.559 195.05 183.129 195.05C163.7 195.05 147.949 204.219 147.949 215.53C147.949 226.841 163.7 236.01 183.129 236.01Z" fill="url(#paint46_linear)"/>
<path opacity="0.5091" d="M183.11 235.6C202.285 235.6 217.83 226.547 217.83 215.38C217.83 204.213 202.285 195.16 183.11 195.16C163.934 195.16 148.39 204.213 148.39 215.38C148.39 226.547 163.934 235.6 183.11 235.6Z" fill="url(#paint47_linear)"/>
<path opacity="0.5818" d="M183.1 235.18C202.021 235.18 217.36 226.248 217.36 215.23C217.36 204.212 202.021 195.28 183.1 195.28C164.179 195.28 148.84 204.212 148.84 215.23C148.84 226.248 164.179 235.18 183.1 235.18Z" fill="url(#paint48_linear)"/>
<path opacity="0.6545" d="M183.089 234.77C201.762 234.77 216.899 225.954 216.899 215.08C216.899 204.206 201.762 195.39 183.089 195.39C164.417 195.39 149.279 204.206 149.279 215.08C149.279 225.954 164.417 234.77 183.089 234.77Z" fill="url(#paint49_linear)"/>
<path opacity="0.7273" d="M183.07 234.35C201.488 234.35 216.42 225.655 216.42 214.93C216.42 204.205 201.488 195.51 183.07 195.51C164.651 195.51 149.72 204.205 149.72 214.93C149.72 225.655 164.651 234.35 183.07 234.35Z" fill="url(#paint50_linear)"/>
<path opacity="0.8" d="M183.06 233.93C201.225 233.93 215.95 225.356 215.95 214.78C215.95 204.204 201.225 195.63 183.06 195.63C164.895 195.63 150.17 204.204 150.17 214.78C150.17 225.356 164.895 233.93 183.06 233.93Z" fill="url(#paint51_linear)"/>
<path opacity="0.0455" d="M187.43 229.26C205.125 229.26 219.47 220.906 219.47 210.6C219.47 200.294 205.125 191.94 187.43 191.94C169.734 191.94 155.39 200.294 155.39 210.6C155.39 220.906 169.734 229.26 187.43 229.26Z" fill="url(#paint52_linear)"/>
<path opacity="0.0909" d="M187.36 228.82C204.586 228.82 218.55 220.69 218.55 210.66C218.55 200.631 204.586 192.5 187.36 192.5C170.134 192.5 156.17 200.631 156.17 210.66C156.17 220.69 170.134 228.82 187.36 228.82Z" fill="url(#paint53_linear)"/>
<path opacity="0.1364" d="M187.29 228.39C204.047 228.39 217.63 220.479 217.63 210.72C217.63 200.961 204.047 193.05 187.29 193.05C170.534 193.05 156.95 200.961 156.95 210.72C156.95 220.479 170.534 228.39 187.29 228.39Z" fill="url(#paint54_linear)"/>
<path opacity="0.1818" d="M187.21 227.95C203.502 227.95 216.71 220.258 216.71 210.77C216.71 201.282 203.502 193.59 187.21 193.59C170.918 193.59 157.71 201.282 157.71 210.77C157.71 220.258 170.918 227.95 187.21 227.95Z" fill="url(#paint55_linear)"/>
<path opacity="0.2273" d="M187.14 227.51C202.963 227.51 215.79 220.042 215.79 210.83C215.79 201.618 202.963 194.15 187.14 194.15C171.317 194.15 158.49 201.618 158.49 210.83C158.49 220.042 171.317 227.51 187.14 227.51Z" fill="url(#paint56_linear)"/>
<path opacity="0.2727" d="M187.07 227.08C202.429 227.08 214.88 219.831 214.88 210.89C214.88 201.949 202.429 194.7 187.07 194.7C171.711 194.7 159.26 201.949 159.26 210.89C159.26 219.831 171.711 227.08 187.07 227.08Z" fill="url(#paint57_linear)"/>
<path opacity="0.3182" d="M186.99 226.64C201.88 226.64 213.95 219.611 213.95 210.94C213.95 202.269 201.88 195.24 186.99 195.24C172.101 195.24 160.03 202.269 160.03 210.94C160.03 219.611 172.101 226.64 186.99 226.64Z" fill="url(#paint58_linear)"/>
<path opacity="0.3636" d="M186.92 226.21C201.34 226.21 213.03 219.4 213.03 211C213.03 202.6 201.34 195.79 186.92 195.79C172.499 195.79 160.81 202.6 160.81 211C160.81 219.4 172.499 226.21 186.92 226.21Z" fill="url(#paint59_linear)"/>
<path opacity="0.4091" d="M186.85 225.76C200.806 225.76 212.12 219.174 212.12 211.05C212.12 202.926 200.806 196.34 186.85 196.34C172.894 196.34 161.58 202.926 161.58 211.05C161.58 219.174 172.894 225.76 186.85 225.76Z" fill="url(#paint60_linear)"/>
<path opacity="0.4545" d="M186.77 225.33C200.256 225.33 211.19 218.963 211.19 211.11C211.19 203.257 200.256 196.89 186.77 196.89C173.283 196.89 162.35 203.257 162.35 211.11C162.35 218.963 173.283 225.33 186.77 225.33Z" fill="url(#paint61_linear)"/>
<path opacity="0.5" d="M186.7 224.9C199.723 224.9 210.28 218.753 210.28 211.17C210.28 203.587 199.723 197.44 186.7 197.44C173.677 197.44 163.12 203.587 163.12 211.17C163.12 218.753 173.677 224.9 186.7 224.9Z" fill="url(#paint62_linear)"/>
<path d="M183.33 225.5C208.381 225.5 228.69 205.192 228.69 180.14C228.69 155.088 208.381 134.78 183.33 134.78C158.278 134.78 137.97 155.088 137.97 180.14C137.97 205.192 158.278 225.5 183.33 225.5Z" fill="url(#paint63_radial)"/>
<path d="M141.64 184.15C151.14 195.65 164.49 203.32 179.22 205.71C183.18 206.36 186.78 203.29 186.78 199.28V187.45C186.78 182.17 183.32 177.51 178.27 175.97C167.62 172.74 157.95 166.89 150.14 158.95C148.29 157.07 145.12 157.49 143.89 159.82C141.37 164.59 139.68 169.87 139.04 175.47C138.68 178.6 139.64 181.73 141.64 184.15Z" fill="url(#paint64_linear)"/>
<path d="M152.41 180.794C153.721 180.028 153.706 177.563 152.376 175.289C151.047 173.014 148.906 171.792 147.595 172.559C146.284 173.325 146.299 175.79 147.628 178.064C148.958 180.339 151.098 181.561 152.41 180.794Z" fill="#2AF6FF"/>
<path d="M172.86 189.89C172.86 192.03 171.34 192.9 169.48 191.82C167.61 190.74 166.1 188.13 166.1 185.98C166.1 183.84 167.61 182.97 169.48 184.05C171.34 185.13 172.86 187.75 172.86 189.89Z" fill="#2AF6FF"/>
<path d="M210.08 254.45C215.912 254.45 220.64 249.722 220.64 243.89C220.64 238.058 215.912 233.33 210.08 233.33C204.247 233.33 199.52 238.058 199.52 243.89C199.52 249.722 204.247 254.45 210.08 254.45Z" fill="url(#paint65_radial)"/>
<path d="M219.509 248.57C218.169 256.51 207.019 273.95 202.289 272.9C197.559 271.85 201.779 250.37 203.139 244.23C204.339 238.83 208.839 236.13 213.559 237.18C218.299 238.23 220.439 243.11 219.509 248.57Z" fill="url(#paint66_linear)"/>
<path d="M219.509 248.57C218.169 256.51 207.019 273.95 202.289 272.9C197.559 271.85 201.779 250.37 203.139 244.23C204.339 238.83 208.839 236.13 213.559 237.18C218.299 238.23 220.439 243.11 219.509 248.57Z" fill="url(#paint67_radial)"/>
<g style="mix-blend-mode:screen">
<path d="M211.68 246.61C211.22 252.88 203.91 270.54 202.4 270.42C200.89 270.31 203.39 254.38 204.26 247.64C204.96 242.15 206.64 239.36 208.08 238.89C212.19 237.54 212.09 241.09 211.68 246.61Z" fill="url(#paint68_radial)"/>
</g>
<g style="mix-blend-mode:screen">
<path d="M218.53 249.4C216.59 258.69 207.03 271.03 205.54 270.74C204.05 270.45 212.55 258.01 214.2 251.41C215.54 246.04 214.26 240.58 215.75 240.28C220 239.42 219.66 243.98 218.53 249.4Z" fill="url(#paint69_radial)"/>
</g>
<path d="M196.73 141.19H169.59V143.16C169.59 143.2 169.59 143.23 169.59 143.27C169.59 147.63 175.67 151.17 183.16 151.17C190.66 151.17 196.73 147.63 196.73 143.27C196.73 143.23 196.73 143.2 196.73 143.16V141.19Z" fill="url(#paint70_linear)"/>
<path d="M183.16 149.14C190.654 149.14 196.73 145.603 196.73 141.24C196.73 136.877 190.654 133.34 183.16 133.34C175.665 133.34 169.59 136.877 169.59 141.24C169.59 145.603 175.665 149.14 183.16 149.14Z" fill="url(#paint71_linear)"/>
<path d="M185.19 122.51H181.13V140.38V140.4C181.13 141.05 182.04 141.58 183.16 141.58C184.28 141.58 185.19 141.05 185.19 140.4V140.38V122.51Z" fill="url(#paint72_linear)"/>
<path d="M189.19 123.03C189.19 126.36 186.49 129.06 183.16 129.06C179.83 129.06 177.13 126.36 177.13 123.03C177.13 119.7 179.83 117 183.16 117C186.49 117 189.19 119.7 189.19 123.03Z" fill="url(#paint73_radial)"/>
<g style="mix-blend-mode:screen">
<path d="M173.969 195.97C189.842 195.97 202.71 183.103 202.71 167.23C202.71 151.357 189.842 138.49 173.969 138.49C158.097 138.49 145.229 151.357 145.229 167.23C145.229 183.103 158.097 195.97 173.969 195.97Z" fill="url(#paint74_radial)"/>
</g>
<g style="mix-blend-mode:screen">
<path d="M149.84 189.09C156.859 189.09 162.55 183.4 162.55 176.38C162.55 169.36 156.859 163.67 149.84 163.67C142.82 163.67 137.13 169.36 137.13 176.38C137.13 183.4 142.82 189.09 149.84 189.09Z" fill="url(#paint75_radial)"/>
</g>
<g style="mix-blend-mode:screen">
<path d="M169.66 200.78C176.68 200.78 182.37 195.09 182.37 188.07C182.37 181.05 176.68 175.36 169.66 175.36C162.641 175.36 156.95 181.05 156.95 188.07C156.95 195.09 162.641 200.78 169.66 200.78Z" fill="url(#paint76_radial)"/>
</g>
<g style="mix-blend-mode:screen">
<path d="M163.02 235.86C168.17 256.57 178.85 280.41 176.32 281.56C171.85 283.59 154.28 260.17 149.13 239.46C144.59 221.23 146.74 199.8 151.46 198.62C156.17 197.46 158.49 217.63 163.02 235.86Z" fill="url(#paint77_radial)"/>
</g>
<path d="M151.85 206.38L148.589 200.76C147.939 199.65 148.619 198.81 149.479 199.65L153.94 204.04C155.15 205.24 156.48 206 157.69 206.21L162.149 206.97C163.009 207.12 163.689 208.74 163.039 209.11L159.78 210.97C157.6 212.21 154.04 210.16 151.85 206.38Z" fill="url(#paint78_linear)"/>
<g style="mix-blend-mode:screen">
<path d="M133.98 140.79L21.38 75.57L7.08 84.04C2.69 86.65 0 91.38 0 96.48V116.6C0 124.58 4.25 131.96 11.16 135.95L109.29 192.68C111.58 194.01 134 220.25 136.28 218.9L153.57 208.76L133.98 140.79Z" fill="url(#paint79_linear)"/>
</g>
<path d="M139.36 217.13L122.75 179.48V158.65C122.75 152.44 118.36 144.87 112.95 141.74L14.5504 84.82C11.8404 83.26 9.39037 83.1 7.62037 84.11C7.46037 84.2 2.72037 86.86 2.57037 86.97C1.07037 88.08 4.75037 87.58 4.75037 90.41V116.08C4.75037 122.29 9.14037 129.86 14.5504 132.99L109.9 188.15L134.67 219.84L139.36 217.13Z" fill="url(#paint80_linear)"/>
<path d="M134.67 219.83L118.06 182.18V161.35C118.06 155.14 113.67 147.57 108.26 144.44L9.85957 87.51C4.44957 84.38 0.0595703 86.89 0.0595703 93.1V118.77C0.0595703 124.98 4.44957 132.55 9.85957 135.68L105.21 190.84L134.67 219.83Z" fill="url(#paint81_linear)"/>
<g style="mix-blend-mode:screen">
<path d="M9.35973 88.18L107.76 145.1C113.17 148.23 117.56 155.79 117.56 162.01V182.84L131.73 214.95L136.17 219.32L119.56 181.67V160.84C119.56 154.63 115.17 147.06 109.76 143.93L11.3597 87.01C8.11973 85.14 5.24973 85.3 3.46973 87.05C5.10973 86.58 7.14973 86.9 9.35973 88.18Z" fill="url(#paint82_radial)"/>
</g>
<path d="M22.7002 110.13V108.53L21.1202 107.62V103.22C21.8302 103.28 22.3302 102.76 22.3302 101.81C22.3302 100.55 21.4402 99 20.3302 98.37C19.2302 97.73 18.3302 98.24 18.3302 99.51C18.3302 100.45 18.8302 101.55 19.5402 102.31V106.71L17.9602 105.8V107.4C12.6502 105.59 8.66016 108.68 8.66016 115.14C8.66016 122.54 13.8802 131.55 20.3302 135.27C26.7702 138.99 32.0002 136.01 32.0002 128.62C32.0102 122.15 28.0102 114.45 22.7002 110.13ZM27.2602 130.28C22.7302 128.63 18.0802 125.95 13.5402 122.38C12.2902 121.4 11.3802 119.62 11.3802 118.16V115.11C11.3802 113.84 12.3802 113.46 13.4702 114.32C18.0002 117.89 22.6502 120.58 27.1902 122.24C28.2802 122.64 29.2802 124.18 29.2802 125.45V128.65C29.2902 130.02 28.4302 130.71 27.2602 130.28ZM16.1102 118.44C15.3302 117.99 14.6902 118.35 14.6902 119.25C14.6902 120.15 15.3202 121.24 16.1102 121.69C16.8902 122.14 17.5302 121.78 17.5302 120.88C17.5302 119.98 16.8902 118.89 16.1102 118.44ZM24.5602 123.32C23.7802 122.87 23.1402 123.23 23.1402 124.13C23.1402 125.03 23.7702 126.12 24.5602 126.57C25.3402 127.02 25.9802 126.66 25.9802 125.76C25.9802 124.86 25.3402 123.77 24.5602 123.32Z" fill="white"/>
<path d="M39.75 115.83V118.2L104.75 155.42V153.05L39.75 115.83Z" fill="white"/>
<path d="M66.94 150.91L39.75 135.53V137.9L66.94 153.28V150.91Z" fill="white"/>
<path d="M80.87 149.11L39.75 125.68V128.05L80.87 151.48V149.11Z" fill="white"/>
<path d="M57.62 140.61L39.75 130.61V132.98L57.62 142.98V140.61Z" fill="white"/>
<path d="M59.96 141.96V144.33L92.12 162.9V160.53L59.96 141.96Z" fill="white"/>
<path d="M69.2695 152.26V154.63L87.3695 165.08V162.71L69.2695 152.26Z" fill="white"/>
<path d="M83.21 152.83L104.75 165.27V162.9L83.21 150.46V152.83Z" fill="white"/>
<path d="M94.46 164.25L104.75 170.19V167.82L94.46 161.88V164.25Z" fill="white"/>
<path d="M39.75 123.13L104.75 160.34V157.97L39.75 120.76V123.13Z" fill="white"/>
<path d="M89.71 166.43L104.75 175.12V172.75L89.71 164.06V166.43Z" fill="white"/>
<path d="M39.75 142.83L104.75 180.04V177.67L39.75 140.46V142.83Z" fill="white"/>
<g style="mix-blend-mode:screen">
<path d="M122.03 150.14C123.89 154.67 123.31 159.21 120.74 160.27C118.16 161.33 114.56 158.51 112.7 153.98C110.84 149.45 111.42 144.91 113.99 143.85C116.57 142.79 120.17 145.61 122.03 150.14Z" fill="url(#paint83_radial)"/>
</g>
<defs>
<linearGradient id="paint0_linear" x1="161.099" y1="78.494" x2="224.178" y2="242.531" gradientUnits="userSpaceOnUse">
<stop offset="0.0556" stop-color="#200041"/>
<stop offset="0.2576" stop-color="#210243"/>
<stop offset="0.3572" stop-color="#25084B"/>
<stop offset="0.4341" stop-color="#2C1358"/>
<stop offset="0.4697" stop-color="#311B61"/>
<stop offset="0.482" stop-color="#351F65"/>
<stop offset="0.4954" stop-color="#422C73"/>
<stop offset="0.5093" stop-color="#584188"/>
<stop offset="0.5235" stop-color="#765FA7"/>
<stop offset="0.5303" stop-color="#8770B8"/>
<stop offset="0.5366" stop-color="#7E67AE"/>
<stop offset="0.5617" stop-color="#5C468D"/>
<stop offset="0.5857" stop-color="#442E75"/>
<stop offset="0.6078" stop-color="#362066"/>
<stop offset="0.6263" stop-color="#311B61"/>
<stop offset="0.6724" stop-color="#2A1155"/>
<stop offset="0.7491" stop-color="#230446"/>
<stop offset="0.8131" stop-color="#200041"/>
<stop offset="1" stop-color="#200041"/>
</linearGradient>
<radialGradient id="paint1_radial" cx="0" cy="0" r="1" gradientUnits="userSpaceOnUse" gradientTransform="translate(314 150.228) rotate(1.20158) scale(217.894 182.71)">
<stop stop-color="#711F56"/>
<stop offset="0.1614" stop-color="#6C1E52"/>
<stop offset="0.3626" stop-color="#5C1946"/>
<stop offset="0.5849" stop-color="#431233"/>
<stop offset="0.8208" stop-color="#200918"/>
<stop offset="1"/>
</radialGradient>
<radialGradient id="paint2_radial" cx="0" cy="0" r="1" gradientUnits="userSpaceOnUse" gradientTransform="translate(282.795 136.517) rotate(1.20158) scale(128.37 107.642)">
<stop stop-color="#AF8AFC"/>
<stop offset="1" stop-color="#10054D"/>
</radialGradient>
<linearGradient id="paint3_linear" x1="252.97" y1="235.966" x2="8.51461" y2="43.5066" gradientUnits="userSpaceOnUse">
<stop offset="0.1869" stop-color="#3D065F"/>
<stop offset="0.9343" stop-color="#3D065F"/>
</linearGradient>
<linearGradient id="paint4_linear" x1="211.365" y1="350.284" x2="113.123" y2="44.6872" gradientUnits="userSpaceOnUse">
<stop stop-color="#311B61"/>
<stop offset="0.2031" stop-color="#290F52"/>
<stop offset="0.4949" stop-color="#200041"/>
<stop offset="1" stop-color="#0F001F"/>
</linearGradient>
<linearGradient id="paint5_linear" x1="133.001" y1="214.842" x2="231.06" y2="254.533" gradientUnits="userSpaceOnUse">
<stop stop-color="#311B61"/>
<stop offset="0.2031" stop-color="#290F52"/>
<stop offset="0.4949" stop-color="#200041"/>
<stop offset="1" stop-color="#0F001F"/>
</linearGradient>
<linearGradient id="paint6_linear" x1="164.753" y1="104.557" x2="258.413" y2="369.921" gradientUnits="userSpaceOnUse">
<stop offset="0.0101" stop-color="#9F19AB"/>
<stop offset="0.4293" stop-color="#5F27BD"/>
<stop offset="0.904" stop-color="#3D065F"/>
</linearGradient>
<linearGradient id="paint7_linear" x1="243.357" y1="207.547" x2="187.512" y2="84.8565" gradientUnits="userSpaceOnUse">
<stop offset="0.0354" stop-color="#9F19AB"/>
<stop offset="0.2438" stop-color="#AE25B1"/>
<stop offset="0.6455" stop-color="#D744BF"/>
<stop offset="1" stop-color="#FF63CE"/>
</linearGradient>
<linearGradient id="paint8_linear" x1="236.464" y1="276.532" x2="185.225" y2="163.961" gradientUnits="userSpaceOnUse">
<stop offset="0.0354" stop-color="#138BBD"/>
<stop offset="0.2257" stop-color="#169AC7"/>
<stop offset="0.5946" stop-color="#1FC3DF"/>
<stop offset="1" stop-color="#2AF6FF"/>
</linearGradient>
<linearGradient id="paint9_linear" x1="195.498" y1="332.996" x2="138.063" y2="206.812" gradientUnits="userSpaceOnUse">
<stop offset="0.0354" stop-color="#FFA98C"/>
<stop offset="0.3169" stop-color="#FFB892"/>
<stop offset="0.8601" stop-color="#FEE1A3"/>
<stop offset="1" stop-color="#FEECA8"/>
</linearGradient>
<linearGradient id="paint10_linear" x1="279.782" y1="174.603" x2="285.281" y2="188.907" gradientUnits="userSpaceOnUse">
<stop stop-color="#311B61"/>
<stop offset="0.2031" stop-color="#290F52"/>
<stop offset="0.4949" stop-color="#200041"/>
<stop offset="1" stop-color="#0F001F"/>
</linearGradient>
<linearGradient id="paint11_linear" x1="274.934" y1="186.944" x2="263.255" y2="181.607" gradientUnits="userSpaceOnUse">
<stop stop-color="#3D065F"/>
<stop offset="1" stop-color="#5F27BD"/>
</linearGradient>
<radialGradient id="paint12_radial" cx="0" cy="0" r="1" gradientUnits="userSpaceOnUse" gradientTransform="translate(269.92 181.843) rotate(1.20158) scale(8.20044 6.87633)">
<stop stop-color="#711F56"/>
<stop offset="0.1614" stop-color="#6C1E52"/>
<stop offset="0.3626" stop-color="#5C1946"/>
<stop offset="0.5849" stop-color="#431233"/>
<stop offset="0.8208" stop-color="#200918"/>
<stop offset="1"/>
</radialGradient>
<linearGradient id="paint13_linear" x1="212.426" y1="372.07" x2="164.426" y2="298.403" gradientUnits="userSpaceOnUse">
<stop offset="0.0354" stop-color="#138BBD"/>
<stop offset="0.2257" stop-color="#169AC7"/>
<stop offset="0.5946" stop-color="#1FC3DF"/>
<stop offset="1" stop-color="#2AF6FF"/>
</linearGradient>
<linearGradient id="paint14_linear" x1="65.9108" y1="242.021" x2="99.3255" y2="203.038" gradientUnits="userSpaceOnUse">
<stop stop-color="#FDD65B"/>
<stop offset="0.0115" stop-color="#F7D159"/>
<stop offset="0.1287" stop-color="#BEA144"/>
<stop offset="0.2492" stop-color="#8B7632"/>
<stop offset="0.3704" stop-color="#605223"/>
<stop offset="0.4923" stop-color="#3E3416"/>
<stop offset="0.6153" stop-color="#231D0C"/>
<stop offset="0.7398" stop-color="#0F0D05"/>
<stop offset="0.8667" stop-color="#040301"/>
<stop offset="1"/>
</linearGradient>
<linearGradient id="paint15_linear" x1="27.1702" y1="166.857" x2="122.379" y2="283.535" gradientUnits="userSpaceOnUse">
<stop offset="0.3384" stop-color="#FBCD9C"/>
<stop offset="0.8081" stop-color="#FEECA8"/>
<stop offset="0.9141" stop-color="#FFA98C"/>
</linearGradient>
<linearGradient id="paint16_linear" x1="-111.974" y1="186.398" x2="167.172" y2="61.8304" gradientUnits="userSpaceOnUse">
<stop offset="0.0354" stop-color="#FFA98C"/>
<stop offset="0.3169" stop-color="#FFB892"/>
<stop offset="0.8601" stop-color="#FEE1A3"/>
<stop offset="1" stop-color="#FEECA8"/>
</linearGradient>
<radialGradient id="paint17_radial" cx="0" cy="0" r="1" gradientUnits="userSpaceOnUse" gradientTransform="translate(144.945 224.238) scale(56.7941)">
<stop stop-color="white"/>
<stop offset="1"/>
</radialGradient>
<radialGradient id="paint18_radial" cx="0" cy="0" r="1" gradientUnits="userSpaceOnUse" gradientTransform="translate(128.79 239.315) rotate(-22.3372) scale(5.04455 8.87502)">
<stop stop-color="#C211A1"/>
<stop offset="0.0133" stop-color="#BD119D"/>
<stop offset="0.1476" stop-color="#8B0C73"/>
<stop offset="0.2851" stop-color="#600850"/>
<stop offset="0.4234" stop-color="#3E0533"/>
<stop offset="0.563" stop-color="#23031D"/>
<stop offset="0.7044" stop-color="#0F010D"/>
<stop offset="0.8486" stop-color="#040003"/>
<stop offset="1"/>
</radialGradient>
<linearGradient id="paint19_linear" x1="154.414" y1="138.744" x2="186.785" y2="100.978" gradientUnits="userSpaceOnUse">
<stop stop-color="#C211A1"/>
<stop offset="0.0133" stop-color="#BD119D"/>
<stop offset="0.1476" stop-color="#8B0C73"/>
<stop offset="0.2851" stop-color="#600850"/>
<stop offset="0.4234" stop-color="#3E0533"/>
<stop offset="0.563" stop-color="#23031D"/>
<stop offset="0.7044" stop-color="#0F010D"/>
<stop offset="0.8486" stop-color="#040003"/>
<stop offset="1"/>
</linearGradient>
<linearGradient id="paint20_linear" x1="116.594" y1="63.9818" x2="211.296" y2="180.038" gradientUnits="userSpaceOnUse">
<stop offset="0.1667" stop-color="#DC48C1"/>
<stop offset="0.4254" stop-color="#DF4AC2"/>
<stop offset="0.6003" stop-color="#E851C5"/>
<stop offset="0.7501" stop-color="#F75DCB"/>
<stop offset="0.8081" stop-color="#FF63CE"/>
<stop offset="0.9141" stop-color="#9F19AB"/>
</linearGradient>
<linearGradient id="paint21_linear" x1="-21.6203" y1="83.4859" x2="255.714" y2="-40.2735" gradientUnits="userSpaceOnUse">
<stop offset="0.0354" stop-color="#9F19AB"/>
<stop offset="0.2438" stop-color="#AE25B1"/>
<stop offset="0.6455" stop-color="#D744BF"/>
<stop offset="1" stop-color="#FF63CE"/>
</linearGradient>
<radialGradient id="paint22_radial" cx="0" cy="0" r="1" gradientUnits="userSpaceOnUse" gradientTransform="translate(233.6 121.062) scale(56.5829)">
<stop stop-color="white"/>
<stop offset="1"/>
</radialGradient>
<radialGradient id="paint23_radial" cx="0" cy="0" r="1" gradientUnits="userSpaceOnUse" gradientTransform="translate(217.54 135.934) rotate(-22.3372) scale(5.04455 8.87501)">
<stop stop-color="#C211A1"/>
<stop offset="0.0133" stop-color="#BD119D"/>
<stop offset="0.1476" stop-color="#8B0C73"/>
<stop offset="0.2851" stop-color="#600850"/>
<stop offset="0.4234" stop-color="#3E0533"/>
<stop offset="0.563" stop-color="#23031D"/>
<stop offset="0.7044" stop-color="#0F010D"/>
<stop offset="0.8486" stop-color="#040003"/>
<stop offset="1"/>
</radialGradient>
<linearGradient id="paint24_linear" x1="183.122" y1="292.975" x2="183.122" y2="330.541" gradientUnits="userSpaceOnUse">
<stop stop-color="#113A39"/>
<stop offset="0.2218" stop-color="#0A2222"/>
<stop offset="0.4728" stop-color="#040F0F"/>
<stop offset="0.7299" stop-color="#010404"/>
<stop offset="1"/>
</linearGradient>
<linearGradient id="paint25_linear" x1="183.122" y1="293.022" x2="183.122" y2="329.992" gradientUnits="userSpaceOnUse">
<stop stop-color="#164A48"/>
<stop offset="0.0611" stop-color="#134140"/>
<stop offset="0.2987" stop-color="#0B2524"/>
<stop offset="0.536" stop-color="#051010"/>
<stop offset="0.7707" stop-color="#010404"/>
<stop offset="1"/>
</linearGradient>
<linearGradient id="paint26_linear" x1="183.122" y1="293.069" x2="183.122" y2="329.443" gradientUnits="userSpaceOnUse">
<stop stop-color="#1A5A58"/>
<stop offset="0.1259" stop-color="#144645"/>
<stop offset="0.3577" stop-color="#0B2827"/>
<stop offset="0.5845" stop-color="#051211"/>
<stop offset="0.802" stop-color="#010404"/>
<stop offset="1"/>
</linearGradient>
<linearGradient id="paint27_linear" x1="183.122" y1="293.116" x2="183.122" y2="328.894" gradientUnits="userSpaceOnUse">
<stop stop-color="#1F6967"/>
<stop offset="0.1703" stop-color="#164C4A"/>
<stop offset="0.4003" stop-color="#0D2B2A"/>
<stop offset="0.6209" stop-color="#061313"/>
<stop offset="0.8259" stop-color="#010505"/>
<stop offset="1"/>
</linearGradient>
<linearGradient id="paint28_linear" x1="183.122" y1="293.163" x2="183.122" y2="328.345" gradientUnits="userSpaceOnUse">
<stop stop-color="#237976"/>
<stop offset="0.2072" stop-color="#185250"/>
<stop offset="0.4364" stop-color="#0E2F2E"/>
<stop offset="0.6519" stop-color="#061514"/>
<stop offset="0.846" stop-color="#020505"/>
<stop offset="1"/>
</linearGradient>
<linearGradient id="paint29_linear" x1="183.122" y1="293.211" x2="183.122" y2="327.797" gradientUnits="userSpaceOnUse">
<stop stop-color="#288985"/>
<stop offset="0.2319" stop-color="#1A5A58"/>
<stop offset="0.4639" stop-color="#0F3332"/>
<stop offset="0.6766" stop-color="#071717"/>
<stop offset="0.8622" stop-color="#020606"/>
<stop offset="1"/>
</linearGradient>
<linearGradient id="paint30_linear" x1="183.122" y1="293.258" x2="183.122" y2="327.247" gradientUnits="userSpaceOnUse">
<stop stop-color="#2C9995"/>
<stop offset="0.2455" stop-color="#1D6462"/>
<stop offset="0.4832" stop-color="#103938"/>
<stop offset="0.6957" stop-color="#071A19"/>
<stop offset="0.8752" stop-color="#020707"/>
<stop offset="1"/>
</linearGradient>
<linearGradient id="paint31_linear" x1="183.123" y1="293.305" x2="183.123" y2="326.699" gradientUnits="userSpaceOnUse">
<stop stop-color="#31A9A4"/>
<stop offset="0.2479" stop-color="#21716D"/>
<stop offset="0.494" stop-color="#13403E"/>
<stop offset="0.7092" stop-color="#081D1C"/>
<stop offset="0.8852" stop-color="#020808"/>
<stop offset="1"/>
</linearGradient>
<linearGradient id="paint32_linear" x1="183.123" y1="293.353" x2="183.123" y2="326.15" gradientUnits="userSpaceOnUse">
<stop stop-color="#35B9B3"/>
<stop offset="0.2379" stop-color="#25807C"/>
<stop offset="0.4948" stop-color="#154947"/>
<stop offset="0.7168" stop-color="#0A2120"/>
<stop offset="0.8925" stop-color="#030909"/>
<stop offset="1"/>
</linearGradient>
<linearGradient id="paint33_linear" x1="183.123" y1="293.4" x2="183.123" y2="325.601" gradientUnits="userSpaceOnUse">
<stop stop-color="#3AC8C2"/>
<stop offset="0.2027" stop-color="#2B9591"/>
<stop offset="0.4809" stop-color="#195653"/>
<stop offset="0.7163" stop-color="#0B2726"/>
<stop offset="0.8965" stop-color="#030B0A"/>
<stop offset="1"/>
</linearGradient>
<linearGradient id="paint34_linear" x1="183.122" y1="293.447" x2="183.122" y2="325.052" gradientUnits="userSpaceOnUse">
<stop stop-color="#3ED8D2"/>
<stop offset="0.1398" stop-color="#33B3AE"/>
<stop offset="0.4502" stop-color="#1E6764"/>
<stop offset="0.7072" stop-color="#0E2F2E"/>
<stop offset="0.8974" stop-color="#040D0D"/>
<stop offset="1"/>
</linearGradient>
<linearGradient id="paint35_linear" x1="183.122" y1="293.494" x2="183.122" y2="324.503" gradientUnits="userSpaceOnUse">
<stop stop-color="#43E8E1"/>
<stop offset="0.0244" stop-color="#41E1DB"/>
<stop offset="0.3881" stop-color="#26827E"/>
<stop offset="0.6824" stop-color="#113C3A"/>
<stop offset="0.8931" stop-color="#051110"/>
<stop offset="1"/>
</linearGradient>
<linearGradient id="paint36_linear" x1="174.587" y1="286.563" x2="191.65" y2="286.563" gradientUnits="userSpaceOnUse">
<stop offset="0.0202" stop-color="#45108A"/>
<stop offset="0.2929" stop-color="#3D065F"/>
<stop offset="1" stop-color="#10054D"/>
</linearGradient>
<linearGradient id="paint37_linear" x1="133.596" y1="230.954" x2="164.774" y2="234.785" gradientUnits="userSpaceOnUse">
<stop offset="0.0101" stop-color="#C1A1D5"/>
<stop offset="0.0488" stop-color="#C8ABDA"/>
<stop offset="0.1149" stop-color="#DAC6E6"/>
<stop offset="0.1998" stop-color="#F7F2F9"/>
<stop offset="0.2222" stop-color="white"/>
<stop offset="0.2513" stop-color="#F9F5FB"/>
<stop offset="0.3001" stop-color="#E9DBF2"/>
<stop offset="0.3586" stop-color="#D1B4E3"/>
<stop offset="0.4264" stop-color="#B395D6"/>
<stop offset="0.4949" stop-color="#9C7DCB"/>
<stop offset="0.5583" stop-color="#8E6EC5"/>
<stop offset="0.6111" stop-color="#8969C3"/>
<stop offset="0.755" stop-color="#9471C6"/>
<stop offset="1" stop-color="#B086CC"/>
</linearGradient>
<linearGradient id="paint38_linear" x1="176.312" y1="278.854" x2="190.035" y2="286.777" gradientUnits="userSpaceOnUse">
<stop offset="0.0202" stop-color="#45108A"/>
<stop offset="0.2929" stop-color="#3D065F"/>
<stop offset="1" stop-color="#10054D"/>
</linearGradient>
<linearGradient id="paint39_linear" x1="143.15" y1="246.336" x2="222.973" y2="234.251" gradientUnits="userSpaceOnUse">
<stop offset="0.0101" stop-color="#C1A1D5"/>
<stop offset="0.0442" stop-color="#C8ABDA"/>
<stop offset="0.1024" stop-color="#DAC6E6"/>
<stop offset="0.1773" stop-color="#F7F2F9"/>
<stop offset="0.197" stop-color="white"/>
<stop offset="0.2314" stop-color="#F9F5FB"/>
<stop offset="0.2892" stop-color="#E9DBF2"/>
<stop offset="0.3586" stop-color="#D1B4E3"/>
<stop offset="0.4264" stop-color="#B395D6"/>
<stop offset="0.4949" stop-color="#9C7DCB"/>
<stop offset="0.5583" stop-color="#8E6EC5"/>
<stop offset="0.6111" stop-color="#8969C3"/>
<stop offset="0.755" stop-color="#9471C6"/>
<stop offset="1" stop-color="#B086CC"/>
</linearGradient>
<radialGradient id="paint40_radial" cx="0" cy="0" r="1" gradientUnits="userSpaceOnUse" gradientTransform="translate(179.411 237.948) scale(50.7211)">
<stop offset="0.3788" stop-color="white"/>
<stop offset="0.4675" stop-color="#F4F2F9"/>
<stop offset="0.6315" stop-color="#D8D0E8"/>
<stop offset="0.8509" stop-color="#AA99CC"/>
<stop offset="1" stop-color="#8770B8"/>
</radialGradient>
<linearGradient id="paint41_linear" x1="153.554" y1="199.158" x2="212.846" y2="233.391" gradientUnits="userSpaceOnUse">
<stop stop-color="white"/>
<stop offset="0.3077" stop-color="#E9DDF1"/>
<stop offset="0.9843" stop-color="#B188CD"/>
<stop offset="1" stop-color="#B086CC"/>
</linearGradient>
<linearGradient id="paint42_linear" x1="153.901" y1="199.217" x2="212.471" y2="233.033" gradientUnits="userSpaceOnUse">
<stop stop-color="white"/>
<stop offset="0.3077" stop-color="#E9DDF1"/>
<stop offset="0.9843" stop-color="#B188CD"/>
<stop offset="1" stop-color="#B086CC"/>
</linearGradient>
<linearGradient id="paint43_linear" x1="154.248" y1="199.276" x2="212.096" y2="232.674" gradientUnits="userSpaceOnUse">
<stop stop-color="white"/>
<stop offset="0.3077" stop-color="#E9DDF1"/>
<stop offset="0.9843" stop-color="#B188CD"/>
<stop offset="1" stop-color="#B086CC"/>
</linearGradient>
<linearGradient id="paint44_linear" x1="154.594" y1="199.335" x2="211.72" y2="232.316" gradientUnits="userSpaceOnUse">
<stop stop-color="white"/>
<stop offset="0.3077" stop-color="#E9DDF1"/>
<stop offset="0.9843" stop-color="#B188CD"/>
<stop offset="1" stop-color="#B086CC"/>
</linearGradient>
<linearGradient id="paint45_linear" x1="154.942" y1="199.393" x2="211.345" y2="231.958" gradientUnits="userSpaceOnUse">
<stop stop-color="white"/>
<stop offset="0.3077" stop-color="#E9DDF1"/>
<stop offset="0.9843" stop-color="#B188CD"/>
<stop offset="1" stop-color="#B086CC"/>
</linearGradient>
<linearGradient id="paint46_linear" x1="155.288" y1="199.452" x2="210.969" y2="231.6" gradientUnits="userSpaceOnUse">
<stop stop-color="white"/>
<stop offset="0.3077" stop-color="#E9DDF1"/>
<stop offset="0.9843" stop-color="#B188CD"/>
<stop offset="1" stop-color="#B086CC"/>
</linearGradient>
<linearGradient id="paint47_linear" x1="155.635" y1="199.511" x2="210.593" y2="231.241" gradientUnits="userSpaceOnUse">
<stop stop-color="white"/>
<stop offset="0.3077" stop-color="#E9DDF1"/>
<stop offset="0.9843" stop-color="#B188CD"/>
<stop offset="1" stop-color="#B086CC"/>
</linearGradient>
<linearGradient id="paint48_linear" x1="155.982" y1="199.57" x2="210.218" y2="230.883" gradientUnits="userSpaceOnUse">
<stop stop-color="white"/>
<stop offset="0.3077" stop-color="#E9DDF1"/>
<stop offset="0.9843" stop-color="#B188CD"/>
<stop offset="1" stop-color="#B086CC"/>
</linearGradient>
<linearGradient id="paint49_linear" x1="156.329" y1="199.629" x2="209.842" y2="230.525" gradientUnits="userSpaceOnUse">
<stop stop-color="white"/>
<stop offset="0.3077" stop-color="#E9DDF1"/>
<stop offset="0.9843" stop-color="#B188CD"/>
<stop offset="1" stop-color="#B086CC"/>
</linearGradient>
<linearGradient id="paint50_linear" x1="156.676" y1="199.688" x2="209.467" y2="230.167" gradientUnits="userSpaceOnUse">
<stop stop-color="white"/>
<stop offset="0.3077" stop-color="#E9DDF1"/>
<stop offset="0.9843" stop-color="#B188CD"/>
<stop offset="1" stop-color="#B086CC"/>
</linearGradient>
<linearGradient id="paint51_linear" x1="157.023" y1="199.747" x2="209.091" y2="229.809" gradientUnits="userSpaceOnUse">
<stop stop-color="white"/>
<stop offset="0.3077" stop-color="#E9DDF1"/>
<stop offset="0.9843" stop-color="#B188CD"/>
<stop offset="1" stop-color="#B086CC"/>
</linearGradient>
<linearGradient id="paint52_linear" x1="162.079" y1="195.966" x2="212.79" y2="225.243" gradientUnits="userSpaceOnUse">
<stop offset="0.1869" stop-color="#3D065F"/>
<stop offset="0.9343" stop-color="#3D065F"/>
</linearGradient>
<linearGradient id="paint53_linear" x1="162.675" y1="196.408" x2="212.047" y2="224.913" gradientUnits="userSpaceOnUse">
<stop offset="0.1869" stop-color="#3D065F"/>
<stop offset="0.9343" stop-color="#3D065F"/>
</linearGradient>
<linearGradient id="paint54_linear" x1="163.272" y1="196.851" x2="211.304" y2="224.583" gradientUnits="userSpaceOnUse">
<stop offset="0.1869" stop-color="#3D065F"/>
<stop offset="0.9343" stop-color="#3D065F"/>
</linearGradient>
<linearGradient id="paint55_linear" x1="163.867" y1="197.294" x2="210.56" y2="224.252" gradientUnits="userSpaceOnUse">
<stop offset="0.1869" stop-color="#3D065F"/>
<stop offset="0.9343" stop-color="#3D065F"/>
</linearGradient>
<linearGradient id="paint56_linear" x1="164.464" y1="197.737" x2="209.817" y2="223.922" gradientUnits="userSpaceOnUse">
<stop offset="0.1869" stop-color="#3D065F"/>
<stop offset="0.9343" stop-color="#3D065F"/>
</linearGradient>
<linearGradient id="paint57_linear" x1="165.059" y1="198.18" x2="209.074" y2="223.591" gradientUnits="userSpaceOnUse">
<stop offset="0.1869" stop-color="#3D065F"/>
<stop offset="0.9343" stop-color="#3D065F"/>
</linearGradient>
<linearGradient id="paint58_linear" x1="165.656" y1="198.623" x2="208.331" y2="223.261" gradientUnits="userSpaceOnUse">
<stop offset="0.1869" stop-color="#3D065F"/>
<stop offset="0.9343" stop-color="#3D065F"/>
</linearGradient>
<linearGradient id="paint59_linear" x1="166.251" y1="199.065" x2="207.587" y2="222.931" gradientUnits="userSpaceOnUse">
<stop offset="0.1869" stop-color="#3D065F"/>
<stop offset="0.9343" stop-color="#3D065F"/>
</linearGradient>
<linearGradient id="paint60_linear" x1="166.848" y1="199.508" x2="206.844" y2="222.6" gradientUnits="userSpaceOnUse">
<stop offset="0.1869" stop-color="#3D065F"/>
<stop offset="0.9343" stop-color="#3D065F"/>
</linearGradient>
<linearGradient id="paint61_linear" x1="167.444" y1="199.951" x2="206.101" y2="222.27" gradientUnits="userSpaceOnUse">
<stop offset="0.1869" stop-color="#3D065F"/>
<stop offset="0.9343" stop-color="#3D065F"/>
</linearGradient>
<linearGradient id="paint62_linear" x1="168.04" y1="200.394" x2="205.358" y2="221.94" gradientUnits="userSpaceOnUse">
<stop offset="0.1869" stop-color="#3D065F"/>
<stop offset="0.9343" stop-color="#3D065F"/>
</linearGradient>
<radialGradient id="paint63_radial" cx="0" cy="0" r="1" gradientUnits="userSpaceOnUse" gradientTransform="translate(171.576 167.357) scale(64.0969)">
<stop offset="0.0101" stop-color="white"/>
<stop offset="0.1617" stop-color="#E6D7F0"/>
<stop offset="0.2847" stop-color="#D7BDE7"/>
<stop offset="0.3586" stop-color="#D1B4E3"/>
<stop offset="0.4766" stop-color="#C4A4DC"/>
<stop offset="0.7057" stop-color="#A17BC9"/>
<stop offset="0.7172" stop-color="#9F79C8"/>
<stop offset="0.8107" stop-color="#A37CC9"/>
<stop offset="0.8979" stop-color="#AE84CC"/>
<stop offset="0.9091" stop-color="#B086CC"/>
<stop offset="0.9569" stop-color="#AD84CB"/>
<stop offset="0.9884" stop-color="#A57DC9"/>
<stop offset="1" stop-color="#9F79C8"/>
</radialGradient>
<linearGradient id="paint64_linear" x1="138.964" y1="181.789" x2="186.776" y2="181.789" gradientUnits="userSpaceOnUse">
<stop offset="0.0202" stop-color="#45108A"/>
<stop offset="0.2929" stop-color="#3D065F"/>
<stop offset="1" stop-color="#10054D"/>
</linearGradient>
<radialGradient id="paint65_radial" cx="0" cy="0" r="1" gradientUnits="userSpaceOnUse" gradientTransform="translate(206.627 238.881) scale(15.4981)">
<stop offset="0.0404" stop-color="#6115A3"/>
<stop offset="0.0977" stop-color="#5A139A"/>
<stop offset="0.5152" stop-color="#2B0658"/>
<stop offset="1" stop-color="#10054D"/>
</radialGradient>
<linearGradient id="paint66_linear" x1="198.361" y1="253.847" x2="229.309" y2="257.65" gradientUnits="userSpaceOnUse">
<stop offset="0.0101" stop-color="#C1A1D5"/>
<stop offset="0.0488" stop-color="#C8ABDA"/>
<stop offset="0.1149" stop-color="#DAC6E6"/>
<stop offset="0.1998" stop-color="#F7F2F9"/>
<stop offset="0.2222" stop-color="white"/>
<stop offset="0.2513" stop-color="#F9F5FB"/>
<stop offset="0.3001" stop-color="#E9DBF2"/>
<stop offset="0.3586" stop-color="#D1B4E3"/>
<stop offset="0.4264" stop-color="#B395D6"/>
<stop offset="0.4949" stop-color="#9C7DCB"/>
<stop offset="0.5583" stop-color="#8E6EC5"/>
<stop offset="0.6111" stop-color="#8969C3"/>
<stop offset="0.755" stop-color="#9471C6"/>
<stop offset="1" stop-color="#B086CC"/>
</linearGradient>
<radialGradient id="paint67_radial" cx="0" cy="0" r="1" gradientUnits="userSpaceOnUse" gradientTransform="translate(201.568 250.004) scale(21.8503)">
<stop offset="0.3788" stop-color="white"/>
<stop offset="0.4675" stop-color="#F4F2F9"/>
<stop offset="0.6315" stop-color="#D8D0E8"/>
<stop offset="0.8509" stop-color="#AA99CC"/>
<stop offset="1" stop-color="#8770B8"/>
</radialGradient>
<radialGradient id="paint68_radial" cx="0" cy="0" r="1" gradientUnits="userSpaceOnUse" gradientTransform="translate(205.747 249.445) rotate(-31.142) scale(5.32917 11.8744)">
<stop stop-color="#972A74"/>
<stop offset="0.0413" stop-color="#8A266A"/>
<stop offset="0.1941" stop-color="#601B4A"/>
<stop offset="0.35" stop-color="#3D112F"/>
<stop offset="0.5074" stop-color="#220A1B"/>
<stop offset="0.6667" stop-color="#0F040C"/>
<stop offset="0.8293" stop-color="#040103"/>
<stop offset="1"/>
</radialGradient>
<radialGradient id="paint69_radial" cx="0" cy="0" r="1" gradientUnits="userSpaceOnUse" gradientTransform="translate(216.608 251.118) rotate(-24.3706) scale(5.5636 12.3998)">
<stop stop-color="#481437"/>
<stop offset="0.0746" stop-color="#3D112F"/>
<stop offset="0.2976" stop-color="#220A1A"/>
<stop offset="0.5247" stop-color="#0F040C"/>
<stop offset="0.7565" stop-color="#040103"/>
<stop offset="1"/>
</radialGradient>
<linearGradient id="paint70_linear" x1="169.718" y1="146.179" x2="196.432" y2="146.179" gradientUnits="userSpaceOnUse">
<stop offset="0.0101" stop-color="#C1A1D5"/>
<stop offset="0.0488" stop-color="#C8ABDA"/>
<stop offset="0.1149" stop-color="#DAC6E6"/>
<stop offset="0.1998" stop-color="#F7F2F9"/>
<stop offset="0.2222" stop-color="white"/>
<stop offset="0.2513" stop-color="#F9F5FB"/>
<stop offset="0.3001" stop-color="#E9DBF2"/>
<stop offset="0.3586" stop-color="#D1B4E3"/>
<stop offset="0.4264" stop-color="#B395D6"/>
<stop offset="0.4949" stop-color="#9C7DCB"/>
<stop offset="0.5583" stop-color="#8E6EC5"/>
<stop offset="0.6111" stop-color="#8969C3"/>
<stop offset="0.755" stop-color="#9471C6"/>
<stop offset="1" stop-color="#B086CC"/>
</linearGradient>
<linearGradient id="paint71_linear" x1="172.419" y1="135.038" x2="193.902" y2="147.442" gradientUnits="userSpaceOnUse">
<stop offset="0.0758" stop-color="white"/>
<stop offset="0.2133" stop-color="#F9F5FB"/>
<stop offset="0.4441" stop-color="#E8DBF0"/>
<stop offset="0.7377" stop-color="#CCB1DE"/>
<stop offset="1" stop-color="#B086CC"/>
</linearGradient>
<linearGradient id="paint72_linear" x1="181.151" y1="132.048" x2="185.145" y2="132.048" gradientUnits="userSpaceOnUse">
<stop offset="0.0101" stop-color="#C1A1D5"/>
<stop offset="0.0488" stop-color="#C8ABDA"/>
<stop offset="0.1149" stop-color="#DAC6E6"/>
<stop offset="0.1998" stop-color="#F7F2F9"/>
<stop offset="0.2222" stop-color="white"/>
<stop offset="0.2513" stop-color="#F9F5FB"/>
<stop offset="0.3001" stop-color="#E9DBF2"/>
<stop offset="0.3586" stop-color="#D1B4E3"/>
<stop offset="0.4264" stop-color="#B395D6"/>
<stop offset="0.4949" stop-color="#9C7DCB"/>
<stop offset="0.5583" stop-color="#8E6EC5"/>
<stop offset="0.6111" stop-color="#8969C3"/>
<stop offset="0.755" stop-color="#9471C6"/>
<stop offset="1" stop-color="#B086CC"/>
</linearGradient>
<radialGradient id="paint73_radial" cx="0" cy="0" r="1" gradientUnits="userSpaceOnUse" gradientTransform="translate(181.725 121.879) scale(8.0463)">
<stop offset="0.0101" stop-color="white"/>
<stop offset="0.1617" stop-color="#E6D7F0"/>
<stop offset="0.2847" stop-color="#D7BDE7"/>
<stop offset="0.3586" stop-color="#D1B4E3"/>
<stop offset="0.4766" stop-color="#C4A4DC"/>
<stop offset="0.7057" stop-color="#A17BC9"/>
<stop offset="0.7172" stop-color="#9F79C8"/>
<stop offset="0.8107" stop-color="#A37CC9"/>
<stop offset="0.8979" stop-color="#AE84CC"/>
<stop offset="0.9091" stop-color="#B086CC"/>
<stop offset="0.9569" stop-color="#AD84CB"/>
<stop offset="0.9884" stop-color="#A57DC9"/>
<stop offset="1" stop-color="#9F79C8"/>
</radialGradient>
<radialGradient id="paint74_radial" cx="0" cy="0" r="1" gradientUnits="userSpaceOnUse" gradientTransform="translate(169.62 161.398) scale(33.2558)">
<stop stop-color="#972A74"/>
<stop offset="0.0413" stop-color="#8A266A"/>
<stop offset="0.1941" stop-color="#601B4A"/>
<stop offset="0.35" stop-color="#3D112F"/>
<stop offset="0.5074" stop-color="#220A1B"/>
<stop offset="0.6667" stop-color="#0F040C"/>
<stop offset="0.8293" stop-color="#040103"/>
<stop offset="1"/>
</radialGradient>
<radialGradient id="paint75_radial" cx="0" cy="0" r="1" gradientUnits="userSpaceOnUse" gradientTransform="translate(149.839 176.378) scale(12.7127)">
<stop stop-color="#43E8E1"/>
<stop offset="0.137" stop-color="#34B5B0"/>
<stop offset="0.3029" stop-color="#257F7B"/>
<stop offset="0.465" stop-color="#17514F"/>
<stop offset="0.6192" stop-color="#0D2E2D"/>
<stop offset="0.7637" stop-color="#061514"/>
<stop offset="0.8946" stop-color="#020505"/>
<stop offset="1"/>
</radialGradient>
<radialGradient id="paint76_radial" cx="0" cy="0" r="1" gradientUnits="userSpaceOnUse" gradientTransform="translate(169.664 188.07) scale(12.7127)">
<stop stop-color="#43E8E1"/>
<stop offset="0.137" stop-color="#34B5B0"/>
<stop offset="0.3029" stop-color="#257F7B"/>
<stop offset="0.465" stop-color="#17514F"/>
<stop offset="0.6192" stop-color="#0D2E2D"/>
<stop offset="0.7637" stop-color="#061514"/>
<stop offset="0.8946" stop-color="#020505"/>
<stop offset="1"/>
</radialGradient>
<radialGradient id="paint77_radial" cx="0" cy="0" r="1" gradientUnits="userSpaceOnUse" gradientTransform="translate(155.801 242.546) rotate(-13.9752) scale(9.22119 40.4898)">
<stop stop-color="#972A74"/>
<stop offset="0.0228" stop-color="#8C276C"/>
<stop offset="0.1136" stop-color="#671D4F"/>
<stop offset="0.212" stop-color="#471437"/>
<stop offset="0.3179" stop-color="#2D0D23"/>
<stop offset="0.4342" stop-color="#190713"/>
<stop offset="0.5661" stop-color="#0B0308"/>
<stop offset="0.7271" stop-color="#020102"/>
<stop offset="1"/>
</radialGradient>
<linearGradient id="paint78_linear" x1="151.903" y1="197.48" x2="159.637" y2="211.049" gradientUnits="userSpaceOnUse">
<stop offset="0.0202" stop-color="#45108A"/>
<stop offset="0.2929" stop-color="#3D065F"/>
<stop offset="1" stop-color="#10054D"/>
</linearGradient>
<linearGradient id="paint79_linear" x1="65.3733" y1="163.262" x2="96.9728" y2="126.395" gradientUnits="userSpaceOnUse">
<stop stop-color="#43E8E1"/>
<stop offset="0.0944" stop-color="#36BDB7"/>
<stop offset="0.2176" stop-color="#288B87"/>
<stop offset="0.3438" stop-color="#1C605D"/>
<stop offset="0.4708" stop-color="#123E3C"/>
<stop offset="0.599" stop-color="#0A2321"/>
<stop offset="0.7287" stop-color="#040F0F"/>
<stop offset="0.8611" stop-color="#010404"/>
<stop offset="1"/>
</linearGradient>
<linearGradient id="paint80_linear" x1="13.2531" y1="80.4066" x2="136.247" y2="219.129" gradientUnits="userSpaceOnUse">
<stop stop-color="#4EC1DE"/>
<stop offset="0.2391" stop-color="#4DC4DE"/>
<stop offset="0.4459" stop-color="#49CFDE"/>
<stop offset="0.6403" stop-color="#43E1DE"/>
<stop offset="0.6515" stop-color="#43E2DE"/>
<stop offset="0.7707" stop-color="#3DABC8"/>
<stop offset="0.8384" stop-color="#3A91BD"/>
<stop offset="0.8798" stop-color="#3B96BF"/>
<stop offset="1" stop-color="#3CA0C3"/>
</linearGradient>
<linearGradient id="paint81_linear" x1="-135.094" y1="95.7417" x2="246.621" y2="37.2455" gradientUnits="userSpaceOnUse">
<stop offset="0.0354" stop-color="#138BBD"/>
<stop offset="0.2257" stop-color="#169AC7"/>
<stop offset="0.5946" stop-color="#1FC3DF"/>
<stop offset="1" stop-color="#2AF6FF"/>
</linearGradient>
<radialGradient id="paint82_radial" cx="0" cy="0" r="1" gradientUnits="userSpaceOnUse" gradientTransform="translate(138.976 133.989) scale(67.6382)">
<stop stop-color="white"/>
<stop offset="1"/>
</radialGradient>
<radialGradient id="paint83_radial" cx="0" cy="0" r="1" gradientUnits="userSpaceOnUse" gradientTransform="translate(117.366 152.062) rotate(-22.3372) scale(5.04451 8.87495)">
<stop stop-color="#972A74"/>
<stop offset="0.0413" stop-color="#8A266A"/>
<stop offset="0.1941" stop-color="#601B4A"/>
<stop offset="0.35" stop-color="#3D112F"/>
<stop offset="0.5074" stop-color="#220A1B"/>
<stop offset="0.6667" stop-color="#0F040C"/>
<stop offset="0.8293" stop-color="#040103"/>
<stop offset="1"/>
</radialGradient>
</defs>
</svg>
