<svg width="225" height="432" viewBox="0 0 225 432" fill="none" xmlns="http://www.w3.org/2000/svg">
<g clip-path="url(#clip0)">
<path opacity="0.1" d="M137.071 426.433C168.353 438.34 182.453 429.264 203.906 416.904C225.359 404.544 234.696 393.901 211.296 384.635C188.426 375.559 165.574 385.126 144.122 397.486C122.669 409.846 120.06 419.961 137.071 426.433Z" fill="black"/>
<path d="M140.493 274.866C140.115 279.622 138.338 284.056 137.053 286.698C135.616 289.698 135.125 293.133 133.518 292.567C131.911 292.001 133.972 278.093 133.972 278.093L140.493 274.866Z" fill="url(#paint0_radial)"/>
<path d="M214.472 397.826C214.472 397.826 216.041 403.845 214.831 406.374C213.621 408.903 208.083 410.96 203.604 408.789C199.143 406.619 197.215 402.053 195.514 400.845C193.832 399.637 184.287 398.562 177.18 392.542C170.054 386.522 171.018 379.899 178.144 379.767C185.269 379.654 198.179 382.899 202.753 385.919C207.346 388.9 214.472 397.826 214.472 397.826Z" fill="#10054D"/>
<path d="M211.088 404.317C205.985 405.374 199.502 400.939 196.496 398.411C193.472 395.882 188.18 397.203 181.3 391.787C174.42 386.371 172.019 382.635 175.138 380.823C178.276 379.012 189.692 379.54 198.613 384.352C207.535 389.164 213.489 392.636 213.489 392.636C213.489 392.636 215.662 399.26 214.566 400.713C213.508 402.166 213.98 403.713 211.088 404.317Z" fill="url(#paint1_linear)"/>
<path d="M211.146 252.392C211.146 252.392 214.945 268.658 212.412 289.245C209.879 309.833 213.867 351.216 214.756 365.84C215.663 380.484 220.747 398.448 213.3 402.147C209.029 404.279 201.355 403.053 195.382 396.184C189.409 389.315 188.143 382.635 188.861 381.371C189.579 380.106 190.676 374.502 188.313 362.406C185.969 350.31 181.263 320.853 181.622 311.267C181.981 301.7 185.421 256.713 185.421 256.713L211.146 252.392Z" fill="url(#paint2_linear)"/>
<path d="M181.66 311.286C181.301 320.853 186.007 350.31 188.351 362.425C190.695 374.521 189.617 380.125 188.899 381.39C188.181 382.654 189.447 389.334 195.42 396.203C197.764 398.901 200.353 400.713 202.905 401.807C200.334 396.958 196.498 386.956 196.498 370.369C196.498 345.441 191.319 313.645 190.581 296.303C190.166 286.151 192.547 266.941 192.547 254.618L185.459 256.732C185.459 256.713 182.019 301.7 181.66 311.286Z" fill="#D1D3D4"/>
<path d="M138.772 146.076C138.772 146.076 123.254 144.491 117.092 147.491C110.93 150.491 100.894 160.153 100.875 163.267C100.856 166.041 109.248 169.664 114.276 168.248C119.304 166.833 119.871 166.078 123.935 165.229C127.998 164.38 136.126 161.738 139.093 160.172C142.061 158.587 138.772 146.076 138.772 146.076Z" fill="url(#paint3_radial)"/>
<path d="M176.595 419.262C176.595 419.262 179.241 427.094 175.99 428.773C172.739 430.453 167.673 431.415 163.572 429.622C159.47 427.811 157.788 426.018 153.441 426.018C149.093 426.018 132.215 417.715 128.945 413.62C125.694 409.525 128.945 404.827 137.034 405.43C145.124 406.034 156.692 406.997 158.752 407.714C160.774 408.412 176.595 419.262 176.595 419.262Z" fill="#10054D"/>
<path d="M172.964 425.037C165.385 425.924 162.947 423.829 155.953 422.395C148.96 420.942 129.057 412.903 129.416 408.431C129.775 403.977 134.349 404.921 138.205 405.28C142.061 405.638 154.366 406.487 155.329 406.487C156.293 406.487 176.329 415.526 176.329 415.526C176.329 415.526 177.784 422.036 176.442 422.999C175.138 423.961 175.025 424.792 172.964 425.037Z" fill="url(#paint4_linear)"/>
<path d="M187.632 257.807C187.632 257.807 192.149 267.563 187.821 284.358C183.474 301.153 178.408 321.042 178.238 342.347C178.049 363.67 180.582 418.772 177.331 421.848C174.08 424.924 162.607 425.961 157.976 422.565C150.434 417.036 146.389 409.205 147.127 406.487C147.845 403.77 153.648 394.014 151.644 385.352C149.64 376.691 142.949 346.687 144.216 326.269C145.482 305.851 148.922 252.561 148.922 252.561L187.632 257.807Z" fill="url(#paint5_linear)"/>
<path d="M169.109 89.2381C164.308 91.578 159.451 95.5031 159.224 107.542C158.978 119.582 158.865 125.375 161.265 126.941C163.684 128.507 165.48 126.941 165.972 130.319C166.463 133.697 165.48 139.226 165.48 139.226L191.772 133.319C191.772 133.319 189.957 129.111 191.658 124.771C193.341 120.431 200.939 111.996 195.155 99.598C189.371 87.1812 174.78 86.4642 169.109 89.2381Z" fill="url(#paint6_radial)"/>
<path d="M158.978 99.4847C158.884 101.787 160.301 105.504 163.571 105.75C166.822 105.995 168.391 109.845 167.673 111.656C166.954 113.468 167.427 113.939 167.427 113.939C167.427 113.939 169.846 112.977 170.924 114.902C172.001 116.827 170.564 120.921 169.846 122.488C169.128 124.054 174.553 128.866 179.013 129.224C183.474 129.583 189.503 129.111 191.431 126.809C193.359 124.526 200.485 116.808 197.952 104.523C195.42 92.2385 184.079 84.8979 173.589 86.9359C163.08 88.9928 159.091 96.2201 158.978 99.4847Z" fill="url(#paint7_linear)"/>
<path d="M136.731 145.208C136.731 145.208 133.385 147.642 133.99 152.227C134.595 156.813 138.942 163.795 138.942 163.795L184.664 161.266C184.664 161.266 219.915 159.757 218.346 145.415C216.853 131.734 207.459 132.357 187.084 137.66C166.689 142.962 158.732 143.811 152.097 144.396C145.463 145 136.731 145.208 136.731 145.208Z" fill="url(#paint8_linear)"/>
<path d="M161.171 146C161.171 146 164.025 136.093 169.941 134.886C175.857 133.678 181.036 134.395 185.024 132.602C189.012 130.791 191.167 127.413 191.167 127.413C191.167 127.413 195.722 128.658 192.339 132.753C188.975 136.848 161.171 146 161.171 146Z" fill="url(#paint9_linear)"/>
<path d="M136.107 158.53C137.865 161.946 138.961 163.795 138.961 163.795L184.684 161.266C184.684 161.266 219.802 159.776 218.365 145.491C209.936 147.548 188.691 156.209 169.317 157.266C151.588 158.209 140.719 158.455 136.107 158.53Z" fill="#D1D3D4"/>
<path d="M162.532 254.411L148.885 252.561C148.885 252.561 145.445 305.851 144.179 326.269C142.912 346.687 149.603 376.672 151.607 385.352C153.592 394.033 147.808 403.789 147.09 406.487C146.428 408.959 149.736 415.696 156.03 421.036C155.028 409.639 155.992 397.731 156.672 389.636C157.447 380.238 150.397 346.196 152.363 325.835C154.064 308.135 160.812 265.242 162.532 254.411Z" fill="#D1D3D4"/>
<path d="M183.096 136.697C188.521 134.886 194.191 131.527 194.191 131.527C194.191 131.527 202.546 131.395 207.365 132.112C212.185 132.829 219.557 137.282 219.065 146.321C218.574 155.36 216.627 166.928 213.603 179.571C210.579 192.214 210.711 201.366 212.998 214.009C215.285 226.652 223.261 254.354 222.657 257.373C222.052 260.393 215.172 271.111 199.37 276.64C183.569 282.188 157.258 283.509 146.655 271.337C136.032 259.166 149.773 217.274 150.378 196.799C150.983 176.325 143.517 167.758 152.193 157.153C160.887 146.548 170.659 140.169 176.197 138.716C181.773 137.301 183.096 136.697 183.096 136.697Z" fill="url(#paint10_linear)"/>
<path d="M160.415 146.698C162.947 143.321 168.013 138.754 172.719 138.15C177.426 137.546 186.498 135.716 189.523 133.489C192.981 130.942 193.378 128.79 193.378 128.79L200.429 131.395C200.429 131.395 201.033 139.792 191.148 142.811C181.263 145.83 170.111 145.679 162.929 149.85C156.143 153.794 151.966 157.662 151.966 157.662L160.415 146.698Z" fill="#D1D3D4"/>
<path d="M160.415 146.698C162.947 143.321 168.013 138.754 172.719 138.15C177.426 137.546 186.498 135.716 189.523 133.489C192.981 130.942 193.378 128.79 193.378 128.79L200.429 131.395C200.429 131.395 200.334 138.263 190.449 141.283C180.563 144.302 167.654 145.132 161.379 149.831C155.103 154.53 151.966 157.662 151.966 157.662L160.415 146.698Z" fill="url(#paint11_linear)"/>
<g style="mix-blend-mode:screen">
<path d="M199.729 131.13C199.559 132.527 198.387 138.075 189.768 140.698C179.883 143.717 166.973 144.547 160.698 149.246C158.336 151.02 156.427 152.567 154.952 153.794L151.966 157.662C151.966 157.662 155.103 154.53 161.379 149.831C167.654 145.132 180.563 144.283 190.449 141.283C200.334 138.263 200.429 131.395 200.429 131.395L199.729 131.13Z" fill="url(#paint12_radial)"/>
</g>
<path d="M171.566 164.588C164.781 154.511 155.009 162.587 147.996 169.4C148.129 176.212 150.775 184.269 150.397 196.799C149.792 217.274 136.051 259.166 146.673 271.337C151.796 277.206 160.585 279.923 170.073 280.565C169.26 275.885 168.523 270.262 168.24 263.997C167.465 246.391 172.757 236.597 174.912 212.915C177.048 189.251 180.393 177.703 171.566 164.588Z" fill="#D1D3D4"/>
<path d="M198.104 105.542C195.911 107.354 192.093 109.524 185.686 110.713C179.013 111.958 172.417 110.92 167.71 109.675C167.881 110.411 167.881 111.128 167.673 111.656C166.954 113.468 167.427 113.939 167.427 113.939C167.427 113.939 169.846 112.977 170.924 114.902C172.001 116.827 170.565 120.922 169.846 122.488C169.128 124.054 174.553 128.866 179.013 129.224C183.474 129.583 189.504 129.111 191.431 126.809C193.303 124.601 200.05 117.223 198.104 105.542Z" fill="#D1D3D4"/>
<path d="M155.557 315.173V365.935L161.643 362.406V311.456L155.557 315.173Z" fill="url(#paint13_linear)"/>
<path d="M155.595 315.173V365.935L93.75 330.44V279.489L155.595 315.173Z" fill="url(#paint14_linear)"/>
<path d="M127.507 333.138V336.535C127.507 337.818 126.108 338.629 124.993 337.988L120.268 335.27C119.285 334.704 118.661 333.648 118.661 332.515V329.987C118.661 328.703 120.06 327.892 121.175 328.534L126.656 331.704C127.204 331.987 127.507 332.534 127.507 333.138Z" fill="url(#paint15_linear)"/>
<path d="M155.595 315.173V330.628C155.595 332.591 154.007 334.176 152.041 334.176H126.903C124.124 334.176 121.497 332.912 119.777 330.741L96.7931 301.983C94.8085 299.511 93.75 296.435 93.75 293.284V279.508L155.595 315.173Z" fill="url(#paint16_linear)"/>
<g style="mix-blend-mode:screen">
<path d="M155.595 315.173V330.628C155.595 332.591 154.007 334.176 152.041 334.176H126.903C124.124 334.176 121.497 332.912 119.777 330.741L96.7931 301.983C94.8085 299.511 93.75 296.435 93.75 293.284V279.508L155.595 315.173Z" fill="url(#paint17_radial)"/>
</g>
<path d="M93.75 279.489L155.595 315.173L161.643 311.456L99.7606 275.847L93.75 279.489Z" fill="url(#paint18_linear)"/>
<path d="M132.384 284.169L124.389 279.565C122.423 278.433 120.646 278.357 119.399 279.131L117.414 280.131L117.698 281.641C117.546 282.207 117.471 282.83 117.471 283.528V288.717L119.247 289.736L119.72 292.246L121.78 291.208V286.547C121.78 284.358 123.33 283.471 125.239 284.566L131.533 288.189C133.442 289.283 134.992 291.963 134.992 294.152V298.813L136.92 299.926L137.241 302.342L139.302 301.304V296.114C139.302 291.717 136.202 286.377 132.384 284.169Z" fill="url(#paint19_linear)"/>
<path d="M115.392 284.547V289.736L119.701 292.227V287.566C119.701 285.377 121.251 284.49 123.16 285.585L129.454 289.208C131.363 290.321 132.913 292.982 132.913 295.171V299.832L137.223 302.323V297.133C137.223 292.736 134.123 287.396 130.286 285.188L122.291 280.584C118.491 278.395 115.392 280.169 115.392 284.547Z" fill="url(#paint20_linear)"/>
<path d="M155.727 332.308L156.218 315.475L161.643 311.456L155.425 314.211L113.086 290.717L154.839 315.192L155.727 332.308Z" fill="url(#paint21_radial)"/>
<path d="M130.437 261.242C130.437 261.242 123.671 269.526 120.59 275.168C118.945 278.187 119.002 278.754 119.739 284.981C120.08 287.887 120.647 290 122.215 290.208C122.934 290.302 122.48 288.585 122.48 288.585C122.48 288.585 122.745 291.453 124.635 291.906C126.525 292.359 125.542 290.076 125.542 290.076C125.542 290.076 126.071 293.152 127.98 293.472C129.889 293.812 128.831 291.378 128.831 291.378C128.831 291.378 129.473 294.605 130.986 295.133C132.498 295.661 132.743 294.699 132.743 292.472C132.743 289.868 133.877 287.585 136.202 283.433C138.678 279.018 140.776 277.055 140.512 272.904C140.247 268.752 143.687 265.261 143.687 265.261L130.437 261.242Z" fill="url(#paint22_radial)"/>
<path d="M155.878 158.719C164.308 155.775 172.567 161.002 174.628 169.777C176.688 178.571 172.341 211.933 168.957 221.199C165.574 230.464 144.594 272.036 144.594 272.036C144.594 272.036 137.241 271.073 132.648 269.016C128.055 266.96 125.9 262.751 125.9 262.751C125.9 262.751 140.379 226.973 143.157 218.67C145.936 210.367 144.934 189.27 145.803 179.892C146.862 168.513 147.731 161.549 155.878 158.719Z" fill="url(#paint23_linear)"/>
<path opacity="0.1" d="M19.1289 339.403C46.4033 350.782 59.8799 341.724 80.3877 329.911C100.896 318.098 103.201 306.436 87.4567 299.077C57.7251 285.169 40.7897 299.209 20.2819 311.022C-0.225961 322.835 3.06285 332.704 19.1289 339.403Z" fill="black"/>
<path d="M82.8632 152.945C81.6157 153.341 79.1964 153.869 80.0091 158.757C80.8219 163.644 80.1225 167.248 80.595 168.947C81.0676 170.626 81.6535 173.325 81.5968 175.608C81.5401 177.872 80.1981 179.835 81.0109 181.005C81.8236 182.175 83.5814 181.118 83.9784 179.835C84.3942 178.552 84.6777 176.287 84.6777 176.287C84.6777 176.287 85.377 181.59 84.6777 183.043C83.9784 184.496 82.5041 186.194 83.6192 187.402C84.7722 188.647 86.8891 185.892 87.3428 184.251C87.8153 182.628 87.872 180.59 87.872 180.59C87.872 180.59 88.3445 185.477 87.7586 187.043C87.1727 188.61 85.585 191.61 86.53 192.289C87.7586 193.139 89.0817 192.082 89.9322 189.761C90.4804 188.27 90.556 187.647 90.556 187.647C90.556 187.647 90.3292 192.478 90.7828 193.12C91.2553 193.761 93.2967 194.044 93.5235 191.667C93.7503 189.289 93.9771 183.25 93.7125 178.269C93.5802 175.683 92.7674 171.117 92.3705 165.059C92.1626 161.814 90.9718 156.285 90.2158 155.001C89.4597 153.699 86.0764 151.888 82.8632 152.945Z" fill="url(#paint24_linear)"/>
<g style="mix-blend-mode:screen">
<path d="M91.0285 165.399C90.4426 162.191 90.9718 156.266 90.2158 154.983C89.4597 153.699 86.0764 151.907 82.8632 152.945C81.6157 153.341 79.1964 153.869 80.0091 158.757C80.7463 163.21 80.2548 166.588 80.5005 168.437C81.6913 168.89 83.5247 168.758 84.3186 170.23C85.4338 172.268 87.0593 177.627 87.5885 179.307C88.1177 180.986 90.3859 181.231 90.8017 180.005C91.2175 178.778 90.5182 174.947 90.3292 172.853C90.2536 171.853 90.6505 168.72 91.0852 165.739C91.0663 165.625 91.0474 165.493 91.0285 165.399Z" fill="url(#paint25_radial)"/>
</g>
<path d="M90.2911 152.869C90.2911 155.549 88.0986 157.738 85.4146 157.738C82.7306 157.738 80.5381 155.549 80.5381 152.869C80.5381 150.19 82.7306 148.001 85.4146 148.001C88.1175 148.001 90.2911 150.19 90.2911 152.869Z" fill="url(#paint26_radial)"/>
<path d="M53.3583 292.718C50.2774 294.039 47.7635 296.114 47.0642 300.492C46.3648 304.851 46.7996 310.361 53.6229 310.795C60.4462 311.229 64.5478 312.286 68.4982 315.249C72.4296 318.212 84.8477 320.042 87.8341 316.645C90.8016 313.249 86.5299 310.965 82.9387 308.795C79.3474 306.606 73.5826 303.04 69.6511 298.228C65.7197 293.435 63.357 293.435 61.9583 292.906C60.5407 292.359 55.8154 291.661 53.3583 292.718Z" fill="url(#paint27_linear)"/>
<path d="M60.5411 228.992C58.7644 231.955 58.084 238.937 56.3451 247.334C54.5873 255.713 50.6558 267.148 51.2796 277.885C51.8844 288.623 49.4461 294.831 51.0149 296.492C52.5837 298.152 55.8158 298.681 58.4431 297.096C61.0704 295.529 62.8093 294.397 62.11 292.812C61.4106 291.246 58.0084 285.396 60.8814 272.564C63.7733 259.732 67.8748 242.522 69.368 240.956C70.8612 239.39 72.6001 239.824 74.4335 237.107C76.267 234.408 63.6787 223.765 60.5411 228.992Z" fill="url(#paint28_linear)"/>
<path d="M49.4451 289.566C51.4486 291.982 59.7084 290.246 61.334 288.491C62.9595 286.736 66.8531 266.865 70.1041 255.637C73.0149 245.579 76.5872 237.257 75.1129 234.974C73.6197 232.691 67.1366 224.048 60.8047 227.162C54.4539 230.257 52.8284 246.032 51.2218 256.543C49.6152 267.054 47.4227 287.132 49.4451 289.566Z" fill="url(#paint29_linear)"/>
<g style="mix-blend-mode:screen">
<path d="M54.2652 289.264C55.2102 291.434 59.7465 290.208 60.7105 288.736C61.6744 287.264 64.9065 269.998 67.307 260.279C69.4428 251.58 71.8433 244.428 71.1817 242.371C70.5202 240.315 67.5338 232.54 63.9426 235.031C60.3514 237.522 58.5746 251.278 57.1192 260.412C55.6261 269.564 53.3012 287.075 54.2652 289.264Z" fill="url(#paint30_radial)"/>
</g>
<path d="M23.3618 308.739C20.451 312.022 18.8066 316.777 20.3943 321.231C21.9631 325.684 25.6488 332.761 29.051 335.987C32.4533 339.214 36.7438 344.102 44.172 341.403C51.6002 338.705 44.7769 327.873 42.6032 325.08C40.4107 322.288 37.6133 317.57 37.0085 313.815C36.4036 310.06 34.7403 309.267 32.7179 309.097C30.7144 308.908 25.3842 306.474 23.3618 308.739Z" fill="url(#paint31_linear)"/>
<path d="M27.823 246.504C25.9895 251.203 24.761 260.298 24.3262 270.507C23.8915 280.716 24.4963 295.907 24.5909 300.36C24.6854 304.814 23.8915 307.003 23.797 308.663C23.7025 310.324 25.8005 314.249 29.8265 313.022C33.8524 311.796 36.1206 309.361 35.3456 307.078C34.5518 304.814 31.7544 295.02 33.3421 282.112C34.9109 269.186 37.2736 259.581 38.143 258.279C39.0125 256.977 41.1105 255.392 41.8099 253.656C42.5092 251.92 31.5843 236.824 27.823 246.504Z" fill="url(#paint32_linear)"/>
<path d="M22.7013 303.889C25.4042 306.172 33.3616 305.512 35.1194 303.342C36.8772 301.19 39.3722 280.961 40.9221 271.79C42.2829 263.808 45.912 255.486 42.264 253.052C38.6161 250.618 33.8152 244.089 27.8046 246.485C24.2323 247.919 22.002 276.546 22.002 283.113C22.0209 293.642 22.7013 303.889 22.7013 303.889Z" fill="url(#paint33_linear)"/>
<g style="mix-blend-mode:screen">
<path d="M27.7474 301.964C29.0894 303.832 33.1532 303.379 34.0982 301.681C35.0244 299.964 35.4591 281.377 36.9145 275.244C38.3699 269.111 40.5057 263.431 38.6912 261.43C36.8767 259.449 34.5519 254.147 31.4521 255.996C29.5998 257.09 27.9364 280.037 27.8041 285.302C27.5962 293.756 27.7474 301.964 27.7474 301.964Z" fill="url(#paint34_radial)"/>
</g>
<path d="M68.2709 110.43C69.3672 115.6 74.2815 130.432 76.0393 135.905C77.7971 141.377 79.5549 146.547 80.0842 150.189C80.5567 153.36 82.6169 155.718 87.1154 153.964C91.6139 152.209 90.0829 147.944 89.686 144.113C88.7409 135.206 81.5774 104.202 77.4569 97.0316C75.1131 93.0122 65.4168 97.0504 68.2709 110.43Z" fill="url(#paint35_linear)"/>
<g style="mix-blend-mode:screen">
<path d="M74.0545 111.335C75.2453 116.393 79.3469 130.791 80.8401 136.112C82.3333 141.434 83.7887 146.453 84.5258 150.02C85.1684 153.133 86.3403 155.341 87.928 153.341C89.5157 151.341 90.234 147.057 89.5157 143.302C87.8713 134.546 80.5377 104.278 77.8348 97.409C76.3038 93.5594 70.9736 98.2393 74.0545 111.335Z" fill="url(#paint36_radial)"/>
</g>
<path d="M76.5882 230.615C76.5882 234.974 73.0537 238.522 68.6686 238.522C64.2836 238.522 60.749 234.993 60.749 230.615C60.749 226.256 64.2836 222.708 68.6686 222.708C73.0537 222.708 76.5882 226.256 76.5882 230.615Z" fill="url(#paint37_radial)"/>
<path d="M61.2963 224.482C61.2963 228.445 65.0198 233.804 70.6335 233.804C76.2472 233.804 79.2713 228.219 79.4982 224.482C79.725 220.765 75.3021 146.491 72.5047 138.792C69.7073 131.112 61.7688 122.733 51.2787 127.375C40.7885 132.036 40.5428 144.604 45.2114 155.549C49.88 166.494 55.4747 186.043 56.8734 194.893C58.2532 203.763 61.2963 219.595 61.2963 224.482Z" fill="url(#paint38_linear)"/>
<g style="mix-blend-mode:screen">
<path d="M67.4392 222.142C67.4392 225.596 69.3672 230.275 72.278 230.275C75.1698 230.275 76.7575 225.388 76.8709 222.142C76.9843 218.897 74.6973 154.02 73.2419 147.302C71.7865 140.584 67.685 133.263 62.2414 137.339C56.7979 141.415 56.6844 152.378 59.1038 161.946C61.5232 171.494 64.415 188.591 65.1522 196.309C65.8704 204.046 67.4392 217.878 67.4392 222.142Z" fill="url(#paint39_radial)"/>
</g>
<path d="M51.033 164.172C60.6348 160.983 65.965 153.53 67.3637 145.321C68.3843 139.339 71.0872 105.731 71.0872 105.731C71.0872 105.731 31.6782 107.599 29.3344 110.147C27.0096 112.713 30.4496 126.62 25.025 140.943C20.4131 153.114 40.4483 167.682 51.033 164.172Z" fill="url(#paint40_linear)"/>
<path d="M62.9223 45.5343C66.8916 45.4022 75.8696 46.006 78.4402 51.9313C81.0108 57.8755 75.8696 67.4239 75.8696 67.4239C75.8696 67.4239 80.2925 77.7838 78.5536 85.1244C76.7958 92.465 76.7958 93.5028 76.9281 94.201C77.0415 94.8992 80.7839 106.429 77.6274 107.127C76.1342 107.467 73.3558 106.995 70.8608 108.184C68.4037 109.354 67.1562 112.524 62.8089 115.43C57.7812 118.789 38.483 127.413 33.323 127.168C21.3207 126.583 17.9374 111.562 14.8943 102.485C12.3427 94.8615 10.1123 84.1997 10.1123 84.1997C10.1123 84.1997 2.51402 83.0298 2.75974 77.7838C2.98655 72.5378 9.33736 68.2165 15.4047 63.1026C21.4719 57.9887 27.7093 53.5731 31.2061 51.4784C34.7028 49.3838 55.702 45.7796 62.9223 45.5343Z" fill="url(#paint41_radial)"/>
<g style="mix-blend-mode:screen">
<path d="M61.6186 47.1571C65.2098 47.0439 73.3373 47.5723 75.6622 52.9503C77.9871 58.3284 73.3373 66.971 73.3373 66.971C73.3373 66.971 77.7791 74.4626 77.987 81.2937C78.195 87.7662 76.267 90.3703 76.3615 90.9931C76.475 91.6347 63.452 98.2959 58.9346 99.6923C47.1781 103.334 34.7411 99.4281 32.0004 91.2006C29.6945 84.2941 13.7418 82.1617 13.7418 82.1617C13.7418 82.1617 6.8807 81.105 7.08862 76.3685C7.29653 71.632 13.0614 67.707 18.5428 63.0649C24.043 58.4228 29.6945 54.4222 32.851 52.5352C36.0453 50.6482 55.0599 47.3647 61.6186 47.1571Z" fill="url(#paint42_radial)"/>
</g>
<path d="M45.3627 247.825C45.3627 252.184 41.8281 255.732 37.443 255.732C33.0769 255.732 29.5234 252.203 29.5234 247.825C29.5234 243.466 33.058 239.918 37.443 239.918C41.8092 239.918 45.3627 243.447 45.3627 247.825Z" fill="url(#paint43_radial)"/>
<path d="M28.7489 248.334C31.4895 250.203 42.509 247.636 45.6655 247.278C48.822 246.938 49.6347 243.428 49.5213 242.164C49.4079 240.881 47.3099 219.35 47.7635 200.951C48.236 182.552 52.073 167.965 47.669 156.926C43.076 145.434 33.0394 137.641 23.74 140.415C14.4596 143.189 12.2292 153.416 13.1743 164.814C14.2705 178.08 28.6355 216.311 28.8812 227.728C29.108 239.145 25.8381 246.372 28.7489 248.334Z" fill="url(#paint44_linear)"/>
<path d="M40.7701 3.39667C35.5534 6.15175 31.2061 12.8319 34.8163 21.9085C38.4264 30.9852 39.2959 38.2314 38.2941 42.081C37.349 45.6475 33.6444 54.0071 33.6444 54.0071C33.6444 54.0071 41.0159 59.8569 48.4818 58.9323C55.9478 58.0076 57.9324 54.6298 57.9324 54.6298C57.9324 54.6298 61.2969 -7.43494 40.7701 3.39667Z" fill="url(#paint45_radial)"/>
<path d="M39.1438 30.872C39.1438 34.2686 40.7693 38.6654 45.4379 41.8168C50.1065 44.9682 58.3853 51.0067 63.7532 48.1006C69.1211 45.1946 70.8601 29.4944 70.9735 23.8899C71.1058 17.6061 69.5748 7.24623 62.4679 3.17023C55.3611 -0.905779 49.5017 -0.0377407 48.0085 0.377408C44.1716 1.43415 40.9016 4.34019 38.917 6.32158C36.9324 8.30297 39.0304 14.2472 39.9755 18.4364C40.8827 22.6067 39.1438 28.7774 39.1438 30.872Z" fill="url(#paint46_radial)"/>
<path d="M33.304 127.149C38.483 127.394 57.7622 118.77 62.7899 115.411C67.1372 112.524 68.3847 109.335 70.8418 108.165C73.3368 106.976 76.1153 107.448 77.6085 107.108C80.765 106.41 77.0225 94.8804 76.9091 94.1821C76.8902 94.1067 76.8902 94.0312 76.8713 93.9557V93.9368C76.8713 93.8614 76.8524 93.7481 76.8524 93.6538C76.8524 93.4273 76.8713 93.1254 76.928 92.7103L73.5258 94.5596C73.5258 94.5596 63.9996 100.523 52.6589 103.146C43.1138 105.353 36.5361 103.655 30.7902 92.6348C26.7264 84.8224 15.3857 85.8414 10.1689 84.5016C10.547 86.2377 12.5883 95.5786 14.8753 102.466C17.9184 111.543 21.3018 126.564 33.304 127.149Z" fill="url(#paint47_linear)"/>
<path d="M63.6033 104.768C68.3664 102.296 75.53 99.4093 77.7603 97.3901C77.3445 95.7107 76.9475 94.4275 76.9097 94.2199C76.853 93.9368 76.8341 93.5783 76.9475 92.7291L73.5453 94.5784C73.5453 94.5784 64.0191 100.541 52.6784 103.164C43.1333 105.372 36.5557 103.674 30.8097 92.6536C26.7459 84.8413 15.4052 85.8603 10.1885 84.5205C10.5665 86.2566 12.6078 95.5974 14.8949 102.485C17.0307 108.901 19.3745 118.261 24.7802 123.412C25.3472 121.563 25.6875 119.431 25.5552 116.978C25.007 105.221 28.5794 99.73 28.5794 99.73C28.5794 99.73 35.2515 119.525 63.6033 104.768Z" fill="url(#paint48_linear)"/>
<path d="M88.9299 154.926C88.344 157.172 88.5141 158.398 90.5743 159.247C92.6535 160.115 99.6847 164.04 102.671 165.871C105.658 167.701 114.012 168.664 114.012 168.664C114.012 168.664 116.923 169.852 118.964 169.532C121.005 169.211 120.967 168.135 120.797 167.626C120.627 167.116 119.304 166.494 118.416 166.38C117.546 166.248 113.804 164.437 113.804 164.437C113.804 164.437 119.418 165.758 121.497 166.286C123.576 166.814 126.052 166.55 126.751 165.418C127.451 164.286 126.6 163.21 126.071 163.078C125.523 162.946 122.858 162.738 121.572 162.172C120.287 161.587 118.265 160.549 118.265 160.549C118.265 160.549 122.65 162.304 125.806 162.512C127.262 162.606 132.214 163.738 132.251 161.078C132.289 159.059 127.394 158.964 126.109 158.681C121.818 157.7 115.467 154.416 113.029 152.586C110.591 150.756 110.024 149.246 113.615 147.963C117.206 146.68 119.909 145.132 118.907 143.887C117.887 142.641 113.785 143.434 111.196 144C109.324 144.396 105.223 145.849 102.917 147.208C98.7019 149.68 94.468 147.51 91.9541 149.265C89.4592 150.982 89.1378 154.171 88.9299 154.926Z" fill="url(#paint49_linear)"/>
<g style="mix-blend-mode:screen">
<path d="M88.9299 154.926C88.344 157.172 88.5141 158.398 90.5743 159.247C92.6535 160.115 99.6847 164.04 102.671 165.871C105.658 167.701 114.012 168.664 114.012 168.664C114.012 168.664 116.923 169.852 118.964 169.532C121.005 169.211 120.967 168.135 120.797 167.626C120.627 167.116 119.304 166.494 118.416 166.38C117.546 166.248 113.804 164.437 113.804 164.437C113.804 164.437 119.418 165.758 121.497 166.286C123.576 166.814 126.052 166.55 126.751 165.418C127.451 164.286 126.6 163.21 126.071 163.078C125.523 162.946 122.858 162.738 121.572 162.172C120.287 161.587 118.265 160.549 118.265 160.549C118.265 160.549 122.65 162.304 125.806 162.512C127.262 162.606 132.214 163.738 132.251 161.078C132.289 159.059 127.394 158.964 126.109 158.681C121.818 157.7 115.467 154.416 113.029 152.586C110.591 150.756 110.024 149.246 113.615 147.963C117.206 146.68 119.909 145.132 118.907 143.887C117.887 142.641 113.785 143.434 111.196 144C109.324 144.396 105.223 145.849 102.917 147.208C98.7019 149.68 94.468 147.51 91.9541 149.265C89.4592 150.982 89.1378 154.171 88.9299 154.926Z" fill="url(#paint50_radial)"/>
</g>
<path d="M92.3322 149.359C94.8082 150.416 95.9612 153.284 94.8838 155.756C93.8254 158.228 90.9524 159.379 88.4763 158.304C86.0003 157.247 84.8473 154.379 85.9247 151.907C86.9831 149.435 89.8561 148.284 92.3322 149.359Z" fill="url(#paint51_radial)"/>
<path d="M29.4483 128.017C29.4483 128.017 28.7868 131.64 32.189 135.112C35.5723 138.584 76.002 155.473 80.1603 156.87C84.3186 158.266 89.7999 159.964 91.6711 155.322C93.5424 150.68 91.7278 147.963 88.9494 146.68C85.2447 144.944 66.7593 135.489 56.118 128.809C46.2893 122.639 42.339 120.808 39.4471 120.789C37.1033 120.752 29.9776 123.431 29.4483 128.017Z" fill="url(#paint52_linear)"/>
<g style="mix-blend-mode:screen">
<path d="M36.4793 128.96C36.4793 128.96 36.1769 131.413 39.1633 134.036C42.1496 136.659 76.1151 150.925 79.5929 152.152C83.0708 153.379 87.626 154.907 88.8545 151.831C90.0831 148.755 88.4198 146.755 86.0761 145.679C82.9574 144.245 67.3072 136.508 58.2157 131.225C49.8235 126.318 46.478 124.809 44.1343 124.62C42.2442 124.45 36.6305 125.828 36.4793 128.96Z" fill="url(#paint53_radial)"/>
</g>
<path d="M4.6877 82.0107C4.6877 82.0107 8.71366 84.5582 13.5146 84.7469C16.2363 84.8602 19.9032 85.8792 20.1867 88.4455C20.4702 90.993 16.1796 92.1064 14.9889 103.636C13.7981 115.166 9.2807 110.203 6.04859 102.164C2.66527 93.7104 3.1378 84.3507 4.6877 82.0107Z" fill="url(#paint54_linear)"/>
<path d="M37.3872 121.072C40.0334 123.356 40.3358 127.356 38.0488 129.998C35.7617 132.64 31.7547 132.942 29.1085 130.659C26.4623 128.375 26.1599 124.375 28.447 121.733C30.7151 119.072 34.7222 118.789 37.3872 121.072Z" fill="url(#paint55_radial)"/>
<path d="M25.7624 128.092C27.3312 129.47 31.0358 127.639 34.646 125.941C38.2561 124.243 39.5981 122.073 38.3128 120.62C37.0275 119.167 28.2385 105.184 25.3466 99.8999C22.1523 94.0689 21.2072 88.0681 16.9166 88.3134C12.6072 88.5588 1.28534 90.0495 0.0567565 94.4652C-1.17182 98.8809 23.6833 126.262 25.7624 128.092Z" fill="url(#paint56_linear)"/>
<g style="mix-blend-mode:screen">
<path d="M27.6902 123.28C28.9566 124.601 31.6028 123.865 34.1733 123.205C36.7439 122.544 37.5944 121.148 36.536 119.808C35.4775 118.487 27.9548 106.316 25.441 101.825C22.6625 96.8429 21.5473 92.1253 18.353 91.5592C15.1587 90.9931 6.80438 90.125 6.19954 93.2575C5.5758 96.39 26.008 121.525 27.6902 123.28Z" fill="url(#paint57_radial)"/>
</g>
<path d="M53.1698 35.1367C52.1491 26.6639 53.6801 11.2845 47.2537 7.17075C44.8532 5.64225 41.7723 5.64225 38.7481 6.49142C37.0281 8.62377 39.0316 14.3415 39.9389 18.4175C40.8651 22.6067 39.1262 28.7774 39.1262 30.872C39.1262 34.2686 40.7517 38.6654 45.4203 41.8168C48.7847 44.0812 54.0581 47.8742 58.7456 48.7045C57.6493 46.1193 54.0392 42.2697 53.1698 35.1367Z" fill="url(#paint58_linear)"/>
<path d="M103.597 151.737C102.709 152.775 103.219 155.134 106.225 155.379C109.23 155.643 115.77 154.926 118.246 154.926C120.722 154.926 132.819 150.227 132.819 150.227L103.597 151.737Z" fill="#D1D3D4"/>
<path d="M118.397 146.34C115.487 148.001 111.007 148.906 108.644 150.114C106.282 151.322 104.184 150.642 103.598 151.737C103.012 152.831 103.409 155.756 109.325 154.454C115.241 153.152 118.586 152.284 122.102 152.416C125.618 152.567 132.441 152.473 133.726 150.548C135.012 148.623 132.554 146.057 132.554 146.057L118.397 146.34Z" fill="url(#paint59_radial)"/>
<path d="M98.154 163.701C97.5681 162.587 103.465 162.795 105.242 163.474C107.019 164.154 113.199 166.626 114.655 167.569C115.675 168.23 117.093 169.305 113.275 169.532C105.998 169.966 100.309 167.777 98.154 163.701Z" fill="url(#paint60_radial)"/>
<g style="mix-blend-mode:screen">
<path d="M58.8398 296.718C56.5527 297.699 54.6626 299.266 54.1523 302.511C53.623 305.757 53.9632 309.871 59.0477 310.192C64.1321 310.512 67.1941 311.305 70.1238 313.513C73.0535 315.721 82.3151 317.098 84.5265 314.551C86.7379 312.022 83.5436 310.324 80.8786 308.701C78.2135 307.078 73.904 304.398 70.9743 300.832C68.0446 297.246 66.2868 297.247 65.2473 296.869C64.1888 296.454 60.6732 295.926 58.8398 296.718Z" fill="url(#paint61_radial)"/>
</g>
<g style="mix-blend-mode:screen">
<path d="M25.5733 313.456C23.0217 316.06 21.5852 319.816 22.965 323.325C24.3448 326.854 27.558 332.44 30.5444 334.987C33.5307 337.535 37.2732 341.403 43.7752 339.271C50.2772 337.139 44.3044 328.571 42.3954 326.364C40.4864 324.156 38.0292 320.419 37.5 317.457C36.9708 314.494 35.5154 313.871 33.7576 313.72C31.9998 313.588 27.3311 311.664 25.5733 313.456Z" fill="url(#paint62_radial)"/>
</g>
<g style="mix-blend-mode:screen">
<path d="M34.8917 247.259C36.6495 249.052 43.6618 246.579 45.6843 246.259C47.6878 245.919 48.217 242.56 48.1414 241.334C48.0658 240.107 46.7238 219.368 47.0263 201.649C47.3287 183.949 49.7858 169.89 46.9696 159.266C44.0399 148.208 37.6324 140.698 31.6974 143.358C25.7813 146.019 24.3448 155.888 24.9496 166.852C25.649 179.608 34.8161 216.425 34.9673 227.426C35.0996 238.409 33.0205 245.353 34.8917 247.259Z" fill="url(#paint63_radial)"/>
</g>
<g style="mix-blend-mode:screen">
<path d="M46.8568 30.1926C46.8568 33.2496 48.0287 37.2124 51.412 40.043C54.7764 42.8735 60.7681 48.3271 64.6429 45.7041C68.5176 43.0811 69.784 28.9472 69.8785 23.8899C69.973 18.2288 68.8578 8.88796 63.7167 5.2271C58.5756 1.54737 54.3417 2.33993 53.2643 2.71734C50.4858 3.67973 48.1232 6.28384 46.6867 8.05766C45.2502 9.83148 46.7623 15.1907 47.4428 18.9647C48.1232 22.7388 46.8568 28.3056 46.8568 30.1926Z" fill="url(#paint64_radial)"/>
</g>
</g>
<defs>
<radialGradient id="paint0_radial" cx="0" cy="0" r="1" gradientUnits="userSpaceOnUse" gradientTransform="translate(154.91 283.218) scale(20.8626 20.8286)">
<stop offset="0.0303" stop-color="#FEDFCB"/>
<stop offset="0.7778" stop-color="#F9B69E"/>
<stop offset="0.9949" stop-color="#F2A78C"/>
</radialGradient>
<linearGradient id="paint1_linear" x1="194.336" y1="395.911" x2="194.336" y2="372.231" gradientUnits="userSpaceOnUse">
<stop offset="0.0909" stop-color="#25054D"/>
<stop offset="0.4708" stop-color="#330A68"/>
<stop offset="0.8939" stop-color="#45108A"/>
</linearGradient>
<linearGradient id="paint2_linear" x1="181.633" y1="327.744" x2="217.31" y2="327.744" gradientUnits="userSpaceOnUse">
<stop offset="0.0354" stop-color="#138BBD"/>
<stop offset="0.2257" stop-color="#169AC7"/>
<stop offset="0.5946" stop-color="#1FC3DF"/>
<stop offset="1" stop-color="#2AF6FF"/>
</linearGradient>
<radialGradient id="paint3_radial" cx="0" cy="0" r="1" gradientUnits="userSpaceOnUse" gradientTransform="translate(135.08 170.258) rotate(4.43763) scale(26.851 26.8078)">
<stop offset="0.0303" stop-color="#FEDFCB"/>
<stop offset="0.7778" stop-color="#F9B69E"/>
<stop offset="0.9949" stop-color="#F2A78C"/>
</radialGradient>
<linearGradient id="paint4_linear" x1="150.733" y1="422.193" x2="160.114" y2="394.593" gradientUnits="userSpaceOnUse">
<stop offset="0.0909" stop-color="#25054D"/>
<stop offset="0.4708" stop-color="#330A68"/>
<stop offset="0.8939" stop-color="#45108A"/>
</linearGradient>
<linearGradient id="paint5_linear" x1="144.034" y1="338.623" x2="189.689" y2="338.623" gradientUnits="userSpaceOnUse">
<stop offset="0.0354" stop-color="#138BBD"/>
<stop offset="0.2257" stop-color="#169AC7"/>
<stop offset="0.5946" stop-color="#1FC3DF"/>
<stop offset="1" stop-color="#2AF6FF"/>
</linearGradient>
<radialGradient id="paint6_radial" cx="0" cy="0" r="1" gradientUnits="userSpaceOnUse" gradientTransform="translate(166.078 109.663) scale(31.7801 31.7283)">
<stop offset="0.0303" stop-color="#FEDFCB"/>
<stop offset="1" stop-color="#F9B69E"/>
</radialGradient>
<linearGradient id="paint7_linear" x1="192.135" y1="127.326" x2="170.756" y2="89.4599" gradientUnits="userSpaceOnUse">
<stop offset="0.0354" stop-color="#602213"/>
<stop offset="0.571" stop-color="#6D310E"/>
<stop offset="1" stop-color="#7A4108"/>
</linearGradient>
<linearGradient id="paint8_linear" x1="133.925" y1="148.974" x2="218.401" y2="148.974" gradientUnits="userSpaceOnUse">
<stop offset="0.0354" stop-color="#138BBD"/>
<stop offset="0.2257" stop-color="#169AC7"/>
<stop offset="0.5946" stop-color="#1FC3DF"/>
<stop offset="1" stop-color="#2AF6FF"/>
</linearGradient>
<linearGradient id="paint9_linear" x1="181.881" y1="145.688" x2="175.232" y2="133.871" gradientUnits="userSpaceOnUse">
<stop offset="0.0354" stop-color="#9D9EB3"/>
<stop offset="0.5808" stop-color="#D4D1D8"/>
<stop offset="1" stop-color="#EEEBF2"/>
</linearGradient>
<linearGradient id="paint10_linear" x1="142.654" y1="206.116" x2="222.703" y2="206.116" gradientUnits="userSpaceOnUse">
<stop offset="0.0354" stop-color="#138BBD"/>
<stop offset="0.2257" stop-color="#169AC7"/>
<stop offset="0.5946" stop-color="#1FC3DF"/>
<stop offset="1" stop-color="#2AF6FF"/>
</linearGradient>
<linearGradient id="paint11_linear" x1="163.537" y1="177.536" x2="183.084" y2="127.154" gradientUnits="userSpaceOnUse">
<stop offset="0.0354" stop-color="#138BBD"/>
<stop offset="0.2257" stop-color="#169AC7"/>
<stop offset="0.5946" stop-color="#1FC3DF"/>
<stop offset="1" stop-color="#2AF6FF"/>
</linearGradient>
<radialGradient id="paint12_radial" cx="0" cy="0" r="1" gradientUnits="userSpaceOnUse" gradientTransform="translate(178.367 147.518) scale(19.544 19.5122)">
<stop stop-color="white"/>
<stop offset="1"/>
</radialGradient>
<linearGradient id="paint13_linear" x1="152.766" y1="340.443" x2="192.243" y2="328.603" gradientUnits="userSpaceOnUse">
<stop offset="0.0909" stop-color="#25054D"/>
<stop offset="0.4708" stop-color="#330A68"/>
<stop offset="0.8939" stop-color="#45108A"/>
</linearGradient>
<linearGradient id="paint14_linear" x1="62.223" y1="336.688" x2="265.741" y2="290.992" gradientUnits="userSpaceOnUse">
<stop offset="0.0909" stop-color="#25054D"/>
<stop offset="0.4708" stop-color="#330A68"/>
<stop offset="0.8939" stop-color="#45108A"/>
</linearGradient>
<linearGradient id="paint15_linear" x1="109.735" y1="336.243" x2="137.203" y2="330.076" gradientUnits="userSpaceOnUse">
<stop offset="0.0354" stop-color="#FFA98C"/>
<stop offset="0.3169" stop-color="#FFB892"/>
<stop offset="0.8601" stop-color="#FEE1A3"/>
<stop offset="1" stop-color="#FEECA8"/>
</linearGradient>
<linearGradient id="paint16_linear" x1="37.6194" y1="325.954" x2="216.199" y2="285.856" gradientUnits="userSpaceOnUse">
<stop offset="0.0909" stop-color="#25054D"/>
<stop offset="0.4708" stop-color="#330A68"/>
<stop offset="0.8939" stop-color="#45108A"/>
</linearGradient>
<radialGradient id="paint17_radial" cx="0" cy="0" r="1" gradientUnits="userSpaceOnUse" gradientTransform="translate(109.657 351.103) scale(35.838 35.7796)">
<stop stop-color="white"/>
<stop offset="1"/>
</radialGradient>
<linearGradient id="paint18_linear" x1="136.178" y1="279.335" x2="126.498" y2="297.813" gradientUnits="userSpaceOnUse">
<stop offset="0.0909" stop-color="#25054D"/>
<stop offset="0.4708" stop-color="#330A68"/>
<stop offset="0.8939" stop-color="#45108A"/>
</linearGradient>
<linearGradient id="paint19_linear" x1="134.135" y1="301.55" x2="125.01" y2="284.577" gradientUnits="userSpaceOnUse">
<stop offset="0.0909" stop-color="#25054D"/>
<stop offset="0.4708" stop-color="#330A68"/>
<stop offset="0.8939" stop-color="#45108A"/>
</linearGradient>
<linearGradient id="paint20_linear" x1="91.0186" y1="280.559" x2="157.698" y2="270.324" gradientUnits="userSpaceOnUse">
<stop offset="0.0909" stop-color="#25054D"/>
<stop offset="0.4708" stop-color="#330A68"/>
<stop offset="0.8939" stop-color="#45108A"/>
</linearGradient>
<radialGradient id="paint21_radial" cx="0" cy="0" r="1" gradientUnits="userSpaceOnUse" gradientTransform="translate(137.367 311.514) scale(22.6194 22.5826)">
<stop stop-color="white"/>
<stop offset="1"/>
</radialGradient>
<radialGradient id="paint22_radial" cx="0" cy="0" r="1" gradientUnits="userSpaceOnUse" gradientTransform="translate(122.667 270.21) rotate(6.43164) scale(22.1853 22.1501)">
<stop offset="0.0303" stop-color="#FEDFCB"/>
<stop offset="1" stop-color="#F9B69E"/>
</radialGradient>
<linearGradient id="paint23_linear" x1="125.894" y1="214.971" x2="175.163" y2="214.971" gradientUnits="userSpaceOnUse">
<stop offset="0.0354" stop-color="#138BBD"/>
<stop offset="0.2257" stop-color="#169AC7"/>
<stop offset="0.5946" stop-color="#1FC3DF"/>
<stop offset="1" stop-color="#2AF6FF"/>
</linearGradient>
<linearGradient id="paint24_linear" x1="100.572" y1="171.296" x2="72.7735" y2="175.335" gradientUnits="userSpaceOnUse">
<stop offset="0.0101" stop-color="#C1A1D5"/>
<stop offset="0.0488" stop-color="#C8ABDA"/>
<stop offset="0.1149" stop-color="#DAC6E6"/>
<stop offset="0.1998" stop-color="#F7F2F9"/>
<stop offset="0.2222" stop-color="white"/>
<stop offset="0.2513" stop-color="#F9F5FB"/>
<stop offset="0.3001" stop-color="#E9DBF2"/>
<stop offset="0.3586" stop-color="#D1B4E3"/>
<stop offset="0.4264" stop-color="#B395D6"/>
<stop offset="0.4949" stop-color="#9C7DCB"/>
<stop offset="0.5583" stop-color="#8E6EC5"/>
<stop offset="0.6111" stop-color="#8969C3"/>
<stop offset="0.755" stop-color="#9471C6"/>
<stop offset="1" stop-color="#B086CC"/>
</linearGradient>
<radialGradient id="paint25_radial" cx="0" cy="0" r="1" gradientUnits="userSpaceOnUse" gradientTransform="translate(85.8927 178.176) scale(24.9889 24.9482)">
<stop stop-color="#972A74"/>
<stop offset="0.0228" stop-color="#8C276C"/>
<stop offset="0.1136" stop-color="#671D4F"/>
<stop offset="0.212" stop-color="#471437"/>
<stop offset="0.3179" stop-color="#2D0D23"/>
<stop offset="0.4342" stop-color="#190713"/>
<stop offset="0.5661" stop-color="#0B0308"/>
<stop offset="0.7271" stop-color="#020102"/>
<stop offset="1"/>
</radialGradient>
<radialGradient id="paint26_radial" cx="0" cy="0" r="1" gradientUnits="userSpaceOnUse" gradientTransform="translate(88.2216 151.483) scale(8.45905 8.44524)">
<stop offset="0.0202" stop-color="#364F87"/>
<stop offset="0.4293" stop-color="#1B2B69"/>
<stop offset="1" stop-color="#10054D"/>
</radialGradient>
<linearGradient id="paint27_linear" x1="88.6491" y1="287.08" x2="43.8856" y2="329.485" gradientUnits="userSpaceOnUse">
<stop offset="0.0101" stop-color="#C1A1D5"/>
<stop offset="0.0488" stop-color="#C8ABDA"/>
<stop offset="0.1149" stop-color="#DAC6E6"/>
<stop offset="0.1998" stop-color="#F7F2F9"/>
<stop offset="0.2222" stop-color="white"/>
<stop offset="0.2513" stop-color="#F9F5FB"/>
<stop offset="0.3001" stop-color="#E9DBF2"/>
<stop offset="0.3586" stop-color="#D1B4E3"/>
<stop offset="0.4264" stop-color="#B395D6"/>
<stop offset="0.4949" stop-color="#9C7DCB"/>
<stop offset="0.5583" stop-color="#8E6EC5"/>
<stop offset="0.6111" stop-color="#8969C3"/>
<stop offset="0.755" stop-color="#9471C6"/>
<stop offset="1" stop-color="#B086CC"/>
</linearGradient>
<linearGradient id="paint28_linear" x1="61.0033" y1="262.696" x2="48.0399" y2="263.507" gradientUnits="userSpaceOnUse">
<stop offset="0.0202" stop-color="#364F87"/>
<stop offset="0.4293" stop-color="#1B2B69"/>
<stop offset="1" stop-color="#10054D"/>
</linearGradient>
<linearGradient id="paint29_linear" x1="76.0899" y1="262.884" x2="41.5311" y2="254.569" gradientUnits="userSpaceOnUse">
<stop offset="0.0101" stop-color="#C1A1D5"/>
<stop offset="0.0488" stop-color="#C8ABDA"/>
<stop offset="0.1149" stop-color="#DAC6E6"/>
<stop offset="0.1998" stop-color="#F7F2F9"/>
<stop offset="0.2222" stop-color="white"/>
<stop offset="0.2513" stop-color="#F9F5FB"/>
<stop offset="0.3001" stop-color="#E9DBF2"/>
<stop offset="0.3586" stop-color="#D1B4E3"/>
<stop offset="0.4264" stop-color="#B395D6"/>
<stop offset="0.4949" stop-color="#9C7DCB"/>
<stop offset="0.5583" stop-color="#8E6EC5"/>
<stop offset="0.6111" stop-color="#8969C3"/>
<stop offset="0.755" stop-color="#9471C6"/>
<stop offset="1" stop-color="#B086CC"/>
</linearGradient>
<radialGradient id="paint30_radial" cx="0" cy="0" r="1" gradientUnits="userSpaceOnUse" gradientTransform="translate(62.9163 262.535) rotate(3.73039) scale(13.273 33.2878)">
<stop stop-color="#972A74"/>
<stop offset="0.0228" stop-color="#8C276C"/>
<stop offset="0.1136" stop-color="#671D4F"/>
<stop offset="0.212" stop-color="#471437"/>
<stop offset="0.3179" stop-color="#2D0D23"/>
<stop offset="0.4342" stop-color="#190713"/>
<stop offset="0.5661" stop-color="#0B0308"/>
<stop offset="0.7271" stop-color="#020102"/>
<stop offset="1"/>
</radialGradient>
<linearGradient id="paint31_linear" x1="52.1733" y1="318.194" x2="10.0579" y2="333.608" gradientUnits="userSpaceOnUse">
<stop offset="0.0101" stop-color="#C1A1D5"/>
<stop offset="0.0488" stop-color="#C8ABDA"/>
<stop offset="0.1149" stop-color="#DAC6E6"/>
<stop offset="0.1998" stop-color="#F7F2F9"/>
<stop offset="0.2222" stop-color="white"/>
<stop offset="0.2513" stop-color="#F9F5FB"/>
<stop offset="0.3001" stop-color="#E9DBF2"/>
<stop offset="0.3586" stop-color="#D1B4E3"/>
<stop offset="0.4264" stop-color="#B395D6"/>
<stop offset="0.4949" stop-color="#9C7DCB"/>
<stop offset="0.5583" stop-color="#8E6EC5"/>
<stop offset="0.6111" stop-color="#8969C3"/>
<stop offset="0.755" stop-color="#9471C6"/>
<stop offset="1" stop-color="#B086CC"/>
</linearGradient>
<linearGradient id="paint32_linear" x1="35.6978" y1="278.377" x2="23.5445" y2="278.174" gradientUnits="userSpaceOnUse">
<stop offset="0.0202" stop-color="#364F87"/>
<stop offset="0.4293" stop-color="#1B2B69"/>
<stop offset="1" stop-color="#10054D"/>
</linearGradient>
<linearGradient id="paint33_linear" x1="43.2206" y1="276.583" x2="7.83903" y2="274.231" gradientUnits="userSpaceOnUse">
<stop offset="0.0101" stop-color="#C1A1D5"/>
<stop offset="0.0488" stop-color="#C8ABDA"/>
<stop offset="0.1149" stop-color="#DAC6E6"/>
<stop offset="0.1998" stop-color="#F7F2F9"/>
<stop offset="0.2222" stop-color="white"/>
<stop offset="0.2513" stop-color="#F9F5FB"/>
<stop offset="0.3001" stop-color="#E9DBF2"/>
<stop offset="0.3586" stop-color="#D1B4E3"/>
<stop offset="0.4264" stop-color="#B395D6"/>
<stop offset="0.4949" stop-color="#9C7DCB"/>
<stop offset="0.5583" stop-color="#8E6EC5"/>
<stop offset="0.6111" stop-color="#8969C3"/>
<stop offset="0.755" stop-color="#9471C6"/>
<stop offset="1" stop-color="#B086CC"/>
</linearGradient>
<radialGradient id="paint34_radial" cx="0" cy="0" r="1" gradientUnits="userSpaceOnUse" gradientTransform="translate(32.7811 279.063) rotate(1.335) scale(8.50796 21.7584)">
<stop stop-color="#972A74"/>
<stop offset="0.0228" stop-color="#8C276C"/>
<stop offset="0.1136" stop-color="#671D4F"/>
<stop offset="0.212" stop-color="#471437"/>
<stop offset="0.3179" stop-color="#2D0D23"/>
<stop offset="0.4342" stop-color="#190713"/>
<stop offset="0.5661" stop-color="#0B0308"/>
<stop offset="0.7271" stop-color="#020102"/>
<stop offset="1"/>
</radialGradient>
<linearGradient id="paint35_linear" x1="98.3505" y1="120.692" x2="58.2466" y2="130.079" gradientUnits="userSpaceOnUse">
<stop offset="0.0101" stop-color="#C1A1D5"/>
<stop offset="0.0488" stop-color="#C8ABDA"/>
<stop offset="0.1149" stop-color="#DAC6E6"/>
<stop offset="0.1998" stop-color="#F7F2F9"/>
<stop offset="0.2222" stop-color="white"/>
<stop offset="0.2513" stop-color="#F9F5FB"/>
<stop offset="0.3001" stop-color="#E9DBF2"/>
<stop offset="0.3586" stop-color="#D1B4E3"/>
<stop offset="0.4264" stop-color="#B395D6"/>
<stop offset="0.4949" stop-color="#9C7DCB"/>
<stop offset="0.5583" stop-color="#8E6EC5"/>
<stop offset="0.6111" stop-color="#8969C3"/>
<stop offset="0.755" stop-color="#9471C6"/>
<stop offset="1" stop-color="#B086CC"/>
</linearGradient>
<radialGradient id="paint36_radial" cx="0" cy="0" r="1" gradientUnits="userSpaceOnUse" gradientTransform="translate(81.3968 125.123) rotate(-8.14647) scale(9.42541 22.8326)">
<stop stop-color="#972A74"/>
<stop offset="0.0228" stop-color="#8C276C"/>
<stop offset="0.1136" stop-color="#671D4F"/>
<stop offset="0.212" stop-color="#471437"/>
<stop offset="0.3179" stop-color="#2D0D23"/>
<stop offset="0.4342" stop-color="#190713"/>
<stop offset="0.5661" stop-color="#0B0308"/>
<stop offset="0.7271" stop-color="#020102"/>
<stop offset="1"/>
</radialGradient>
<radialGradient id="paint37_radial" cx="0" cy="0" r="1" gradientUnits="userSpaceOnUse" gradientTransform="translate(70.4986 231.159) scale(11.0071 10.9892)">
<stop offset="0.0202" stop-color="#364F87"/>
<stop offset="0.4293" stop-color="#1B2B69"/>
<stop offset="1" stop-color="#10054D"/>
</radialGradient>
<linearGradient id="paint38_linear" x1="85.1296" y1="176.069" x2="38.5776" y2="184.457" gradientUnits="userSpaceOnUse">
<stop offset="0.0101" stop-color="#C1A1D5"/>
<stop offset="0.0488" stop-color="#C8ABDA"/>
<stop offset="0.1149" stop-color="#DAC6E6"/>
<stop offset="0.1998" stop-color="#F7F2F9"/>
<stop offset="0.2222" stop-color="white"/>
<stop offset="0.2513" stop-color="#F9F5FB"/>
<stop offset="0.3001" stop-color="#E9DBF2"/>
<stop offset="0.3586" stop-color="#D1B4E3"/>
<stop offset="0.4264" stop-color="#B395D6"/>
<stop offset="0.4949" stop-color="#9C7DCB"/>
<stop offset="0.5583" stop-color="#8E6EC5"/>
<stop offset="0.6111" stop-color="#8969C3"/>
<stop offset="0.755" stop-color="#9471C6"/>
<stop offset="1" stop-color="#B086CC"/>
</linearGradient>
<radialGradient id="paint39_radial" cx="0" cy="0" r="1" gradientUnits="userSpaceOnUse" gradientTransform="translate(72.6637 183.493) scale(20.9087 52.1866)">
<stop stop-color="#972A74"/>
<stop offset="0.0228" stop-color="#8C276C"/>
<stop offset="0.1136" stop-color="#671D4F"/>
<stop offset="0.212" stop-color="#471437"/>
<stop offset="0.3179" stop-color="#2D0D23"/>
<stop offset="0.4342" stop-color="#190713"/>
<stop offset="0.5661" stop-color="#0B0308"/>
<stop offset="0.7271" stop-color="#020102"/>
<stop offset="1"/>
</radialGradient>
<linearGradient id="paint40_linear" x1="73.7867" y1="133.526" x2="24.5673" y2="138.192" gradientUnits="userSpaceOnUse">
<stop offset="0.0202" stop-color="#364F87"/>
<stop offset="0.4293" stop-color="#1B2B69"/>
<stop offset="1" stop-color="#10054D"/>
</linearGradient>
<radialGradient id="paint41_radial" cx="0" cy="0" r="1" gradientUnits="userSpaceOnUse" gradientTransform="translate(80.0183 70.997) scale(92.0255 91.8754)">
<stop offset="0.0101" stop-color="white"/>
<stop offset="0.1617" stop-color="#E6D7F0"/>
<stop offset="0.2847" stop-color="#D7BDE7"/>
<stop offset="0.3586" stop-color="#D1B4E3"/>
<stop offset="0.4766" stop-color="#C4A4DC"/>
<stop offset="0.7057" stop-color="#A17BC9"/>
<stop offset="0.7172" stop-color="#9F79C8"/>
<stop offset="0.8107" stop-color="#A37CC9"/>
<stop offset="0.8979" stop-color="#AE84CC"/>
<stop offset="0.9091" stop-color="#B086CC"/>
<stop offset="0.9569" stop-color="#AD84CB"/>
<stop offset="0.9884" stop-color="#A57DC9"/>
<stop offset="1" stop-color="#9F79C8"/>
</radialGradient>
<radialGradient id="paint42_radial" cx="0" cy="0" r="1" gradientUnits="userSpaceOnUse" gradientTransform="translate(64.6337 99.9693) scale(36.4748 36.4153)">
<stop stop-color="#972A74"/>
<stop offset="0.0228" stop-color="#8C276C"/>
<stop offset="0.1136" stop-color="#671D4F"/>
<stop offset="0.212" stop-color="#471437"/>
<stop offset="0.3179" stop-color="#2D0D23"/>
<stop offset="0.4342" stop-color="#190713"/>
<stop offset="0.5661" stop-color="#0B0308"/>
<stop offset="0.7271" stop-color="#020102"/>
<stop offset="1"/>
</radialGradient>
<radialGradient id="paint43_radial" cx="0" cy="0" r="1" gradientUnits="userSpaceOnUse" gradientTransform="translate(39.2681 247.819) scale(9.68725 9.67147)">
<stop offset="0.0202" stop-color="#364F87"/>
<stop offset="0.4293" stop-color="#1B2B69"/>
<stop offset="1" stop-color="#10054D"/>
</radialGradient>
<linearGradient id="paint44_linear" x1="54.8136" y1="192.337" x2="6.60857" y2="196.468" gradientUnits="userSpaceOnUse">
<stop offset="0.0101" stop-color="#C1A1D5"/>
<stop offset="0.0488" stop-color="#C8ABDA"/>
<stop offset="0.1149" stop-color="#DAC6E6"/>
<stop offset="0.1998" stop-color="#F7F2F9"/>
<stop offset="0.2222" stop-color="white"/>
<stop offset="0.2513" stop-color="#F9F5FB"/>
<stop offset="0.3001" stop-color="#E9DBF2"/>
<stop offset="0.3586" stop-color="#D1B4E3"/>
<stop offset="0.4264" stop-color="#B395D6"/>
<stop offset="0.4949" stop-color="#9C7DCB"/>
<stop offset="0.5583" stop-color="#8E6EC5"/>
<stop offset="0.6111" stop-color="#8969C3"/>
<stop offset="0.755" stop-color="#9471C6"/>
<stop offset="1" stop-color="#B086CC"/>
</linearGradient>
<radialGradient id="paint45_radial" cx="0" cy="0" r="1" gradientUnits="userSpaceOnUse" gradientTransform="translate(56.117 21.8563) scale(41.907 41.8387)">
<stop offset="0.0202" stop-color="#364F87"/>
<stop offset="0.4293" stop-color="#1B2B69"/>
<stop offset="1" stop-color="#10054D"/>
</radialGradient>
<radialGradient id="paint46_radial" cx="0" cy="0" r="1" gradientUnits="userSpaceOnUse" gradientTransform="translate(73.2392 14.1717) scale(50.6059 50.5234)">
<stop offset="0.0101" stop-color="white"/>
<stop offset="0.1617" stop-color="#E6D7F0"/>
<stop offset="0.2847" stop-color="#D7BDE7"/>
<stop offset="0.3586" stop-color="#D1B4E3"/>
<stop offset="0.4766" stop-color="#C4A4DC"/>
<stop offset="0.7057" stop-color="#A17BC9"/>
<stop offset="0.7172" stop-color="#9F79C8"/>
<stop offset="0.8107" stop-color="#A37CC9"/>
<stop offset="0.8979" stop-color="#AE84CC"/>
<stop offset="0.9091" stop-color="#B086CC"/>
<stop offset="0.9569" stop-color="#AD84CB"/>
<stop offset="0.9884" stop-color="#A57DC9"/>
<stop offset="1" stop-color="#9F79C8"/>
</radialGradient>
<linearGradient id="paint47_linear" x1="44.7084" y1="90.9032" x2="42.4876" y2="133.775" gradientUnits="userSpaceOnUse">
<stop stop-color="white"/>
<stop offset="1" stop-color="#B086CC"/>
</linearGradient>
<linearGradient id="paint48_linear" x1="81.8983" y1="108.466" x2="12.6254" y2="103.596" gradientUnits="userSpaceOnUse">
<stop stop-color="white"/>
<stop offset="1" stop-color="#B086CC"/>
</linearGradient>
<linearGradient id="paint49_linear" x1="113.757" y1="141.754" x2="106.581" y2="178.744" gradientUnits="userSpaceOnUse">
<stop offset="0.0101" stop-color="#C1A1D5"/>
<stop offset="0.0488" stop-color="#C8ABDA"/>
<stop offset="0.1149" stop-color="#DAC6E6"/>
<stop offset="0.1998" stop-color="#F7F2F9"/>
<stop offset="0.2222" stop-color="white"/>
<stop offset="0.2513" stop-color="#F9F5FB"/>
<stop offset="0.3001" stop-color="#E9DBF2"/>
<stop offset="0.3586" stop-color="#D1B4E3"/>
<stop offset="0.4264" stop-color="#B395D6"/>
<stop offset="0.4949" stop-color="#9C7DCB"/>
<stop offset="0.5583" stop-color="#8E6EC5"/>
<stop offset="0.6111" stop-color="#8969C3"/>
<stop offset="0.755" stop-color="#9471C6"/>
<stop offset="1" stop-color="#B086CC"/>
</linearGradient>
<radialGradient id="paint50_radial" cx="0" cy="0" r="1" gradientUnits="userSpaceOnUse" gradientTransform="translate(116.611 153.384) rotate(-58.406) scale(19.3571 19.3714)">
<stop stop-color="#972A74"/>
<stop offset="0.0228" stop-color="#8C276C"/>
<stop offset="0.1136" stop-color="#671D4F"/>
<stop offset="0.212" stop-color="#471437"/>
<stop offset="0.3179" stop-color="#2D0D23"/>
<stop offset="0.4342" stop-color="#190713"/>
<stop offset="0.5661" stop-color="#0B0308"/>
<stop offset="0.7271" stop-color="#020102"/>
<stop offset="1"/>
</radialGradient>
<radialGradient id="paint51_radial" cx="0" cy="0" r="1" gradientUnits="userSpaceOnUse" gradientTransform="translate(90.0033 151.673) rotate(-66.7442) scale(7.14476 7.15279)">
<stop offset="0.0202" stop-color="#364F87"/>
<stop offset="0.4293" stop-color="#1B2B69"/>
<stop offset="1" stop-color="#10054D"/>
</radialGradient>
<linearGradient id="paint52_linear" x1="66.2939" y1="130.378" x2="52.4756" y2="156.199" gradientUnits="userSpaceOnUse">
<stop offset="0.0101" stop-color="#C1A1D5"/>
<stop offset="0.0488" stop-color="#C8ABDA"/>
<stop offset="0.1149" stop-color="#DAC6E6"/>
<stop offset="0.1998" stop-color="#F7F2F9"/>
<stop offset="0.2222" stop-color="white"/>
<stop offset="0.2513" stop-color="#F9F5FB"/>
<stop offset="0.3001" stop-color="#E9DBF2"/>
<stop offset="0.3586" stop-color="#D1B4E3"/>
<stop offset="0.4264" stop-color="#B395D6"/>
<stop offset="0.4949" stop-color="#9C7DCB"/>
<stop offset="0.5583" stop-color="#8E6EC5"/>
<stop offset="0.6111" stop-color="#8969C3"/>
<stop offset="0.755" stop-color="#9471C6"/>
<stop offset="1" stop-color="#B086CC"/>
</linearGradient>
<radialGradient id="paint53_radial" cx="0" cy="0" r="1" gradientUnits="userSpaceOnUse" gradientTransform="translate(62.7887 138.911) rotate(-66.746) scale(11.8776 22.3006)">
<stop stop-color="#972A74"/>
<stop offset="0.0228" stop-color="#8C276C"/>
<stop offset="0.1136" stop-color="#671D4F"/>
<stop offset="0.212" stop-color="#471437"/>
<stop offset="0.3179" stop-color="#2D0D23"/>
<stop offset="0.4342" stop-color="#190713"/>
<stop offset="0.5661" stop-color="#0B0308"/>
<stop offset="0.7271" stop-color="#020102"/>
<stop offset="1"/>
</radialGradient>
<linearGradient id="paint54_linear" x1="16.6898" y1="97.9835" x2="-1.40941" y2="94.1872" gradientUnits="userSpaceOnUse">
<stop offset="0.0202" stop-color="#364F87"/>
<stop offset="0.4293" stop-color="#1B2B69"/>
<stop offset="1" stop-color="#10054D"/>
</linearGradient>
<radialGradient id="paint55_radial" cx="0" cy="0" r="1" gradientUnits="userSpaceOnUse" gradientTransform="translate(34.2976 124.636) rotate(-49.1791) scale(7.42252 7.42429)">
<stop offset="0.0202" stop-color="#364F87"/>
<stop offset="0.4293" stop-color="#1B2B69"/>
<stop offset="1" stop-color="#10054D"/>
</radialGradient>
<linearGradient id="paint56_linear" x1="29.5258" y1="101.557" x2="6.51638" y2="117.104" gradientUnits="userSpaceOnUse">
<stop offset="0.0101" stop-color="#C1A1D5"/>
<stop offset="0.0488" stop-color="#C8ABDA"/>
<stop offset="0.1149" stop-color="#DAC6E6"/>
<stop offset="0.1998" stop-color="#F7F2F9"/>
<stop offset="0.2222" stop-color="white"/>
<stop offset="0.2513" stop-color="#F9F5FB"/>
<stop offset="0.3001" stop-color="#E9DBF2"/>
<stop offset="0.3586" stop-color="#D1B4E3"/>
<stop offset="0.4264" stop-color="#B395D6"/>
<stop offset="0.4949" stop-color="#9C7DCB"/>
<stop offset="0.5583" stop-color="#8E6EC5"/>
<stop offset="0.6111" stop-color="#8969C3"/>
<stop offset="0.755" stop-color="#9471C6"/>
<stop offset="1" stop-color="#B086CC"/>
</linearGradient>
<radialGradient id="paint57_radial" cx="0" cy="0" r="1" gradientUnits="userSpaceOnUse" gradientTransform="translate(22.4921 106.32) rotate(-43.8805) scale(12.0381 16.699)">
<stop stop-color="#972A74"/>
<stop offset="0.0228" stop-color="#8C276C"/>
<stop offset="0.1136" stop-color="#671D4F"/>
<stop offset="0.212" stop-color="#471437"/>
<stop offset="0.3179" stop-color="#2D0D23"/>
<stop offset="0.4342" stop-color="#190713"/>
<stop offset="0.5661" stop-color="#0B0308"/>
<stop offset="0.7271" stop-color="#020102"/>
<stop offset="1"/>
</radialGradient>
<linearGradient id="paint58_linear" x1="57.3997" y1="26.0206" x2="32.2851" y2="30.4837" gradientUnits="userSpaceOnUse">
<stop stop-color="white"/>
<stop offset="1" stop-color="#B086CC"/>
</linearGradient>
<radialGradient id="paint59_radial" cx="0" cy="0" r="1" gradientUnits="userSpaceOnUse" gradientTransform="translate(103.053 133.658) rotate(4.43763) scale(30.0994 30.0509)">
<stop offset="0.0303" stop-color="#FEDFCB"/>
<stop offset="1" stop-color="#F9B69E"/>
</radialGradient>
<radialGradient id="paint60_radial" cx="0" cy="0" r="1" gradientUnits="userSpaceOnUse" gradientTransform="translate(109.869 161.31) scale(14.5664 14.5426)">
<stop offset="0.0303" stop-color="#FEDFCB"/>
<stop offset="1" stop-color="#F9B69E"/>
</radialGradient>
<radialGradient id="paint61_radial" cx="0" cy="0" r="1" gradientUnits="userSpaceOnUse" gradientTransform="translate(73.3164 303.095) scale(17.4995 17.4709)">
<stop stop-color="#972A74"/>
<stop offset="0.0228" stop-color="#8C276C"/>
<stop offset="0.1136" stop-color="#671D4F"/>
<stop offset="0.212" stop-color="#471437"/>
<stop offset="0.3179" stop-color="#2D0D23"/>
<stop offset="0.4342" stop-color="#190713"/>
<stop offset="0.5661" stop-color="#0B0308"/>
<stop offset="0.7271" stop-color="#020102"/>
<stop offset="1"/>
</radialGradient>
<radialGradient id="paint62_radial" cx="0" cy="0" r="1" gradientUnits="userSpaceOnUse" gradientTransform="translate(39.2841 324.279) scale(18.3756 18.3456)">
<stop stop-color="#972A74"/>
<stop offset="0.0228" stop-color="#8C276C"/>
<stop offset="0.1136" stop-color="#671D4F"/>
<stop offset="0.212" stop-color="#471437"/>
<stop offset="0.3179" stop-color="#2D0D23"/>
<stop offset="0.4342" stop-color="#190713"/>
<stop offset="0.5661" stop-color="#0B0308"/>
<stop offset="0.7271" stop-color="#020102"/>
<stop offset="1"/>
</radialGradient>
<radialGradient id="paint63_radial" cx="0" cy="0" r="1" gradientUnits="userSpaceOnUse" gradientTransform="translate(36.4963 195.27) scale(23.0296 41.5918)">
<stop stop-color="#972A74"/>
<stop offset="0.0228" stop-color="#8C276C"/>
<stop offset="0.1136" stop-color="#671D4F"/>
<stop offset="0.212" stop-color="#471437"/>
<stop offset="0.3179" stop-color="#2D0D23"/>
<stop offset="0.4342" stop-color="#190713"/>
<stop offset="0.5661" stop-color="#0B0308"/>
<stop offset="0.7271" stop-color="#020102"/>
<stop offset="1"/>
</radialGradient>
<radialGradient id="paint64_radial" cx="0" cy="0" r="1" gradientUnits="userSpaceOnUse" gradientTransform="translate(65.713 24.052) scale(17.7155 17.6867)">
<stop stop-color="#972A74"/>
<stop offset="0.0228" stop-color="#8C276C"/>
<stop offset="0.1136" stop-color="#671D4F"/>
<stop offset="0.212" stop-color="#471437"/>
<stop offset="0.3179" stop-color="#2D0D23"/>
<stop offset="0.4342" stop-color="#190713"/>
<stop offset="0.5661" stop-color="#0B0308"/>
<stop offset="0.7271" stop-color="#020102"/>
<stop offset="1"/>
</radialGradient>
<clipPath id="clip0">
<rect width="225" height="432" fill="white"/>
</clipPath>
</defs>
</svg>
