<svg width="43" height="43" viewBox="0 0 43 43" fill="none" xmlns="http://www.w3.org/2000/svg">
<g filter="url(#filter0_dd)">
<path d="M22 37C30.2843 37 37 30.2843 37 22C37 13.7157 30.2843 7 22 7C13.7157 7 7 13.7157 7 22C7 30.2843 13.7157 37 22 37Z" fill="#039BE5"/>
<path d="M13.8638 21.675L28.3263 16.0988C28.9975 15.8563 29.5838 16.2625 29.3663 17.2775L29.3675 17.2763L26.905 28.8775C26.7225 29.7 26.2338 29.9 25.55 29.5125L21.8 26.7488L19.9913 28.4913C19.7913 28.6913 19.6225 28.86 19.235 28.86L19.5013 25.0438L26.4513 18.765C26.7538 18.4988 26.3838 18.3488 25.985 18.6138L17.3963 24.0213L13.6938 22.8663C12.89 22.6113 12.8725 22.0625 13.8638 21.675Z" fill="white"/>
</g>
<defs>
<filter id="filter0_dd" x="0" y="0" width="43" height="43" filterUnits="userSpaceOnUse" color-interpolation-filters="sRGB">
<feFlood flood-opacity="0" result="BackgroundImageFix"/>
<feColorMatrix in="SourceAlpha" type="matrix" values="0 0 0 0 0 0 0 0 0 0 0 0 0 0 0 0 0 0 127 0"/>
<feOffset dx="-2" dy="-2"/>
<feGaussianBlur stdDeviation="2.5"/>
<feColorMatrix type="matrix" values="0 0 0 0 1 0 0 0 0 1 0 0 0 0 1 0 0 0 0.25 0"/>
<feBlend mode="normal" in2="BackgroundImageFix" result="effect1_dropShadow"/>
<feColorMatrix in="SourceAlpha" type="matrix" values="0 0 0 0 0 0 0 0 0 0 0 0 0 0 0 0 0 0 127 0"/>
<feOffset dx="2" dy="2"/>
<feGaussianBlur stdDeviation="2"/>
<feColorMatrix type="matrix" values="0 0 0 0 0.00718749 0 0 0 0 0.576218 0 0 0 0 0.8625 0 0 0 1 0"/>
<feBlend mode="normal" in2="effect1_dropShadow" result="effect2_dropShadow"/>
<feBlend mode="normal" in="SourceGraphic" in2="effect2_dropShadow" result="shape"/>
</filter>
</defs>
</svg>
