<svg width="40" height="40" viewBox="0 0 40 40" fill="none" xmlns="http://www.w3.org/2000/svg">
<g filter="url(#filter0_d)">
<path d="M35 16C35 24.2844 28.2844 31 20 31C11.7156 31 5 24.2844 5 16C5 7.71562 11.7156 1 20 1C28.2844 1 35 7.71562 35 16Z" fill="#9330B2"/>
<path d="M22.0036 6.13678H17.9964C13.979 6.13678 10.7108 9.40498 10.7108 13.4223V16.2071C10.7108 18.1268 11.489 19.9766 12.8323 21.3341V25.0131C12.8323 25.3752 13.0255 25.7096 13.3389 25.8909C13.4959 25.9815 13.671 26.0268 13.8461 26.0268C14.0209 26.0268 14.1958 25.9818 14.3523 25.8913L18.5132 23.4927H22.0036C26.021 23.4927 29.2892 20.2245 29.2892 16.2071V13.4223C29.2892 9.40498 26.021 6.13678 22.0036 6.13678ZM27.7378 16.3211C27.7378 19.3776 25.2371 21.8786 22.1803 21.8786H18.9153L13.7955 25.0131V20.1421C12.8472 19.1439 12.2622 17.7981 12.2622 16.3213V13.3081C12.2622 10.2516 14.763 7.75085 17.8194 7.75085H22.1803C25.2368 7.75085 27.7378 10.2516 27.7378 13.3081V16.3211Z" fill="white"/>
<path d="M18.94 10.6281C18.9201 10.6085 18.9032 10.5851 18.8899 10.5586C18.8245 10.4269 18.878 10.2672 19.0096 10.2015C20.4198 9.49906 22.2863 9.88999 23.5484 11.152C24.81 12.4136 25.2011 14.2793 24.4994 15.6889C24.4339 15.8205 24.2741 15.8741 24.1423 15.8086C24.0107 15.7432 23.9571 15.5834 24.0226 15.4518C24.6239 14.244 24.2739 12.6306 23.1718 11.5283C22.0693 10.4258 20.4552 10.0763 19.247 10.6783C19.1419 10.7304 19.0188 10.7069 18.94 10.6281Z" fill="white"/>
<path d="M19.5448 11.8C19.5235 11.7785 19.5054 11.7533 19.4919 11.7245C19.4294 11.5913 19.4868 11.4329 19.6201 11.3706C20.5894 10.9172 21.8127 11.1846 22.6642 12.036C23.5154 12.8874 23.7832 14.1099 23.3305 15.0785C23.268 15.2117 23.1096 15.2692 22.9764 15.2069C22.8434 15.1447 22.786 14.9861 22.848 14.8531C23.2064 14.0868 22.9812 13.106 22.2877 12.4125C21.5942 11.719 20.6129 11.494 19.8457 11.8529C19.7414 11.9016 19.6217 11.8769 19.5448 11.8Z" fill="white"/>
<path d="M20.1428 12.9701C20.117 12.9444 20.0961 12.9129 20.0824 12.8765C20.0302 12.7391 20.0993 12.5853 20.2367 12.5331C20.748 12.339 21.3547 12.4899 21.7825 12.9177C22.2103 13.3454 22.3616 13.952 22.1677 14.4626C22.1158 14.6002 21.962 14.6693 21.8246 14.6171C21.6871 14.5649 21.618 14.4113 21.6701 14.2738C21.7878 13.9634 21.6816 13.5697 21.406 13.2942C21.1307 13.0186 20.7365 12.9129 20.4257 13.031C20.3246 13.0692 20.2147 13.0419 20.1428 12.9701Z" fill="white"/>
<path d="M18.2211 12.5031L16.3731 10.6551C16.1383 10.4205 15.8067 10.3654 15.6359 10.5359L15.4574 10.7147C14.5867 11.5851 14.4256 12.8542 15.1328 13.7167C16.0106 14.7865 16.9872 15.8704 17.9261 16.7734C18.829 17.7123 19.913 18.6889 20.9828 19.5667C21.8452 20.2739 23.1144 20.1128 23.9848 19.2423L24.1636 19.0636C24.3341 18.8931 24.2789 18.5612 24.0441 18.3266L22.1961 16.4786C21.7576 16.0398 21.4683 16.1005 21.2975 16.271C21.2975 16.271 21.0645 16.5079 21.022 16.5569V16.5562C20.8558 16.7226 20.4349 16.7596 20.0547 16.5216C19.7086 16.3046 19.3504 15.9897 19.0286 15.6709C18.7098 15.349 18.3949 14.9908 18.1779 14.6448C17.9398 14.2646 17.9769 13.8437 18.1433 13.6775H18.1426C18.1916 13.635 18.4285 13.402 18.4285 13.402C18.5992 13.2312 18.6597 12.9419 18.2211 12.5031Z" fill="white"/>
</g>
<defs>
<filter id="filter0_d" x="0" y="0" width="40" height="40" filterUnits="userSpaceOnUse" color-interpolation-filters="sRGB">
<feFlood flood-opacity="0" result="BackgroundImageFix"/>
<feColorMatrix in="SourceAlpha" type="matrix" values="0 0 0 0 0 0 0 0 0 0 0 0 0 0 0 0 0 0 127 0"/>
<feOffset dy="4"/>
<feGaussianBlur stdDeviation="2.5"/>
<feColorMatrix type="matrix" values="0 0 0 0 1 0 0 0 0 1 0 0 0 0 1 0 0 0 0.5 0"/>
<feBlend mode="normal" in2="BackgroundImageFix" result="effect1_dropShadow"/>
<feBlend mode="normal" in="SourceGraphic" in2="effect1_dropShadow" result="shape"/>
</filter>
</defs>
</svg>
