<svg width="136" height="137" viewBox="0 0 136 137" fill="none" xmlns="http://www.w3.org/2000/svg">
<g filter="url(#filter0_d)">
<path d="M68 116.044C94.5097 116.044 116 94.5442 116 68.0222C116 41.5003 94.5097 20 68 20C41.4903 20 20 41.5003 20 68.0222C20 94.5442 41.4903 116.044 68 116.044Z" fill="white"/>
</g>
<path d="M67.9994 105.189C88.5167 105.189 105.149 88.5483 105.149 68.0215C105.149 47.4947 88.5167 30.8545 67.9994 30.8545C47.4821 30.8545 30.8496 47.4947 30.8496 68.0215C30.8496 88.5483 47.4821 105.189 67.9994 105.189Z" fill="#FF3654"/>
<path d="M73.2967 85.6151H62.8168C62.1475 85.6151 61.6064 85.0738 61.6064 84.4042C61.6064 83.7347 62.1475 83.1934 62.8168 83.1934H73.2967C73.966 83.1934 74.5071 83.7347 74.5071 84.4042C74.5071 85.0738 73.9517 85.6151 73.2967 85.6151Z" fill="white"/>
<path d="M71.4742 89.6327H64.9242C64.255 89.6327 63.7139 89.0914 63.7139 88.4218C63.7139 87.7523 64.255 87.2109 64.9242 87.2109H71.4742C72.1434 87.2109 72.6845 87.7523 72.6845 88.4218C72.6845 89.0914 72.1434 89.6327 71.4742 89.6327Z" fill="white"/>
<path d="M73.567 81.3416H62.4321C61.9337 81.3416 61.5208 80.9285 61.5208 80.4299C61.5208 77.3385 60.2108 74.3612 57.9325 72.2813C54.8711 69.4749 53.1055 65.4861 53.1055 61.3264C53.1055 53.1066 59.7836 46.4111 67.9853 46.4111C76.187 46.4111 82.8652 53.0924 82.8652 61.3264C82.8652 65.5004 81.0995 69.4892 78.0381 72.2813C75.7741 74.3897 74.4641 77.367 74.4641 80.4299C74.4784 80.9285 74.0797 81.3416 73.567 81.3416ZM63.3149 79.5181H72.6842C72.9121 76.2701 74.3929 73.1788 76.8136 70.928C79.5047 68.4777 81.0568 64.9733 81.0568 61.3121C81.0568 54.0896 75.2045 48.2203 67.9996 48.2203C60.7946 48.2203 54.9423 54.0896 54.9423 61.3121C54.9423 64.959 56.4801 68.4492 59.1713 70.9137C61.6062 73.1646 63.0871 76.2559 63.3149 79.5181Z" fill="white"/>
<path d="M63.9133 54.8445C60.1969 56.9101 58.8442 61.6254 60.9089 65.3435C61.1794 65.8421 61.0086 66.4832 60.496 66.7681C60.3393 66.8536 60.1684 66.8821 59.9976 66.8821C59.6416 66.8821 59.2714 66.6969 59.0863 66.355C56.452 61.6254 58.175 55.628 62.9024 53.0068C63.415 52.7076 64.0557 52.9071 64.3263 53.4057C64.5968 53.9327 64.4259 54.5596 63.9133 54.8445Z" fill="white"/>
<defs>
<filter id="filter0_d" x="0" y="0" width="136" height="136.044" filterUnits="userSpaceOnUse" color-interpolation-filters="sRGB">
<feFlood flood-opacity="0" result="BackgroundImageFix"/>
<feColorMatrix in="SourceAlpha" type="matrix" values="0 0 0 0 0 0 0 0 0 0 0 0 0 0 0 0 0 0 127 0"/>
<feOffset/>
<feGaussianBlur stdDeviation="10"/>
<feColorMatrix type="matrix" values="0 0 0 0 0 0 0 0 0 0 0 0 0 0 0 0 0 0 0.25 0"/>
<feBlend mode="normal" in2="BackgroundImageFix" result="effect1_dropShadow"/>
<feBlend mode="normal" in="SourceGraphic" in2="effect1_dropShadow" result="shape"/>
</filter>
</defs>
</svg>
