<svg width="132" height="132" viewBox="0 0 132 132" fill="none" xmlns="http://www.w3.org/2000/svg">
<g filter="url(#filter0_d)">
<path d="M98 98.0441C115.673 80.3628 115.673 51.6958 98 34.0145C80.3269 16.3332 51.6731 16.3332 34 34.0145C16.3269 51.6958 16.3269 80.3628 34 98.0441C51.6731 115.725 80.3269 115.725 98 98.0441Z" fill="white"/>
</g>
<path d="M66.0021 101.069C85.3461 101.069 101.028 85.3801 101.028 66.0271C101.028 46.6741 85.3461 30.9854 66.0021 30.9854C46.658 30.9854 30.9766 46.6741 30.9766 66.0271C30.9766 85.3801 46.658 101.069 66.0021 101.069Z" fill="#5ED8C6"/>
<path d="M78.1781 66.0279C78.1781 65.6384 78.1513 65.2489 78.1244 64.8729L81.8028 62.9791C81.5478 61.6628 81.1182 60.4003 80.5677 59.2184L76.4732 59.8496C76.0838 59.1915 75.6274 58.5603 75.1172 57.9827L76.9833 54.2892C76.0167 53.3893 74.9562 52.5969 73.7882 51.9522L70.8481 54.8667C70.15 54.5578 69.4117 54.3295 68.6599 54.1549L67.9886 50.0718C67.3442 49.9912 66.673 49.9375 66.0152 49.9375C65.3439 49.9375 64.6861 49.9912 64.0417 50.0718L63.3705 54.1549C62.6053 54.3295 61.8803 54.5578 61.1822 54.8667L58.2422 51.9522C57.0742 52.5969 56.0137 53.3893 55.0471 54.2892L56.9131 57.9827C56.403 58.5603 55.9465 59.1781 55.5572 59.8496L51.4626 59.2184C50.9122 60.4003 50.4826 61.6628 50.2275 62.9791L53.9059 64.8729C53.8657 65.2489 53.8522 65.6384 53.8522 66.0279C53.8522 66.4174 53.8791 66.8069 53.9059 67.183L50.2275 69.0768C50.4826 70.3931 50.9122 71.6556 51.4626 72.8375L55.5572 72.2063C55.9465 72.8644 56.403 73.4956 56.9131 74.0732L55.0471 77.7667C56.0137 78.6666 57.0742 79.459 58.2422 80.1037L61.1822 77.1892C61.8803 77.4981 62.6187 77.7264 63.3705 77.901L64.0417 81.9841C64.6861 82.0647 65.3574 82.1184 66.0152 82.1184C66.6864 82.1184 67.3442 82.0647 67.9886 81.9841L68.6599 77.901C69.4251 77.7264 70.15 77.4981 70.8481 77.1892L73.7882 80.1037C74.9562 79.459 76.0167 78.6666 76.9833 77.7667L75.1172 74.0732C75.6274 73.4956 76.0838 72.8778 76.4732 72.2063L80.5677 72.8375C81.1182 71.6556 81.5478 70.3931 81.8028 69.0768L78.1244 67.183C78.1513 66.8069 78.1781 66.4174 78.1781 66.0279ZM66.0018 73.6568C61.7864 73.6568 58.3764 70.2453 58.3764 66.0279C58.3764 61.8106 61.7864 58.3991 66.0018 58.3991C70.2172 58.3991 73.6271 61.8106 73.6271 66.0279C73.6271 70.2453 70.2172 73.6568 66.0018 73.6568Z" fill="white"/>
<defs>
<filter id="filter0_d" x="0.745117" y="0.753906" width="130.51" height="130.552" filterUnits="userSpaceOnUse" color-interpolation-filters="sRGB">
<feFlood flood-opacity="0" result="BackgroundImageFix"/>
<feColorMatrix in="SourceAlpha" type="matrix" values="0 0 0 0 0 0 0 0 0 0 0 0 0 0 0 0 0 0 127 0"/>
<feOffset/>
<feGaussianBlur stdDeviation="10"/>
<feColorMatrix type="matrix" values="0 0 0 0 0 0 0 0 0 0 0 0 0 0 0 0 0 0 0.25 0"/>
<feBlend mode="normal" in2="BackgroundImageFix" result="effect1_dropShadow"/>
<feBlend mode="normal" in="SourceGraphic" in2="effect1_dropShadow" result="shape"/>
</filter>
</defs>
</svg>
