<svg width="770" height="505" viewBox="0 0 770 505" fill="none" xmlns="http://www.w3.org/2000/svg">
<path d="M616.676 468.541C616.552 468.541 616.408 468.52 616.284 468.479C615.646 468.253 615.316 467.572 615.543 466.934C624.627 441.092 629.22 414.013 629.22 386.461C629.22 252.594 520.359 143.684 386.555 143.684C252.75 143.684 143.89 252.594 143.89 386.461C143.89 414.013 148.483 441.092 157.567 466.934C157.793 467.572 157.464 468.253 156.825 468.479C156.207 468.706 155.507 468.376 155.28 467.737C146.114 441.648 141.459 414.302 141.459 386.461C141.459 251.255 251.411 141.272 386.534 141.272C521.678 141.272 631.609 251.276 631.609 386.461C631.609 414.302 626.954 441.648 617.788 467.737C617.644 468.232 617.17 468.541 616.676 468.541Z" fill="#202020"/>
<path d="M620.981 468.582C620.157 470.952 617.562 472.209 615.193 471.385C612.824 470.561 611.568 467.964 612.391 465.594C613.215 463.224 615.811 461.967 618.18 462.792C620.548 463.616 621.805 466.212 620.981 468.582Z" fill="black"/>
<path d="M152.087 468.582C152.911 470.952 155.507 472.209 157.875 471.385C160.244 470.561 161.501 467.964 160.677 465.594C159.853 463.224 157.258 461.967 154.889 462.792C152.541 463.616 151.284 466.212 152.087 468.582Z" fill="#202020"/>
<g filter="url(#filter0_d)">
<path d="M386.534 211.936C424.882 211.936 455.969 180.834 455.969 142.468C455.969 104.102 424.882 73 386.534 73C348.185 73 317.098 104.102 317.098 142.468C317.098 180.834 348.185 211.936 386.534 211.936Z" fill="white"/>
</g>
<path d="M386.533 196.232C416.213 196.232 440.273 172.161 440.273 142.467C440.273 112.774 416.213 88.7021 386.533 88.7021C356.853 88.7021 332.793 112.774 332.793 142.467C332.793 172.161 356.853 196.232 386.533 196.232Z" fill="#FF3654"/>
<path d="M394.195 167.918H379.035C378.067 167.918 377.284 167.135 377.284 166.167C377.284 165.198 378.067 164.415 379.035 164.415H394.195C395.163 164.415 395.946 165.198 395.946 166.167C395.946 167.135 395.143 167.918 394.195 167.918Z" fill="white"/>
<path d="M391.559 173.73H382.084C381.116 173.73 380.333 172.947 380.333 171.978C380.333 171.01 381.116 170.227 382.084 170.227H391.559C392.527 170.227 393.31 171.01 393.31 171.978C393.31 172.947 392.527 173.73 391.559 173.73Z" fill="white"/>
<path d="M394.587 161.736H378.479C377.758 161.736 377.161 161.139 377.161 160.417C377.161 155.946 375.266 151.639 371.97 148.63C367.541 144.57 364.987 138.8 364.987 132.783C364.987 120.892 374.648 111.207 386.512 111.207C398.377 111.207 408.037 120.871 408.037 132.783C408.037 138.821 405.483 144.591 401.054 148.63C397.779 151.68 395.884 155.987 395.884 160.417C395.905 161.139 395.328 161.736 394.587 161.736ZM379.756 159.099H393.31C393.639 154.4 395.781 149.928 399.283 146.672C403.176 143.128 405.421 138.058 405.421 132.762C405.421 122.314 396.955 113.824 386.533 113.824C376.11 113.824 367.644 122.314 367.644 132.762C367.644 138.038 369.869 143.086 373.762 146.652C377.284 149.908 379.427 154.379 379.756 159.099Z" fill="white"/>
<path d="M380.621 123.406C375.245 126.394 373.288 133.215 376.275 138.594C376.667 139.315 376.419 140.243 375.678 140.655C375.451 140.778 375.204 140.82 374.957 140.82C374.442 140.82 373.906 140.552 373.639 140.057C369.828 133.215 372.32 124.54 379.159 120.748C379.9 120.315 380.827 120.604 381.219 121.325C381.61 122.087 381.363 122.994 380.621 123.406Z" fill="white"/>
<g filter="url(#filter1_d)">
<path d="M169.255 426.329C204.685 411.646 221.51 371.008 206.834 335.562C192.158 300.115 151.539 283.283 116.109 297.966C80.6788 312.649 63.8542 353.286 78.5302 388.733C93.2061 424.179 133.825 441.012 169.255 426.329Z" fill="white"/>
</g>
<path d="M142.674 415.91C172.354 415.91 196.414 391.838 196.414 362.145C196.414 332.451 172.354 308.379 142.674 308.379C112.994 308.379 88.9336 332.451 88.9336 362.145C88.9336 391.838 112.994 415.91 142.674 415.91Z" fill="#7B3DD9"/>
<path d="M164.652 380.588L152.088 368.018C154.58 364.968 156.145 361.114 156.145 356.869C156.145 347.08 148.195 339.126 138.411 339.126C128.627 339.126 120.696 347.08 120.696 356.869C120.696 366.658 128.647 374.612 138.411 374.612C141.603 374.612 144.569 373.685 147.165 372.201L160.1 385.143L164.652 380.588ZM127.123 356.869C127.123 350.646 132.19 345.576 138.39 345.576C144.611 345.576 149.678 350.646 149.678 356.869C149.678 363.093 144.611 368.162 138.39 368.162C132.19 368.162 127.123 363.093 127.123 356.869Z" fill="white"/>
<g filter="url(#filter2_d)">
<path d="M676.317 411.268C703.433 384.139 703.433 340.155 676.317 313.026C649.201 285.897 605.237 285.897 578.121 313.026C551.004 340.155 551.004 384.139 578.121 411.268C605.237 438.397 649.201 438.396 676.317 411.268Z" fill="white"/>
</g>
<path d="M627.222 415.909C656.902 415.909 680.962 391.838 680.962 362.144C680.962 332.45 656.902 308.379 627.222 308.379C597.542 308.379 573.481 332.45 573.481 362.144C573.481 391.838 597.542 415.909 627.222 415.909Z" fill="#5ED8C6"/>
<path d="M645.904 362.144C645.904 361.546 645.862 360.949 645.821 360.372L651.465 357.466C651.074 355.446 650.415 353.509 649.57 351.696L643.288 352.664C642.69 351.655 641.99 350.686 641.207 349.8L644.07 344.133C642.587 342.752 640.96 341.536 639.168 340.547L634.657 345.019C633.586 344.545 632.453 344.195 631.3 343.927L630.27 337.662C629.281 337.538 628.251 337.456 627.242 337.456C626.212 337.456 625.203 337.538 624.214 337.662L623.184 343.927C622.01 344.195 620.898 344.545 619.826 345.019L615.316 340.547C613.523 341.536 611.896 342.752 610.413 344.133L613.276 349.8C612.494 350.686 611.793 351.634 611.196 352.664L604.914 351.696C604.069 353.509 603.41 355.446 603.019 357.466L608.662 360.372C608.601 360.949 608.58 361.546 608.58 362.144C608.58 362.742 608.621 363.339 608.662 363.916L603.019 366.822C603.41 368.841 604.069 370.778 604.914 372.592L611.196 371.623C611.793 372.633 612.494 373.602 613.276 374.488L610.413 380.155C611.896 381.536 613.523 382.751 615.316 383.741L619.826 379.269C620.898 379.743 622.03 380.093 623.184 380.361L624.214 386.626C625.203 386.749 626.232 386.832 627.242 386.832C628.272 386.832 629.281 386.749 630.27 386.626L631.3 380.361C632.474 380.093 633.586 379.743 634.657 379.269L639.168 383.741C640.96 382.751 642.587 381.536 644.07 380.155L641.207 374.488C641.99 373.602 642.69 372.654 643.288 371.623L649.57 372.592C650.415 370.778 651.074 368.841 651.465 366.822L645.821 363.916C645.862 363.339 645.904 362.742 645.904 362.144ZM627.221 373.849C620.753 373.849 615.522 368.615 615.522 362.144C615.522 355.673 620.753 350.439 627.221 350.439C633.689 350.439 638.921 355.673 638.921 362.144C638.921 368.615 633.689 373.849 627.221 373.849Z" fill="white"/>
<g filter="url(#filter3_d)">
<path d="M289.016 221.058C297.828 183.72 274.718 146.304 237.397 137.488C200.076 128.671 162.678 151.793 153.866 189.13C145.053 226.468 168.164 263.884 205.484 272.701C242.805 281.517 280.203 258.396 289.016 221.058Z" fill="white"/>
</g>
<path d="M221.441 258.859C251.121 258.859 275.182 234.788 275.182 205.094C275.182 175.401 251.121 151.329 221.441 151.329C191.761 151.329 167.701 175.401 167.701 205.094C167.701 234.788 191.761 258.859 221.441 258.859Z" fill="#FF9D00"/>
<path d="M195.981 187.928V222.24H246.9V187.928H195.981ZM221.399 205.919L202.078 191.019H240.782L221.399 205.919ZM214.705 204.682L199.092 217.418V192.627L214.705 204.682ZM217.218 206.619L221.379 209.834L225.766 206.454L241.029 219.128H201.872L217.218 206.619ZM228.3 204.517L243.789 192.627V217.376L228.3 204.517Z" fill="white"/>
<g filter="url(#filter4_d)">
<path d="M576.794 269.559C612.224 254.877 629.049 214.239 614.373 178.792C599.697 143.346 559.078 126.514 523.648 141.196C488.218 155.879 471.393 196.517 486.069 231.963C500.745 267.41 541.364 284.242 576.794 269.559Z" fill="white"/>
</g>
<path d="M550.206 259.147C579.886 259.147 603.946 235.075 603.946 205.382C603.946 175.688 579.886 151.617 550.206 151.617C520.526 151.617 496.466 175.688 496.466 205.382C496.466 235.075 520.526 259.147 550.206 259.147Z" fill="#22A5CC"/>
<path d="M538.362 219.993L546.313 212.059L549.65 215.398L565.078 199.963L567.653 202.539C567.694 202.23 569.61 190.566 569.486 191.287L558.26 193.121L561.164 196.006L549.671 207.505L546.334 204.167L537.868 212.636V187.269H533.007V219.993V224.857H537.868H570.578V219.993H538.362Z" fill="white"/>
<defs>
<filter id="filter0_d" x="244.098" y="0" width="284.872" height="284.936" filterUnits="userSpaceOnUse" color-interpolation-filters="sRGB">
<feFlood flood-opacity="0" result="BackgroundImageFix"/>
<feColorMatrix in="SourceAlpha" type="matrix" values="0 0 0 0 0 0 0 0 0 0 0 0 0 0 0 0 0 0 127 0"/>
<feOffset/>
<feGaussianBlur stdDeviation="36.5"/>
<feColorMatrix type="matrix" values="0 0 0 0 0 0 0 0 0 0 0 0 0 0 0 0 0 0 0.25 0"/>
<feBlend mode="normal" in2="BackgroundImageFix" result="effect1_dropShadow"/>
<feBlend mode="normal" in="SourceGraphic" in2="effect1_dropShadow" result="shape"/>
</filter>
<filter id="filter1_d" x="0.226562" y="219.659" width="284.912" height="284.976" filterUnits="userSpaceOnUse" color-interpolation-filters="sRGB">
<feFlood flood-opacity="0" result="BackgroundImageFix"/>
<feColorMatrix in="SourceAlpha" type="matrix" values="0 0 0 0 0 0 0 0 0 0 0 0 0 0 0 0 0 0 127 0"/>
<feOffset/>
<feGaussianBlur stdDeviation="36.5"/>
<feColorMatrix type="matrix" values="0 0 0 0 0 0 0 0 0 0 0 0 0 0 0 0 0 0 0.25 0"/>
<feBlend mode="normal" in2="BackgroundImageFix" result="effect1_dropShadow"/>
<feBlend mode="normal" in="SourceGraphic" in2="effect1_dropShadow" result="shape"/>
</filter>
<filter id="filter2_d" x="484.783" y="219.68" width="284.87" height="284.935" filterUnits="userSpaceOnUse" color-interpolation-filters="sRGB">
<feFlood flood-opacity="0" result="BackgroundImageFix"/>
<feColorMatrix in="SourceAlpha" type="matrix" values="0 0 0 0 0 0 0 0 0 0 0 0 0 0 0 0 0 0 127 0"/>
<feOffset/>
<feGaussianBlur stdDeviation="36.5"/>
<feColorMatrix type="matrix" values="0 0 0 0 0 0 0 0 0 0 0 0 0 0 0 0 0 0 0.25 0"/>
<feBlend mode="normal" in2="BackgroundImageFix" result="effect1_dropShadow"/>
<feBlend mode="normal" in="SourceGraphic" in2="effect1_dropShadow" result="shape"/>
</filter>
<filter id="filter3_d" x="78.9912" y="62.6128" width="284.898" height="284.962" filterUnits="userSpaceOnUse" color-interpolation-filters="sRGB">
<feFlood flood-opacity="0" result="BackgroundImageFix"/>
<feColorMatrix in="SourceAlpha" type="matrix" values="0 0 0 0 0 0 0 0 0 0 0 0 0 0 0 0 0 0 127 0"/>
<feOffset/>
<feGaussianBlur stdDeviation="36.5"/>
<feColorMatrix type="matrix" values="0 0 0 0 0 0 0 0 0 0 0 0 0 0 0 0 0 0 0.25 0"/>
<feBlend mode="normal" in2="BackgroundImageFix" result="effect1_dropShadow"/>
<feBlend mode="normal" in="SourceGraphic" in2="effect1_dropShadow" result="shape"/>
</filter>
<filter id="filter4_d" x="407.766" y="62.8896" width="284.912" height="284.976" filterUnits="userSpaceOnUse" color-interpolation-filters="sRGB">
<feFlood flood-opacity="0" result="BackgroundImageFix"/>
<feColorMatrix in="SourceAlpha" type="matrix" values="0 0 0 0 0 0 0 0 0 0 0 0 0 0 0 0 0 0 127 0"/>
<feOffset/>
<feGaussianBlur stdDeviation="36.5"/>
<feColorMatrix type="matrix" values="0 0 0 0 0 0 0 0 0 0 0 0 0 0 0 0 0 0 0.25 0"/>
<feBlend mode="normal" in2="BackgroundImageFix" result="effect1_dropShadow"/>
<feBlend mode="normal" in="SourceGraphic" in2="effect1_dropShadow" result="shape"/>
</filter>
</defs>
</svg>
