<svg width="189" height="156" viewBox="0 0 189 156" fill="none" xmlns="http://www.w3.org/2000/svg">
<path opacity="0.18" d="M36.9401 15.753C22.4823 32.6618 23.2331 58.637 14.8913 79.5169C10.4343 90.7106 2.55444 100.833 1.17902 112.804C-0.164906 124.481 5.43129 136.862 15.4057 144.284C37.1185 160.442 64.3226 145.975 87.941 146.285C105.675 146.522 122.757 156.266 140.37 154.863C145.778 154.375 151.067 152.989 156.019 150.761C167.672 145.621 177.25 136.696 183.202 125.432C186.798 118.603 188.452 109.616 187.927 101.92C187.129 90.1906 186.132 77.8728 179.38 67.8136C170.403 54.4452 155.862 52.197 142.858 44.5647C128.815 36.323 119.235 23.3381 107.465 12.6959C93.8417 0.404285 72.2286 -3.33572 55.3193 3.11999C47.282 6.20339 41.3918 10.5475 36.9401 15.753Z" fill="#22A5CC"/>
<path d="M163.254 140.318C161.946 142.356 159.285 142.945 156.891 143.312C139.782 145.797 122.374 143.838 105.197 141.831C103.869 141.673 102.425 141.463 101.522 140.481L103.491 138.905C89.2826 140.765 74.9284 141.253 60.6269 140.36C58.6005 140.234 56.3956 139.998 54.9677 138.559C53.9808 137.571 53.5083 136.121 52.4111 135.249C50.9202 134.067 48.7888 134.314 46.9042 134.582C40.6859 135.467 34.4168 135.946 28.1364 136.016C23.5849 136.069 18.5137 135.68 15.4111 132.339C18.3615 130.07 21.8788 128.688 25.3436 127.328C29.7953 125.584 34.2681 123.835 38.9456 122.826C44.6048 121.602 50.432 121.497 56.2171 121.392L119.035 120.273C125.508 120.158 132.039 120.048 138.396 121.271C145.641 122.663 161.169 128.951 155.048 138.338C155.71 138.39 163.569 139.819 163.254 140.318Z" fill="url(#paint0_linear)"/>
<path d="M32.1045 131.945C44.0585 131.945 53.7491 122.249 53.7491 110.288C53.7491 98.3268 44.0585 88.6305 32.1045 88.6305C20.1506 88.6305 10.46 98.3268 10.46 110.288C10.46 122.249 20.1506 131.945 32.1045 131.945Z" fill="#F8C244"/>
<path d="M49.8904 115.172C52.5917 105.346 46.8204 95.1887 36.9998 92.4857C27.1792 89.7828 17.0281 95.5575 14.3268 105.384C11.6254 115.21 17.3967 125.367 27.2173 128.07C37.0379 130.773 47.189 124.999 49.8904 115.172Z" fill="#E8A825"/>
<path d="M29.1806 121.671L29.4956 118.724C27.9232 118.55 26.4306 117.941 25.1855 116.964L26.0885 115.089C27.2429 116.028 28.642 116.617 30.1203 116.786C32.2202 117.012 33.7216 115.977 33.9001 114.317C34.0786 112.657 33.0496 111.601 30.9917 110.488C28.1464 108.996 26.456 107.457 26.729 104.93C26.9914 102.514 28.9023 100.864 31.6322 100.728L31.9472 97.7863L33.7531 97.9806L33.4486 100.801C34.775 100.961 36.0393 101.454 37.1234 102.235L36.2099 104.1C35.1745 103.317 33.9426 102.835 32.6506 102.708C30.409 102.467 29.4221 103.717 29.2961 104.878C29.1333 106.39 30.1255 107.262 32.5404 108.586C35.4067 110.136 36.7402 111.811 36.4777 114.401C36.2309 116.702 34.3778 118.687 31.3487 118.861L31.0232 121.886L29.1806 121.671Z" fill="#F8C244"/>
<path d="M57.5557 132.518C69.5097 132.518 79.2003 122.821 79.2003 110.86C79.2003 98.8994 69.5097 89.2031 57.5557 89.2031C45.6017 89.2031 35.9111 98.8994 35.9111 110.86C35.9111 122.821 45.6017 132.518 57.5557 132.518Z" fill="#F8C244"/>
<path d="M66.4122 127.053C75.3445 122.156 78.618 110.941 73.7236 102.003C68.8292 93.0653 57.6204 89.7899 48.6881 94.6872C39.7557 99.5844 36.4823 110.8 41.3767 119.737C46.2711 128.675 57.4798 131.95 66.4122 127.053Z" fill="#E8A825"/>
<path d="M63.3664 121.072L61.5448 118.74C60.2943 119.71 58.798 120.312 57.2243 120.478L56.568 118.498C58.0505 118.375 59.4663 117.828 60.6471 116.922C62.3007 115.635 62.6682 113.834 61.6393 112.515C60.6103 111.197 59.1404 111.16 56.9145 111.79C53.8382 112.704 51.5546 112.778 49.9901 110.771C48.494 108.854 48.725 106.338 50.5781 104.331L48.7617 101.999L50.1949 100.88L51.9378 103.118C52.9997 102.308 54.2497 101.782 55.5706 101.589L56.2111 103.58C54.9224 103.738 53.7029 104.251 52.6885 105.061C50.9088 106.448 51.0716 108.029 51.7856 108.954C52.7252 110.151 54.0482 110.088 56.6993 109.358C59.8491 108.47 61.949 108.733 63.5712 110.792C64.9938 112.615 65.0568 115.32 62.9884 117.563L64.8573 119.969L63.3664 121.072Z" fill="#F8C244"/>
<path d="M123.912 20.6119V127.848C123.912 130.332 122.926 132.714 121.171 134.471C119.415 136.227 117.034 137.214 114.552 137.214H68.1654C66.9344 137.217 65.715 136.976 64.577 136.507C63.4389 136.037 62.4046 135.348 61.5332 134.478C60.6617 133.608 59.9704 132.575 59.4987 131.437C59.027 130.299 58.7842 129.08 58.7842 127.848V20.6119C58.7835 19.3815 59.0251 18.1631 59.4952 17.0262C59.9653 15.8892 60.6546 14.8561 61.5239 13.9859C62.3931 13.1156 63.4252 12.4253 64.5612 11.9543C65.6972 11.4833 66.9148 11.2409 68.1444 11.2409H114.531C115.762 11.2381 116.982 11.4785 118.121 11.9483C119.259 12.418 120.294 13.1079 121.165 13.9785C122.036 14.849 122.728 15.883 123.199 17.0213C123.671 18.1596 123.913 19.3797 123.912 20.6119Z" fill="#22A5CC"/>
<path d="M113.575 12.8271H69.1364C64.138 12.8271 60.0859 16.8816 60.0859 21.883V126.367C60.0859 131.368 64.138 135.423 69.1364 135.423H113.575C118.574 135.423 122.626 131.368 122.626 126.367V21.883C122.626 16.8816 118.574 12.8271 113.575 12.8271Z" fill="#473F47"/>
<path d="M120.852 23.0176V124.192C120.828 126.486 119.895 128.676 118.258 130.282C116.621 131.887 114.414 132.777 112.121 132.754H70.4859C68.9649 132.759 67.4688 132.368 66.1444 131.62C64.8163 130.886 63.7083 129.81 62.9348 128.505C62.1614 127.199 61.7507 125.71 61.7451 124.192V23.0176C61.77 20.7226 62.7048 18.5315 64.3439 16.9259C65.983 15.3203 68.1922 14.4317 70.4859 14.4555H77.5205V15.7267C77.5383 16.5435 77.797 17.3367 78.264 18.0068C78.7311 18.6769 79.3856 19.194 80.1454 19.493C80.6553 19.6942 81.1984 19.7975 81.7465 19.7977H101.086C102.189 19.7978 103.248 19.3637 104.034 18.5892C104.82 17.8147 105.27 16.762 105.286 15.6584V14.4555H112.111C114.35 14.4506 116.507 15.2996 118.143 16.8298C118.995 17.6196 119.675 18.5767 120.142 19.6413C120.608 20.706 120.849 21.8553 120.852 23.0176Z" fill="white"/>
<path opacity="0.18" d="M91.3689 55.065C99.1536 55.065 105.464 48.7505 105.464 40.9612C105.464 33.1719 99.1536 26.8574 91.3689 26.8574C83.5842 26.8574 77.2734 33.1719 77.2734 40.9612C77.2734 48.7505 83.5842 55.065 91.3689 55.065Z" fill="#22A5CC"/>
<path opacity="0.18" d="M113.506 65.4656H68.7158V101.957H113.506V65.4656Z" fill="#22A5CC"/>
<g opacity="0.41">
<path opacity="0.41" d="M80.3967 93.7363H73.0156V100.171H80.3967V93.7363Z" fill="#22A5CC"/>
</g>
<path d="M87.72 88.7303H80.3389V100.171H87.72V88.7303Z" fill="#22A5CC"/>
<g opacity="0.5">
<path opacity="0.5" d="M95.0432 83.4513H87.6621V100.171H95.0432V83.4513Z" fill="#22A5CC"/>
</g>
<path d="M102.367 78.3088H94.9863V100.171H102.367V78.3088Z" fill="#22A5CC"/>
<path d="M109.691 73.1243H102.31V100.171H109.691V73.1243Z" fill="#22A5CC"/>
<path d="M109.691 73.1243H102.31V100.171H109.691V73.1243Z" fill="url(#paint1_linear)"/>
<path d="M111.149 100.171H70.1963V101.962H111.149V100.171Z" fill="url(#paint2_linear)"/>
<path opacity="0.18" d="M90.3026 105.319H68.7158V132.644H90.3026V105.319Z" fill="#22A5CC"/>
<path opacity="0.18" d="M113.507 105.319H91.9199V132.644H113.507V105.319Z" fill="#22A5CC"/>
<path d="M90.5391 51.3881V48.8195C89.1676 48.8251 87.822 48.4466 86.6543 47.7269L87.2475 46.0197C88.3346 46.7113 89.5973 47.076 90.8856 47.0703C92.702 47.0703 93.9042 46.0197 93.8989 44.57C93.8937 43.1202 92.9015 42.3165 91.0168 41.5601C88.4234 40.5568 86.817 39.3959 86.817 37.1897C86.817 35.0886 88.2922 33.476 90.6283 33.082V30.5239H92.2032V32.9822C93.36 32.9882 94.4963 33.2882 95.5053 33.8542L94.8911 35.5614C93.924 34.9887 92.8177 34.6943 91.694 34.7104C89.7411 34.7104 89.0114 35.8976 89.0167 36.9061C89.0167 38.2246 89.9669 38.8812 92.1665 39.7846C94.7914 40.8352 96.109 42.1484 96.1248 44.4071C96.1248 46.4084 94.7441 48.2994 92.1402 48.7459V51.3723L90.5391 51.3881Z" fill="#22A5CC"/>
<path d="M117.691 89.8807C117.517 90.1328 117.307 90.5058 117.035 90.6213C116.636 90.7894 116.079 90.4848 115.748 90.2851C115.192 89.9492 114.665 89.5661 114.173 89.14C113.717 88.7513 113.291 88.3258 112.798 87.9844C112.318 87.6199 111.736 87.4126 111.134 87.3908C109.863 87.3908 109.191 88.6515 109.071 89.7704C108.95 90.8892 109.564 92.1289 110.646 92.3443C111.228 92.4598 111.832 92.2602 112.425 92.3127C114.425 92.4808 115.67 95.3226 117.643 94.9391C118.332 94.7334 118.944 94.3275 119.402 93.773L121.434 91.7402C122.625 90.5478 123.885 89.2241 124.09 87.5379C124.242 86.2615 123.339 83.425 121.775 84.2549C121.03 84.6489 120.268 86.3088 119.764 86.9969C119.098 87.9266 118.436 88.8616 117.754 89.7756C117.727 89.8229 117.706 89.8492 117.691 89.8807Z" fill="#F9C6D6"/>
<path d="M105.128 87.7061L114.541 90.2064L117.832 102.251L108.698 100.759L105.128 87.7061Z" fill="#22A5CC"/>
<path d="M114.715 101.705L114.421 100.428C114.426 100.304 114.407 100.179 114.364 100.062C114.321 99.9444 114.255 99.8369 114.17 99.7455C114.085 99.654 113.983 99.5804 113.869 99.529C113.755 99.4776 113.632 99.4494 113.507 99.4461C112.843 99.4141 112.208 99.1587 111.707 98.7212C111.379 98.3045 111.208 97.7857 111.224 97.2556C111.224 96.4625 111.46 95.5747 112.158 95.1965L116.799 98.448L117.849 102.256L114.715 101.705Z" fill="url(#paint3_linear)"/>
<path d="M118.394 86.9811C118.341 87.1403 118.315 87.3071 118.315 87.4748C118.35 87.7103 118.448 87.9319 118.599 88.1157C119.23 89.0415 119.737 90.0464 120.106 91.1045C120.202 91.4406 120.343 91.7622 120.526 92.0606C120.617 92.211 120.744 92.3372 120.895 92.4286C121.046 92.52 121.216 92.5739 121.392 92.5858C121.606 92.5678 121.809 92.4847 121.974 92.3475C122.139 92.2104 122.259 92.0259 122.316 91.8189C122.43 91.4071 122.46 90.9767 122.405 90.553C122.316 89.3186 122.074 87.9266 122.31 86.6922C122.568 85.3159 123.03 83.9555 123.329 82.5845C122.898 82.3954 122.436 82.7368 122.095 83.0572C120.993 84.0815 119.89 85.1058 118.872 86.2089C118.658 86.4284 118.495 86.6919 118.394 86.9811Z" fill="#22A5CC"/>
<path d="M129.524 139.956C116.951 139.772 106.819 135.475 106.892 130.338C106.892 129.765 106.467 126.54 106.714 126.025C108.698 121.718 118.61 121.214 129.812 121.366C140.805 121.529 150.04 121.366 152.097 125.621C152.402 126.225 152.449 130.348 152.439 130.984C152.355 136.121 142.097 140.134 129.524 139.956Z" fill="#E8A825"/>
<path d="M152.258 126.704C152.332 121.573 142.201 117.267 129.631 117.087C117.06 116.907 106.811 120.921 106.737 126.052C106.664 131.184 116.795 135.489 129.365 135.669C141.935 135.849 152.185 131.836 152.258 126.704Z" fill="#F8C244"/>
<path d="M148.888 126.656C148.951 122.284 140.32 118.616 129.611 118.463C118.902 118.31 110.17 121.729 110.107 126.1C110.045 130.472 118.676 134.14 129.385 134.293C140.094 134.447 148.826 131.027 148.888 126.656Z" fill="#E8A825"/>
<path d="M117.265 125.448L120.368 125.495C120.428 125.09 120.586 124.706 120.828 124.376C121.069 124.046 121.387 123.779 121.754 123.599L123.812 123.919C123.456 124.084 123.147 124.334 122.911 124.647C122.676 124.961 122.522 125.328 122.462 125.715C122.462 126.608 123.707 127.233 125.455 127.249C126.13 127.303 126.808 127.208 127.443 126.972C128.077 126.736 128.653 126.365 129.129 125.883C129.814 125.17 130.65 124.62 131.576 124.275C132.503 123.93 133.495 123.8 134.479 123.893C137.03 123.893 138.967 124.696 139.414 125.857L142.516 125.905V126.682L139.529 126.635C139.481 126.971 139.356 127.292 139.165 127.574C138.974 127.855 138.722 128.089 138.427 128.258L136.406 127.916C136.692 127.754 136.936 127.527 137.118 127.253C137.3 126.98 137.416 126.667 137.456 126.34C137.456 125.39 136.064 124.991 134.831 124.975C134.166 124.938 133.501 125.056 132.889 125.317C132.276 125.578 131.732 125.977 131.298 126.482C129.99 127.753 128.379 128.384 125.607 128.384C123.166 128.384 120.882 127.622 120.399 126.319L117.202 126.272L117.265 125.448Z" fill="#F8C244"/>
<path d="M140.113 135.58C127.54 135.402 117.408 131.1 117.481 125.962C117.481 125.395 117.056 122.164 117.303 121.655C119.287 117.342 129.204 116.838 140.401 116.99C151.399 117.153 160.628 116.99 162.692 121.245C162.991 121.855 163.038 125.973 163.033 126.608C162.944 131.746 152.686 135.759 140.113 135.58Z" fill="#E8A825"/>
<path d="M162.847 122.33C162.921 117.199 152.79 112.893 140.22 112.713C127.649 112.533 117.4 116.547 117.326 121.678C117.253 126.81 127.384 131.115 139.954 131.295C152.524 131.475 162.774 127.462 162.847 122.33Z" fill="#F8C244"/>
<path d="M159.477 122.282C159.54 117.91 150.909 114.242 140.2 114.089C129.491 113.936 120.759 117.355 120.696 121.726C120.634 126.098 129.264 129.766 139.973 129.919C150.683 130.073 159.415 126.653 159.477 122.282Z" fill="#E8A825"/>
<path d="M127.854 121.072L130.957 121.119C131.017 120.715 131.175 120.331 131.416 120C131.658 119.67 131.976 119.403 132.343 119.223L134.4 119.543C134.045 119.708 133.737 119.959 133.502 120.272C133.268 120.586 133.115 120.953 133.056 121.34C133.056 122.233 134.295 122.858 136.044 122.879C136.718 122.931 137.396 122.836 138.031 122.6C138.665 122.364 139.241 121.993 139.718 121.513C140.401 120.798 141.238 120.247 142.164 119.901C143.091 119.555 144.083 119.424 145.068 119.517C147.624 119.517 149.556 120.326 150.003 121.482L153.105 121.529V122.306L150.118 122.259C150.071 122.596 149.947 122.918 149.756 123.199C149.564 123.48 149.311 123.714 149.016 123.882L146.994 123.541C147.281 123.379 147.525 123.152 147.707 122.878C147.889 122.604 148.005 122.291 148.044 121.965C148.044 121.019 146.648 120.62 145.42 120.599C144.755 120.562 144.092 120.679 143.48 120.941C142.868 121.202 142.325 121.601 141.892 122.107C140.579 123.383 138.968 124.008 136.196 124.008C133.76 124.008 131.471 123.247 130.988 121.949L127.791 121.902L127.854 121.072Z" fill="#F8C244"/>
<path d="M131.834 124.103C119.261 123.935 109.129 119.622 109.181 114.48C109.181 113.912 108.756 110.682 109.003 110.172C110.987 105.86 120.899 105.355 132.101 105.508C143.094 105.671 152.329 105.508 154.387 109.763C154.691 110.372 154.738 114.49 154.728 115.126C154.665 120.258 144.407 124.287 131.834 124.103Z" fill="#E8A825"/>
<path d="M154.567 110.851C154.64 105.719 144.51 101.413 131.939 101.233C119.369 101.053 109.119 105.067 109.046 110.199C108.973 115.33 119.103 119.636 131.674 119.816C144.244 119.996 154.493 115.982 154.567 110.851Z" fill="#F8C244"/>
<path d="M151.197 110.802C151.259 106.431 142.629 102.763 131.92 102.609C121.211 102.456 112.478 105.875 112.416 110.247C112.353 114.618 120.984 118.286 131.693 118.44C142.402 118.593 151.134 115.174 151.197 110.802Z" fill="#E8A825"/>
<path d="M119.576 109.6L122.678 109.647C122.738 109.241 122.896 108.857 123.137 108.525C123.378 108.194 123.697 107.926 124.064 107.745L126.122 108.071C125.767 108.235 125.458 108.485 125.223 108.797C124.987 109.11 124.833 109.476 124.773 109.862C124.773 110.755 126.017 111.38 127.765 111.401C128.44 111.453 129.118 111.358 129.753 111.122C130.387 110.887 130.963 110.516 131.44 110.036C132.124 109.321 132.96 108.771 133.886 108.425C134.813 108.079 135.805 107.948 136.789 108.04C139.341 108.04 141.278 108.849 141.724 110.004L144.827 110.051V110.834L141.84 110.787C141.791 111.123 141.667 111.445 141.476 111.726C141.285 112.007 141.032 112.241 140.737 112.41L138.716 112.069C139.002 111.906 139.246 111.679 139.429 111.406C139.611 111.132 139.727 110.819 139.766 110.493C139.766 109.542 138.375 109.143 137.141 109.122C136.476 109.085 135.811 109.203 135.198 109.465C134.585 109.728 134.041 110.128 133.608 110.635C132.301 111.906 130.689 112.531 127.917 112.531C125.476 112.531 123.193 111.774 122.71 110.472L119.513 110.424L119.576 109.6Z" fill="#F8C244"/>
<path d="M114.51 126.745C114.709 127.386 114.888 128.147 114.51 128.694C114.327 128.931 114.081 129.113 113.801 129.219C113.479 129.376 113.119 129.439 112.762 129.401C112.406 129.363 112.067 129.225 111.785 129.004C111.488 128.673 111.277 128.275 111.171 127.843C110.668 126.262 110.304 124.639 110.084 122.994C110.045 122.845 110.045 122.687 110.084 122.537C110.168 122.378 110.303 122.252 110.467 122.18C111.334 121.713 112.678 121.34 113.161 122.375C113.791 123.693 114.079 125.332 114.51 126.745Z" fill="#F9C6D6"/>
<path d="M111.911 127.491C111.733 127.468 111.554 127.488 111.386 127.549C111.268 127.616 111.165 127.705 111.081 127.811L109.181 129.944C108.824 130.354 108.44 130.921 108.692 131.404C108.781 131.541 108.9 131.655 109.039 131.74C109.178 131.824 109.334 131.877 109.496 131.893C110.403 131.974 111.314 131.792 112.121 131.367C112.698 131.115 113.26 130.842 113.816 130.537C114.232 130.349 114.594 130.058 114.866 129.692C115.291 129.035 115.423 127.454 114.661 126.96C114.278 126.713 113.942 126.892 113.58 127.06C113.067 127.338 112.494 127.486 111.911 127.491Z" fill="#22A5CC"/>
<path d="M104.168 133.989C104.15 134.109 104.163 134.232 104.204 134.346C104.267 134.463 104.361 134.559 104.477 134.624C104.831 134.873 105.248 135.015 105.679 135.034C105.895 135.04 106.11 134.996 106.306 134.905C106.502 134.813 106.674 134.678 106.808 134.509C107.004 134.19 107.125 133.831 107.16 133.458C107.317 132.646 107.395 131.821 107.391 130.995C107.4 130.877 107.364 130.761 107.291 130.669C107.228 130.623 107.154 130.594 107.076 130.585C106.399 130.443 105.065 130.06 104.724 130.921C104.376 131.907 104.188 132.943 104.168 133.989Z" fill="#F9C6D6"/>
<path d="M101.307 133.915C100.731 133.945 100.162 134.056 99.6165 134.246C99.343 134.342 99.0921 134.494 98.879 134.691C98.666 134.888 98.4954 135.126 98.3776 135.391C98.2686 135.655 98.2556 135.949 98.3408 136.221C98.529 136.618 98.8558 136.932 99.2595 137.103C101.178 138.142 103.351 138.617 105.528 138.474C106.088 138.494 106.633 138.292 107.045 137.912C107.349 137.458 107.491 136.914 107.449 136.368L107.523 133.784C107.04 133.71 106.588 134.025 106.126 134.188C105.328 134.461 105.013 133.799 104.352 133.663C103.512 133.432 102.205 133.82 101.307 133.915Z" fill="#22A5CC"/>
<path d="M111.911 127.491C111.733 127.468 111.554 127.488 111.386 127.549C111.268 127.616 111.165 127.705 111.081 127.811L109.181 129.944C108.824 130.354 108.44 130.921 108.692 131.404C108.781 131.541 108.9 131.655 109.039 131.74C109.178 131.824 109.334 131.877 109.496 131.893C110.403 131.974 111.314 131.792 112.121 131.367C112.698 131.115 113.26 130.842 113.816 130.537C114.232 130.349 114.594 130.058 114.866 129.692C115.291 129.035 115.423 127.454 114.661 126.96C114.278 126.713 113.942 126.892 113.58 127.06C113.067 127.338 112.494 127.486 111.911 127.491Z" fill="url(#paint4_linear)"/>
<path d="M101.307 133.915C100.731 133.945 100.162 134.056 99.6165 134.246C99.343 134.342 99.0921 134.494 98.879 134.691C98.666 134.888 98.4954 135.126 98.3776 135.391C98.2686 135.655 98.2556 135.949 98.3408 136.221C98.529 136.618 98.8558 136.932 99.2595 137.103C101.178 138.142 103.351 138.617 105.528 138.474C106.088 138.494 106.633 138.292 107.045 137.912C107.349 137.458 107.491 136.914 107.449 136.368L107.523 133.784C107.04 133.71 106.588 134.025 106.126 134.188C105.328 134.461 105.013 133.799 104.352 133.663C103.512 133.432 102.205 133.82 101.307 133.915Z" fill="url(#paint5_linear)"/>
<path d="M108.215 105.413C107.664 105.523 107.155 105.785 106.745 106.17C106.329 106.771 106.143 107.502 106.22 108.229C106.232 113.439 107.2 118.602 109.076 123.462C109.121 123.641 109.2 123.809 109.31 123.957C109.42 124.105 109.558 124.229 109.717 124.323C110.003 124.408 110.31 124.396 110.588 124.287C111.714 123.971 112.823 123.598 113.911 123.168L112.436 113.261C112.367 112.984 112.383 112.693 112.483 112.426C112.592 112.239 112.746 112.083 112.929 111.969C114.604 110.723 116.377 109.617 118.232 108.66C120.541 107.462 122.017 106.07 122.431 103.407C122.573 102.659 122.425 101.885 122.017 101.243C121.808 100.928 121.51 100.682 121.162 100.537C120.813 100.392 120.429 100.354 120.058 100.428C119.784 100.514 119.522 100.638 119.281 100.796C117.497 101.873 110.068 104.862 108.215 105.413Z" fill="#282328"/>
<path d="M109.271 112.326C108.573 113.223 108.022 114.224 107.638 115.294C105.511 120.518 104.13 126.015 103.538 131.625C105.281 131.842 107.045 131.842 108.788 131.625C108.924 127.658 109.527 123.721 110.583 119.895C110.77 119.075 111.089 118.291 111.528 117.574C112.305 116.439 113.576 115.777 114.793 115.163C117.593 113.771 120.525 112.662 123.545 111.853C124.82 111.496 126.107 111.17 127.361 110.74C128.437 110.414 129.444 109.894 130.333 109.206C131.908 107.887 133.115 105.004 131.01 103.606C130.07 102.976 128.884 102.855 127.755 102.745L124.253 102.414C123.904 102.357 123.547 102.371 123.204 102.456C122.91 102.568 122.638 102.729 122.4 102.934C119.775 104.946 117.151 106.737 114.389 108.56C112.694 109.684 110.625 110.729 109.271 112.326Z" fill="#473F47"/>
<path d="M124.169 105.219C123.254 104.86 122.364 104.439 121.507 103.958C118.257 102.136 120.919 101.243 122.032 99.0469C122.804 97.4711 122.489 95.6273 122.09 93.9359C121.381 90.9681 120.436 87.9005 121.118 84.9274C121.206 84.4454 121.394 83.9872 121.67 83.5826C121.871 83.3361 122.1 83.114 122.352 82.9208C123.036 82.322 123.825 81.8537 124.678 81.5393C126.321 81.014 128.143 81.3922 129.681 82.1801C135.98 85.3791 135.928 95.6011 135.335 101.616C135.198 103.002 134.988 104.457 134.143 105.566C132.904 107.194 131.749 106.616 130.174 106.333C128.08 105.975 126.19 106.007 124.169 105.219Z" fill="#22A5CC"/>
<path d="M135.015 94.4296C135.015 95.4802 134.81 96.473 134.763 97.5025C134.705 98.6424 134.826 99.7927 134.732 100.927C134.575 102.794 133.855 104.569 132.669 106.017C132.564 106.164 132.423 106.282 132.259 106.359C132.028 106.419 131.784 106.398 131.566 106.301L128.537 105.371C128.14 105.264 127.754 105.116 127.387 104.93C126.75 104.568 126.268 103.985 126.033 103.291C125.963 103.114 125.94 102.923 125.965 102.734C126.049 102.325 126.49 102.088 126.815 101.862C128.122 101.011 128.941 99.5984 129.713 98.2432C130.451 97.021 131.098 95.7464 131.65 94.4296C131.852 93.7997 132.132 93.1979 132.485 92.6384C132.842 92.1394 133.74 91.4145 134.364 91.8295C134.989 92.2444 135.02 93.7835 135.015 94.4296Z" fill="url(#paint6_linear)"/>
<path d="M127.823 85.794C127.559 86.1256 127.229 86.3986 126.854 86.5957C126.479 86.7929 126.067 86.9098 125.644 86.9391C125.51 86.9561 125.374 86.9244 125.261 86.8498C125.141 86.7277 125.073 86.5639 125.072 86.3928C125.035 86.0514 124.983 85.6102 124.946 85.1742C124.909 84.7382 124.841 84.2024 124.794 83.8295C124.692 82.8373 124.315 81.8932 123.707 81.1032C123.582 80.9326 123.44 80.7759 123.282 80.6357C122.232 79.6902 126.5 80.0632 127.061 78.7762C127.712 79.6114 127.655 80.7933 127.938 81.8281C128.125 82.3304 128.285 82.8424 128.416 83.362C128.492 83.7863 128.479 84.222 128.377 84.6409C128.275 85.0599 128.086 85.4527 127.823 85.794Z" fill="#F9C6D6"/>
<path d="M125.004 85.3738L124.946 85.1742C124.888 84.6857 124.841 84.2024 124.794 83.8295C124.692 82.8373 124.316 81.8932 123.707 81.1033V80.9982C123.707 80.9982 127.088 78.7763 127.45 81.3764C127.812 83.9766 125.004 85.3738 125.004 85.3738Z" fill="url(#paint7_linear)"/>
<path d="M121.455 79.559C121.385 80.1015 121.486 80.6524 121.744 81.1348C121.878 81.3382 122.047 81.5161 122.243 81.6601C123.587 82.6739 125.608 82.469 126.967 81.4184C127.616 80.8607 128.139 80.1714 128.501 79.3962C128.863 78.621 129.056 77.7776 129.067 76.922C129.164 76.0306 128.912 75.1363 128.364 74.427C128.033 74.1056 127.628 73.8724 127.184 73.7485C126.74 73.6246 126.272 73.6141 125.823 73.7178C124.594 74.0036 123.474 74.6405 122.6 75.5511C121.734 76.5018 121.518 78.3351 121.455 79.559Z" fill="#F9C6D6"/>
<path d="M133.629 88.4362C133.655 88.6253 133.676 88.8144 133.697 89.0035C134.001 91.8137 133.728 94.5767 133.623 97.3765C133.555 99.3043 133.413 101.836 131.77 103.155C127.376 106.679 117.596 99.3095 117.166 98.9891C116.509 98.5006 115.591 98.4638 114.803 98.3745C113.883 98.316 113.022 97.9038 112.399 97.2241C112.097 96.88 111.901 96.4565 111.833 96.0039C111.765 95.5514 111.829 95.0888 112.016 94.6713C112.661 93.4001 114.478 93.2057 115.785 93.773C117.092 94.3403 118.074 95.4434 119.208 96.3049C120.102 96.9459 121.044 97.5167 122.027 98.0121C123.171 98.6214 127.203 99.4986 128.5 99.5144C129.88 99.5144 129.34 91.404 129.476 88.8144C129.481 88.1448 129.645 87.4859 129.954 86.8919C130.108 86.6018 130.334 86.3557 130.609 86.1766C130.885 85.9974 131.201 85.8911 131.529 85.8676C131.876 85.8939 132.21 86.0112 132.497 86.2076C132.785 86.404 133.016 86.6726 133.167 86.9864C133.405 87.4387 133.561 87.9295 133.629 88.4362Z" fill="#F9C6D6"/>
<path d="M126.542 78.1459C126.542 78.2299 126.516 78.314 126.505 78.398L126.364 79.9161L126.064 83.01L131.267 83.7401C131.493 82.0855 131.97 80.4676 132.175 78.8077C132.38 77.1478 132.296 75.3776 131.466 73.9279C130.794 72.746 129.188 72.0369 127.991 71.4906C127.69 71.3549 127.377 71.2477 127.057 71.1701C125.822 70.8413 124.515 70.9055 123.319 71.354C123.032 71.4509 122.765 71.5985 122.531 71.79C122.38 71.9808 122.243 72.1827 122.122 72.394C121.657 72.9971 121.263 73.6509 120.946 74.3428C120.779 74.6701 120.677 75.027 120.647 75.3934C120.633 75.4326 120.633 75.475 120.647 75.5142C120.672 75.5487 120.707 75.5759 120.746 75.593L122.143 76.3442C122.173 76.3625 122.207 76.3733 122.243 76.3757C122.296 76.3695 122.345 76.3432 122.379 76.3021L123.355 75.4512L123.088 76.0448C123.074 76.0734 123.067 76.1048 123.067 76.1367C123.067 76.1685 123.074 76.2 123.088 76.2286C123.111 76.2585 123.142 76.282 123.177 76.2969L124.573 76.985C124.601 76.9921 124.63 76.9921 124.657 76.985C124.705 76.985 124.736 76.9482 124.768 76.9167L125.445 76.2023L125.245 77.0848C125.232 77.1276 125.232 77.1734 125.245 77.2161C125.268 77.2534 125.304 77.2814 125.345 77.2949L126.091 77.6784C126.117 77.6784 126.143 77.7046 126.164 77.6784C126.187 77.6726 126.207 77.6597 126.222 77.6416L126.721 77.0796C126.687 77.4389 126.628 77.7953 126.542 78.1459Z" fill="#473F47"/>
<path d="M134.437 88.2892C135.062 89.865 134.495 91.3568 134.464 92.9064C134.465 93.062 134.447 93.2173 134.411 93.3686C134.345 93.5812 134.228 93.7742 134.07 93.9307C133.759 94.2202 133.392 94.4431 132.993 94.5858C132.593 94.7285 132.168 94.788 131.744 94.7606C130.897 94.6961 130.064 94.5085 129.272 94.2038C129.012 94.152 128.781 94.0038 128.626 93.7889C128.558 93.6391 128.529 93.4747 128.542 93.3109C128.5 90.9418 127.891 87.1178 130.196 85.5419C132.022 84.2865 133.855 86.7448 134.437 88.2892Z" fill="#22A5CC"/>
<path d="M122.132 88.1421C121.378 88.551 120.691 89.0737 120.095 89.6917C119.975 89.7994 119.887 89.9372 119.838 90.0909C119.814 90.2106 119.814 90.3337 119.838 90.4533C119.957 91.0416 120.16 91.6095 120.442 92.1395C120.501 92.2612 120.579 92.3728 120.673 92.4704C121.56 93.2793 121.765 91.8085 121.828 91.3305C121.978 90.2695 122.08 89.2067 122.132 88.1421Z" fill="url(#paint8_linear)"/>
<path d="M121.891 78.5241C122.462 78.5241 122.925 78.0608 122.925 77.4893C122.925 76.9178 122.462 76.4545 121.891 76.4545C121.319 76.4545 120.856 76.9178 120.856 77.4893C120.856 78.0608 121.319 78.5241 121.891 78.5241Z" stroke="#473F47" stroke-width="0.32" stroke-miterlimit="10"/>
<path d="M123.922 79.4171C124.493 79.4171 124.956 78.9538 124.956 78.3823C124.956 77.8108 124.493 77.3475 123.922 77.3475C123.351 77.3475 122.888 77.8108 122.888 78.3823C122.888 78.9538 123.351 79.4171 123.922 79.4171Z" stroke="#473F47" stroke-width="0.32" stroke-miterlimit="10"/>
<path d="M110.866 88.1421L112.483 84.7855C112.483 84.7855 113.145 84.817 113.271 85.1952L111.486 88.494C111.486 88.494 111.381 88.7409 110.866 88.1421Z" fill="#473F47"/>
<defs>
<linearGradient id="paint0_linear" x1="92.3194" y1="84.5123" x2="85.224" y2="207.459" gradientUnits="userSpaceOnUse">
<stop offset="0.01"/>
<stop offset="0.13" stop-opacity="0.69"/>
<stop offset="0.25" stop-opacity="0.32"/>
<stop offset="1" stop-opacity="0"/>
</linearGradient>
<linearGradient id="paint1_linear" x1="87.4634" y1="73.5025" x2="153.804" y2="120.494" gradientUnits="userSpaceOnUse">
<stop offset="0.01"/>
<stop offset="0.08" stop-opacity="0.69"/>
<stop offset="0.21" stop-opacity="0.32"/>
<stop offset="1" stop-opacity="0"/>
</linearGradient>
<linearGradient id="paint2_linear" x1="7111.66" y1="406.217" x2="7111.33" y2="552.094" gradientUnits="userSpaceOnUse">
<stop offset="0.01"/>
<stop offset="0.08" stop-opacity="0.69"/>
<stop offset="0.21" stop-opacity="0.32"/>
<stop offset="1" stop-opacity="0"/>
</linearGradient>
<linearGradient id="paint3_linear" x1="1724.56" y1="1607.61" x2="1563.02" y2="1764.34" gradientUnits="userSpaceOnUse">
<stop offset="0.01"/>
<stop offset="0.13" stop-opacity="0.69"/>
<stop offset="0.25" stop-opacity="0.32"/>
<stop offset="1" stop-opacity="0"/>
</linearGradient>
<linearGradient id="paint4_linear" x1="1584.67" y1="1540.33" x2="1699.73" y2="1614.55" gradientUnits="userSpaceOnUse">
<stop offset="0.01"/>
<stop offset="0.13" stop-opacity="0.69"/>
<stop offset="0.25" stop-opacity="0.32"/>
<stop offset="1" stop-opacity="0"/>
</linearGradient>
<linearGradient id="paint5_linear" x1="2015.42" y1="1629.25" x2="2049.74" y2="1483.93" gradientUnits="userSpaceOnUse">
<stop offset="0.01"/>
<stop offset="0.13" stop-opacity="0.69"/>
<stop offset="0.25" stop-opacity="0.32"/>
<stop offset="1" stop-opacity="0"/>
</linearGradient>
<linearGradient id="paint6_linear" x1="2405.32" y1="3205.22" x2="2880.17" y2="3426.28" gradientUnits="userSpaceOnUse">
<stop offset="0.01"/>
<stop offset="0.13" stop-opacity="0.69"/>
<stop offset="0.25" stop-opacity="0.32"/>
<stop offset="1" stop-opacity="0"/>
</linearGradient>
<linearGradient id="paint7_linear" x1="1071.98" y1="1037.79" x2="1151.06" y2="1161.75" gradientUnits="userSpaceOnUse">
<stop offset="0.01"/>
<stop offset="0.13" stop-opacity="0.69"/>
<stop offset="0.25" stop-opacity="0.32"/>
<stop offset="1" stop-opacity="0"/>
</linearGradient>
<linearGradient id="paint8_linear" x1="709.683" y1="1028.69" x2="659.761" y2="1032.96" gradientUnits="userSpaceOnUse">
<stop offset="0.01"/>
<stop offset="0.13" stop-opacity="0.69"/>
<stop offset="0.25" stop-opacity="0.32"/>
<stop offset="1" stop-opacity="0"/>
</linearGradient>
</defs>
</svg>
