<svg width="196" height="151" viewBox="0 0 196 151" fill="none" xmlns="http://www.w3.org/2000/svg">
<path opacity="0.18" d="M64.37 0.71526C59.1244 1.16477 54.0319 2.71161 49.4225 5.25548C44.813 7.79936 40.7897 11.2835 37.6131 15.482C31.3657 23.8661 28.9586 34.4138 27.0474 44.7C26.6163 47.7444 25.8202 50.7258 24.6764 53.5799C22.3776 58.6374 17.9692 62.3516 14.2459 66.4715C4.76204 76.9922 -0.115133 91.218 0.0020632 105.309C0.065169 117.74 4.14 136.411 16.3555 142.334C34.3456 150.983 54.7553 153.21 74.1875 148.644C86.439 145.723 98.3119 140.098 110.906 140.395C123.5 140.693 135.355 146.913 147.94 147.526C155.063 147.799 162.141 146.286 168.53 143.126C174.919 139.966 180.417 135.259 184.523 129.433C188.056 124.058 190.684 118.141 192.303 111.917C194.43 104.42 195.658 96.6968 195.964 88.9101C196.883 64.1276 180.241 40.1113 159.57 27.7245C113.412 0.111247 77.1534 -0.294433 64.37 0.71526Z" fill="#22A5CC"/>
<path d="M44.4736 120.012C45.4195 121.079 46.6063 121.904 47.9354 122.419C53.7772 125.124 59.8895 127.63 66.3173 128.189C75.7741 129.009 85.0417 125.692 93.9486 122.428C93.0471 122.573 89.8106 119.724 88.9813 119.147C87.3495 118.074 85.7448 116.956 84.1401 115.856C81.5889 114.116 78.4065 113.531 75.3775 113.062C68.5409 112.026 61.5564 112.622 54.9943 114.802C51.2571 116.029 47.7144 117.783 44.4736 120.012Z" fill="#22A5CC"/>
<path d="M44.4736 120.012C45.4195 121.079 46.6063 121.904 47.9354 122.419C53.7772 125.124 59.8895 127.63 66.3173 128.189C75.7741 129.009 85.0417 125.692 93.9486 122.428C93.0471 122.573 89.8106 119.724 88.9813 119.147C87.3495 118.074 85.7448 116.956 84.1401 115.856C81.5889 114.116 78.4065 113.531 75.3775 113.062C68.5409 112.026 61.5564 112.622 54.9943 114.802C51.2571 116.029 47.7144 117.783 44.4736 120.012Z" fill="url(#paint0_linear)"/>
<path d="M75.558 101.883C71.9519 98.0515 68.2467 94.166 63.7301 91.4254C59.2136 88.6848 53.6963 87.1883 48.5938 88.5405L61.2149 107.13C63.649 110.736 66.1281 114.342 69.5359 117.046C75.5039 121.716 86.5925 124.313 93.9217 122.068C92.7858 118.597 88.2603 115.333 85.745 112.674L75.558 101.883Z" fill="#22A5CC"/>
<path d="M75.558 101.883C71.9519 98.0515 68.2467 94.166 63.7301 91.4254C59.2136 88.6848 53.6963 87.1883 48.5938 88.5405L61.2149 107.13C63.649 110.736 66.1281 114.342 69.5359 117.046C75.5039 121.716 86.5925 124.313 93.9217 122.068C92.7858 118.597 88.2603 115.333 85.745 112.674L75.558 101.883Z" fill="url(#paint1_linear)"/>
<path opacity="0.44" d="M36.9639 131.588C41.6788 131.588 46.583 132.138 50.6038 134.599C50.9694 134.773 51.2627 135.07 51.4332 135.437C51.7487 136.339 50.6398 137.051 49.7203 137.348C44.08 139.031 38.2033 139.783 32.3211 139.575C28.399 139.484 24.4856 139.162 20.6015 138.61C19.2391 138.535 17.9124 138.147 16.725 137.475C16.1429 137.122 15.689 136.592 15.4295 135.962C15.17 135.333 15.1185 134.637 15.2825 133.977C15.7603 132.642 17.32 132.02 18.7353 131.948C24.7304 131.57 30.9057 131.615 36.9639 131.588Z" fill="#22A5CC"/>
<path opacity="0.44" d="M160.237 127.964L169.784 129.289C170.243 129.31 170.687 129.46 171.064 129.722C171.314 129.987 171.471 130.328 171.51 130.69C171.549 131.053 171.468 131.419 171.281 131.732C170.884 132.347 170.354 132.864 169.73 133.246C171.993 133.787 175.933 133.67 175.824 136.898C175.793 137.493 175.595 138.068 175.252 138.556C174.909 139.044 174.436 139.425 173.886 139.656C173.202 139.89 172.482 140.002 171.759 139.99C164.7 140.233 157.533 140.477 150.699 138.701C149.392 138.367 147.85 137.628 147.85 136.285C147.85 135.807 148.058 135.383 148.085 134.878C148.238 131.822 141.711 133.616 140.034 133.715C136.302 133.932 132.57 134.076 128.838 134.175C121.211 134.382 113.584 134.373 105.966 134.265C103.558 134.152 101.145 134.251 98.7542 134.563C96.879 134.878 95.058 135.464 93.2189 135.924C87.1584 137.466 80.8525 137.79 74.6658 136.88C71.8621 136.465 68.4183 134.959 68.5986 132.129C68.7518 129.704 71.5105 128.441 73.8634 127.81C77.3418 126.891 80.8775 126.204 84.4472 125.755C90.7629 125.056 97.1151 124.74 103.469 124.808C117.271 124.7 131.073 124.691 144.885 124.682C149.527 124.646 155.64 127.324 160.237 127.964Z" fill="#22A5CC"/>
<path d="M33.3039 105.543L32.7269 133.724H28.9045L27.8047 111.322L25.4067 133.724L21.0253 134.455L20.0156 104.615L33.3039 105.543Z" fill="#22A5CC"/>
<path d="M33.3039 105.543L32.7269 133.724H28.9045L27.8047 111.322L25.4067 133.724L21.0253 134.455L20.0156 104.615L33.3039 105.543Z" fill="url(#paint2_linear)"/>
<path d="M45.7443 79.7778C44.0086 82.9791 42.1068 86.0876 40.0467 89.0904C39.6613 89.5306 39.1877 89.885 38.6565 90.1303C38.1254 90.3757 37.5486 90.5067 36.9635 90.5148C36.4839 90.5098 36.0074 90.4369 35.5482 90.2984C34.1869 89.9649 32.8436 89.5682 31.4914 89.1264C31.378 89.0834 31.2693 89.029 31.1668 88.9642C30.2653 88.3061 30.067 86.494 29.8686 85.4483C29.7605 84.8713 29.2286 82.5815 30.2112 82.4102C30.707 82.32 32.3298 83.7625 32.7895 84.0419C33.753 84.6249 34.746 85.1575 35.7645 85.6376C35.886 85.7131 36.0272 85.7508 36.1702 85.7458C36.324 85.7023 36.4599 85.6107 36.5579 85.4843C38.621 83.0624 40.3522 80.3763 41.7055 77.4969C42.1022 77.6682 42.4898 77.8575 42.8775 78.0559C43.4184 78.3384 43.9503 78.6389 44.4731 78.9574L44.6354 79.0475C45.0771 79.2639 45.3927 79.4893 45.7443 79.7778Z" fill="#22A5CC"/>
<path d="M45.745 79.7778C44.0093 82.9792 42.1075 86.0876 40.0474 89.0904C39.662 89.5307 39.1884 89.885 38.6572 90.1304C38.1261 90.3758 37.5493 90.5068 36.9642 90.5148C36.4846 90.5098 36.0081 90.437 35.5489 90.2985C34.1876 89.9649 32.8443 89.5682 31.4921 89.1265C31.3767 89.0815 31.2651 89.0273 31.1585 88.9642C31.0864 88.9642 30.8971 88.261 30.87 88.1709C30.7786 87.8759 30.7093 87.5746 30.6627 87.2694C30.5812 86.6711 30.5812 86.0646 30.6627 85.4663C30.6627 85.259 30.7168 85.1057 30.9061 85.268C31.0954 85.4303 31.0233 85.4393 31.1044 85.5114C31.1855 85.5835 31.3839 85.7098 31.5191 85.8089C31.8977 86.0794 32.2764 86.3498 32.6821 86.6023C33.4592 87.0665 34.2923 87.4301 35.1612 87.6841C35.74 87.8854 36.3521 87.9741 36.9642 87.9455C37.4244 87.8871 37.8618 87.7112 38.2344 87.435C38.607 87.1587 38.9022 86.7912 39.0918 86.3679C39.4073 85.881 39.7138 85.3762 39.9933 84.8714C40.2801 84.3647 40.612 83.8849 40.985 83.4379C41.7783 82.4823 42.5626 81.5267 43.356 80.5802C43.7587 80.0314 44.2049 79.5159 44.6902 79.0386C45.0778 79.264 45.3934 79.4893 45.745 79.7778Z" fill="url(#paint3_linear)"/>
<path d="M23.6397 133.283V107.157L20.0156 104.615L21.2417 133.724L23.6397 133.283Z" fill="url(#paint4_linear)"/>
<path d="M22.8466 80.6073C21.8259 81.1163 20.8328 81.679 19.8717 82.2931C17.8252 83.6003 18.1948 84.2043 18.5735 86.4671C19.3693 91.2977 19.7703 96.185 19.7725 101.081C19.6909 102.264 19.7728 103.453 20.0159 104.615C20.3466 105.287 20.6006 105.995 20.7732 106.724C23.9285 107.157 31.1405 108.78 33.2952 105.543C35.4498 102.307 31.6454 91.4254 32.3396 86.5392C33.0337 81.6531 26.6871 81.1302 26.6871 81.1302L22.8466 80.6073Z" fill="#22A5CC"/>
<path d="M29.2921 98.6375L30.0224 94.5447C30.0775 94.3024 30.2088 94.0841 30.397 93.9219C30.5852 93.7597 30.8204 93.662 31.0681 93.6431L38.9293 93.0301C39.0459 93.0234 39.1626 93.0428 39.2707 93.087C39.3789 93.1311 39.4758 93.1989 39.5545 93.2853C39.6331 93.3716 39.6914 93.4745 39.7252 93.5864C39.759 93.6982 39.7673 93.8161 39.7497 93.9316L36.7206 107.571C36.6802 107.742 36.5837 107.895 36.4463 108.004C36.309 108.114 36.139 108.174 35.9633 108.176H28.7512C28.6386 108.176 28.5273 108.151 28.4251 108.104C28.3228 108.057 28.2321 107.988 28.1592 107.902C28.0862 107.817 28.0329 107.716 28.0028 107.607C27.9727 107.499 27.9666 107.385 27.985 107.274L29.2921 98.6375Z" fill="#473F47"/>
<path d="M27.1917 103.217L21.4761 107.076L20.5746 105.877C20.0235 103.89 19.7653 101.834 19.8083 99.7733C19.9435 96.6992 19.8083 97.799 19.8083 97.799L27.8498 102.884L27.1917 103.217Z" fill="url(#paint5_linear)"/>
<path d="M30.0315 75.8382C30.0407 76.1637 30.0226 76.4893 29.9774 76.8118C29.8286 77.4867 29.5632 78.1304 29.1931 78.714C29.0996 78.917 28.9608 79.0959 28.7874 79.2369C28.4208 79.4194 27.9983 79.4549 27.6064 79.336C27.5146 79.3135 27.4187 79.3135 27.3269 79.336C27.1016 79.4262 27.0745 79.7327 27.0835 79.9761L27.1466 81.094C27.1741 81.2481 27.1487 81.4069 27.0745 81.5447C26.9923 81.6312 26.8902 81.6962 26.777 81.7341C26.3624 81.8711 25.9182 81.8922 25.4925 81.7953C25.0667 81.6984 24.6754 81.4871 24.361 81.1841C24.2049 81.0405 24.0765 80.8693 23.9823 80.6793C23.9108 80.491 23.8653 80.2939 23.8471 80.0933C23.7119 79.0205 23.8471 77.9387 23.7479 76.8569C23.6017 75.9629 23.5744 75.0535 23.6668 74.1523C23.7539 73.6745 23.9575 73.2255 24.2593 72.845C24.5612 72.4645 24.9522 72.1642 25.3977 71.9707C26.3227 71.6805 27.3174 71.7027 28.2285 72.0338C28.6746 72.158 29.1139 72.3054 29.5447 72.4755C29.7564 72.5349 29.9391 72.6695 30.0585 72.8542C30.2298 73.1967 30.0585 73.6926 30.0585 74.0622C30.0225 74.6752 30.0315 75.2702 30.0315 75.8382Z" fill="#FFBBAB"/>
<path d="M30.0401 71.4298C30.1393 71.6462 30.2835 71.8355 30.3917 72.0518C30.4556 72.1526 30.4989 72.2651 30.519 72.3827C30.5391 72.5003 30.5357 72.6207 30.5089 72.737C30.442 72.9204 30.3229 73.0802 30.1663 73.1968C29.3791 73.7481 28.4158 73.9889 27.4618 73.8729C27.1888 73.8504 26.9144 73.8504 26.6414 73.8729C26.3665 73.8993 26.1103 74.0241 25.9202 74.2245C25.7053 74.5953 25.5846 75.0132 25.5686 75.4415C25.5686 75.4415 25.5686 75.4956 25.5686 75.5136C25.5686 75.5317 25.5686 75.5136 25.5686 75.5136C25.2621 75.5136 24.9736 75.1981 24.6671 75.3153C24.5996 75.3553 24.5434 75.4119 24.504 75.4798C24.4645 75.5477 24.4431 75.6245 24.4417 75.703C24.4148 75.8903 24.4429 76.0814 24.5229 76.2529C24.5586 76.3199 24.5801 76.3935 24.586 76.4692C24.5942 76.517 24.5942 76.5658 24.586 76.6135L24.3966 77.1454C24.3491 77.3456 24.2265 77.5199 24.0541 77.6322C23.9319 77.6694 23.8025 77.6765 23.6769 77.653C23.5513 77.6294 23.4333 77.5759 23.3329 77.497C23.1762 77.4187 23.0402 77.3044 22.9362 77.1634C22.8643 77.0476 22.8153 76.9191 22.792 76.7848C22.5334 75.4519 22.4276 74.0939 22.4764 72.737C22.458 72.4311 22.5009 72.1246 22.6026 71.8355C22.772 71.5576 23.0034 71.3227 23.2786 71.1491C23.5539 70.9755 23.8656 70.8679 24.1893 70.8348C25.3786 70.6198 26.5875 70.5322 27.7954 70.5734C28.1725 70.5567 28.5503 70.5808 28.9222 70.6455C29.2936 70.7228 29.6312 70.9152 29.8869 71.1954" fill="#963637"/>
<path d="M28.1747 77.0733C27.9831 77.1711 27.8328 77.3342 27.751 77.5331C27.751 77.5331 27.751 77.5872 27.751 77.6052C27.751 77.6232 27.751 77.6052 27.8141 77.6052C28.2253 77.6322 28.6379 77.6322 29.0492 77.6052C29.3623 77.5879 29.6688 77.5082 29.9507 77.3708C29.9712 77.3771 29.9932 77.3771 30.0138 77.3708C30.0187 77.3501 30.0187 77.3285 30.0138 77.3077C30.0093 77.2255 29.9882 77.1451 29.952 77.0712C29.9157 76.9973 29.8649 76.9315 29.8027 76.8776C29.7404 76.8238 29.668 76.783 29.5896 76.7578C29.5113 76.7326 29.4286 76.7234 29.3467 76.7307C28.935 76.7541 28.5341 76.8713 28.1747 77.0733Z" fill="#963637"/>
<path d="M23.8468 80.0934C23.8468 80.0934 22.9453 80.7064 22.9453 81.3735C22.9453 82.0406 27.7143 95.392 27.7143 95.392C27.7143 95.392 27.8225 82.6086 27.7143 82.0136C27.5526 81.4363 27.3383 80.875 27.0742 80.3368C27.0742 80.3368 25.2442 81.7071 23.8468 80.0934Z" fill="white"/>
<path d="M25.4066 81.3014L25.082 82.3381L25.6229 82.7799L25.8754 90.037L27.7595 95.392L27.8046 89.9469L26.1909 82.7528L26.7769 81.7341L26.0016 81.3014H25.4066Z" fill="#212741"/>
<path d="M28.9048 100.161C28.346 100.869 27.7111 101.512 27.0116 102.081L26.5789 102.424C26.4225 102.564 26.228 102.655 26.0199 102.685C25.876 102.684 25.7343 102.65 25.6052 102.586C22.8466 101.516 20.1421 100.314 17.4916 98.98C16.3918 98.4121 15.1747 97.6728 14.9403 96.4558C14.8727 96.0317 14.8727 95.5997 14.9403 95.1756C15.355 92.0812 16.1608 89.052 17.3384 86.1605C17.6719 85.3491 18.0866 83.7805 18.9521 83.2486H19.0512L19.1775 83.1855C20.3494 82.7618 21.3681 83.9338 21.6927 84.9254C22.058 86.3698 22.0112 87.8877 21.5574 89.3068C21.1073 90.7136 20.7726 92.1548 20.5568 93.616C20.5206 93.8186 20.5393 94.0271 20.6109 94.22C20.7204 94.4061 20.8755 94.5613 21.0616 94.6708L28.9048 100.161Z" fill="#22A5CC"/>
<path d="M28.9043 133.724L29.1116 135.798L30.4188 136.041L31.0048 135.527L32.0055 136.321H35.9271C35.9271 136.321 36.9278 134.599 34.7551 134.013L32.5915 133.427L28.9043 133.724Z" fill="#212741"/>
<path d="M21.2422 133.724L21.4495 135.798L22.7567 136.041L23.3427 135.527L24.3344 136.321H28.265C28.265 136.321 29.2566 134.599 27.093 134.013L24.9204 133.427L21.2422 133.724Z" fill="#212741"/>
<path d="M27.8047 111.322L29.5626 109.897L30.7977 133.427L28.9045 133.724L27.8047 111.322Z" fill="url(#paint6_linear)"/>
<path d="M27.0477 102.081L26.615 102.424C26.4586 102.564 26.2641 102.655 26.0561 102.685C25.9122 102.683 25.7705 102.65 25.6414 102.586C22.8827 101.516 20.1782 100.314 17.5278 98.98C16.4279 98.412 15.2109 97.6728 14.9765 96.4557C14.9089 96.0317 14.9089 95.5996 14.9765 95.1756C15.3911 92.0812 16.1969 89.0519 17.3745 86.1605C17.7081 85.3491 18.1228 83.7805 18.9882 83.2486H19.0874L19.2136 83.1855C19.7618 83.1774 20.2989 83.3408 20.7498 83.6527C21.2007 83.9646 21.543 84.4095 21.7288 84.9254C21.7288 84.9254 17.5548 93.4717 17.7351 94.7609C17.9154 96.05 26.6781 100.233 26.6781 100.233L27.0477 102.081Z" fill="url(#paint7_linear)"/>
<path d="M30.8703 100.882C31.0982 100.936 31.3108 101.041 31.4924 101.189C31.583 101.264 31.6506 101.363 31.6873 101.474C31.724 101.586 31.7283 101.706 31.6997 101.82C31.6325 101.954 31.5509 102.081 31.4563 102.198C31.3481 102.397 31.3301 102.649 31.2219 102.857C31.1214 103.017 30.9898 103.155 30.835 103.263C30.6802 103.372 30.5052 103.448 30.3204 103.488C29.8129 103.717 29.2548 103.81 28.7003 103.76C28.1458 103.709 27.6139 103.516 27.1561 103.199C26.5431 102.667 25.3531 100.495 26.6693 100.179C27.2463 100.145 27.8249 100.206 28.3822 100.359C29.2247 100.464 30.057 100.639 30.8703 100.882Z" fill="#FFBBAB"/>
<path d="M143.694 116.226H105.163L111.988 97.0057H137.942L143.694 116.226Z" fill="#22A5CC"/>
<path d="M143.694 116.226H105.163L111.988 97.0057H137.942L143.694 116.226Z" fill="url(#paint8_linear)"/>
<path d="M175.986 27.2017H76.1343C72.3155 27.2017 69.2197 30.2974 69.2197 34.1163V97.3032C69.2197 101.122 72.3155 104.218 76.1343 104.218H175.986C179.805 104.218 182.9 101.122 182.9 97.3032V34.1163C182.9 30.2974 179.805 27.2017 175.986 27.2017Z" fill="#22A5CC"/>
<path d="M163.175 92.7055C163.161 92.8224 163.185 92.9407 163.244 93.0429C163.302 93.1452 163.392 93.226 163.5 93.2734C163.721 93.3573 163.959 93.3881 164.194 93.3636H165.204C165.307 93.3557 165.41 93.3776 165.501 93.4267C165.554 93.4808 165.595 93.5461 165.62 93.6178C165.645 93.6895 165.653 93.7659 165.645 93.8414L165.753 98.1326C165.852 99.112 165.716 100.101 165.357 101.017C165.14 101.459 164.816 101.838 164.59 102.27C164.46 102.478 164.375 102.71 164.342 102.953C164.31 103.196 164.33 103.443 164.401 103.677C166.114 103.749 167.827 103.749 169.531 103.677C169.855 103.703 170.176 103.606 170.432 103.406C170.548 103.274 170.631 103.117 170.676 102.947C171.18 101.519 171.596 100.062 171.92 98.5833C172.259 97.1817 172.419 95.743 172.398 94.3011C172.37 92.8512 171.962 91.4339 171.217 90.1902C171.04 89.8773 170.8 89.6042 170.513 89.3879C170.215 89.2 169.885 89.0685 169.54 89.0002C167.831 88.6093 166.09 88.3799 164.338 88.3151C163.757 88.2141 163.158 88.3059 162.634 88.5765C162.384 88.7636 162.187 89.0124 162.063 89.2984C161.938 89.5844 161.889 89.8979 161.922 90.2083C161.991 90.8348 162.168 91.4448 162.445 92.0113" fill="url(#paint9_linear)"/>
<path d="M78.9564 99.6652C80.0382 96.1072 81.2672 92.5943 82.6435 89.1265C82.7038 88.9859 82.8082 88.8688 82.941 88.7929C83.0895 88.7385 83.2524 88.7385 83.4008 88.7929L86.4028 89.2166C86.2093 90.9013 85.7082 92.5361 84.9244 94.0397C83.7596 96.7999 82.9069 99.6816 82.3821 102.631C82.3569 102.928 82.2644 103.214 82.1117 103.47C81.792 103.844 81.3395 104.08 80.8495 104.128C79.3801 104.434 78.4245 104.885 78.145 103.388C77.9647 102.243 78.6498 100.675 78.9564 99.6652Z" fill="url(#paint10_linear)"/>
<path d="M93.0108 100.594H96.2383C96.4603 100.565 96.6853 100.619 96.8693 100.747C97.0226 100.882 97.0586 101.099 97.1848 101.27C97.4463 101.63 97.9692 101.621 98.4109 101.576C99.9567 101.402 101.485 101.101 102.982 100.675L102.405 96.7443C99.6678 97.3506 96.8681 97.626 94.0656 97.5646L93.9124 92.8317H98.1675C98.2757 92.8538 98.3878 92.8479 98.4932 92.8146C98.5985 92.7813 98.6936 92.7216 98.7694 92.6413C98.8452 92.5609 98.8993 92.4625 98.9265 92.3555C98.9537 92.2484 98.9531 92.1361 98.9248 92.0294C98.9322 91.4508 98.899 90.8724 98.8256 90.2984C98.8241 90.1627 98.769 90.0331 98.6723 89.9379C98.5519 89.8698 98.4099 89.8504 98.2757 89.8838C95.0341 90.3149 91.7588 90.4357 88.4943 90.2444C88.3126 95.0787 87.432 99.8612 85.8799 104.443C87.6108 104.254 89.6662 104.551 91.334 104.173C92.1274 103.992 92.0913 103.911 92.3437 103.055C92.4158 102.793 92.9117 100.603 93.0108 100.594Z" fill="url(#paint11_linear)"/>
<path d="M182.892 34.1163V89.5322H69.2109V34.1163C69.2133 32.2831 69.9426 30.5258 71.2388 29.2295C72.535 27.9333 74.2924 27.204 76.1255 27.2017H175.977C177.81 27.204 179.567 27.9333 180.864 29.2295C182.16 30.5258 182.889 32.2831 182.892 34.1163Z" fill="#473F47"/>
<path d="M167.242 86.44C165.98 87.4429 164.521 88.168 162.959 88.5676C162.862 88.5717 162.766 88.5954 162.678 88.6372C162.59 88.679 162.511 88.7381 162.446 88.811C162.387 88.9648 162.387 89.135 162.446 89.2888C162.682 90.4139 163.02 91.5153 163.455 92.5793C165.758 92.279 167.973 91.4989 169.955 90.2895C170.282 90.1144 170.566 89.8679 170.785 89.5683C170.955 89.2166 171.047 88.8321 171.055 88.4414C171.136 87.3686 171.289 85.845 170.658 84.8984C170.154 84.1592 169.883 84.646 169.216 85.1058L167.242 86.44Z" fill="#22A5CC"/>
<path d="M168.053 86.2598C166.792 87.2643 165.332 87.9895 163.77 88.3873C163.67 88.3903 163.572 88.4144 163.482 88.4579C163.392 88.5013 163.312 88.5633 163.248 88.6398C163.188 88.7904 163.188 88.9579 163.248 89.1086C163.481 90.2334 163.816 91.3348 164.248 92.3991C166.554 92.0986 168.771 91.3186 170.757 90.1092C171.084 89.9368 171.365 89.6897 171.578 89.388C171.758 89.0399 171.851 88.6531 171.848 88.2611C171.929 87.1974 172.091 85.6648 171.451 84.7272C170.956 83.988 170.676 84.4658 170.009 84.9255L168.053 86.2598Z" fill="url(#paint12_linear)"/>
<path d="M181.206 35.4416V87.7293H70.9238V35.4416C70.9286 34.5655 71.1058 33.6989 71.4454 32.8914C71.785 32.0838 72.2804 31.351 72.9032 30.7349C73.5261 30.1187 74.2642 29.6313 75.0754 29.3004C75.8866 28.9696 76.755 28.8017 77.6311 28.8065H174.471C175.35 28.7981 176.221 28.9633 177.035 29.2926C177.85 29.6219 178.591 30.1088 179.217 30.7252C179.842 31.3417 180.34 32.0757 180.682 32.8851C181.023 33.6944 181.201 34.5632 181.206 35.4416Z" fill="white"/>
<path opacity="0.18" d="M181.206 35.4416V87.7293H70.9238V35.4416C70.9286 34.5655 71.1058 33.6989 71.4454 32.8914C71.785 32.0838 72.2804 31.351 72.9032 30.7349C73.5261 30.1187 74.2642 29.6313 75.0754 29.3004C75.8866 28.9696 76.755 28.8017 77.6311 28.8065H174.471C175.35 28.7981 176.221 28.9633 177.035 29.2926C177.85 29.6219 178.591 30.1088 179.217 30.7252C179.842 31.3417 180.34 32.0757 180.682 32.8851C181.023 33.6944 181.201 34.5632 181.206 35.4416Z" fill="#22A5CC"/>
<path opacity="0.18" d="M116.775 35.6489H80.4619V69.0049H116.775V35.6489Z" fill="#22A5CC"/>
<path d="M158.1 118.786C157.558 119.328 157.128 119.972 156.836 120.681C156.543 121.389 156.394 122.149 156.396 122.915C156.392 123.726 156.561 124.528 156.892 125.268C157.243 126.07 157.771 126.782 158.436 127.352C159.101 127.922 159.886 128.334 160.732 128.559V129.893H90.4142C88.9487 129.895 87.52 129.434 86.3318 128.576C85.1436 127.718 84.2565 126.507 83.7971 125.115C83.5578 124.406 83.436 123.663 83.4365 122.915C83.4353 121.999 83.615 121.091 83.9653 120.244C84.3155 119.396 84.8294 118.627 85.4776 117.979C86.1258 117.33 86.8955 116.816 87.7426 116.466C88.5897 116.116 89.4976 115.936 90.4142 115.938H160.732V117.272C159.738 117.54 158.831 118.062 158.1 118.786Z" fill="#22A5CC"/>
<path d="M160.733 128.559V129.893H90.4149C88.9494 129.895 87.5207 129.434 86.3325 128.576C85.1443 127.718 84.2573 126.507 83.7979 125.115C86.5024 125.584 103.37 128.279 112.781 122.915L156.865 125.268C157.22 126.073 157.752 126.787 158.422 127.357C159.091 127.927 159.882 128.338 160.733 128.559Z" fill="url(#paint13_linear)"/>
<path d="M92.3984 133.796C94.3908 133.905 96.5274 133.995 98.2312 132.949C98.3528 132.884 98.4576 132.791 98.5377 132.679C98.5779 132.587 98.5939 132.487 98.5845 132.388C98.575 132.288 98.5403 132.193 98.4836 132.111C98.3636 131.949 98.2057 131.819 98.0239 131.732C97.3854 131.424 96.6997 131.226 95.9955 131.146C95.094 130.993 94.2736 130.849 93.4081 130.758C92.8492 130.704 91.9026 130.479 91.4519 130.93C91.3143 131.139 91.2237 131.375 91.1864 131.623C91.149 131.87 91.1658 132.123 91.2355 132.363C91.3437 133.174 91.4969 133.742 92.3984 133.796Z" fill="white"/>
<path d="M79.1909 131.543C80.7596 132.778 82.4725 134.058 84.4648 134.175C84.5995 134.194 84.7367 134.175 84.8615 134.121C84.9486 134.071 85.0211 133.998 85.0717 133.911C85.1223 133.824 85.1493 133.726 85.1499 133.625C85.1419 133.423 85.0863 133.225 84.9877 133.048C84.6301 132.438 84.18 131.888 83.6534 131.416C83.0314 130.803 82.4093 130.19 81.7422 129.613C81.3185 129.253 80.6694 128.523 80.0474 128.64C79.4253 128.757 79.2541 129.289 79.0467 129.695C78.6771 130.425 78.4787 130.984 79.1909 131.543Z" fill="white"/>
<path d="M158.1 118.786C157.375 119.512 156.855 120.416 156.59 121.408C156.326 122.399 156.327 123.442 156.594 124.433C156.861 125.423 157.384 126.326 158.11 127.05C158.837 127.775 159.741 128.295 160.732 128.559V128.757H118.65C117.096 128.757 115.605 128.14 114.506 127.041C113.407 125.942 112.79 124.451 112.79 122.897C112.79 121.343 113.407 119.852 114.506 118.754C115.605 117.655 117.096 117.037 118.65 117.037H160.732V117.227C159.734 117.507 158.826 118.045 158.1 118.786Z" fill="white"/>
<path d="M32.5463 93.8053L32.7537 93.1201C32.7725 93.0581 32.8089 93.003 32.8586 92.9613C32.9082 92.9197 32.9689 92.8934 33.0332 92.8857L37.1891 92.5792C37.2244 92.5754 37.26 92.5806 37.2926 92.5945C37.3253 92.6084 37.3538 92.6304 37.3755 92.6584C37.3972 92.6865 37.4114 92.7196 37.4166 92.7546C37.4219 92.7897 37.418 92.8255 37.4055 92.8587L37.1531 93.6069C37.1281 93.6819 37.0813 93.7477 37.0186 93.7959C36.956 93.8441 36.8804 93.8725 36.8015 93.8774L32.7988 94.1208C32.759 94.1241 32.719 94.1176 32.6823 94.1018C32.6457 94.086 32.6134 94.0615 32.5885 94.0303C32.5636 93.9991 32.5467 93.9623 32.5393 93.9231C32.532 93.8838 32.5344 93.8434 32.5463 93.8053Z" fill="white"/>
<path d="M48.8821 76.1086C48.58 76.6487 48.1253 77.0878 47.5749 77.3708C47.0589 77.612 46.5255 77.8139 45.9792 77.9748C45.427 78.1193 44.9348 78.4349 44.5728 78.8763L44.5097 78.9574C43.9869 78.6449 43.455 78.3444 42.9141 78.0559C42.9862 77.9117 43.1214 77.7404 43.1755 77.6322C43.2927 77.3708 43.3828 77.1003 43.491 76.8389C43.8821 75.9299 44.5349 75.1579 45.3662 74.6211C45.4293 74.6211 45.5104 74.54 45.5735 74.6211C45.5825 74.641 45.5871 74.6625 45.5871 74.6842C45.5871 74.706 45.5825 74.7275 45.5735 74.7474C45.5667 75.1313 45.4612 75.5069 45.267 75.8382L48.5305 74.6662C48.611 74.6248 48.7022 74.609 48.7919 74.6211C48.8442 74.6416 48.8915 74.6731 48.9304 74.7136C48.9693 74.754 48.9989 74.8025 49.0173 74.8555C49.0849 75.0621 49.1078 75.2806 49.0845 75.4966C49.0611 75.7127 48.9922 75.9213 48.8821 76.1086Z" fill="#FFBBAB"/>
<path d="M94.7695 129.28V131.263C93.5731 131.408 92.3659 131.441 91.1634 131.362C91.1083 131.373 91.0513 131.37 90.9974 131.355C90.9435 131.339 90.8941 131.31 90.8535 131.271C90.8129 131.232 90.7822 131.184 90.764 131.131C90.7457 131.078 90.7405 131.021 90.7488 130.966C90.4963 127.675 90.911 124.358 90.5324 121.094C90.4725 120.408 90.3146 119.734 90.0636 119.093C89.7556 118.454 89.3809 117.85 88.9457 117.29C87.6835 115.55 86.5592 113.714 85.5831 111.8C84.6485 109.855 84.2176 107.707 84.33 105.552C84.33 103.397 85.4659 102.469 87.5664 103.028C87.8897 103.081 88.1975 103.204 88.4679 103.388C88.6815 103.581 88.8586 103.81 88.9908 104.065C90.2586 106.127 91.3822 108.275 92.3535 110.492C94.6613 116.397 94.8506 122.897 94.7695 129.28Z" fill="#473F47"/>
<path d="M94.7695 129.28V131.263C93.5731 131.408 92.3659 131.441 91.1634 131.362C91.1083 131.373 91.0513 131.37 90.9974 131.355C90.9435 131.339 90.8941 131.31 90.8535 131.271C90.8129 131.232 90.7822 131.184 90.764 131.131C90.7457 131.078 90.7405 131.021 90.7488 130.966C90.4963 127.675 90.911 124.358 90.5324 121.094C90.4725 120.408 90.3146 119.734 90.0636 119.093C89.7556 118.454 89.3809 117.85 88.9457 117.29C87.6835 115.55 86.5592 113.714 85.5831 111.8C84.6485 109.855 84.2176 107.707 84.33 105.552C84.33 103.397 85.4659 102.469 87.5664 103.028C87.8897 103.081 88.1975 103.204 88.4679 103.388C88.6815 103.581 88.8586 103.81 88.9908 104.065C90.2586 106.127 91.3822 108.275 92.3535 110.492C94.6613 116.397 94.8506 122.897 94.7695 129.28Z" fill="url(#paint14_linear)"/>
<path d="M95.9142 91.3353C100.195 90.1418 103.875 87.3888 106.227 83.6183C106.449 83.344 106.604 83.0224 106.68 82.6784C106.757 82.3343 106.753 81.9773 106.669 81.635C106.659 81.593 106.64 81.5537 106.614 81.5195C106.587 81.4853 106.554 81.4571 106.516 81.4367C106.399 81.3826 106.264 81.4367 106.146 81.5358L100.593 85.1419C99.1087 86.2296 97.4546 87.0642 95.6978 87.612C95.4274 88.1528 95.2362 88.7297 95.1299 89.3249C95.1446 90.0668 95.4226 90.7794 95.9142 91.3353Z" fill="#FFBBAB"/>
<path d="M163.103 48.0807H97.96V100.576H163.103V48.0807Z" fill="white"/>
<path opacity="0.16" d="M107.138 99.53C106.839 99.7334 106.496 99.8632 106.137 99.9086C103.765 100.384 101.339 100.542 98.9251 100.377C98.6879 100.39 98.4533 100.323 98.258 100.188C98.0622 99.9779 97.9555 99.7 97.9605 99.4128C97.8956 98.6705 97.9442 97.9227 98.1047 97.1951C98.1047 97.0959 104.001 97.1049 104.56 97.1951C105.344 97.3213 108.526 98.4121 107.138 99.53Z" fill="#22A5CC"/>
<path opacity="0.16" d="M157.676 78.7952C157.591 79.2661 157.591 79.7486 157.676 80.2196C157.87 80.8827 158.202 81.4972 158.65 82.0226C160.435 84.5028 161.837 87.2381 162.806 90.1362C163.167 88.5372 163.304 86.8957 163.212 85.259C163.228 84.6853 163.186 84.1113 163.086 83.5462C162.867 82.7676 162.564 82.015 162.184 81.3014C161.658 80.1467 161.262 78.9373 161.003 77.6954C160.823 76.7938 160.516 74.6302 159.146 74.7745C157.965 74.9638 157.767 77.9207 157.676 78.7952Z" fill="#22A5CC"/>
<path d="M80.2365 107.364C80.7674 109.429 81.5075 111.435 82.4452 113.35C83.2205 114.982 85.0145 117.073 85.0055 118.912C85.0055 122.23 81.5167 126.656 79.3711 128.928C80.5031 129.675 81.7121 130.297 82.9771 130.785C83.2536 130.932 83.5726 130.976 83.8786 130.912C84.2137 130.764 84.4787 130.493 84.6179 130.154L86.9528 126.107C88.251 123.853 89.5942 121.473 89.7024 118.894C89.7085 117.95 89.6422 117.007 89.5041 116.073C89.2607 114.08 89.5041 111.827 89.0082 109.888C88.5665 108.085 87.9895 106.372 87.5839 104.578C87.4828 103.652 87.0545 102.792 86.3758 102.153C86.0545 101.938 85.6973 101.783 85.3211 101.694C83.518 101.18 81.5347 101.117 80.5431 103.001C79.9339 104.375 79.8255 105.919 80.2365 107.364Z" fill="#473F47"/>
<path d="M96.4639 87.8103C97.4556 88.1709 96.527 90.5148 96.2656 91.1729C96.2517 91.2591 96.2193 91.3412 96.1706 91.4136C96.1219 91.4861 96.0581 91.5471 95.9835 91.5925C95.909 91.6379 95.8255 91.6667 95.7388 91.6767C95.6521 91.6867 95.5642 91.6779 95.4813 91.6507C93.9938 91.5155 92.5063 91.3352 91.0278 91.1188C90.7124 91.0891 90.406 90.9972 90.1263 90.8484C89.9513 90.7238 89.803 90.5655 89.69 90.3828C89.577 90.2002 89.5016 89.9968 89.4682 89.7846C89.333 89.0904 89.2608 87.4316 89.8648 86.8997C90.2976 86.5121 91.172 86.7916 91.74 86.8456C93.348 86.9739 94.9344 87.2978 96.4639 87.8103Z" fill="white"/>
<path d="M96.1485 88.7929C97.1401 89.1535 96.2116 91.4975 95.9411 92.1556C95.8988 92.3245 95.8002 92.4739 95.6616 92.5793C95.5067 92.6508 95.3326 92.6698 95.1658 92.6334C93.6693 92.4981 92.1908 92.3178 90.7123 92.1105C90.3817 92.0794 90.0603 91.9845 89.7658 91.831C89.5917 91.7063 89.4446 91.5479 89.3331 91.3651C89.2216 91.1824 89.148 90.979 89.1167 90.7672C88.9724 90.0731 88.9093 88.4143 89.5133 87.8824C89.9461 87.5038 90.8115 87.7742 91.3885 87.8283C93.0085 87.9545 94.6071 88.2785 96.1485 88.7929Z" fill="url(#paint15_linear)"/>
<path d="M93.5697 79.2731C93.75 79.5706 94.1016 79.7419 94.2188 80.0574C94.336 80.3729 94.0926 80.8507 93.9484 81.2384C93.7591 81.7793 93.8222 82.3923 93.6328 82.9332C93.5974 83.0523 93.5286 83.1587 93.4345 83.2397C93.3476 83.2986 93.2493 83.3385 93.146 83.3569C92.7429 83.4395 92.33 83.4638 91.92 83.4291C91.8443 83.4015 91.7613 83.4015 91.6856 83.4291C91.6243 83.4818 91.5856 83.556 91.5774 83.6364C91.3249 84.6639 91.3249 85.7372 91.5774 86.7647C91.6675 87.0982 91.7667 87.5129 91.5143 87.7563C91.4252 87.8354 91.316 87.8884 91.1988 87.9096C90.7994 87.946 90.3976 87.874 90.0358 87.701C89.6741 87.5281 89.3657 87.2606 89.1433 86.9269C88.6709 86.3757 88.2654 85.7705 87.9353 85.1239C87.8359 84.9471 87.7659 84.7552 87.7279 84.556C87.7188 84.2962 87.7554 84.0368 87.8361 83.7897C88.061 82.9376 88.197 82.0644 88.2418 81.1843C88.1936 80.0607 88.3307 78.9368 88.6475 77.8577C88.7731 77.4914 89.0134 77.1753 89.3326 76.9562C89.7092 76.7797 90.1282 76.7141 90.5406 76.7669C91.3652 76.7089 92.1799 76.974 92.8125 77.5061C93.0198 77.7495 93.3534 78.8764 93.5697 79.2731Z" fill="#FFBBAB"/>
<path d="M93.2359 76.6045C93.5695 76.5414 93.8129 76.9921 93.6867 77.2987C93.6042 77.448 93.4863 77.5746 93.3432 77.6674C93.2001 77.7602 93.0363 77.8162 92.8663 77.8305C92.5304 77.8603 92.1963 77.9084 91.8656 77.9748C91.6998 78.0153 91.5507 78.1066 91.4392 78.2359C91.3277 78.3652 91.2594 78.526 91.2436 78.696C91.0585 78.6697 90.8701 78.7121 90.7141 78.815C90.558 78.918 90.4449 79.0744 90.3962 79.2549C90.3019 79.6185 90.3019 80.0002 90.3962 80.3638C90.288 80.481 90.0987 80.3638 89.9995 80.2827C89.9003 80.2015 89.8372 80.0212 89.711 79.9401C89.4225 79.7868 89.08 80.1474 89.116 80.472C89.2 80.7883 89.3872 81.0675 89.6479 81.2653C89.7106 81.3122 89.7602 81.3742 89.7922 81.4456C89.8823 81.7161 89.5217 81.9054 89.2422 81.9685C89.2646 82.1786 89.24 82.3911 89.1701 82.5905C89.1366 82.6913 89.0726 82.7793 88.9871 82.8422C88.9015 82.9052 88.7985 82.9401 88.6923 82.9421C88.503 82.9421 88.3497 82.7889 88.1785 82.7167C88.0072 82.6446 87.7367 82.7167 87.7187 82.879C87.4302 82.275 87.7187 81.707 87.6105 81.076C87.5023 80.4449 87.0335 80.7424 86.709 80.3908C86.5377 80.1925 86.5467 79.895 86.4656 79.6426C86.3845 79.3902 86.096 79.0566 86.0238 78.7411C85.8976 78.1821 86.3664 77.6773 86.7901 77.2987C86.7454 77.1937 86.7344 77.0775 86.7586 76.9661C86.7828 76.8546 86.8411 76.7535 86.9254 76.6766C87.1014 76.5341 87.3137 76.4436 87.5384 76.4152C87.5968 76.4077 87.6525 76.386 87.7007 76.3521C87.7728 76.2799 87.7547 76.1627 87.7007 76.0636C87.5654 74.3597 90.3421 74.8285 91.3608 74.9187C91.7869 74.9571 92.1979 75.0962 92.5598 75.3243C92.7672 75.4325 93.6146 76.5324 93.2359 76.6045Z" fill="#473F47"/>
<path d="M87.8458 84.7001H87.9089C89.3964 85.0697 91.56 86.422 92.0469 87.9275C92.7578 89.9791 92.9559 92.1735 92.6238 94.3193C92.3173 95.6805 91.4879 96.8615 91.1453 98.1867C90.8993 99.655 90.5498 101.104 90.0996 102.523C89.8877 103.178 89.4704 103.747 88.9096 104.146C88.3997 104.396 87.8368 104.52 87.2688 104.506C85.601 104.596 83.2571 105.164 81.8598 104.02C81.356 103.548 80.9672 102.967 80.7234 102.322C80.4796 101.676 80.3872 100.983 80.4534 100.296C80.5979 98.9236 80.9569 97.5821 81.5172 96.3206L83.8341 90.2805C84.411 88.8471 85.7633 84.2854 87.8458 84.7001Z" fill="white"/>
<path d="M86.6287 99.611C86.7563 99.8275 86.8419 100.066 86.8812 100.314C86.8809 100.495 86.8535 100.674 86.8 100.846C86.5611 101.828 86.461 102.838 86.5025 103.848C86.4924 103.938 86.5008 104.03 86.5271 104.116C86.5535 104.203 86.5973 104.284 86.6558 104.353C86.786 104.448 86.9452 104.496 87.1065 104.488C87.6855 104.587 88.2803 104.528 88.8284 104.317C89.4224 103.953 89.8693 103.391 90.0905 102.73C90.8258 100.894 91.3872 98.9922 91.7673 97.0507C91.8645 96.739 91.8952 96.4104 91.8575 96.0861C91.7923 95.8431 91.6789 95.6157 91.524 95.4175C91.3692 95.2192 91.176 95.0542 90.956 94.9322C90.5503 94.6527 90.0545 94.4544 89.7029 94.1569C88.9366 93.5619 88.3687 92.4981 87.3229 92.3538C86.96 92.3251 86.5985 92.425 86.3019 92.6359C86.0052 92.8469 85.7922 93.1555 85.7002 93.5078C85.0691 95.3108 85.7813 97.8981 86.6287 99.611Z" fill="url(#paint16_linear)"/>
<path d="M89.1434 89.1085C89.1434 89.1085 91.2619 94.8511 91.6857 95.2748C92.1094 95.6985 87.5928 98.2318 87.5928 98.2318C87.5928 98.2318 84.6539 92.6514 84.7981 90.2263C84.9424 87.8013 87.4486 86.8276 89.1434 89.1085Z" fill="white"/>
<path d="M87.5928 97.4565C87.6336 97.7342 87.7287 98.001 87.8727 98.2419C88.0166 98.4828 88.2066 98.6929 88.4318 98.8604C88.657 99.0278 88.913 99.1492 89.1851 99.2177C89.4573 99.2862 89.7402 99.3004 90.0178 99.2596L93.8583 99.2055C95.6613 99.2055 97.3922 99.1243 99.1592 99.1334C99.591 99.1925 100.014 99.3014 100.421 99.4579C100.971 99.5808 101.537 99.6143 102.098 99.5571C103.204 99.4397 104.24 98.9612 105.046 98.1958C105.318 97.9926 105.522 97.711 105.63 97.3888C105.738 97.0666 105.745 96.719 105.65 96.3928C105.613 96.3066 105.55 96.2341 105.47 96.1854C105.398 96.1715 105.325 96.1715 105.253 96.1854C104.199 96.3664 103.119 96.348 102.071 96.1313C102.157 95.9972 102.201 95.8401 102.197 95.6806C102.197 95.5273 102.035 95.3741 101.882 95.4101C101.8 95.4379 101.729 95.4879 101.674 95.5544C101.417 95.8441 101.096 96.0693 100.735 96.2118C100.375 96.3543 99.9866 96.4101 99.6009 96.3747C96.689 96.2395 93.8222 95.6175 90.9103 95.4732C90.2301 95.4015 89.5424 95.4722 88.891 95.6806C88.5486 95.8515 88.252 96.102 88.0262 96.4109C87.8004 96.7199 87.6517 97.0784 87.5928 97.4565Z" fill="#FFBBAB"/>
<path d="M166.845 83.7085C166.131 84.0291 165.478 84.4714 164.916 85.0157C164.626 85.2825 164.396 85.6076 164.24 85.9696C164.085 86.3316 164.008 86.7223 164.014 87.1162C164.185 88.0572 164.711 88.8965 165.483 89.4601C166.295 90.1723 167.287 90.9206 167.35 92.0114C167.936 91.5787 168.467 91.1099 169.062 90.6591C170.166 90.0197 171.321 89.4738 172.515 89.0274C173.722 88.5724 174.732 87.7118 175.373 86.5933C175.668 85.8699 175.839 85.1018 175.878 84.3215C175.993 83.4851 176.015 82.6384 175.941 81.7973C175.86 80.9512 175.491 80.1587 174.895 79.5525C173.982 78.8521 172.905 78.396 171.767 78.2273C171.126 78.256 170.506 78.4673 169.98 78.8362C169.455 79.2051 169.046 79.7163 168.801 80.3098C168.567 80.9408 168.675 81.6621 168.44 82.2841C168.109 82.9441 167.538 83.4533 166.845 83.7085Z" fill="#FC682D"/>
<path d="M156.865 134.851C156.638 134.873 156.416 134.931 156.207 135.022C156.105 135.073 156.019 135.149 155.957 135.245C155.895 135.34 155.86 135.45 155.855 135.563C155.877 135.674 155.925 135.778 155.996 135.866C156.067 135.954 156.158 136.023 156.261 136.068C156.459 136.167 156.685 136.212 156.883 136.321C157.051 136.435 157.229 136.535 157.415 136.618C157.746 136.681 158.088 136.634 158.389 136.483C159.802 135.987 161.291 135.743 162.788 135.762C162.932 135.78 163.077 135.78 163.221 135.762C163.439 135.687 163.633 135.556 163.783 135.382C163.934 135.208 164.035 134.996 164.077 134.77C164.284 133.841 164.284 132.877 164.077 131.948C164.062 131.843 164.025 131.742 163.969 131.651C163.903 131.581 163.819 131.531 163.726 131.507C162.256 130.948 161.625 132.408 160.661 133.201C159.565 134.08 158.255 134.65 156.865 134.851Z" fill="#FFBBAB"/>
<path d="M161.76 134.896H161.472C160.81 134.968 160.144 134.986 159.479 134.95C159.354 134.951 159.229 134.92 159.119 134.86C159.048 134.803 158.992 134.73 158.954 134.647C158.917 134.564 158.899 134.473 158.902 134.382C158.921 134.203 158.921 134.021 158.902 133.841C158.894 133.804 158.875 133.77 158.848 133.742C158.816 133.733 158.782 133.733 158.749 133.742C158.24 133.757 157.741 133.896 157.298 134.148C156.384 134.512 155.599 135.139 155.044 135.951C154.995 136.02 154.966 136.101 154.963 136.185C154.967 136.259 154.995 136.329 155.044 136.384C155.639 137.285 157.127 137.087 158.037 136.898C158.948 136.708 160.02 136.294 161.048 136.131C162.076 135.969 163.392 136.041 164.366 135.446C164.526 135.36 164.659 135.232 164.753 135.077C164.842 134.801 164.851 134.507 164.781 134.227C164.711 133.946 164.564 133.691 164.357 133.49C164.325 133.442 164.277 133.407 164.221 133.391C164.148 133.381 164.074 133.401 164.014 133.445C163.554 133.733 163.248 134.238 162.779 134.527C162.47 134.722 162.123 134.848 161.76 134.896Z" fill="#22A5CC"/>
<path d="M171.839 97.2401C171.839 97.2401 176.428 99.8725 175.148 104.678C174.021 108.879 170.794 111.493 168.729 115.081C167.584 117.064 167.828 120.319 167.314 122.636C166.717 125.475 165.9 128.263 164.871 130.975C164.654 131.516 164.321 132.156 163.735 132.174C163.462 132.137 163.191 132.085 162.923 132.02C162.663 132.047 162.4 132.047 162.139 132.02C161.472 131.867 161.472 130.921 161.625 130.217C162.356 126.997 162.797 123.717 162.941 120.418C163.05 117.876 162.364 115.18 163.086 112.71C163.654 110.763 167.061 100.305 167.061 100.305L171.839 97.2401Z" fill="#22A5CC"/>
<path d="M171.839 97.2401C171.839 97.2401 176.428 99.8725 175.148 104.678C174.021 108.879 170.794 111.493 168.729 115.081C167.584 117.064 167.828 120.319 167.314 122.636C166.717 125.475 165.9 128.263 164.871 130.975C164.654 131.516 164.321 132.156 163.735 132.174C163.462 132.137 163.191 132.085 162.923 132.02C162.663 132.047 162.4 132.047 162.139 132.02C161.472 131.867 161.472 130.921 161.625 130.217C162.356 126.997 162.797 123.717 162.941 120.418C163.05 117.876 162.364 115.18 163.086 112.71C163.654 110.763 167.061 100.305 167.061 100.305L171.839 97.2401Z" fill="url(#paint17_linear)"/>
<path d="M166.547 137.393C166.332 137.467 166.131 137.577 165.952 137.718C165.863 137.79 165.796 137.886 165.759 137.994C165.723 138.103 165.718 138.22 165.745 138.331C165.791 138.433 165.863 138.522 165.953 138.59C166.042 138.658 166.147 138.702 166.259 138.719C166.475 138.764 166.7 138.719 166.917 138.809C167.114 138.876 167.316 138.93 167.521 138.971C167.854 138.944 168.17 138.812 168.422 138.592C169.668 137.757 171.05 137.147 172.506 136.789C172.649 136.759 172.788 136.714 172.921 136.654C173.097 136.522 173.237 136.348 173.328 136.148C173.419 135.948 173.459 135.729 173.444 135.509C173.408 134.564 173.159 133.639 172.713 132.805C172.678 132.705 172.619 132.615 172.542 132.543C172.46 132.494 172.367 132.466 172.272 132.462C170.703 132.291 170.469 133.869 169.729 134.869C168.904 135.971 167.808 136.841 166.547 137.393Z" fill="#FFBBAB"/>
<path d="M171.289 100.513C172.501 100.689 173.629 101.237 174.517 102.081C176.437 103.713 176.32 107.048 175.653 109.492C175.31 110.772 173.273 114.801 172.948 115.946C172.38 118.11 173.516 120.797 173.615 122.987C173.742 125.887 173.642 128.793 173.318 131.678C173.255 132.255 173.083 132.949 172.524 133.12C172.254 133.192 171.965 133.12 171.695 133.174C171.454 133.272 171.203 133.345 170.947 133.391C170.262 133.391 170.045 132.489 170.045 131.813C169.947 128.51 169.557 125.222 168.882 121.987C168.359 119.498 167.016 117.055 167.079 114.486L167.269 108.175C167.341 105.849 167.016 103.497 167.728 101.261C167.786 100.99 167.932 100.746 168.143 100.567C168.345 100.447 168.576 100.385 168.81 100.386C169.5 100.332 170.194 100.332 170.884 100.386L171.289 100.513Z" fill="#22A5CC"/>
<path d="M167.972 76.9652C167.801 77.2537 167.44 77.4249 167.323 77.7495C167.206 78.074 167.458 78.5428 167.594 78.9305C167.792 79.4714 167.729 80.0844 167.918 80.6253C167.95 80.7437 168.016 80.8502 168.107 80.9318C168.194 80.9902 168.293 81.0273 168.396 81.04C168.801 81.1316 169.218 81.156 169.631 81.1121C169.707 81.0891 169.789 81.0891 169.865 81.1121C169.925 81.1659 169.964 81.2396 169.974 81.3195C170.208 82.3513 170.19 83.4246 169.92 84.4477C169.838 84.7813 169.739 85.196 169.992 85.4394C170.081 85.5185 170.19 85.5715 170.307 85.5926C170.707 85.6243 171.108 85.5492 171.469 85.3749C171.83 85.2007 172.139 84.9336 172.363 84.601C172.831 84.0482 173.233 83.4432 173.562 82.798C173.661 82.6211 173.731 82.4293 173.769 82.23C173.786 81.9669 173.749 81.703 173.661 81.4547C173.443 80.6046 173.31 79.7348 173.264 78.8583C173.314 77.7311 173.174 76.6035 172.849 75.5228C172.726 75.1577 172.489 74.8418 172.173 74.6212C171.793 74.4454 171.372 74.3798 170.956 74.4319C170.134 74.3695 169.32 74.6353 168.693 75.1712C168.531 75.4416 168.189 76.5955 167.972 76.9652Z" fill="#FFBBAB"/>
<path d="M173.706 82.3743C173.706 82.3743 170.343 84.1142 169.324 85.4755C168.306 86.8368 166.62 87.8465 167.287 90.4338C167.81 92.5253 167.242 94.4726 167.215 96.546C167.215 97.114 167.458 97.5738 167.449 98.1507C167.449 99.1604 166.548 100.053 166.89 101.099C167.152 101.955 168.143 102.325 169.009 102.568L172.389 103.551C173.115 103.861 173.931 103.88 174.67 103.605C175.518 103.136 175.707 102.009 175.788 101.045C175.986 98.5474 175.914 95.5454 176.942 93.2104C177.576 91.8847 177.79 90.3969 177.555 88.9463C177.339 87.0531 176.518 82.0407 173.706 82.3743Z" fill="white"/>
<path d="M169.053 75.1531C169.121 75.7083 169.387 76.2203 169.801 76.5955C170.198 76.9652 170.703 77.2176 171.1 77.5782C171.32 77.7417 171.495 77.9578 171.61 78.2066C171.725 78.4554 171.776 78.7291 171.758 79.0026C171.916 78.9311 172.095 78.9201 172.261 78.9715C172.427 79.023 172.569 79.1335 172.659 79.282C172.705 79.3836 172.721 79.496 172.705 79.6062C172.689 79.7163 172.642 79.8197 172.569 79.9041C172.495 79.9846 172.404 80.0481 172.303 80.0901C172.202 80.1321 172.093 80.1517 171.983 80.1475C172.408 80.3193 172.773 80.6144 173.029 80.9949C173.317 81.4186 173.462 81.8964 173.723 82.3742C174.05 82.8202 174.457 83.2022 174.922 83.5011C175.138 83.6431 175.318 83.8347 175.445 84.0601C175.54 84.3979 175.658 84.7291 175.796 85.0517C176.095 85.4754 176.417 85.8818 176.761 86.2688C177.219 86.9449 177.481 87.7341 177.518 88.5496C177.496 88.3067 177.496 88.0622 177.518 87.8194C177.599 87.6751 177.681 87.5309 177.753 87.3866C177.885 87.1224 177.988 86.8442 178.059 86.5572C178.158 85.9008 178.177 85.2348 178.113 84.5739C178.113 83.1585 179.448 80.4901 178.375 79.273C177.945 78.919 177.49 78.5966 177.014 78.3084C176.112 77.5241 175.932 76.1448 175.337 75.072C175.073 74.6001 174.718 74.1855 174.293 73.8527C173.867 73.5198 173.379 73.2754 172.858 73.1337C171.424 72.7461 168.882 73.1878 169.053 75.1531Z" fill="#FC682D"/>
<path d="M173.597 84.5649C173.597 84.5649 167.548 85.5386 166.98 85.3853C166.412 85.2321 166.412 90.3977 166.412 90.3977C166.412 90.3977 172.723 90.2084 174.76 88.8922C176.798 87.576 176.401 84.8805 173.597 84.5649Z" fill="white"/>
<path d="M167.098 90.019C166.835 90.1224 166.555 90.1729 166.274 90.1676C165.992 90.1624 165.714 90.1014 165.456 89.9883C165.198 89.8752 164.965 89.7121 164.77 89.5085C164.575 89.3049 164.422 89.0648 164.321 88.802L159.48 79.9492C159.48 79.1739 159.038 78.3264 159.281 77.5962C159.408 77.2446 159.66 76.9561 159.786 76.6136C159.949 76.1619 159.949 75.6678 159.786 75.2162C159.609 74.7789 159.385 74.3618 159.119 73.9721C159.168 73.8392 159.264 73.7285 159.388 73.6606C159.512 73.5926 159.657 73.572 159.795 73.6025C160.068 73.6767 160.313 73.8304 160.498 74.0443C160.91 74.4713 161.234 74.9754 161.45 75.5277C161.667 76.0799 161.772 76.6695 161.761 77.2627C161.706 77.6242 161.706 77.9919 161.761 78.3535C161.836 78.5992 161.952 78.8308 162.103 79.0386C163.654 81.5088 165.601 83.6994 167.152 86.1696C167.544 86.7314 167.819 87.3659 167.963 88.0357C167.984 88.4109 167.916 88.7857 167.766 89.1301C167.615 89.4745 167.387 89.7789 167.098 90.019Z" fill="#FFBBAB"/>
<path d="M171.442 136.573L171.181 136.645C170.588 136.789 169.986 136.888 169.378 136.943C169.266 136.974 169.147 136.974 169.035 136.943C168.963 136.898 168.902 136.837 168.857 136.766C168.811 136.694 168.783 136.612 168.774 136.528C168.759 136.36 168.726 136.193 168.675 136.032C168.665 135.998 168.643 135.969 168.612 135.951C168.582 135.942 168.551 135.942 168.522 135.951C168.053 136.03 167.611 136.222 167.232 136.51C166.452 136.975 165.826 137.658 165.429 138.475C165.396 138.546 165.381 138.623 165.384 138.701C165.403 138.765 165.437 138.824 165.483 138.872C166.151 139.656 167.485 139.26 168.296 138.962C169.108 138.665 170.045 138.169 171.001 137.889C171.956 137.61 173.137 137.502 173.958 136.835C174.093 136.737 174.202 136.607 174.273 136.456C174.319 136.19 174.29 135.918 174.19 135.668C174.09 135.418 173.922 135.2 173.705 135.041C173.669 135.003 173.621 134.978 173.57 134.968C173.536 134.969 173.502 134.976 173.471 134.99C173.44 135.004 173.412 135.024 173.39 135.05C172.993 135.374 172.777 135.87 172.389 136.194C172.105 136.388 171.782 136.518 171.442 136.573Z" fill="#22A5CC"/>
<path d="M159.344 94.5446H102.774V55.1395H159.389L159.344 94.5446ZM103.234 94.0398H158.839V55.6444H103.234V94.0398Z" fill="#22A5CC"/>
<path d="M107.822 87.4677L105.713 85.286L115.882 75.4596L122.454 78.4706L133.858 67.8869L139.853 71.6732L151.537 62.1172L153.457 64.4611L140.088 75.4055L134.21 71.7003L123.031 82.0767L116.504 79.0836L107.822 87.4677Z" fill="#22A5CC"/>
<path d="M155.594 68.6351H152.565V63.4605H147.246V60.4224H155.594V68.6351Z" fill="#22A5CC"/>
<defs>
<linearGradient id="paint0_linear" x1="75.5316" y1="96.4084" x2="57.0673" y2="168.784" gradientUnits="userSpaceOnUse">
<stop offset="0.01"/>
<stop offset="0.13" stop-opacity="0.69"/>
<stop offset="0.25" stop-opacity="0.32"/>
<stop offset="1" stop-opacity="0"/>
</linearGradient>
<linearGradient id="paint1_linear" x1="7126.56" y1="4820.9" x2="2899.23" y2="6192.58" gradientUnits="userSpaceOnUse">
<stop offset="0.01"/>
<stop offset="0.13" stop-opacity="0.69"/>
<stop offset="0.25" stop-opacity="0.32"/>
<stop offset="1" stop-opacity="0"/>
</linearGradient>
<linearGradient id="paint2_linear" x1="14.1468" y1="112.259" x2="61.2417" y2="140.26" gradientUnits="userSpaceOnUse">
<stop offset="0.01"/>
<stop offset="0.08" stop-opacity="0.69"/>
<stop offset="0.21" stop-opacity="0.32"/>
<stop offset="1" stop-opacity="0"/>
</linearGradient>
<linearGradient id="paint3_linear" x1="1345.2" y1="1757.78" x2="1236.16" y2="1090.45" gradientUnits="userSpaceOnUse">
<stop offset="0.01"/>
<stop offset="0.08" stop-opacity="0.69"/>
<stop offset="0.21" stop-opacity="0.32"/>
<stop offset="1" stop-opacity="0"/>
</linearGradient>
<linearGradient id="paint4_linear" x1="2368.6" y1="4480.4" x2="2195.07" y2="4498.92" gradientUnits="userSpaceOnUse">
<stop offset="0.01"/>
<stop offset="0.08" stop-opacity="0.69"/>
<stop offset="0.21" stop-opacity="0.32"/>
<stop offset="1" stop-opacity="0"/>
</linearGradient>
<linearGradient id="paint5_linear" x1="4658.11" y1="1374.73" x2="4550.47" y2="1569.98" gradientUnits="userSpaceOnUse">
<stop offset="0.01"/>
<stop offset="0.08" stop-opacity="0.69"/>
<stop offset="0.21" stop-opacity="0.32"/>
<stop offset="1" stop-opacity="0"/>
</linearGradient>
<linearGradient id="paint6_linear" x1="1937.8" y1="3974.87" x2="1998.28" y2="3976.58" gradientUnits="userSpaceOnUse">
<stop offset="0.01"/>
<stop offset="0.08" stop-opacity="0.69"/>
<stop offset="0.21" stop-opacity="0.32"/>
<stop offset="1" stop-opacity="0"/>
</linearGradient>
<linearGradient id="paint7_linear" x1="7399.66" y1="2496.5" x2="6866.85" y2="2673.19" gradientUnits="userSpaceOnUse">
<stop offset="0.01"/>
<stop offset="0.08" stop-opacity="0.69"/>
<stop offset="0.21" stop-opacity="0.32"/>
<stop offset="1" stop-opacity="0"/>
</linearGradient>
<linearGradient id="paint8_linear" x1="5349.95" y1="2059.2" x2="5385.47" y2="3019.16" gradientUnits="userSpaceOnUse">
<stop offset="0.01"/>
<stop offset="0.08" stop-opacity="0.69"/>
<stop offset="0.21" stop-opacity="0.32"/>
<stop offset="1" stop-opacity="0"/>
</linearGradient>
<linearGradient id="paint9_linear" x1="2694.09" y1="2082.85" x2="2102.97" y2="2217.6" gradientUnits="userSpaceOnUse">
<stop offset="0.01"/>
<stop offset="0.08" stop-opacity="0.69"/>
<stop offset="0.21" stop-opacity="0.32"/>
<stop offset="1" stop-opacity="0"/>
</linearGradient>
<linearGradient id="paint10_linear" x1="1258.35" y1="2242.52" x2="1001.41" y2="2225.06" gradientUnits="userSpaceOnUse">
<stop offset="0.01"/>
<stop offset="0.08" stop-opacity="0.69"/>
<stop offset="0.21" stop-opacity="0.32"/>
<stop offset="1" stop-opacity="0"/>
</linearGradient>
<linearGradient id="paint11_linear" x1="2032.22" y1="2139.31" x2="3264.71" y2="1888.63" gradientUnits="userSpaceOnUse">
<stop offset="0.01"/>
<stop offset="0.08" stop-opacity="0.69"/>
<stop offset="0.21" stop-opacity="0.32"/>
<stop offset="1" stop-opacity="0"/>
</linearGradient>
<linearGradient id="paint12_linear" x1="2182.71" y1="1119.12" x2="1948.01" y2="1044.45" gradientUnits="userSpaceOnUse">
<stop offset="0.01"/>
<stop offset="0.08" stop-opacity="0.69"/>
<stop offset="0.21" stop-opacity="0.32"/>
<stop offset="1" stop-opacity="0"/>
</linearGradient>
<linearGradient id="paint13_linear" x1="13007.3" y1="913.069" x2="13020.1" y2="2096.54" gradientUnits="userSpaceOnUse">
<stop offset="0.01"/>
<stop offset="0.08" stop-opacity="0.69"/>
<stop offset="0.21" stop-opacity="0.32"/>
<stop offset="1" stop-opacity="0"/>
</linearGradient>
<linearGradient id="paint14_linear" x1="1475.03" y1="4659.67" x2="1752.2" y2="4639.23" gradientUnits="userSpaceOnUse">
<stop offset="0.01"/>
<stop offset="0.08" stop-opacity="0.69"/>
<stop offset="0.21" stop-opacity="0.32"/>
<stop offset="1" stop-opacity="0"/>
</linearGradient>
<linearGradient id="paint15_linear" x1="1130.65" y1="748.124" x2="1189.54" y2="655.08" gradientUnits="userSpaceOnUse">
<stop offset="0.01"/>
<stop offset="0.08" stop-opacity="0.69"/>
<stop offset="0.21" stop-opacity="0.32"/>
<stop offset="1" stop-opacity="0"/>
</linearGradient>
<linearGradient id="paint16_linear" x1="898.902" y1="1783" x2="1086.63" y2="1771.41" gradientUnits="userSpaceOnUse">
<stop offset="0.01"/>
<stop offset="0.08" stop-opacity="0.69"/>
<stop offset="0.21" stop-opacity="0.32"/>
<stop offset="1" stop-opacity="0"/>
</linearGradient>
<linearGradient id="paint17_linear" x1="3746.08" y1="5642.95" x2="2078.87" y2="5584.96" gradientUnits="userSpaceOnUse">
<stop offset="0.01"/>
<stop offset="0.08" stop-opacity="0.69"/>
<stop offset="0.21" stop-opacity="0.32"/>
<stop offset="1" stop-opacity="0"/>
</linearGradient>
</defs>
</svg>
