<svg width="188" height="143" viewBox="0 0 188 143" fill="none" xmlns="http://www.w3.org/2000/svg">
<path opacity="0.18" d="M83.2697 0.13908C82.3955 0.108588 81.5264 0.0882598 80.6625 0.0679314C66.7928 -0.221748 52.6386 0.245805 39.5415 4.81461C26.4444 9.38341 14.3739 18.643 9.33731 31.5515C6.73009 38.2548 6.11513 45.5323 5.14441 52.6574C3.33002 66.0183 0.173909 79.2622 0.00619293 92.7399C-0.161523 106.218 3.05558 120.407 12.3105 130.225C28.3655 147.281 50.6362 137.173 69.7406 132.578C81.0785 129.862 92.8728 129.652 104.3 131.964C111.842 133.488 119.125 136.116 126.662 137.732C132.085 138.895 137.727 139.536 143.251 138.819C148.557 138.133 152.648 135.602 157.482 133.564C166.681 129.661 175.981 124.691 181.846 116.311C186.341 109.732 188.404 101.793 187.681 93.858C185.876 72.9401 166.335 64.1582 156.247 47.7176C150.371 38.1633 146.367 27.3283 138.809 19.0445C125.25 4.20476 103.528 0.784506 83.2697 0.13908Z" fill="#00C5FF"/>
<path d="M113.219 21.2194V124.97C113.219 127.374 112.265 129.678 110.565 131.378C108.866 133.077 106.561 134.032 104.158 134.032H59.2502C56.8469 134.032 54.542 133.077 52.8426 131.378C51.1432 129.678 50.1885 127.374 50.1885 124.97V21.2194C50.1878 20.029 50.4217 18.8502 50.8768 17.7502C51.3319 16.6502 51.9993 15.6507 52.8408 14.8088C53.6823 13.9668 54.6815 13.2989 55.7813 12.8432C56.881 12.3875 58.0598 12.153 59.2502 12.153H104.158C105.348 12.153 106.527 12.3875 107.626 12.8432C108.726 13.2989 109.725 13.9668 110.567 14.8088C111.408 15.6507 112.076 16.6502 112.531 17.7502C112.986 18.8502 113.22 20.029 113.219 21.2194Z" fill="#22A5CC"/>
<path d="M103.212 13.6927H60.1906C55.3515 13.6927 51.4287 17.6154 51.4287 22.4543V123.542C51.4287 128.381 55.3515 132.304 60.1906 132.304H103.212C108.051 132.304 111.974 128.381 111.974 123.542V22.4543C111.974 17.6154 108.051 13.6927 103.212 13.6927Z" fill="#473F47"/>
<path d="M110.327 23.4453V121.331C110.304 123.551 109.401 125.67 107.816 127.223C106.231 128.777 104.094 129.637 101.875 129.615H61.5675C60.095 129.62 58.6466 129.242 57.3644 128.518C56.0787 127.808 55.006 126.767 54.2573 125.504C53.5085 124.241 53.1109 122.8 53.1055 121.331V23.4453C53.1296 21.2249 54.0346 19.1049 55.6214 17.5515C57.2082 15.9981 59.347 15.1384 61.5675 15.1615H68.3778V16.3659C68.3951 17.1561 68.6455 17.9236 69.0976 18.5719C69.5498 19.2202 70.1834 19.7205 70.919 20.0098C71.4126 20.2044 71.9385 20.3044 72.4691 20.3045H91.1923C92.2645 20.3114 93.2961 19.8944 94.0623 19.1443C94.8286 18.3943 95.2675 17.3719 95.2836 16.2998V15.1615H101.891C104.058 15.1567 106.147 15.9781 107.73 17.4586C108.551 18.2249 109.205 19.1519 109.651 20.1818C110.098 21.2118 110.328 22.3226 110.327 23.4453Z" fill="white"/>
<path opacity="0.31" d="M84.3722 81.7421H60.9479C60.5409 81.7421 60.2109 82.072 60.2109 82.479V82.4841C60.2109 82.891 60.5409 83.221 60.9479 83.221H84.3722C84.7792 83.221 85.1092 82.891 85.1092 82.4841V82.479C85.1092 82.072 84.7792 81.7421 84.3722 81.7421Z" fill="#22A5CC"/>
<path opacity="0.31" d="M84.3722 85.3555H60.9479C60.5409 85.3555 60.2109 85.6854 60.2109 86.0924V86.0975C60.2109 86.5044 60.5409 86.8344 60.9479 86.8344H84.3722C84.7792 86.8344 85.1092 86.5044 85.1092 86.0975V86.0924C85.1092 85.6854 84.7792 85.3555 84.3722 85.3555Z" fill="#22A5CC"/>
<path opacity="0.18" d="M113.219 68.432H50.1836V72.391H113.219V68.432Z" fill="#22A5CC"/>
<path d="M40.7559 58.4457H117.529C118.895 58.4457 120.204 58.9881 121.17 59.9535C122.135 60.919 122.678 62.2285 122.678 63.5938C122.678 64.9592 122.135 66.2687 121.17 67.2341C120.204 68.1996 118.895 68.742 117.529 68.742H40.7559V58.4457Z" fill="#22A5CC"/>
<path d="M102.75 58.4457H40.7559V68.7369H102.75V58.4457Z" fill="white"/>
<path d="M111.954 65.4946C113.327 65.4946 114.439 64.3819 114.439 63.0094C114.439 61.6369 113.327 60.5243 111.954 60.5243C110.581 60.5243 109.469 61.6369 109.469 63.0094C109.469 64.3819 110.581 65.4946 111.954 65.4946Z" stroke="white" stroke-width="1.45" stroke-miterlimit="10"/>
<path d="M114.226 67.0497L113.21 65.1541" stroke="white" stroke-width="1.45" stroke-miterlimit="10"/>
<path d="M99.0906 78.0778H61.4002C60.7434 78.0778 60.2109 78.6102 60.2109 79.267C60.2109 79.9237 60.7434 80.4562 61.4002 80.4562H99.0906C99.7474 80.4562 100.28 79.9237 100.28 79.267C100.28 78.6102 99.7474 78.0778 99.0906 78.0778Z" fill="#22A5CC"/>
<path opacity="0.31" d="M84.3722 94.1779H60.9479C60.5409 94.1779 60.2109 94.5078 60.2109 94.9148V94.9198C60.2109 95.3268 60.5409 95.6567 60.9479 95.6567H84.3722C84.7792 95.6567 85.1092 95.3268 85.1092 94.9198V94.9148C85.1092 94.5078 84.7792 94.1779 84.3722 94.1779Z" fill="#22A5CC"/>
<path opacity="0.31" d="M84.3722 97.7913H60.9479C60.5409 97.7913 60.2109 98.1212 60.2109 98.5282V98.5333C60.2109 98.9402 60.5409 99.2702 60.9479 99.2702H84.3722C84.7792 99.2702 85.1092 98.9402 85.1092 98.5333V98.5282C85.1092 98.1212 84.7792 97.7913 84.3722 97.7913Z" fill="#22A5CC"/>
<path d="M99.0906 90.5085H61.4002C60.7434 90.5085 60.2109 91.041 60.2109 91.6978C60.2109 92.3545 60.7434 92.887 61.4002 92.887H99.0906C99.7474 92.887 100.28 92.3545 100.28 91.6978C100.28 91.041 99.7474 90.5085 99.0906 90.5085Z" fill="#22A5CC"/>
<path opacity="0.31" d="M84.3722 106.609H60.9479C60.5409 106.609 60.2109 106.939 60.2109 107.346V107.351C60.2109 107.758 60.5409 108.088 60.9479 108.088H84.3722C84.7792 108.088 85.1092 107.758 85.1092 107.351V107.346C85.1092 106.939 84.7792 106.609 84.3722 106.609Z" fill="#22A5CC"/>
<path opacity="0.31" d="M84.3722 110.227H60.9479C60.5409 110.227 60.2109 110.557 60.2109 110.964V110.969C60.2109 111.376 60.5409 111.706 60.9479 111.706H84.3722C84.7792 111.706 85.1092 111.376 85.1092 110.969V110.964C85.1092 110.557 84.7792 110.227 84.3722 110.227Z" fill="#22A5CC"/>
<path d="M99.0906 102.944H61.4002C60.7434 102.944 60.2109 103.477 60.2109 104.134C60.2109 104.79 60.7434 105.323 61.4002 105.323H99.0906C99.7474 105.323 100.28 104.79 100.28 104.134C100.28 103.477 99.7474 102.944 99.0906 102.944Z" fill="#22A5CC"/>
<g opacity="0.41">
<path opacity="0.41" d="M105.134 43.4078C107.879 43.4046 110.607 43.8316 113.22 44.6732V40.9582C108.76 39.7116 104.071 39.514 99.5218 40.3808C94.9723 41.2477 90.6851 43.1555 86.9957 45.955C83.3063 48.7544 80.3148 52.3696 78.2553 56.5177C76.1957 60.6657 75.124 65.234 75.124 69.8652C75.124 74.4963 76.1957 79.0647 78.2553 83.2127C80.3148 87.3607 83.3063 90.9759 86.9957 93.7754C90.6851 96.5749 94.9723 98.4827 99.5218 99.3495C104.071 100.216 108.76 100.019 113.22 98.7721V95.0571C109.582 96.2245 105.735 96.5902 101.942 96.1292C98.1495 95.6681 94.5017 94.3912 91.2496 92.3863C87.9975 90.3813 85.2182 87.6959 83.1027 84.5146C80.9873 81.3333 79.586 77.7316 78.9951 73.9572C78.4042 70.1828 78.6377 66.3252 79.6797 62.6496C80.7216 58.9741 82.5473 55.5678 85.031 52.6649C87.5148 49.762 90.5978 47.4315 94.0681 45.8335C97.5384 44.2355 101.314 43.408 105.134 43.4078Z" fill="url(#paint0_linear)"/>
</g>
<path d="M106.735 98.4315C100.797 98.4315 94.9924 96.6704 90.0556 93.371C85.1189 90.0716 81.2716 85.3821 79.0007 79.8958C76.7297 74.4096 76.1371 68.373 77.2978 62.5499C78.4584 56.7267 81.3202 51.3787 85.5211 47.1822C89.722 42.9858 95.0732 40.1296 100.898 38.9749C106.722 37.8202 112.759 38.4189 118.243 40.6954C123.727 42.9718 128.413 46.8236 131.707 51.7636C135.002 56.7035 136.757 62.5095 136.751 68.4472C136.734 76.3995 133.565 84.0206 127.938 89.6408C122.312 95.2611 114.687 98.4222 106.735 98.4315ZM106.735 41.9593C101.503 41.9593 96.3889 43.5103 92.0385 46.4161C87.6881 49.3219 84.2968 53.4522 82.2933 58.2849C80.2899 63.1176 79.7641 68.4357 80.7825 73.5671C81.801 78.6985 84.3179 83.4128 88.0151 87.1141C91.7124 90.8155 96.424 93.3377 101.554 94.362C106.685 95.3863 112.004 94.8667 116.839 92.8689C121.674 90.8711 125.809 87.4847 128.72 83.1378C131.63 78.7909 133.187 73.6787 133.193 68.4472C133.191 61.4297 130.403 54.7002 125.442 49.7366C120.481 44.773 113.753 41.9813 106.735 41.9746V41.9593Z" fill="#22A5CC"/>
<path d="M147.388 112.89C146.984 112.89 146.583 112.81 146.209 112.654C145.836 112.498 145.497 112.269 145.213 111.98L125.545 92.0231C125.262 91.738 125.039 91.4001 124.888 91.0286C124.736 90.6572 124.66 90.2595 124.662 89.8584C124.665 89.4572 124.746 89.0605 124.902 88.691C125.059 88.3215 125.286 87.9864 125.572 87.7049C125.858 87.4234 126.196 87.2011 126.568 87.0507C126.94 86.9003 127.338 86.8247 127.739 86.8284C128.14 86.832 128.537 86.9147 128.906 87.0719C129.275 87.229 129.609 87.4574 129.89 87.7439L149.559 107.701C149.98 108.129 150.266 108.673 150.38 109.263C150.494 109.853 150.431 110.463 150.199 111.017C149.967 111.572 149.577 112.045 149.077 112.378C148.577 112.712 147.989 112.89 147.388 112.89Z" fill="#22A5CC"/>
<path d="M156.811 119.233C156.475 119.565 156.077 119.827 155.64 120.005C155.203 120.183 154.734 120.273 154.262 120.27C153.79 120.266 153.323 120.17 152.888 119.986C152.454 119.802 152.059 119.534 151.728 119.197L128.573 95.6974C128.444 95.5694 128.327 95.43 128.223 95.2807C128.162 95.1994 128.106 95.118 128.055 95.0367C127.89 94.7588 127.815 94.4367 127.841 94.1146C127.866 93.7925 127.991 93.4862 128.197 93.2377C128.647 92.7021 129.138 92.2025 129.666 91.7435C130.272 91.2051 130.929 90.7269 131.628 90.3155C131.913 90.1444 132.245 90.0675 132.576 90.0958C132.907 90.1241 133.221 90.2561 133.473 90.473C133.543 90.528 133.609 90.5874 133.671 90.6509L156.867 114.156C157.197 114.492 157.457 114.891 157.633 115.329C157.809 115.766 157.896 116.234 157.891 116.706C157.886 117.177 157.788 117.643 157.603 118.077C157.417 118.51 157.148 118.903 156.811 119.233Z" fill="#473F47"/>
<path opacity="0.18" d="M73.5417 37.6447V47.9918C73.5417 49.3483 73.0042 50.6495 72.0469 51.6106C71.0896 52.5716 69.7905 53.1143 68.434 53.1196H50.1885V32.5168H68.434C69.7905 32.5222 71.0896 33.0648 72.0469 34.0259C73.0042 34.987 73.5417 36.2882 73.5417 37.6447Z" fill="#22A5CC"/>
<path d="M67.5294 29.798H33.5695C30.7373 29.798 28.4414 32.0938 28.4414 34.9258V45.2729C28.4414 48.105 30.7373 50.4008 33.5695 50.4008H67.5294C70.3616 50.4008 72.6575 48.105 72.6575 45.2729V34.9258C72.6575 32.0938 70.3616 29.798 67.5294 29.798Z" fill="white"/>
<path d="M71.1079 34.1126C73.1485 34.1126 74.8028 32.4585 74.8028 30.4179C74.8028 28.3774 73.1485 26.7233 71.1079 26.7233C69.0673 26.7233 67.4131 28.3774 67.4131 30.4179C67.4131 32.4585 69.0673 34.1126 71.1079 34.1126Z" fill="#22A5CC"/>
<path d="M62.1981 36.3792H38.1893C37.6279 36.3792 37.1729 36.8342 37.1729 37.3956V37.4006C37.1729 37.962 37.6279 38.4171 38.1893 38.4171H62.1981C62.7595 38.4171 63.2146 37.962 63.2146 37.4006V37.3956C63.2146 36.8342 62.7595 36.3792 62.1981 36.3792Z" fill="#22A5CC"/>
<path d="M62.1981 41.8018H38.1893C37.6279 41.8018 37.1729 42.2568 37.1729 42.8182V42.8233C37.1729 43.3846 37.6279 43.8397 38.1893 43.8397H62.1981C62.7595 43.8397 63.2146 43.3846 63.2146 42.8233V42.8182C63.2146 42.2568 62.7595 41.8018 62.1981 41.8018Z" fill="#22A5CC"/>
<path d="M154.468 135.241C154.685 135.513 154.816 135.844 154.843 136.191C154.871 136.538 154.793 136.885 154.62 137.188C154.44 137.476 154.172 137.7 153.856 137.827C153.54 137.954 153.192 137.977 152.862 137.894C152.746 137.865 152.638 137.809 152.547 137.731C152.359 137.548 152.328 137.223 152.151 137.04C151.965 136.888 151.742 136.79 151.505 136.756C151.085 136.602 150.69 136.388 150.331 136.12C150.273 136.087 150.223 136.042 150.184 135.988C150.147 135.921 150.128 135.846 150.128 135.77C150.041 135.379 150.101 134.971 150.295 134.621C150.402 134.49 150.533 134.382 150.682 134.301C150.962 134.128 151.283 134.031 151.612 134.021C151.868 134.039 152.121 134.097 152.359 134.194C153.034 134.388 153.668 134.705 154.229 135.129" fill="#22A5CC"/>
<path d="M153.151 132.126L154.285 136.029C154.285 136.029 154.071 137.01 152.872 136.598C151.672 136.186 150.666 133.112 150.666 133.112L153.151 132.126Z" fill="#FCBDBA"/>
<path d="M141.187 140.288C140.878 140.235 140.565 140.213 140.252 140.222C140.095 140.228 139.941 140.267 139.8 140.335C139.658 140.403 139.532 140.5 139.429 140.618C139.28 140.858 139.221 141.142 139.262 141.421C139.303 141.7 139.441 141.956 139.652 142.143C140.079 142.495 140.601 142.711 141.152 142.763C141.486 142.839 141.833 142.839 142.168 142.763C142.59 142.641 142.991 142.29 143.413 142.422C143.597 142.499 143.769 142.604 143.921 142.732C144.209 142.941 144.566 143.032 144.919 142.988C145.272 142.943 145.595 142.767 145.822 142.493C145.944 142.311 146.032 142.108 146.081 141.894C146.259 141.218 146.178 140.369 145.619 139.978C144.958 139.505 144.445 139.83 143.81 140.049C142.962 140.313 142.068 140.394 141.187 140.288Z" fill="#22A5CC"/>
<path d="M141.736 136.502L143.393 140.567C143.393 140.567 144.344 141.142 145.019 140.887L145.685 140.613L145.101 134.936L141.736 136.502Z" fill="#FCBDBA"/>
<path d="M129.423 95.1739C129.311 95.0265 129.163 94.8639 128.986 94.8893C128.808 94.9147 128.777 94.9858 128.67 94.9554C128.604 94.9318 128.547 94.8872 128.508 94.8283C128.255 94.56 127.974 94.3197 127.669 94.1117C127.484 93.9487 127.26 93.835 127.019 93.7814C126.843 93.7726 126.668 93.8161 126.517 93.9066C126.366 93.9971 126.245 94.1304 126.17 94.2896C126.018 94.606 125.981 94.965 126.063 95.306C126.153 95.647 126.29 95.9737 126.47 96.2767C126.579 96.5038 126.717 96.7157 126.881 96.9069C127.39 97.4608 128.233 97.5523 128.914 97.8928C128.987 97.9371 129.069 97.9649 129.153 97.9741C129.226 97.9622 129.294 97.9334 129.353 97.8902C129.412 97.8469 129.46 97.7904 129.494 97.7251C129.757 97.3496 129.916 96.9114 129.956 96.4546C129.92 95.9816 129.733 95.5328 129.423 95.1739Z" fill="#FCBDBA"/>
<path d="M136.029 90.7678C135.947 90.7452 135.86 90.7543 135.785 90.7932C135.743 90.827 135.705 90.8664 135.673 90.9101C135.531 91.0626 135.297 91.0677 135.104 91.154C134.98 91.2166 134.871 91.3046 134.783 91.4123C134.696 91.52 134.632 91.645 134.596 91.7792C134.528 92.0464 134.499 92.3219 134.509 92.5974C134.496 92.743 134.512 92.8897 134.555 93.0293C134.578 93.0973 134.62 93.1574 134.676 93.2024C134.731 93.2474 134.799 93.2755 134.87 93.2834C134.986 93.2625 135.095 93.2156 135.19 93.1462C135.384 93.0399 135.609 93.004 135.826 93.0446C136.104 93.1347 136.371 93.2593 136.618 93.4156C136.745 93.4903 136.889 93.5297 137.035 93.5297C137.182 93.5297 137.326 93.4903 137.452 93.4156C137.565 93.3144 137.653 93.1894 137.711 93.0497C137.94 92.5415 138.219 91.9774 137.711 91.5657C137.234 91.1506 136.652 90.8746 136.029 90.7678Z" fill="#FCBDBA"/>
<path d="M151.134 109.444C151.015 111.582 150.776 113.712 150.418 115.823C149.96 117.916 149.686 120.295 149.686 120.295L153.919 132.492C153.919 132.492 151.343 134.204 149.686 133.539C148.029 132.873 143.836 123.522 143.836 123.522L142.24 112.885L146.464 108.037L151.134 109.444Z" fill="#473F47"/>
<path d="M139.45 108.596C139.45 108.596 136.431 118.491 136.431 121.062C136.431 123.634 140.049 136.309 140.049 136.309C140.049 136.309 143.978 137.64 144.898 136.309L145.818 134.977L143.607 122.221C143.607 122.221 146.738 115.563 147.292 113.851C147.627 112.795 147.867 111.712 148.008 110.613L139.45 108.596Z" fill="#473F47"/>
<path d="M140.72 81.4929C140.367 82.1982 140.142 82.9604 140.055 83.7443C140.015 84.1321 140.077 84.5236 140.235 84.8801C140.392 85.2366 140.64 85.5458 140.954 85.7771C141.146 85.8687 141.326 85.9849 141.488 86.1227C142.057 86.702 141.407 87.754 141.732 88.5062C141.863 88.7479 142.078 88.9332 142.337 89.0268C142.595 89.1205 142.879 89.1161 143.135 89.0144C143.385 88.8965 143.606 88.7246 143.781 88.5111C143.957 88.2975 144.083 88.0476 144.151 87.7794C144.297 87.2346 144.362 86.6712 144.344 86.1074L144.4 82.7482C144.48 82.0008 144.363 81.2456 144.06 80.5578C143.858 80.2028 143.56 79.9116 143.2 79.7175C142.841 79.5234 142.434 79.4342 142.027 79.4601C141.244 79.6278 141.005 80.8373 140.72 81.4929Z" fill="#FCBDBA"/>
<path d="M129 98.2638C129 98.2638 135.444 104.022 135.902 104.022C136.359 104.022 139.221 100.403 139.221 100.403L139.449 108.591C140.245 109.06 141.074 109.471 141.929 109.82C143.322 110.39 145.086 110.918 146.626 110.776C149.756 110.491 151.134 109.444 151.134 109.444L149.207 90.163C149.207 90.163 145.558 87.5355 144.313 87.937C143.421 88.0962 142.507 88.0962 141.614 87.937C139.815 87.7032 137.975 90.163 137.975 90.163L135.582 98.025L129.966 96.0328C129.599 96.2643 129.31 96.6011 129.138 96.9991C128.966 97.3972 128.918 97.838 129 98.2638Z" fill="#22A5CC"/>
<path d="M141.264 77.8491C141.94 77.2342 143.469 76.98 144.217 76.8987C144.791 76.817 145.376 76.8591 145.932 77.0221C146.489 77.1851 147.004 77.4654 147.444 77.844C148.664 79.0027 148.791 80.8933 148.775 82.6313C148.76 84.3694 148.735 86.2345 149.751 87.5559C150.625 88.6841 152.053 89.1517 153.166 90.0207C153.716 90.4282 154.172 90.948 154.505 91.5457C154.838 92.1433 155.04 92.805 155.098 93.4867C155.357 98.7111 147.378 96.4699 144.74 95.3061C144.273 95.126 143.844 94.8606 143.474 94.5234C143.084 94.1019 142.797 93.5957 142.636 93.0445C142.017 91.1774 142.122 89.1458 142.931 87.3526C143.053 87.0883 143.185 86.758 143.017 86.5242C142.925 86.4207 142.81 86.3406 142.682 86.2904C142.344 86.1505 142.054 85.9165 141.846 85.6165C141.638 85.3165 141.521 84.963 141.508 84.5981C141.617 84.0628 141.858 83.5632 142.209 83.1446C142.381 82.9351 142.5 82.6868 142.555 82.4212C142.61 82.1556 142.599 81.8806 142.524 81.62C142.341 81.2083 141.904 81.0051 141.579 80.7052C141.01 80.197 140.598 78.8299 141.071 78.0981C141.125 78.0076 141.189 77.9239 141.264 77.8491Z" fill="#F6A569"/>
<defs>
<linearGradient id="paint0_linear" x1="68.8413" y1="183.923" x2="154.471" y2="-159.141" gradientUnits="userSpaceOnUse">
<stop offset="0.01"/>
<stop offset="0.08" stop-opacity="0.69"/>
<stop offset="0.21" stop-opacity="0.32"/>
<stop offset="1" stop-opacity="0"/>
</linearGradient>
</defs>
</svg>
