<svg width="51" height="169" viewBox="0 0 51 169" fill="none" xmlns="http://www.w3.org/2000/svg">
<path opacity="0.5" d="M48.9001 3.56C49.8832 3.56 50.6801 2.76307 50.6801 1.78C50.6801 0.796933 49.8832 0 48.9001 0C47.9171 0 47.1201 0.796933 47.1201 1.78C47.1201 2.76307 47.9171 3.56 48.9001 3.56Z" fill="black"/>
<path opacity="0.5" d="M48.9001 27.1201C49.8832 27.1201 50.6801 26.3231 50.6801 25.3401C50.6801 24.357 49.8832 23.5601 48.9001 23.5601C47.9171 23.5601 47.1201 24.357 47.1201 25.3401C47.1201 26.3231 47.9171 27.1201 48.9001 27.1201Z" fill="black"/>
<path opacity="0.5" d="M48.9001 50.68C49.8832 50.68 50.6801 49.8831 50.6801 48.9C50.6801 47.9169 49.8832 47.12 48.9001 47.12C47.9171 47.12 47.1201 47.9169 47.1201 48.9C47.1201 49.8831 47.9171 50.68 48.9001 50.68Z" fill="black"/>
<path opacity="0.5" d="M48.9001 74.2399C49.8832 74.2399 50.6801 73.443 50.6801 72.4599C50.6801 71.4769 49.8832 70.6799 48.9001 70.6799C47.9171 70.6799 47.1201 71.4769 47.1201 72.4599C47.1201 73.443 47.9171 74.2399 48.9001 74.2399Z" fill="black"/>
<path opacity="0.5" d="M48.9001 97.8C49.8832 97.8 50.6801 97.0031 50.6801 96.02C50.6801 95.0369 49.8832 94.24 48.9001 94.24C47.9171 94.24 47.1201 95.0369 47.1201 96.02C47.1201 97.0031 47.9171 97.8 48.9001 97.8Z" fill="black"/>
<path opacity="0.5" d="M48.9001 121.36C49.8832 121.36 50.6801 120.563 50.6801 119.58C50.6801 118.597 49.8832 117.8 48.9001 117.8C47.9171 117.8 47.1201 118.597 47.1201 119.58C47.1201 120.563 47.9171 121.36 48.9001 121.36Z" fill="black"/>
<path opacity="0.5" d="M48.9001 144.92C49.8832 144.92 50.6801 144.123 50.6801 143.14C50.6801 142.157 49.8832 141.36 48.9001 141.36C47.9171 141.36 47.1201 142.157 47.1201 143.14C47.1201 144.123 47.9171 144.92 48.9001 144.92Z" fill="black"/>
<path opacity="0.5" d="M48.9001 168.48C47.9201 168.48 47.1201 167.68 47.1201 166.7C47.1201 165.72 47.9201 164.92 48.9001 164.92C49.8801 164.92 50.6801 165.72 50.6801 166.7C50.6801 167.68 49.8801 168.48 48.9001 168.48Z" fill="black"/>
<path opacity="0.5" d="M25.3396 3.55C24.3596 3.55 23.5596 2.75 23.5596 1.77C23.5596 0.8 24.3596 0 25.3396 0C26.3196 0 27.1196 0.8 27.1196 1.78C27.1096 2.76 26.3196 3.55 25.3396 3.55Z" fill="black"/>
<path opacity="0.5" d="M25.3396 27.11C24.3596 27.11 23.5596 26.31 23.5596 25.33C23.5596 24.35 24.3596 23.55 25.3396 23.55C26.3196 23.55 27.1196 24.35 27.1196 25.33C27.1096 26.31 26.3196 27.11 25.3396 27.11Z" fill="black"/>
<path opacity="0.5" d="M25.3396 50.67C24.3596 50.67 23.5596 49.87 23.5596 48.89C23.5596 47.91 24.3596 47.11 25.3396 47.11C26.3196 47.11 27.1196 47.91 27.1196 48.89C27.1096 49.88 26.3196 50.67 25.3396 50.67Z" fill="black"/>
<path opacity="0.5" d="M25.3396 74.2299C24.3596 74.2299 23.5596 73.4299 23.5596 72.4499C23.5596 71.4699 24.3596 70.6699 25.3396 70.6699C26.3196 70.6699 27.1196 71.4699 27.1196 72.4499C27.1096 73.4299 26.3196 74.2299 25.3396 74.2299Z" fill="black"/>
<path opacity="0.5" d="M25.3396 97.79C24.3596 97.79 23.5596 96.99 23.5596 96.01C23.5596 95.03 24.3596 94.23 25.3396 94.23C26.3196 94.23 27.1196 95.03 27.1196 96.01C27.1096 97 26.3196 97.79 25.3396 97.79Z" fill="black"/>
<path opacity="0.5" d="M25.3396 121.35C24.3596 121.35 23.5596 120.55 23.5596 119.57C23.5596 118.59 24.3596 117.79 25.3396 117.79C26.3196 117.79 27.1196 118.59 27.1196 119.57C27.1096 120.55 26.3196 121.35 25.3396 121.35Z" fill="black"/>
<path opacity="0.5" d="M25.3396 144.91C24.3596 144.91 23.5596 144.11 23.5596 143.13C23.5596 142.15 24.3596 141.35 25.3396 141.35C26.3196 141.35 27.1196 142.15 27.1196 143.13C27.1196 144.11 26.3196 144.91 25.3396 144.91Z" fill="black"/>
<path opacity="0.5" d="M25.3396 168.47C24.3596 168.47 23.5596 167.67 23.5596 166.69C23.5596 165.71 24.3596 164.91 25.3396 164.91C26.3196 164.91 27.1196 165.71 27.1196 166.69C27.1096 167.67 26.3196 168.47 25.3396 168.47Z" fill="black"/>
<path opacity="0.5" d="M1.78 3.56C2.76307 3.56 3.56 2.76307 3.56 1.78C3.56 0.796933 2.76307 0 1.78 0C0.796932 0 0 0.796933 0 1.78C0 2.76307 0.796932 3.56 1.78 3.56Z" fill="black"/>
<path opacity="0.5" d="M1.78 27.1201C2.76307 27.1201 3.56 26.3231 3.56 25.3401C3.56 24.357 2.76307 23.5601 1.78 23.5601C0.796932 23.5601 0 24.357 0 25.3401C0 26.3231 0.796932 27.1201 1.78 27.1201Z" fill="black"/>
<path opacity="0.5" d="M1.78 50.68C2.76307 50.68 3.56 49.8831 3.56 48.9C3.56 47.9169 2.76307 47.12 1.78 47.12C0.796932 47.12 0 47.9169 0 48.9C0 49.8831 0.796932 50.68 1.78 50.68Z" fill="black"/>
<path opacity="0.5" d="M1.78 74.2399C2.76307 74.2399 3.56 73.443 3.56 72.4599C3.56 71.4769 2.76307 70.6799 1.78 70.6799C0.796932 70.6799 0 71.4769 0 72.4599C0 73.443 0.796932 74.2399 1.78 74.2399Z" fill="black"/>
<path opacity="0.5" d="M1.78 97.8C2.76307 97.8 3.56 97.0031 3.56 96.02C3.56 95.0369 2.76307 94.24 1.78 94.24C0.796932 94.24 0 95.0369 0 96.02C0 97.0031 0.796932 97.8 1.78 97.8Z" fill="black"/>
<path opacity="0.5" d="M1.78 121.36C2.76307 121.36 3.56 120.563 3.56 119.58C3.56 118.597 2.76307 117.8 1.78 117.8C0.796932 117.8 0 118.597 0 119.58C0 120.563 0.796932 121.36 1.78 121.36Z" fill="black"/>
<path opacity="0.5" d="M1.78 144.92C2.76307 144.92 3.56 144.123 3.56 143.14C3.56 142.157 2.76307 141.36 1.78 141.36C0.796932 141.36 0 142.157 0 143.14C0 144.123 0.796932 144.92 1.78 144.92Z" fill="black"/>
<path opacity="0.5" d="M1.78 168.48C0.799999 168.48 0 167.68 0 166.7C0 165.72 0.799999 164.92 1.78 164.92C2.76 164.92 3.56 165.72 3.56 166.7C3.56 167.68 2.76 168.48 1.78 168.48Z" fill="black"/>
</svg>
