<svg width="140" height="125" viewBox="0 0 140 125" fill="none" xmlns="http://www.w3.org/2000/svg">
<g clip-path="url(#clip0)">
<path d="M107.516 82.6093C109.149 83.9796 110.793 85.3373 112.411 86.7295C113.42 87.5992 114.41 88.497 115.372 89.4168C116.253 90.2615 116.616 91.3032 116.2 92.6797C116.297 92.5922 116.234 92.6672 116.159 92.7142C114.107 94.0281 114.27 94.075 112.426 92.9081C110.843 91.9008 109.353 90.7432 107.806 89.6733C107.422 89.4074 106.957 89.2635 106.557 89.0195C103.689 87.2769 100.746 85.6439 97.9972 83.7293C96.0198 82.3528 93.8893 81.2422 91.9181 79.8625C90.4593 78.8427 88.8255 78.0699 87.2542 77.2159C86.9355 77.0438 86.5388 77.0063 86.1796 76.9093C86.1296 77.0094 86.0827 77.1064 86.0327 77.2065C86.2358 77.4161 86.4076 77.6757 86.645 77.8322C89.4815 79.6592 92.3461 81.4424 95.167 83.2944C97.0038 84.502 98.7907 85.7815 100.568 87.0705C101.558 87.7869 101.712 89.5607 100.887 90.4805C100.734 90.6494 100.409 90.6807 100.156 90.7339C98.9969 90.9779 98.0003 90.4867 97.085 89.9048C95.1482 88.6691 93.1552 87.5522 91.1091 86.5073C89.6065 85.7409 88.182 84.8086 86.7544 83.9013C86.1233 83.4978 85.3798 83.4571 84.7426 82.9221C83.7867 82.1181 82.5246 81.6895 81.4156 81.0576C80.9783 80.8104 80.6659 80.8323 80.2473 81.1139C74.9867 84.6522 69.7104 88.1748 64.4373 91.6912C64.0031 91.979 63.5252 92.2042 63.0784 92.4733C62.4787 92.8362 61.8976 93.1615 61.8133 94.025C61.7727 94.4192 61.3697 94.8665 61.0136 95.1231C57.7678 97.4475 54.5096 99.7563 51.2233 102.028C47.7808 104.408 44.2727 106.711 41.2175 109.592C39.8367 110.894 38.6091 112.355 37.3033 113.734C37.1096 113.937 36.8753 114.1 36.6598 114.285C35.4321 112.727 35.532 111.003 37.0377 108.613C35.8632 108.995 35.0353 109.68 34.2169 110.327C30.8525 112.977 27.5068 115.646 24.1923 118.358C22.671 119.603 21.2871 121.023 19.7502 122.25C18.6787 123.104 17.4604 123.78 16.2889 124.502C15.9796 124.693 15.6016 124.803 15.2393 124.865C13.5805 125.153 13.4743 125.081 12.7902 123.532C12.6964 123.32 12.5527 123.126 12.4434 122.941C12.7808 121.073 14.374 120.282 15.5892 119.193C16.7825 118.126 18.0445 117.141 19.3066 116.156C20.2063 115.452 21.1622 114.82 22.0775 114.138C22.4929 113.831 22.874 113.481 23.3208 113.108C22.7491 112.758 22.3055 112.426 21.8151 112.198C21.0653 111.851 20.9154 111.244 20.931 110.518C20.9341 110.343 20.8998 110.158 20.8404 109.993C20.4749 109.007 20.1625 108.025 20.5717 106.97C20.6092 106.873 20.5218 106.726 20.4968 106.62C19.8783 106.927 19.3222 107.28 18.7162 107.49C17.3354 107.962 16.6013 107.571 16.0765 106.016C15.6298 106.288 15.208 106.52 14.8144 106.789C14.3552 107.102 13.871 107.402 13.4805 107.79C12.4621 108.801 11.1282 108.597 9.90057 108.766C9.60691 108.807 9.07899 108.563 8.9759 108.316C8.57292 107.352 8.20117 106.348 8.02311 105.325C7.95126 104.909 8.33238 104.349 8.63227 103.945C9.11335 103.298 9.6569 102.685 10.2504 102.137C12.0311 100.495 13.8554 98.9022 15.6423 97.2692C16.164 96.7905 16.6138 96.2368 17.0761 95.7394C16.8981 95.0855 16.0734 95.4891 15.8078 94.7633C15.4205 93.7153 15.0081 92.6797 15.233 91.5942C15.3674 90.9403 15.8266 90.3084 16.2639 89.7672C19.3347 85.9661 23.0615 82.944 27.3849 80.6822C31.5616 78.4954 35.6976 76.2054 39.9929 74.2751C42.0172 73.3679 43.1106 71.7004 44.5507 70.2989C45.6378 69.2383 46.6718 68.109 47.6589 66.9546C48.4587 66.0192 49.1584 64.9962 49.9425 63.9575C49.8363 63.823 49.7332 63.579 49.5489 63.4726C48.115 62.653 46.6718 61.8521 45.2254 61.0575C42.7951 59.7216 40.3491 58.4108 37.9249 57.0624C35.4196 55.6672 32.8923 54.3219 30.2995 53.0799C27.5568 51.766 24.7859 50.4301 22.4867 48.3435C22.2868 48.162 21.9306 48.1495 21.7276 47.9681C21.384 47.6646 21.0685 47.3768 21.0622 46.7886C21.0497 45.6999 20.8654 44.6113 20.7279 43.291C18.5881 42.1554 16.2983 41.001 14.0678 39.7371C12.4684 38.833 10.9439 37.8006 9.40074 36.8027C7.9044 35.836 6.25499 35.0163 4.99606 33.7962C4.19011 33.0172 3.12799 32.6105 2.4501 31.6908C1.78784 30.7961 0.966262 30.0202 0.275878 29.1442C0.079085 28.894 0.0166003 28.4747 0.0228564 28.1369C0.0322254 27.4455 0.129058 26.7541 0.204024 25.9094C1.34112 24.6111 2.92493 24.9146 4.41189 25.4339C6.10504 26.0283 7.72322 26.8417 9.36639 27.58C11.1751 28.3903 12.9901 29.1849 14.7707 30.0515C17.6228 31.4374 20.4468 32.8859 23.2927 34.2874C24.2236 34.7473 25.1857 35.1383 26.1354 35.5607C26.5071 34.4814 27.4912 33.9808 28.7064 34.3281C29.8434 34.6534 30.9587 35.0507 32.0801 35.4168C32.1957 35.0069 32.3207 34.5502 32.4706 34.009C31.1711 33.158 29.8653 32.2664 28.522 31.4249C26.6133 30.2298 24.6765 29.0723 22.7553 27.8929C21.4652 27.0982 20.1407 26.3537 18.9098 25.4746C17.6634 24.583 16.517 23.5475 15.3236 22.5808C14.777 22.1365 14.2209 21.7017 13.6711 21.2574C12.887 20.6255 12.6027 19.9028 12.6433 18.811C12.6871 17.6816 12.8683 16.9058 13.9241 16.4271C14.1147 16.3395 14.2147 16.0548 14.3052 15.9297C16.0078 16.0423 17.3385 16.668 18.6724 17.4345C22.6335 19.7026 26.6602 21.8518 30.6369 24.0918C32.7018 25.2556 34.6948 26.5476 36.7566 27.7145C39.9305 29.5134 43.1606 31.2153 46.3251 33.0329C50.0831 35.1884 53.7974 37.419 57.5336 39.612C60.6949 41.4672 63.8594 43.3192 67.0989 45.215C67.4206 44.9804 67.7986 44.7739 68.0954 44.483C70.4321 42.1773 72.7375 39.8404 75.0804 37.541C77.8607 34.8098 80.6347 32.0725 83.4712 29.4039C85.8672 27.1483 88.3444 24.9772 90.8029 22.7904C92.9646 20.8664 95.142 18.9612 97.3287 17.0622C99.5186 15.1601 101.708 13.258 103.933 11.3935C106.853 8.94702 109.821 6.56315 112.729 4.10732C113.489 3.46599 114.088 2.64008 114.788 1.92367C115.291 1.41373 115.819 0.925698 116.372 0.475202C117.106 -0.12233 117.737 -0.144229 118.537 0.315652C119.708 0.991395 119.989 2.07071 119.258 3.43784C118.837 4.23246 118.299 4.96452 117.803 5.71847C116.731 7.34839 115.7 9.00646 114.557 10.5863C113.479 12.0755 112.283 13.4801 111.143 14.9223C110.23 16.0736 109.353 17.2562 108.403 18.373C106.55 20.5504 104.664 22.6997 102.783 24.8489C102.286 25.4183 101.752 25.9532 101.162 26.5852C101.627 27.189 102.074 27.7677 102.449 28.2558C105.082 26.7009 107.753 25.1117 110.437 23.5475C112.12 22.5651 113.823 21.6172 115.516 20.6536C116.931 19.8528 118.824 20.5191 119.386 22.0395C119.474 22.2742 119.446 22.5683 119.405 22.8248C119.327 23.3191 119.202 23.804 119.065 24.4391C120.024 24.0073 120.855 23.6726 121.648 23.2659C123.932 22.0959 126.168 20.8351 128.48 19.7276C130.657 18.6827 132.757 17.4908 135.078 16.7212C135.981 16.4209 136.796 15.9891 137.771 16.1143C138.842 16.2519 139.529 17.3281 139.579 18.4106C139.654 20.0405 138.505 20.8883 137.599 21.8644C136.699 22.8373 135.687 23.7446 134.606 24.5048C133.953 24.9646 133.603 25.4965 133.453 26.1972C133.1 27.8397 132.044 29.0473 130.992 30.2423C128.817 32.7169 126.209 34.716 123.676 36.7901C122.145 38.0447 120.586 39.2647 119.002 40.4504C117.909 41.2701 116.747 41.9927 115.628 42.778C115.288 43.0189 114.994 43.3255 114.582 43.6884C114.919 43.9418 115.266 44.0825 115.404 44.3328C115.594 44.6801 115.816 45.1931 115.691 45.4966C115.272 46.5227 114.913 47.5551 113.982 48.3529C111.214 50.718 108.515 53.1613 105.588 55.3324C103.264 57.0562 100.999 58.8582 98.7126 60.6351C98.5002 60.8009 98.3408 61.0324 98.0691 61.3265C99.8184 62.2338 101.437 63.1191 103.105 63.9043C103.392 64.0389 103.911 63.8199 104.267 63.6509C106.81 62.4309 109.299 61.095 111.883 59.9688C114.332 58.902 116.831 57.8696 119.611 58.1324C119.755 58.1449 119.899 58.1449 120.042 58.1574C123.248 58.4108 124.884 60.1002 125.044 63.3193C125.063 63.726 125.047 64.1327 124.797 64.577C124.7 64.1859 124.585 63.798 124.506 63.4038C123.966 60.6977 122.37 59.5339 119.458 59.6153C117.746 59.6653 116.144 60.1377 114.641 60.8604C111.886 62.1868 109.193 63.6384 106.475 65.04C106.357 65.0994 106.269 65.2183 106.085 65.3841C106.938 65.8753 107.719 66.3758 108.543 66.7919C112.817 68.9443 116.984 71.2843 120.952 73.9623C122.807 75.2137 124.725 76.4119 126.168 78.1732C127.096 79.3057 127.052 79.7906 125.922 80.8511C126.912 81.6176 127.918 82.3371 128.858 83.1349C130.158 84.2392 131.591 85.2591 132.638 86.5762C133.994 88.2843 135.646 89.592 137.311 90.9247C138.127 91.5785 138.904 92.2981 139.601 93.0739C140.263 93.8122 140.098 95.073 139.348 96.0991C138.861 96.7624 138.261 96.8124 137.171 96.5152C135.599 96.0866 134.266 95.22 132.863 94.4504C130.607 93.2116 128.321 92.0197 126.015 90.8746C123.85 89.7985 121.67 88.7379 119.443 87.7963C117.85 87.1236 116.334 86.279 114.772 85.5938C112.698 84.6866 110.696 83.6198 108.593 82.7876C108.259 82.6562 107.866 82.675 107.5 82.6249C107.375 81.824 107.375 81.8241 106.338 82.018C106.81 82.2683 107.163 82.4404 107.516 82.6093ZM75.3709 44.6676C74.7868 44.6394 74.7868 44.6394 74.5181 45.5529C74.8805 45.1525 75.1116 44.8928 75.3459 44.6363C75.7458 44.2609 76.1456 43.8855 76.5455 43.51C77.4452 43.0783 78.0981 42.3619 78.8072 41.6736C81.6312 38.9363 84.5208 36.2614 87.3885 33.5647C88.9504 32.0944 90.5218 30.6334 92.0743 29.1536C93.1271 28.1494 94.1736 27.1327 95.1888 26.0909C96.0417 25.218 96.8445 24.2952 97.6723 23.3973C96.8539 23.7946 96.2104 24.3702 95.5731 24.9521C93.0115 27.2891 90.4249 29.601 87.8977 31.9755C84.8925 34.7973 81.9186 37.6599 78.9665 40.538C78.0575 41.4234 77.2609 42.4245 76.4112 43.3724C75.9457 43.7134 75.2116 43.8354 75.3709 44.6676ZM111.902 71.3281C112.22 71.6441 112.498 72.0227 112.864 72.2635C115.329 73.8653 117.821 75.4264 120.286 77.025C121.426 77.7633 122.513 78.5799 123.657 79.3182C124.007 79.5434 124.453 79.6185 124.853 79.7624C124.9 79.6748 124.95 79.5872 124.997 79.4996C124.785 79.265 124.603 78.9834 124.353 78.7989C123.401 78.0918 122.445 77.3785 121.451 76.731C118.381 74.7225 115.244 72.8235 111.861 71.3657C111.361 70.8432 110.824 70.4084 109.977 70.6649C110.621 70.8839 111.261 71.106 111.902 71.3281ZM28.144 105.882C28.3971 105.916 28.5658 105.994 28.6657 105.944C31.1586 104.655 33.514 103.141 35.6851 101.364C37.0159 100.272 38.2498 99.0618 39.5275 97.9042C39.112 97.7666 38.8121 97.8417 38.5341 97.9668C36.5223 98.8991 34.4949 99.8063 32.5144 100.807C31.8177 101.158 31.1617 101.68 30.64 102.259C29.9497 103.026 29.3998 103.917 28.8094 104.768C28.5783 105.103 28.3908 105.469 28.144 105.882ZM70.4414 79.0335C70.3977 78.9678 70.354 78.9021 70.3102 78.8364C70.1447 78.8771 69.9447 78.8708 69.8198 78.9647C68.892 79.6748 67.9798 80.4069 67.0614 81.1327C65.7587 82.1588 64.4061 83.0598 62.6505 83.1098C62.3037 83.1192 61.8851 83.3163 61.6321 83.5603C60.6199 84.5427 59.6609 85.5751 58.6831 86.5918C58.7487 86.6982 58.8143 86.8077 58.8799 86.914C60.5231 86.3384 62.1725 85.7659 63.8126 85.1746C64.0312 85.0964 64.2374 84.9462 64.4123 84.7898C65.6431 83.6605 66.874 82.5342 68.0829 81.3829C68.8889 80.6196 69.6573 79.8187 70.4414 79.0335ZM55.9497 75.6923C54.8376 75.6454 54.3191 76.2711 54.0036 77.1377C54.6533 76.6559 55.3 76.1741 55.9497 75.6923ZM71.01 78.0981C71.8815 78.0074 72.3533 77.4661 72.7656 76.8592C72.7031 76.7873 72.6375 76.7184 72.575 76.6465C72.0534 77.1314 71.5317 77.6132 71.01 78.0981ZM82.2122 74.4472C82.1466 74.5442 82.081 74.638 82.0186 74.735C82.3278 75.1824 82.6871 75.5171 83.5836 75.295C82.9838 74.9227 82.5996 74.685 82.2122 74.4472ZM73.2498 46.6792C73.2092 46.5916 73.1873 46.5227 73.1717 46.5227C73.128 46.5259 73.078 46.5478 73.0468 46.579C72.8437 46.7699 72.6407 46.9607 72.4563 47.1672C72.4376 47.1891 72.5251 47.3111 72.6438 47.5395C72.8812 47.2016 73.0718 46.9294 73.2498 46.6792ZM76.0894 80.0659C77.0235 79.5309 77.0235 79.5309 77.1109 78.8082C76.7673 79.2306 76.5268 79.5278 76.0894 80.0659Z" fill="#0CA0F3"/>
</g>
<defs>
<clipPath id="clip0">
<rect width="125" height="140" fill="white" transform="translate(140) rotate(90)"/>
</clipPath>
</defs>
</svg>
