<svg width="1600" height="915" viewBox="0 0 1600 915" fill="none" xmlns="http://www.w3.org/2000/svg">
<path d="M972.053 192.824L1600 0V704H365L1 915V704V192.824H972.053Z" fill="url(#paint0_linear)"/>
<g opacity="0.4">
<path opacity="0.4" d="M236.76 492.53H247.113C247.113 492.53 245.891 489.894 246.014 486.722C246.069 485.446 246.591 484.567 247.195 483.976C247.868 483.304 249.007 483.757 249.076 484.704C249.145 485.583 249.392 486.709 250.023 487.931C251.479 490.732 254.28 492.517 254.28 492.517V505.642C254.28 505.642 242.431 505.945 240.811 505.258C239.19 504.572 239.273 502.347 239.698 501.578C237.131 500.384 237.982 498.668 237.982 496.965C234.989 495.853 236.76 492.53 236.76 492.53Z" fill="#EFF0F0"/>
<path opacity="0.4" d="M255.79 492.53H260.747V505.656H255.79V492.53Z" fill="#EFF0F0"/>
</g>
<path opacity="0.4" d="M340.752 279.605L356.5 245.485L342.701 239.485L344.212 221.732L351.379 221.719L343.031 207L330.66 220.085L337.69 221.623L333.845 244.716L347.878 249.591L340.752 279.605Z" fill="#EFF0F0"/>
<path opacity="0.4" d="M266.431 459.413L235.332 403.917L213.392 416.85L190.558 397.134L197.671 387.303L169.195 384.118L174.838 414.077L183.927 405.962L211.758 434.205L232.38 419.802L266.431 459.413Z" fill="#EFF0F0"/>
<path opacity="0.4" d="M168 336.09V331.834H172.201C172.627 329.747 173.533 327.838 174.796 326.218L171.638 323.06L174.645 320.053L177.899 323.307C179.52 322.195 181.401 321.44 183.419 321.124V316.428H187.675V321.124C189.694 321.44 191.575 322.209 193.195 323.307L196.449 320.053L199.456 323.06L196.298 326.218C197.561 327.838 198.467 329.747 198.879 331.834H203.094V336.09H199.071C198.824 338.342 198.014 340.429 196.806 342.214L199.456 344.863L196.449 347.884L193.881 345.317C192.11 346.69 189.982 347.651 187.675 348.008V351.509H183.419V348.008C181.098 347.637 178.984 346.69 177.199 345.317L174.632 347.884L171.625 344.863L174.275 342.214C173.066 340.429 172.256 338.342 172.009 336.09H168Z" fill="#EFF0F0"/>
<path opacity="0.4" d="M271.168 476.205V474.421H272.925C273.104 473.542 273.488 472.745 274.01 472.073L272.678 470.741L273.941 469.478L275.3 470.837C275.987 470.37 276.77 470.054 277.621 469.917V467.94H279.406V469.917C280.257 470.054 281.04 470.37 281.726 470.837L283.085 469.478L284.349 470.741L283.017 472.073C283.538 472.745 283.923 473.556 284.101 474.421H285.873V476.205H284.184C284.074 477.153 283.744 478.018 283.236 478.773L284.349 479.885L283.085 481.148L282.014 480.077C281.273 480.654 280.381 481.052 279.406 481.203V482.672H277.621V481.203C276.646 481.052 275.754 480.654 275.012 480.077L273.941 481.148L272.678 479.885L273.79 478.773C273.282 478.032 272.939 477.153 272.843 476.205H271.168Z" fill="#EFF0F0"/>
<path opacity="0.4" d="M409.182 360.612V358.305H411.448C411.681 357.179 412.162 356.15 412.848 355.271L411.146 353.568L412.766 351.948L414.523 353.706C415.402 353.115 416.418 352.703 417.503 352.525V349.985H419.796V352.525C420.894 352.703 421.896 353.102 422.775 353.706L424.532 351.948L426.153 353.568L424.45 355.271C425.123 356.15 425.617 357.179 425.851 358.305H428.116V360.612H425.947C425.809 361.82 425.384 362.946 424.725 363.907L426.153 365.335L424.532 366.969L423.146 365.582C422.185 366.324 421.045 366.845 419.796 367.038V368.932H417.503V367.038C416.253 366.845 415.1 366.324 414.153 365.582L412.766 366.969L411.146 365.335L412.574 363.907C411.915 362.946 411.489 361.82 411.352 360.612H409.182Z" fill="#EFF0F0"/>
<path opacity="0.4" d="M373.017 268.881V263.664H377.878C378.372 261.055 379.429 259.188 380.912 257.293L377.205 253.696L380.734 250.222L384.688 254.053C386.583 252.762 388.683 251.897 391.292 251.513V245.389H396.509V251.513C397.814 251.883 400.807 252.776 402.715 254.067L406.395 250.25L409.855 253.778L406.12 257.279C407.59 259.174 408.619 261.041 409.114 263.65H413.48V268.868H409.333C409.031 271.476 408.098 274.03 406.683 276.117L409.786 279.261L406.258 282.817L403.525 279.824C401.452 281.444 399.132 282.556 396.509 282.982V287.129H391.292V282.982C388.683 282.556 385.951 281.444 383.878 279.824L380.802 282.817L377.246 279.289L380.335 276.103C378.921 274.016 377.96 271.463 377.672 268.854H373.017V268.881ZM393.503 277.984C399.434 277.984 404.239 273.179 404.239 267.247C404.239 261.316 399.434 256.511 393.503 256.511C387.571 256.511 382.766 261.316 382.766 267.247C382.766 273.193 387.571 277.984 393.503 277.984Z" fill="#EFF0F0"/>
<path opacity="0.4" d="M385.525 267.028C385.525 271.353 389.027 274.854 393.352 274.854C397.676 274.854 401.178 271.353 401.178 267.028C401.178 262.703 397.676 259.202 393.352 259.202C389.04 259.202 385.525 262.703 385.525 267.028Z" fill="#EFF0F0"/>
<path opacity="0.4" d="M419.233 304.868H444.661C445.663 304.868 447.681 307.435 447.681 308.177L447.75 323.912C447.75 324.667 445.663 326.301 444.661 326.301H435.764C435.764 326.301 435.187 330.378 439.018 330.378C439.018 330.378 434.528 331.642 432.702 330.818C431.411 330.241 430.093 329.349 429.736 326.287H419.219C418.217 326.287 418.807 324.914 418.807 324.159V307.998C418.821 307.243 418.23 304.868 419.233 304.868ZM423.407 320.163H443.288V318.639H423.407V320.163ZM423.407 315.577H443.288V314.053H423.407V315.577ZM423.407 310.992H443.288V309.467H423.407V310.992Z" fill="#EFF0F0"/>
<path opacity="0.4" d="M389.793 313.567L397.439 313.759L396.709 342.817L389.064 342.625L389.793 313.567Z" fill="#EFF0F0"/>
<path opacity="0.4" d="M401.634 329.164L407.756 329.318L407.409 343.085L401.287 342.931L401.634 329.164Z" fill="#EFF0F0"/>
<path opacity="0.4" d="M378.824 324L386.469 324.192L386.008 342.543L378.363 342.351L378.824 324Z" fill="#EFF0F0"/>
<g opacity="0.4">
<path opacity="0.4" d="M222.371 356.726C221.41 355.436 220.174 354.681 218.705 354.447C217.222 354.214 215.739 354.653 214.257 355.779C212.746 356.919 211.895 358.223 211.717 359.692C211.524 361.175 211.922 362.562 212.897 363.852L213.762 365.006C214.737 366.296 215.945 367.051 217.415 367.271C218.884 367.491 220.353 367.051 221.849 365.925C223.346 364.8 224.197 363.495 224.403 362.012C224.609 360.53 224.225 359.157 223.25 357.866L222.371 356.726ZM220.325 360.063C220.765 360.639 220.971 361.244 220.943 361.889C220.916 362.52 220.614 363.07 220.009 363.523C219.433 363.962 218.842 364.099 218.225 363.935C217.62 363.784 217.085 363.413 216.659 362.822L215.794 361.669C215.355 361.092 215.149 360.475 215.163 359.829C215.177 359.184 215.479 358.635 216.069 358.195C216.659 357.756 217.263 357.619 217.881 357.784C218.499 357.948 219.021 358.319 219.46 358.909L220.325 360.063ZM228.907 376.841L230.183 374.122L206.719 365.088L205.442 367.806L228.907 376.841ZM221.163 376.841C220.202 375.564 218.98 374.809 217.497 374.575C216.014 374.342 214.531 374.795 213.035 375.907C211.538 377.033 210.687 378.337 210.495 379.82C210.302 381.303 210.687 382.69 211.662 383.98L212.527 385.134C213.501 386.438 214.723 387.193 216.193 387.413C217.662 387.633 219.144 387.193 220.627 386.067C222.124 384.942 222.975 383.637 223.181 382.141C223.387 380.644 223.003 379.257 222.028 377.98L221.163 376.841ZM219.131 380.177C219.556 380.74 219.749 381.358 219.707 382.031C219.666 382.69 219.364 383.239 218.815 383.651C218.17 384.145 217.566 384.296 217.003 384.132C216.44 383.967 215.918 383.569 215.451 382.937L214.586 381.784C214.16 381.221 213.955 380.603 213.968 379.958C213.982 379.312 214.284 378.763 214.874 378.324C215.479 377.871 216.083 377.733 216.701 377.898C217.318 378.063 217.84 378.434 218.266 379.01L219.131 380.177Z" fill="#EFF0F0"/>
</g>
<path opacity="0.4" d="M207.089 467.638L205.208 464.576C204.522 463.45 204.577 461.487 205.716 460.786L228.248 447.015C229.373 446.329 231.158 447.166 231.845 448.292L241.236 463.656C241.923 464.782 241.277 465.784 240.151 466.471L217.62 480.242C216.495 480.928 215.3 481.066 214.614 479.926L213.062 477.386L211.428 480.324L203.396 467.226L207.089 467.638ZM229.126 467.281L223.222 457.34L218.403 466.004L229.126 467.281Z" fill="#EFF0F0"/>
<path d="M550.056 704C523.519 670.573 366.134 456.669 366.134 456.669L383.435 439.364L688 704H550.056Z" fill="url(#paint1_linear)"/>
<path d="M284.718 311.904C288.89 309.113 305.022 323.454 305.022 323.454L274.565 325.647C274.565 325.647 280.545 314.695 284.718 311.904Z" fill="#3C0458"/>
<path d="M314.377 486.999L306.749 457.467C309.54 466.252 314.35 474.173 320.662 480.699L314.377 486.999Z" fill="#ED174B"/>
<path d="M305.155 451.3L306.749 457.467C306.111 455.46 305.58 453.4 305.155 451.3Z" fill="#ED174B"/>
<path d="M381.004 432.001C384.272 436.281 385.694 439.803 385.694 439.803L365.018 460.484C365.018 460.484 361.908 459.234 357.975 456.363L381.004 432.001Z" fill="#D71344"/>
<path d="M341.976 425.276C341.963 421.581 342.601 419.454 343.73 418.511C344.674 417.381 346.8 416.743 350.494 416.756C366.32 416.823 375.914 425.342 381.004 432.001L357.975 456.363C351.212 451.432 342.043 441.717 341.976 425.276Z" fill="#E6E6E6"/>
<path d="M297.195 420.438L302.391 414.51L299.84 411.958L320.596 393.75L338.8 372.989L341.352 375.528L347.278 370.331L413.825 387.516L405.799 395.544L395.793 405.552L367.303 406.137L332.993 440.454L332.409 468.95L320.675 480.686C312.888 472.631 307.374 462.464 305.141 451.167C305.155 451.206 305.155 451.246 305.168 451.286L297.195 420.438ZM304.304 445.345C304.318 445.465 304.318 445.584 304.331 445.704C304.318 445.584 304.318 445.465 304.304 445.345ZM304.039 439.936C304.039 440.906 304.065 441.876 304.105 442.847C304.065 441.89 304.039 440.919 304.039 439.936Z" fill="#CC0337"/>
<path d="M263.363 310.602C328.17 331.083 363.822 392.992 363.822 392.992L332.462 424.359C303.494 389.005 272.771 347.378 252.201 318.829C256.254 315.121 260.134 312.449 263.363 310.602Z" fill="#E6E6E6"/>
<path d="M237.704 337.104C242.249 329.209 247.351 323.268 252.215 318.816C272.785 347.364 303.494 389.005 332.475 424.346L319.878 436.945C319.878 436.959 258.38 401.525 237.704 337.104Z" fill="#E6E6E6"/>
<path d="M237.704 337.104C236.508 333.409 235.432 329.621 234.541 325.727C232.203 315.573 232.655 310.123 235.153 308.236C236.335 306.668 238.9 305.91 243.126 306.123C245.664 306.256 248.826 306.734 252.64 307.625C256.307 308.475 259.869 309.485 263.363 310.588C260.134 312.449 256.254 315.107 252.215 318.816C247.364 323.268 242.249 329.222 237.704 337.104Z" fill="#D71344"/>
<path d="M237.704 337.104C242.249 329.209 247.364 323.268 252.215 318.816C272.785 347.364 303.494 389.005 332.475 424.346L319.878 436.945C319.878 436.959 258.38 401.525 237.704 337.104Z" fill="#E6E6E6"/>
<path d="M264.852 362.051C258.221 355.419 258.221 344.653 264.852 338.008C271.482 331.376 282.246 331.362 288.89 338.008C295.521 344.64 295.521 355.406 288.89 362.051C282.259 368.683 271.496 368.683 264.852 362.051Z" fill="white"/>
<path d="M267.27 359.632C261.968 354.329 261.968 345.73 267.27 340.413C272.572 335.11 281.17 335.11 286.485 340.413C291.787 345.716 291.787 354.329 286.485 359.632C281.183 364.948 272.572 364.948 267.27 359.632Z" fill="url(#paint2_linear)"/>
<path d="M297.806 389.962C292.558 384.712 292.558 376.206 297.806 370.969C303.042 365.732 311.546 365.719 316.795 370.969C322.044 376.219 322.031 384.725 316.795 389.962C311.56 395.212 303.055 395.212 297.806 389.962Z" fill="white"/>
<path d="M300.318 387.463C296.464 383.596 296.464 377.349 300.318 373.481C304.171 369.627 310.43 369.627 314.284 373.481C318.151 377.335 318.151 383.596 314.284 387.463C310.43 391.318 304.185 391.318 300.318 387.463Z" fill="url(#paint3_linear)"/>
<path d="M264.24 315.134C264.24 315.134 315.147 332.239 356.181 391.889L350.481 397.591C350.481 397.591 290.83 326.91 264.24 315.134Z" fill="white"/>
<path d="M254.221 283.129C251.537 283.422 252.879 281.641 252.879 281.641C252.879 281.641 253.477 276.271 253.769 275.673C254.075 275.075 256.905 274.025 258.101 274.185C259.297 274.331 263.629 278.371 263.629 278.371L263.483 283.9C263.483 283.9 261.397 283.156 260.347 283.01C259.297 282.837 256.905 282.837 254.221 283.129Z" fill="#FFC3A1"/>
<path d="M262.579 284.326L263.47 277.162L283.468 281.043C283.468 281.043 317.805 285.522 318.695 285.522L312.131 295.37L262.579 284.326Z" fill="#7A2A90"/>
<path d="M301.687 322.71L304.132 295.144C304.464 291.423 306.696 288.127 310.045 286.465C311.413 285.774 312.556 285.203 312.729 285.096C313.181 284.791 317.951 283.608 319.453 283.608C320.954 283.608 327.811 285.655 327.811 285.655L318.257 331.987L301.687 322.71Z" fill="#D53D96"/>
<path d="M327.771 341.543C320.915 339.669 312.503 329.701 312.503 329.701L317.207 295.676C317.207 295.676 326.522 273.613 332.13 293.868L336.169 323.295C336.169 323.295 348.009 325.022 348.009 325.953C348.022 326.896 334.628 343.404 327.771 341.543Z" fill="#7A2A90"/>
<path d="M298.551 278.451C298.723 277.149 299.839 276.125 300.065 274.929C300.065 274.889 300.065 274.836 300.065 274.796L300.079 274.876C300.092 274.796 300.119 274.716 300.119 274.623C300.132 274.424 300.039 271.606 300.079 271.606C300.092 271.606 312.689 272.191 312.689 272.191C312.689 272.191 317.818 281.176 318.616 283.515C319.413 285.854 310.948 290.825 310.948 290.825L307.307 283.86C307.307 283.86 306.484 284.684 305.434 285.376C304.384 286.08 301.78 287.29 300.836 286.24C300.424 285.788 300.225 282.943 300.132 279.886C299.627 279.661 299.149 279.381 298.75 279.009C298.67 278.943 298.604 278.863 298.564 278.77C298.524 278.704 298.524 278.571 298.551 278.451Z" fill="#FFC3A1"/>
<path d="M309.527 274.543C309.713 274.57 309.128 277.467 308.676 277.773C307.294 278.704 306.43 275.407 306.072 274.583C305.168 272.457 303.454 271.553 301.102 271.845C298.697 272.151 296.81 268.323 295.919 266.649C295.295 265.479 294.152 263.818 293.979 262.489C293.86 261.611 294.444 260.694 295.468 261.08C296.172 261.346 296.85 261.665 297.514 262.037C298.444 262.568 299.321 263.193 300.265 263.685C302.284 264.748 304.57 264.788 306.802 264.854C308.849 264.908 311.188 264.363 313.141 265.067C315.081 265.771 317.991 268.35 318.283 270.476C318.682 273.254 317.978 276.072 317.659 278.823C317.38 281.282 316.41 282.425 313.832 281.402C312.251 280.777 312.49 279.687 312.317 278.225C312.211 277.348 311.945 276.457 311.4 275.753C310.975 275.181 310.284 274.663 309.527 274.543Z" fill="#3C0458"/>
<path d="M285.315 320.464C288.996 317.327 319.745 326.232 319.745 326.232L324.064 326.83C333.671 328.172 335.279 341.809 326.084 344.866C325.778 344.972 325.459 345.065 325.127 345.145C314.576 347.737 294.817 334.047 294.817 334.047L288.398 365.254L280.293 363.539C280.306 363.539 281.635 323.6 285.315 320.464Z" fill="#3C0458"/>
<path d="M363.968 338.619L354.627 331.668C353.271 330.658 352.979 328.731 353.989 327.362L360.938 318.018C361.948 316.662 363.888 316.37 365.244 317.393L374.585 324.345C375.941 325.355 376.233 327.282 375.21 328.651L368.26 337.994C367.25 339.35 365.324 339.629 363.968 338.619ZM373.017 326.458L363.676 319.507C363.476 319.36 363.197 319.4 363.065 319.6L356.115 328.943C355.969 329.143 356.009 329.408 356.208 329.555L365.549 336.506C365.735 336.652 366.015 336.612 366.161 336.413L373.11 327.069C373.243 326.883 373.203 326.604 373.017 326.458Z" fill="#603813"/>
<path d="M375.356 361.931L354.454 346.368C353.67 345.783 353.51 344.68 354.095 343.909L376.818 313.366C377.402 312.582 378.492 312.423 379.276 313.007L400.178 328.571C400.962 329.156 401.122 330.246 400.537 331.03L377.801 361.572C377.243 362.357 376.14 362.516 375.356 361.931Z" fill="#BD1E2D"/>
<path d="M361.311 351.471L352.062 344.587C351.437 344.121 351.398 343.111 351.982 342.327L374.718 311.785C375.303 311 376.273 310.748 376.898 311.213L386.146 318.098C386.771 318.563 386.81 319.573 386.226 320.344L363.49 350.887C362.905 351.684 361.935 351.937 361.311 351.471Z" fill="#F7941D"/>
<path d="M385.269 333.901L377.044 327.774C376.26 327.189 376.1 326.086 376.685 325.315L377.203 324.61C377.775 323.826 378.877 323.667 379.661 324.252L387.887 330.379C388.671 330.963 388.83 332.067 388.246 332.837L387.714 333.542C387.156 334.313 386.053 334.472 385.269 333.901Z" fill="white"/>
<path d="M373.084 349.292L364.858 343.164C364.074 342.58 363.915 341.49 364.5 340.706L365.018 340.001C365.603 339.217 366.692 339.058 367.476 339.642L375.702 345.756C376.486 346.341 376.645 347.431 376.06 348.215L375.542 348.919C374.971 349.717 373.868 349.876 373.084 349.292Z" fill="white"/>
<path d="M360.394 315.586C360.394 315.586 362.028 321.407 361.776 323.348C361.523 325.275 361.789 326.219 360.566 326.79C359.344 327.362 358.693 327.907 357.856 328.053C357.018 328.199 355.278 327.282 355.278 327.282C355.278 327.282 354.095 327.588 353.51 327.362C352.912 327.149 351.783 324.876 351.491 324.265C351.212 323.653 352.182 320.982 352.461 320.849C352.726 320.729 354.693 318.576 354.348 318.164C353.989 317.739 360.394 315.586 360.394 315.586Z" fill="#FFC3A1"/>
<path d="M321.845 283.834L346.959 288.406C350.295 289.017 353.072 291.317 354.294 294.48C356.965 301.431 361.35 313.353 361.337 316.397C361.337 317.035 352.461 318.669 352.461 318.669L346.109 300.394C345.657 299.105 344.514 298.201 343.159 298.082L317.234 295.676C318.257 290.267 321.845 283.834 321.845 283.834Z" fill="#7A2A90"/>
<path d="M275.589 371.913L273.502 372.604L262.819 369.72L263.855 367.274L287.056 371.833L286.777 375.289L279.788 373.973L275.589 371.913Z" fill="black"/>
<path d="M263.284 368.151C263.284 368.151 263.231 367.354 263.496 366.304C263.762 365.254 274.286 364.935 274.286 364.935L281.489 361.533L288.704 363.101L287.043 373.056C287.043 373.056 278.313 371.408 277.98 371.434C277.635 371.448 263.284 368.151 263.284 368.151Z" fill="#5B513C"/>
<path d="M308.277 285.748C308.277 285.748 310.164 289.602 311.254 289.908C312.344 290.2 318.416 284.817 318.416 284.817C318.416 284.817 309.101 303.558 308.703 303.757C308.304 303.943 308.277 285.748 308.277 285.748Z" fill="white"/>
<path d="M1484.17 600.453L1423.33 616.754L1439.63 555.918L1484.17 600.453Z" stroke="white" stroke-width="6.8"/>
<defs>
<linearGradient id="paint0_linear" x1="18.5" y1="196.5" x2="1600" y2="704" gradientUnits="userSpaceOnUse">
<stop stop-color="#0CA3FF"/>
<stop offset="1" stop-color="#66C4FE"/>
</linearGradient>
<linearGradient id="paint1_linear" x1="676.215" y1="560.17" x2="376.62" y2="584.717" gradientUnits="userSpaceOnUse">
<stop stop-color="#F43892"/>
<stop offset="0.3925" stop-color="#FF8540"/>
<stop offset="1" stop-color="white"/>
</linearGradient>
<linearGradient id="paint2_linear" x1="290.46" y1="350.031" x2="263.294" y2="350.031" gradientUnits="userSpaceOnUse">
<stop stop-color="#262261"/>
<stop offset="1" stop-color="#9E1F63"/>
</linearGradient>
<linearGradient id="paint3_linear" x1="317.19" y1="380.469" x2="297.428" y2="380.469" gradientUnits="userSpaceOnUse">
<stop stop-color="#262261"/>
<stop offset="1" stop-color="#9E1F63"/>
</linearGradient>
</defs>
</svg>
