<svg aria-hidden="true" style="position: absolute; width: 0; height: 0; overflow: hidden;" version="1.1" xmlns="http://www.w3.org/2000/svg" xmlns:xlink="http://www.w3.org/1999/xlink">
<defs>
<symbol id="icon-access" viewBox="0 0 32 32">
<path d="M12.667 16c2.941 0 5.333-2.392 5.333-5.333s-2.392-5.333-5.333-5.333c-2.941 0-5.333 2.392-5.333 5.333s2.392 5.333 5.333 5.333zM14.667 17.333h-4c-4.412 0-8 3.588-8 8v1.333h20v-1.333c0-4.412-3.588-8-8-8z"></path>
<path d="M22.139 14.731c0.805-1.372 1.163-2.971 1.001-4.587-0.239-2.379-1.567-4.481-3.737-5.92l-1.473 2.221c1.492 0.989 2.4 2.399 2.557 3.965 0.147 1.473-0.373 2.925-1.429 3.981l-1.589 1.589 2.157 0.633c5.643 1.653 5.708 7.328 5.708 7.385h2.667c0-2.385-1.275-7.047-5.861-9.269z"></path>
</symbol>
<symbol id="icon-analyse" viewBox="0 0 32 32">
<path d="M6.168 11.837c0.536-1.272 1.304-2.412 2.28-3.388 0.981-0.98 2.121-1.748 3.389-2.28 2.58-1.088 5.575-1.103 8.173-0.055 0.063 1.793 1.515 3.219 3.323 3.219 1.848 0 3.333-1.485 3.333-3.333s-1.485-3.333-3.333-3.333c-0.919 0-1.749 0.368-2.351 0.967-3.241-1.297-6.964-1.277-10.18 0.079-1.587 0.667-3.013 1.627-4.24 2.852-1.221 1.22-2.18 2.647-2.851 4.237-0.693 1.644-1.045 3.393-1.045 5.199h2.667c0-1.448 0.281-2.848 0.835-4.163zM25.831 20.163c-0.535 1.269-1.303 2.411-2.28 3.388s-2.119 1.745-3.389 2.28c-2.581 1.088-5.576 1.103-8.173 0.055-0.061-1.793-1.513-3.219-3.321-3.219-1.848 0-3.333 1.485-3.333 3.333s1.485 3.333 3.333 3.333c0.919 0 1.749-0.368 2.351-0.967 1.583 0.636 3.256 0.967 4.983 0.967 1.805 0 3.553-0.352 5.196-1.044 1.589-0.671 3.017-1.631 4.24-2.853s2.183-2.649 2.853-4.239c0.692-1.644 1.044-3.392 1.044-5.197h-2.667c0 1.447-0.281 2.847-0.836 4.163z"></path>
<path d="M16 9.949c-3.336 0-6.051 2.715-6.051 6.051s2.715 6.051 6.051 6.051c3.336 0 6.051-2.715 6.051-6.051s-2.715-6.051-6.051-6.051z"></path>
</symbol>
<symbol id="icon-conversation" viewBox="0 0 32 32">
<path d="M17.333 18.667h4.667c1.103 0 2-0.897 2-2v-12c0-1.103-0.897-2-2-2h-17.333c-1.103 0-2 0.897-2 2v19.333l7.111-5.333h7.556zM5.333 18.533l0.205-0.021-0.205 0.155v-0.133z"></path>
<path d="M27.333 10.667h-0.667v8.001c0 1.467-1.191 2.657-2.653 2.665h-13.347v0.667c0 1.103 0.897 2 2 2h9.556l7.111 5.333v-16.667c0-1.103-0.897-2-2-2z"></path>
</symbol>
<symbol id="icon-grid" viewBox="0 0 32 32">
<path d="M5.333 5.333h5.333v5.333h-5.333v-5.333zM13.333 5.333h5.333v5.333h-5.333v-5.333zM21.333 5.333h5.333v5.333h-5.333v-5.333zM5.333 13.333h5.333v5.333h-5.333v-5.333zM13.333 13.333h5.333v5.333h-5.333v-5.333zM21.333 13.333h5.333v5.333h-5.333v-5.333zM5.333 21.333h5.333v5.333h-5.333v-5.333zM13.333 21.333h5.333v5.333h-5.333v-5.333zM21.333 21.333h5.333v5.333h-5.333v-5.333z"></path>
</symbol>
<symbol id="icon-info" viewBox="0 0 32 32">
<path d="M16 2.667c-7.352 0-13.333 5.981-13.333 13.333s5.981 13.333 13.333 13.333c7.352 0 13.333-5.981 13.333-13.333s-5.981-13.333-13.333-13.333zM17.333 22.667h-2.667v-8h2.667v8zM17.333 12h-2.667v-2.667h2.667v2.667z"></path>
</symbol>
<symbol id="icon-prezent" viewBox="0 0 32 32">
<path d="M4.8 16h-1.6v12.8c0 1.766 1.434 3.2 3.2 3.2h8v-16h-9.6zM25.6 16h-8v16h8c1.766 0 3.2-1.434 3.2-3.2v-12.8h-3.2zM26.866 8c0.21-0.658 0.334-1.446 0.334-2.4 0-3.088-2.512-5.6-5.6-5.6-2.595 0-4.328 2.371-5.446 4.936-1.102-2.424-2.923-4.936-5.754-4.936-3.088 0-5.6 2.512-5.6 5.6 0 0.954 0.126 1.742 0.334 2.4h-5.134v6.4h14.4v-3.2h3.2v3.2h14.4v-6.4h-5.134zM8 5.6c0-1.323 1.077-2.4 2.4-2.4 1.421 0 2.742 2.44 3.517 4.8h-4.317c-0.598 0-1.6 0-1.6-2.4zM21.6 3.2c1.323 0 2.4 1.077 2.4 2.4 0 2.4-1.002 2.4-1.6 2.4h-3.963c0.816-2.522 2.002-4.8 3.163-4.8z"></path>
</symbol>
<symbol id="icon-secureti" viewBox="0 0 32 32">
<path d="M22.667 10.667v-1.333c0-3.676-2.991-6.667-6.667-6.667s-6.667 2.991-6.667 6.667v4h-1.333c-1.471 0-2.667 1.196-2.667 2.667v10.667c0 1.471 1.196 2.667 2.667 2.667h16c1.471 0 2.667-1.196 2.667-2.667v-10.667c0-1.471-1.196-2.667-2.667-2.667h-12v-4c0-2.205 1.795-4 4-4s4 1.795 4 4v1.333h2.667z"></path>
</symbol>
<symbol id="icon-upload" viewBox="0 0 32 32">
<path d="M25.259 14.816c-0.583-4.589-4.512-8.149-9.259-8.149-3.675 0-6.867 2.148-8.324 5.533-2.864 0.856-5.009 3.56-5.009 6.467 0 3.676 2.991 6.667 6.667 6.667h14.667c2.941 0 5.333-2.392 5.333-5.333 0-2.507-1.74-4.616-4.075-5.184zM17.333 18.667v4h-2.667v-4h-4l5.333-6.667 5.333 6.667h-4z"></path>
</symbol>
<symbol id="icon-user-plus" viewBox="0 0 32 32">
<path d="M6 11.403c0 2.66 2.007 4.667 4.667 4.667s4.667-2.007 4.667-4.667c0-2.66-2.007-4.667-4.667-4.667s-4.667 2.007-4.667 4.667zM25.333 10.667h-2.667v4h-4v2.667h4v4h2.667v-4h4v-2.667h-4v-4zM5.333 25.333h13.333v-1.333c0-3.676-2.991-6.667-6.667-6.667h-2.667c-3.676 0-6.667 2.991-6.667 6.667v1.333h2.667z"></path>
</symbol>
</defs>
</svg>
