<svg width="400" height="300" viewBox="0 0 400 300" fill="none" xmlns="http://www.w3.org/2000/svg">
<path d="M207.14 287.09L349.56 203.89C350.751 203.181 351.738 202.174 352.423 200.969C353.109 199.764 353.469 198.401 353.469 197.015C353.469 195.628 353.109 194.266 352.423 193.06C351.738 191.855 350.751 190.849 349.56 190.14L207.43 107.61C206.458 107.039 205.374 106.684 204.253 106.568C203.131 106.453 201.998 106.579 200.93 106.94C200.79 106.94 204.3 105.85 204.2 105.94L54.0698 190.48C52.8641 191.175 51.8606 192.172 51.1582 193.373C50.4559 194.575 50.079 195.938 50.0649 197.33C50.0507 198.721 50.3998 200.092 51.0776 201.308C51.7554 202.523 52.7385 203.541 53.9298 204.26L194.08 287C196.073 288.115 198.315 288.708 200.598 288.724C202.882 288.739 205.132 288.177 207.14 287.09Z" fill="#FFC963"/>
<path style="mix-blend-mode:multiply" d="M185.56 203.71L214.88 189.71C214.88 189.71 209.43 174.6 189.55 169.62L180.87 189.38" fill="url(#paint0_linear)"/>
<path style="mix-blend-mode:multiply" d="M100.06 211.14L128.42 194.24C128.42 194.24 126.15 184.66 106.27 179.67L85.7598 193.76" fill="url(#paint1_linear)"/>
<path d="M325.9 199.72L345.53 187.81L327.62 177.29L325.9 199.72Z" fill="#F2AB38"/>
<path d="M333.76 90L205.61 16.22C205.024 15.8794 204.362 15.6929 203.685 15.6782C203.008 15.6634 202.338 15.8208 201.739 16.1357C201.139 16.4505 200.629 16.9124 200.257 17.4781C199.884 18.0438 199.662 18.6948 199.61 19.37L191.21 123.77C191.147 124.528 191.302 125.288 191.657 125.961C192.011 126.634 192.55 127.192 193.21 127.57L321.31 200.15C321.883 200.476 322.528 200.656 323.187 200.672C323.847 200.689 324.5 200.542 325.089 200.245C325.678 199.948 326.184 199.51 326.563 198.97C326.942 198.43 327.181 197.805 327.26 197.15L338.12 98.68C338.317 96.9658 338.01 95.2312 337.235 93.6893C336.461 92.1473 335.253 90.8651 333.76 90Z" fill="#CED4EA"/>
<path d="M321.51 202.01L325.9 199.72L321.94 198.59L321.51 202.01Z" fill="#CED4EA"/>
<path d="M330.13 91.7698L202 17.9998C201.415 17.6592 200.752 17.4727 200.075 17.458C199.398 17.4432 198.728 17.6006 198.129 17.9154C197.529 18.2302 197.019 18.6921 196.647 19.2579C196.275 19.8236 196.052 20.4745 196 21.1498L187.6 125.55C187.538 126.308 187.693 127.068 188.047 127.741C188.401 128.414 188.94 128.972 189.6 129.35L317.7 201.93C318.273 202.256 318.918 202.435 319.578 202.452C320.237 202.469 320.89 202.322 321.479 202.025C322.068 201.728 322.575 201.29 322.953 200.75C323.332 200.21 323.571 199.585 323.65 198.93L334.51 100.46C334.708 98.7419 334.398 97.0038 333.62 95.4596C332.841 93.9155 331.628 92.6328 330.13 91.7698Z" fill="#E4E7F4"/>
<path d="M333 114.37L334.54 100.37C334.728 98.6573 334.413 96.927 333.634 95.3906C332.854 93.8543 331.643 92.5786 330.15 91.7198L202 17.9998C201.414 17.6592 200.752 17.4727 200.075 17.458C199.398 17.4432 198.728 17.6006 198.128 17.9154C197.529 18.2302 197.019 18.6921 196.647 19.2579C196.274 19.8236 196.052 20.4745 196 21.1498L194.85 35.4498L332.66 114.6L333 114.37Z" fill="#4367C7"/>
<path d="M200.86 57.3701L198.17 90.1901C198.086 91.2147 198.296 92.242 198.774 93.1521C199.252 94.0622 199.979 94.8176 200.87 95.3301L222.56 107.8C222.966 108.031 223.424 108.157 223.892 108.165C224.359 108.173 224.821 108.064 225.236 107.847C225.65 107.63 226.003 107.312 226.262 106.923C226.522 106.534 226.679 106.086 226.72 105.62L229.46 72.8101C229.546 71.7838 229.337 70.7544 228.859 69.8423C228.381 68.9303 227.653 68.1733 226.76 67.6601L205 55.1801C204.593 54.953 204.137 54.8312 203.671 54.8259C203.205 54.8205 202.746 54.9318 202.334 55.1495C201.923 55.3672 201.572 55.6844 201.315 56.0723C201.057 56.4601 200.901 56.9063 200.86 57.3701Z" fill="#ADD5F7"/>
<path d="M203.2 66.7402V67.0002C203.199 67.3949 203.302 67.7829 203.499 68.1252C203.695 68.4675 203.978 68.752 204.32 68.9502L221.05 78.6302C221.392 78.829 221.781 78.934 222.176 78.9346C222.572 78.9352 222.961 78.8313 223.304 78.6335C223.647 78.4357 223.932 78.151 224.129 77.808C224.327 77.4651 224.43 77.0761 224.43 76.6802C224.431 76.2892 224.33 75.9046 224.137 75.5644C223.944 75.2242 223.666 74.9401 223.33 74.7402L206.6 64.8102C206.258 64.6073 205.869 64.4983 205.472 64.4943C205.075 64.4902 204.684 64.5914 204.339 64.7874C203.994 64.9834 203.706 65.2674 203.506 65.6103C203.306 65.9533 203.2 66.3432 203.2 66.7402Z" fill="#4367C7"/>
<path d="M202.45 74.8401L224 87.2201C224.255 87.3394 224.545 87.3594 224.814 87.276C225.082 87.1926 225.31 87.0119 225.453 86.7692C225.596 86.5265 225.643 86.2394 225.585 85.964C225.527 85.6886 225.368 85.4447 225.14 85.2801L203.59 72.9001C203.335 72.7807 203.044 72.7608 202.776 72.8442C202.507 72.9276 202.279 73.1083 202.136 73.351C201.994 73.5936 201.947 73.8808 202.005 74.1562C202.063 74.4316 202.221 74.6755 202.45 74.8401Z" fill="white"/>
<path d="M202.45 79.8401L224 92.2201C224.255 92.3394 224.545 92.3594 224.814 92.276C225.082 92.1926 225.31 92.0119 225.453 91.7692C225.596 91.5265 225.643 91.2394 225.585 90.964C225.527 90.6886 225.368 90.4447 225.14 90.2801L203.59 77.9001C203.335 77.7807 203.044 77.7608 202.776 77.8442C202.507 77.9276 202.279 78.1083 202.136 78.351C201.994 78.5936 201.947 78.8808 202.005 79.1562C202.063 79.4316 202.221 79.6755 202.45 79.8401Z" fill="white"/>
<path d="M202.45 84.9997L224 97.3797C224.255 97.4991 224.545 97.519 224.814 97.4356C225.082 97.3522 225.31 97.1715 225.453 96.9289C225.596 96.6862 225.643 96.3991 225.585 96.1236C225.527 95.8482 225.368 95.6043 225.14 95.4398L203.59 83.0597C203.335 82.9404 203.044 82.9205 202.776 83.0039C202.507 83.0873 202.279 83.268 202.136 83.5106C201.994 83.7533 201.947 84.0404 202.005 84.3159C202.063 84.5913 202.221 84.8352 202.45 84.9997Z" fill="white"/>
<path d="M235.62 71.71C235.62 73.08 227.92 142.06 227.92 142.06L311.45 190.79L319.81 120.79L235.62 71.71Z" fill="#ADD5F7"/>
<path d="M241.42 96.9401V97.3301C241.42 97.9521 241.584 98.563 241.894 99.1018C242.205 99.6406 242.652 100.088 243.19 100.4L269.57 115.67C270.109 115.983 270.722 116.148 271.345 116.149C271.969 116.149 272.581 115.986 273.122 115.675C273.662 115.364 274.111 114.916 274.423 114.376C274.735 113.836 274.9 113.224 274.9 112.6C274.899 111.985 274.738 111.38 274.433 110.845C274.128 110.31 273.69 109.864 273.16 109.55L246.78 93.8901C246.241 93.5708 245.628 93.3997 245.001 93.3942C244.375 93.3886 243.759 93.5489 243.214 93.8586C242.67 94.1683 242.217 94.6165 241.902 95.1577C241.587 95.6989 241.421 96.3139 241.42 96.9401Z" fill="#4367C7"/>
<path d="M240.58 109.15L274.58 128.67C274.835 128.789 275.125 128.809 275.394 128.726C275.663 128.643 275.891 128.462 276.033 128.219C276.176 127.977 276.223 127.689 276.165 127.414C276.107 127.139 275.948 126.895 275.72 126.73L241.72 107.21C241.465 107.091 241.175 107.071 240.906 107.154C240.637 107.238 240.409 107.418 240.267 107.661C240.124 107.904 240.077 108.191 240.135 108.466C240.193 108.742 240.352 108.986 240.58 109.15Z" fill="white"/>
<path d="M240.58 117L274.58 136.52C274.835 136.639 275.125 136.659 275.394 136.576C275.663 136.492 275.891 136.312 276.033 136.069C276.176 135.826 276.223 135.539 276.165 135.264C276.107 134.988 275.948 134.744 275.72 134.58L241.72 115.06C241.465 114.94 241.175 114.92 240.906 115.004C240.637 115.087 240.409 115.268 240.267 115.511C240.124 115.753 240.077 116.04 240.135 116.316C240.193 116.591 240.352 116.835 240.58 117Z" fill="white"/>
<path d="M240.58 125.16L274.58 144.68C274.835 144.799 275.125 144.819 275.394 144.736C275.663 144.652 275.891 144.472 276.033 144.229C276.176 143.986 276.223 143.699 276.165 143.424C276.107 143.148 275.948 142.905 275.72 142.74L241.72 123.22C241.465 123.101 241.175 123.081 240.906 123.164C240.637 123.247 240.409 123.428 240.267 123.671C240.124 123.913 240.077 124.201 240.135 124.476C240.193 124.751 240.352 124.995 240.58 125.16Z" fill="white"/>
<path d="M284.25 114.28L279.16 163.06C279.103 163.605 279.205 164.154 279.456 164.641C279.706 165.127 280.094 165.53 280.57 165.8L302.83 178.36C303.233 178.587 303.685 178.711 304.147 178.722C304.609 178.732 305.067 178.628 305.479 178.42C305.891 178.211 306.246 177.904 306.511 177.525C306.777 177.147 306.945 176.709 307 176.25L312.73 128.25C312.795 127.707 312.7 127.156 312.457 126.666C312.214 126.175 311.832 125.767 311.36 125.49L288.47 112.14C288.064 111.901 287.604 111.768 287.133 111.754C286.662 111.739 286.195 111.843 285.775 112.056C285.355 112.269 284.995 112.585 284.728 112.973C284.462 113.362 284.297 113.811 284.25 114.28Z" fill="white"/>
<path d="M204.15 31.9898C205.122 31.9898 205.91 30.875 205.91 29.4998C205.91 28.1246 205.122 27.0098 204.15 27.0098C203.178 27.0098 202.39 28.1246 202.39 29.4998C202.39 30.875 203.178 31.9898 204.15 31.9898Z" fill="#ADD5F7"/>
<path d="M209.79 35.44C210.762 35.44 211.55 34.3252 211.55 32.95C211.55 31.5748 210.762 30.46 209.79 30.46C208.818 30.46 208.03 31.5748 208.03 32.95C208.03 34.3252 208.818 35.44 209.79 35.44Z" fill="white"/>
<path d="M147.07 37.4502L99 65.1202V105.97L147.07 78.3202V37.4502Z" fill="#4367C7"/>
<path d="M102.32 67.9098V99.3498L143.75 75.5298V44.0698L102.32 67.9098Z" fill="white"/>
<path d="M102.32 99.35L112.24 77.4C112.729 76.3188 113.626 75.4746 114.735 75.0513C115.843 74.628 117.074 74.6599 118.16 75.14L123 77.31L132.5 61.31C132.723 60.9357 133.022 60.6125 133.378 60.3616C133.734 60.1106 134.139 59.9375 134.566 59.8536C134.994 59.7696 135.434 59.7766 135.858 59.8742C136.283 59.9718 136.682 60.1578 137.03 60.42L143.72 65.42V75.53L102.32 99.35Z" fill="#22A5CC"/>
<path d="M124.148 67.0973C125.057 64.1815 124.477 61.4074 122.853 60.9013C121.229 60.3952 119.176 62.3486 118.267 65.2644C117.358 68.1802 117.938 70.9542 119.562 71.4604C121.186 71.9665 123.239 70.0131 124.148 67.0973Z" fill="#FFC963"/>
<path d="M171.34 111.44C171.34 111.44 164.65 119.2 164.41 124.76C164.17 130.32 172.08 140.15 172.08 140.15L177.19 132.08C177.19 132.08 170.53 125.2 177.19 119.9C177.19 119.9 179.47 110.97 171.33 111.43" fill="#CE5438"/>
<path d="M173.88 187.29C173.88 187.29 171.36 190.78 171.57 192.82C171.78 194.86 174.98 198.3 175.71 199.76C176.44 201.22 176.63 201.86 175.71 202.92C174.79 203.98 166.95 197.14 166.76 196.05C166.57 194.96 167.85 190.76 167.85 190.76L164.37 195.16L161.83 193.66L167.21 184.6" fill="#EA7554"/>
<path d="M174.87 203C174.66 202.79 168.45 200.64 168.45 200.64C168.45 200.64 165.53 197.64 165.61 196.44C165.69 195.24 166.76 190.68 167.85 190.73C168.94 190.78 169.06 196.87 169.06 196.87L174.87 203Z" fill="#15156D"/>
<path d="M182.26 193.07L183.06 202.37C183.06 202.37 185.06 203.84 185.56 203.71C186.06 203.58 187.56 203.2 187.56 202.96C187.56 202.72 186.85 196.39 187.05 196.22C187.25 196.05 190.34 201.06 191.3 201.16C192.26 201.26 199.64 196.98 198.93 195.35C198.22 193.72 194.66 194.57 192.93 194.56C191.722 194.506 190.557 194.097 189.579 193.386C188.601 192.675 187.854 191.692 187.43 190.56" fill="#EA7554"/>
<path d="M186.93 167.89L191.43 191.72C191.43 191.72 188.83 195.12 179.54 194.72L172.63 177.82" fill="#3129A3"/>
<path d="M188.92 130.49C188.92 130.49 195.85 140.61 193.72 157C191.83 171.52 177.32 188.64 177.32 188.64C177.32 188.64 173 190.55 164 182L174 166.16C174 166.16 164.29 143.66 175.75 129.37" fill="#3129A3"/>
<g opacity="0.55">
<path opacity="0.55" d="M207.89 108.68C207.4 102.89 209.79 98.1198 213.34 97.8298C216.89 97.5398 220.04 101.83 220.53 107.62C221.02 113.41 218.63 118.18 215.08 118.47C211.53 118.76 208.38 114.47 207.89 108.68ZM209.81 108.52C210.19 113.07 212.53 116.75 214.92 116.52C217.31 116.29 218.99 112.3 218.61 107.75C218.23 103.2 215.89 99.5198 213.5 99.7498C211.11 99.9798 209.42 104 209.81 108.52Z" fill="#F2F2F2"/>
</g>
<path d="M208.47 111.07C208.47 110.805 208.575 110.55 208.763 110.363C208.95 110.175 209.205 110.07 209.47 110.07C209.735 110.07 209.99 110.175 210.177 110.363C210.365 110.55 210.47 110.805 210.47 111.07C210.47 111.75 210.47 112.43 210.47 113.07L210.7 112.63C211.489 110.747 212.079 108.786 212.46 106.78C212.71 105.48 214.58 106.06 214.46 107.32C214.325 108.304 214.117 109.276 213.84 110.23L214.04 110.15C214.213 110.094 214.396 110.074 214.577 110.091C214.759 110.108 214.934 110.163 215.094 110.251C215.253 110.339 215.393 110.459 215.504 110.603C215.615 110.748 215.695 110.913 215.74 111.09C215.847 111.413 215.864 111.758 215.79 112.09H215.94C216.162 112.159 216.364 112.281 216.53 112.444C216.696 112.607 216.82 112.808 216.892 113.029C216.965 113.25 216.983 113.486 216.946 113.715C216.909 113.945 216.818 114.163 216.68 114.35C216.932 114.546 217.106 114.827 217.17 115.14C217.207 115.5 217.145 115.863 216.992 116.19C216.839 116.518 216.6 116.797 216.3 117C215.6 117.58 214.85 118.33 214.21 119C213.38 119.81 212.43 120.62 211.65 121.27C210.87 121.92 209.58 119.77 209.57 119.05C209.426 119.096 209.274 119.106 209.125 119.079C208.977 119.053 208.837 118.99 208.718 118.898C208.599 118.805 208.504 118.685 208.442 118.548C208.379 118.411 208.351 118.26 208.36 118.11C208.487 115.757 208.523 113.41 208.47 111.07Z" fill="#FFAC99"/>
<path d="M212.52 113.23C213 112.237 213.44 111.237 213.84 110.23C213.93 110.01 214.28 110.11 214.19 110.33C213.776 111.39 213.323 112.43 212.83 113.45C212.73 113.63 212.42 113.44 212.52 113.23Z" fill="#AF594A"/>
<path d="M187.87 108.15C189.61 109.704 191.181 111.437 192.56 113.32C193.87 115.44 199.12 121.22 201.28 119.48C203.44 117.74 207.28 114.41 207.28 114.41C207.28 114.41 212.74 118.17 212.18 122.08C212.18 122.08 207.33 131.99 199.77 129.81C192.21 127.63 190.32 124.81 190.32 124.81L189.18 131.26C189.18 131.26 179.8 134.2 175.45 129.84C175.45 129.84 172.59 111.32 174.7 108.55" fill="#EA7554"/>
<path d="M188.91 96.9302C188.98 97.1402 189.14 103.86 186.86 104.5C184.58 105.14 180.69 103.5 179.68 101.41C178.67 99.3202 180.11 92.5002 183.68 92.1002C187.25 91.7002 188.27 95.0002 188.91 96.9302Z" fill="#FFAC99"/>
<path d="M171.22 107.52C171.87 106.04 172.93 105.25 172.68 103.52C172.324 102.213 172.3 100.839 172.61 99.5202C173.1 98.1402 174.26 97.5202 175.36 96.7002C175.682 96.463 175.983 96.1987 176.26 95.9102L176.5 95.5102C177.047 94.2952 177.717 93.1392 178.5 92.0602C179.383 91.1791 180.519 90.5954 181.75 90.3902C183.039 90.1566 184.362 90.1868 185.639 90.479C186.916 90.7712 188.12 91.3193 189.18 92.0902C189.18 92.0902 191.18 93.9702 190.53 95.9902C189.88 98.0102 187.46 97.2702 186.11 98.1902C184.6 99.1902 185.56 101.19 186.19 102.39C186.663 103.342 186.893 104.397 186.86 105.46C186.844 106.457 187.2 107.423 187.86 108.17C188.698 109.084 189.248 110.225 189.44 111.45C189.55 113.94 186.92 119.19 179.37 117.24C178.88 117.11 178.37 116.97 177.87 116.8C176.26 116.357 174.749 115.61 173.42 114.6C171.34 112.94 170.11 110.07 171.22 107.52Z" fill="#3129A3"/>
<path d="M187.86 172.8C187.86 172.8 179.92 186.55 177.33 188.64L179.54 194.64C179.54 194.64 188.76 181.74 187.86 172.8Z" fill="#15156D"/>
<path d="M174.08 165.44C176.614 160.087 178.023 154.27 178.22 148.35C178.22 147.88 178.97 147.88 178.95 148.35C178.746 154.399 177.303 160.342 174.71 165.81C174.52 166.24 173.88 165.86 174.08 165.44Z" fill="#15156D"/>
<path d="M94.5496 212.11C102.806 212.11 109.5 205.891 109.5 198.22C109.5 190.549 102.806 184.33 94.5496 184.33C86.293 184.33 79.5996 190.549 79.5996 198.22C79.5996 205.891 86.293 212.11 94.5496 212.11Z" fill="#22A5CC"/>
<path d="M94.5396 196.07C100.72 196.07 105.73 193.362 105.73 190.02C105.73 186.679 100.72 183.97 94.5396 183.97C88.3595 183.97 83.3496 186.679 83.3496 190.02C83.3496 193.362 88.3595 196.07 94.5396 196.07Z" fill="#1D3F75"/>
<path d="M94 141.22V188.7C94.0633 188.904 94.1901 189.082 94.362 189.209C94.5338 189.335 94.7416 189.403 94.955 189.403C95.1684 189.403 95.3762 189.335 95.548 189.209C95.7199 189.082 95.8467 188.904 95.91 188.7V141.22C95.8467 141.016 95.7199 140.838 95.548 140.711C95.3762 140.585 95.1684 140.517 94.955 140.517C94.7416 140.517 94.5338 140.585 94.362 140.711C94.1901 140.838 94.0633 141.016 94 141.22Z" fill="#1C7377"/>
<path d="M98.4597 139.45C98.7531 138.897 98.9302 138.289 98.9801 137.665C99.03 137.041 98.9515 136.413 98.7497 135.82C98.3097 134.51 97.6797 133.25 97.1597 131.97C96.6397 130.69 96.1597 129.56 95.6297 128.39C95.0697 128.67 91.0597 134.71 90.8897 137.24C90.7197 139.77 93.9997 141.92 93.9997 141.92L94.9997 142.56C95.1797 142.68 96.9197 141.24 97.1197 141.07C97.6684 140.623 98.1237 140.073 98.4597 139.45Z" fill="#1C7377"/>
<path d="M95.48 153.28C99.71 152.87 102.64 149.28 104.63 145.61C100.14 145.84 96 148.67 95.48 153.28Z" fill="#1C7377"/>
<path d="M95.1497 153.12C93.8698 149.07 89.7697 146.95 85.7397 145.77C86.8997 150.11 90.5297 153.56 95.1497 153.12Z" fill="#1C7377"/>
<path d="M94.9199 164.94C100.31 164.42 104.03 159.88 106.57 155.18C100.85 155.47 95.5899 159.07 94.9199 164.94Z" fill="#1C7377"/>
<path d="M94.5 164.73C92.87 159.57 87.65 156.88 82.5 155.37C84 160.9 88.62 165.3 94.5 164.73Z" fill="#1C7377"/>
<path d="M95.3296 178.61C101.47 178.01 105.71 172.84 108.6 167.48C102.09 167.82 96.0996 171.92 95.3296 178.61Z" fill="#1C7377"/>
<path d="M94.8497 178.38C92.9897 172.5 87.0497 169.38 81.1997 167.72C82.8897 174 88.1497 179 94.8497 178.38Z" fill="#1C7377"/>
<path style="mix-blend-mode:multiply" d="M279.69 224.6L285.52 227.7L309.8 216.5C309.8 216.5 309.8 213.17 306.33 208.5C296.81 213.93 289.35 219.4 279.69 224.6Z" fill="url(#paint2_linear)"/>
<path d="M288 223.2V175.42C288.032 174.38 287.693 173.362 287.042 172.55C286.391 171.738 285.472 171.185 284.45 170.99C283.86 170.904 283.259 170.946 282.686 171.113C282.114 171.28 281.585 171.568 281.134 171.958C280.684 172.348 280.322 172.83 280.075 173.373C279.827 173.915 279.699 174.504 279.7 175.1V224.6C279.7 225.278 279.885 225.944 280.234 226.525C280.584 227.107 281.085 227.582 281.684 227.901C282.283 228.219 282.957 228.369 283.635 228.333C284.312 228.298 284.967 228.079 285.53 227.7L285.61 227.64C286.338 227.149 286.936 226.488 287.352 225.715C287.769 224.941 287.991 224.078 288 223.2Z" fill="#22A5CC"/>
<path opacity="0.27" d="M288 192.67V175.42C288.032 174.38 287.693 173.362 287.042 172.55C286.391 171.738 285.472 171.185 284.45 170.99C283.86 170.904 283.259 170.946 282.686 171.113C282.114 171.28 281.585 171.568 281.134 171.958C280.684 172.348 280.322 172.83 280.075 173.373C279.827 173.915 279.699 174.504 279.7 175.1V202.62C282.772 199.571 285.551 196.24 288 192.67Z" fill="black"/>
<path d="M240.89 172.7C240.89 172.7 282.78 170.04 285.45 171.27C288.12 172.5 289.21 176.94 288.2 183.12C287.19 189.3 267.2 214.19 267.2 214.19" fill="#22A5CC"/>
<path opacity="0.51" d="M269.63 185.68C275.71 181.96 282.05 178.68 288.17 175.03C287.894 173.711 287.191 172.519 286.17 171.64C274.51 177.35 263.02 183.39 251.41 189.21L254.91 194.74C259.88 191.78 264.72 188.68 269.63 185.68Z" fill="white"/>
<path opacity="0.51" d="M268.13 190.91C274.9 186.6 281.95 182.7 288.58 178.16C288.58 177.88 288.58 177.6 288.58 177.34C282.69 180.83 276.58 183.98 270.77 187.56C265.89 190.56 261.06 193.63 256.15 196.56L257.01 197.92C260.71 195.63 264.42 193.27 268.13 190.91Z" fill="white"/>
<path d="M228 186.14C228.12 185.71 232.39 166.22 251.74 174.51C269.23 182.01 269.74 204.3 268.57 209.75C267.57 214.19 263.07 220.23 254.32 222.42" fill="#8C0000"/>
<path d="M256.227 221.77C265.273 217.851 268.142 204.367 262.634 191.652C257.127 178.937 245.328 171.805 236.282 175.724C227.236 179.642 224.368 193.126 229.875 205.841C235.383 218.557 247.181 225.688 256.227 221.77Z" fill="#CE4242"/>
<path d="M265.05 199.86L246.05 204.86L241.9 196.06L259.06 185.38C259.06 185.38 264 192.85 265.05 199.86Z" fill="white"/>
<path d="M246.503 204.656C248.438 203.673 249.014 200.924 247.791 198.516C246.567 196.108 244.007 194.954 242.072 195.937C240.137 196.921 239.56 199.67 240.784 202.077C242.007 204.485 244.568 205.639 246.503 204.656Z" fill="#F7D600"/>
<path d="M221.57 218H213.85C210.63 218 210.63 223 213.85 223H221.57C224.79 223 224.79 218 221.57 218Z" fill="white"/>
<path d="M222.76 229.48L212.17 240.07C209.89 242.35 213.43 245.88 215.71 243.61L226.3 233C228.57 230.74 225 227.2 222.76 229.48Z" fill="white"/>
<path d="M233.39 231.16V237.34C233.39 240.56 238.39 240.56 238.39 237.34V231.16C238.39 227.94 233.39 227.94 233.39 231.16Z" fill="white"/>
<defs>
<linearGradient id="paint0_linear" x1="184.901" y1="198.337" x2="200.865" y2="181.135" gradientUnits="userSpaceOnUse">
<stop stop-color="#D46A00"/>
<stop offset="1" stop-color="white"/>
</linearGradient>
<linearGradient id="paint1_linear" x1="10836.1" y1="6625.36" x2="10237.2" y2="7269.39" gradientUnits="userSpaceOnUse">
<stop stop-color="#D46A00"/>
<stop offset="1" stop-color="white"/>
</linearGradient>
<linearGradient id="paint2_linear" x1="-7502.37" y1="-4579.32" x2="-7051.33" y2="-5038.14" gradientUnits="userSpaceOnUse">
<stop stop-color="#D46A00"/>
<stop offset="1" stop-color="white"/>
</linearGradient>
</defs>
</svg>
