<svg width="400" height="300" viewBox="0 0 400 300" fill="none" xmlns="http://www.w3.org/2000/svg">
<path d="M336.4 193.47L171.62 288.82C167.705 291.077 163.265 292.265 158.745 292.265C154.226 292.265 149.786 291.077 145.87 288.82L54.2602 236.24C52.6972 235.342 51.3974 234.05 50.4909 232.492C49.5843 230.934 49.1029 229.165 49.0948 227.363C49.0867 225.56 49.5522 223.788 50.4447 222.222C51.3372 220.656 52.6253 219.351 54.1802 218.44L225.93 117.84C227.502 116.926 229.287 116.444 231.105 116.444C232.923 116.444 234.709 116.926 236.28 117.84L336.39 175.68C337.947 176.584 339.24 177.881 340.139 179.442C341.037 181.002 341.511 182.771 341.512 184.572C341.513 186.373 341.041 188.142 340.144 189.704C339.247 191.265 337.956 192.564 336.4 193.47Z" fill="#22A5CC"/>
<g style="mix-blend-mode:overlay" opacity="0.32">
<path d="M164 217.78C169 219.31 168.52 224.47 173.66 225.5C176.81 226.13 177.66 233.42 180.88 233.66L203 250.55L268.83 209.55L207.15 174.1L154 208.22C162.3 214.28 154.3 214.82 164 217.78Z" fill="url(#paint0_linear)"/>
</g>
<g style="mix-blend-mode:overlay" opacity="0.32">
<path d="M115.61 257.68C120.61 259.21 125.61 260.68 130.78 261.76C133.921 262.318 137.094 262.682 140.28 262.85L145.62 259.23L180.85 233.67L149.63 217.13L87.46 245.66C95.72 251.72 105.93 254.72 115.61 257.68Z" fill="url(#paint1_linear)"/>
</g>
<path d="M151.17 202.56C147.45 199.96 143.07 198.56 138.34 199.56C133.34 200.67 128.94 203.84 123.8 204.61C122.99 204.73 119.75 204.52 119.25 204.99C104.96 218.51 144.91 217.07 144.91 217.07C148.79 213.9 152.44 210.77 156.29 207.56C155.12 205 153.16 203.95 151.17 202.56Z" fill="#F8997C"/>
<path d="M132.37 222.16L130.95 263C130.9 264.55 133.3 264.55 133.35 263L134.77 222.2C134.83 220.61 132.42 220.61 132.37 222.16Z" fill="#844040"/>
<path d="M162.32 244C155.047 236.88 148.097 229.45 141.47 221.71C140.47 220.53 138.77 222.24 139.77 223.41C146.39 231.143 153.34 238.573 160.62 245.7C161.73 246.77 163.43 245.08 162.32 244Z" fill="#844040"/>
<path d="M124 218.38C118.354 229.047 113.02 239.87 108 250.85C107.36 252.25 109.44 253.47 110.08 252.06C115.067 241.074 120.4 230.25 126.08 219.59C126.83 218.23 124.75 217 124 218.38Z" fill="#844040"/>
<path d="M155.62 206.37C153.212 209.666 149.824 212.116 145.94 213.37C140.48 215.01 132.54 214.23 129.67 208.61C124.45 198.38 129.35 185.61 123.84 175.61C123.198 174.347 122.297 173.232 121.196 172.34C120.095 171.448 118.819 170.797 117.45 170.43C113.88 169.66 111.45 172.31 110.13 175.43C107.8 181 107.88 188 108 193.9C108.006 198.706 108.36 203.505 109.06 208.26C109.06 208.26 112.4 228.2 138.44 222.85C142.941 222.045 147.269 220.465 151.23 218.18C153.253 217.031 155.027 215.491 156.45 213.65C158 211.38 157 208.67 155.62 206.37Z" fill="#22A5CC"/>
<path d="M173.64 225.51C173.64 225.51 173.43 229.15 174.55 230.17C175.67 231.19 181.75 228.36 183.37 229.36C184.99 230.36 177.27 237.66 174.55 238.06C171.83 238.46 169.31 234.59 169.31 234.59V240.08L166.23 241.83L164 240.49L164.67 225.49L173.64 225.51Z" fill="#8787D1"/>
<path d="M163.23 228.19C166.47 230.98 169.95 230.89 173.97 229.19C176.86 224.11 180.26 193.19 173.04 188.19C165.28 182.88 153.15 183.83 151.12 184.41L121.4 189.28C119.12 193.16 125.16 213.48 138.4 214.05C151.64 214.62 160.02 209.65 160.02 209.65L163.23 228.19Z" fill="#124577"/>
<path d="M151.68 143.27C150.273 143.881 149.104 144.934 148.35 146.27V146.37C146.26 148.08 145.93 151.2 143.71 152.74C143.71 152.8 141.62 154.27 141.6 154.33C141.58 154.39 141.8 151.47 141.79 151.49C141.07 153.49 140.36 155.49 139.79 157.49C139.89 157.551 139.997 157.598 140.11 157.63L139.88 157.74L139.68 157.86C139.653 157.961 139.603 158.054 139.534 158.132C139.464 158.21 139.377 158.271 139.28 158.31C139.195 158.604 139.197 158.916 139.286 159.208C139.375 159.501 139.546 159.762 139.78 159.958C140.014 160.155 140.3 160.28 140.604 160.318C140.907 160.355 141.215 160.304 141.49 160.17L148.21 156.89C149.105 156.698 149.984 156.44 150.84 156.12C150.84 155.42 150.95 154.72 151.02 154.02C151.551 153.201 151.869 152.264 151.948 151.292C152.026 150.319 151.862 149.343 151.47 148.45C151.505 148.405 151.545 148.364 151.59 148.33V148.26C152.146 147.871 152.618 147.375 152.98 146.801C153.343 146.228 153.587 145.589 153.7 144.92C153.71 144 152.75 142.77 151.68 143.27Z" fill="#F7931E"/>
<path d="M143.13 149.62C143.13 149.62 150.79 154.38 151.59 158.34C151.59 158.34 146.21 170.03 146.59 170.49C152.67 178.42 134.44 165.49 134.44 165.49C134.44 165.49 138.11 154.37 143.13 149.62Z" fill="#22A5CC"/>
<path d="M160.57 152.52C161.2 157.81 154.45 165.18 151.57 166.6C147.67 168.55 146.15 152.33 129.01 152.4C127.9 152.4 122.34 150.03 119.42 157.34C116.5 164.65 119.42 185.6 121.37 189.25C123.09 192.47 134.52 200.25 150.85 191.93L151.09 184.38C151.09 184.38 160.72 184.17 165.83 177.09C170.59 170.48 173.41 160.56 172.96 155.69C169.13 154 164.36 151.28 160.57 152.52Z" fill="#22A5CC"/>
<path d="M143.13 149.62C143.13 149.62 150.79 154.38 151.59 158.34C151.59 158.34 146.21 170.03 146.59 170.49C152.67 178.42 134.44 165.49 134.44 165.49C134.44 165.49 138.11 154.37 143.13 149.62Z" fill="#8787D1"/>
<path d="M174.44 146.07C174.388 145.843 174.288 145.629 174.146 145.444C174.005 145.259 173.825 145.106 173.619 144.997C173.413 144.888 173.185 144.825 172.953 144.811C172.72 144.798 172.487 144.835 172.27 144.92C172.168 144.522 171.936 144.17 171.61 143.92C171.345 143.722 171.027 143.608 170.697 143.594C170.367 143.58 170.04 143.665 169.76 143.84C169.584 143.941 169.425 144.069 169.29 144.22L169.19 144.11C168.967 143.848 168.67 143.659 168.339 143.568C168.007 143.477 167.655 143.488 167.33 143.6C167.137 143.688 166.964 143.814 166.82 143.97C166.631 143.037 166.391 142.116 166.1 141.21C165.83 140.3 165.38 138.63 164.26 138.43C163.53 138.3 163.19 138.83 163.04 139.43C162.855 139.86 162.826 140.341 162.96 140.79C163.011 141.405 163.101 142.016 163.23 142.62C163.33 143.48 163.42 144.34 163.5 145.2C163.351 145.199 163.207 145.256 163.1 145.36C162.566 145.754 162.172 146.307 161.974 146.94C161.776 147.573 161.785 148.253 162 148.88C162.484 150.681 163.154 152.427 164 154.09C164.034 154.164 164.082 154.229 164.143 154.283C164.203 154.337 164.274 154.378 164.351 154.403C164.428 154.429 164.509 154.438 164.59 154.43C164.671 154.423 164.749 154.399 164.82 154.36L164.91 154.68C164.943 154.825 165.027 154.953 165.145 155.043C165.264 155.132 165.411 155.176 165.559 155.168C165.708 155.16 165.848 155.099 165.957 154.997C166.065 154.895 166.133 154.758 166.15 154.61V154.49C166.212 154.54 166.283 154.578 166.36 154.6L166.41 155.3C166.41 155.94 167.41 155.94 167.62 155.41L167.68 155.92C167.76 156.63 168.88 156.55 168.92 155.85V155.28C169.025 155.276 169.128 155.248 169.221 155.2C169.314 155.151 169.396 155.083 169.46 155C169.568 155.14 169.725 155.233 169.9 155.26C169.984 155.328 170.086 155.372 170.194 155.386C170.301 155.4 170.411 155.384 170.51 155.34V155.49C170.563 155.659 170.678 155.801 170.832 155.888C170.986 155.975 171.168 156.001 171.34 155.96C171.34 156.03 171.34 156.1 171.34 156.17C171.34 156.97 172.61 157.08 172.59 156.27C172.59 154.663 172.546 153.057 172.46 151.45C172.528 151.415 172.589 151.368 172.64 151.31C173.95 150 175.07 147.89 174.44 146.07ZM167.72 144.86C167.771 144.826 167.829 144.804 167.889 144.795C167.95 144.787 168.011 144.792 168.07 144.81C168.037 144.857 168.01 144.907 167.99 144.96H167.61C167.638 144.922 167.672 144.889 167.71 144.86H167.72Z" fill="#F7931E"/>
<path d="M138.12 133.1C138.12 133.28 139.18 143.99 136.78 146.35C134.38 148.71 128.01 147.74 126.43 145.16C124.85 142.58 122.91 139.16 124.6 135.16C126.29 131.16 137.83 130.47 138.12 133.1Z" fill="#F7931E"/>
<path d="M134.69 140.08C134.772 139.893 134.799 139.686 134.767 139.484C134.735 139.282 134.646 139.093 134.51 138.94C133.775 138.03 132.752 137.395 131.61 137.14C131.093 137.017 130.548 137.089 130.079 137.342C129.611 137.594 129.252 138.01 129.07 138.51C128.34 140.94 132.28 141.66 133.89 141.86C134.173 141.857 134.444 141.744 134.644 141.544C134.844 141.344 134.958 141.073 134.96 140.79C134.967 140.527 134.87 140.272 134.69 140.08Z" fill="#FFE8E6"/>
<path d="M160.57 152.52C161.2 157.81 154.45 165.18 151.57 166.6C147.67 168.55 146.15 152.33 129.01 152.4C127.9 152.4 122.34 150.03 119.42 157.34C116.5 164.65 119.42 185.6 121.37 189.25C123.09 192.47 134.52 200.25 150.85 191.93L151.09 184.38C151.09 184.38 160.72 184.17 165.83 177.09C170.59 170.48 173.41 160.56 172.96 155.69C169.13 154 164.36 151.28 160.57 152.52Z" fill="#8787D1"/>
<path d="M159.23 182.54C154.782 184.137 149.927 184.195 145.442 182.707C140.957 181.219 137.101 178.269 134.49 174.33C134.15 173.81 133.3 174.33 133.65 174.82C136.368 178.945 140.391 182.04 145.075 183.61C149.759 185.179 154.835 185.134 159.49 183.48C160.07 183.27 159.82 182.32 159.23 182.54Z" fill="white"/>
<path d="M149.59 164.8C148.715 162.765 147.42 160.939 145.79 159.44C143.92 157.74 141.61 156.65 139.66 155.06C139.27 154.74 138.66 155.3 139.1 155.62C140.94 157.12 143.1 158.17 144.91 159.72C146.641 161.22 148.009 163.094 148.91 165.2C149.11 165.66 149.8 165.26 149.59 164.8Z" fill="white"/>
<path d="M138.36 134.61L134.95 136.4C134.95 136.4 137.59 146.4 138.38 149.08C139.17 151.76 136 155.42 125.7 155.69C115.4 155.96 115.92 140.37 118.3 134.55C120.68 128.73 127.81 126.09 133.62 127.68C135.159 127.986 136.518 128.882 137.404 130.178C138.29 131.473 138.633 133.065 138.36 134.61Z" fill="#B24D16"/>
<path d="M156.77 208.71C156.666 208.452 156.497 208.225 156.281 208.05C156.065 207.875 155.807 207.758 155.533 207.71C155.259 207.662 154.977 207.685 154.714 207.776C154.452 207.867 154.216 208.023 154.03 208.23C151.835 210.631 149.044 212.408 145.94 213.38C140.48 215.02 132.54 214.24 129.67 208.62C124.47 198.43 129.32 185.68 123.9 175.74C122.966 173.95 121.558 172.452 119.83 171.41C114.94 168.59 111.68 171.68 110.12 175.41C107.8 181 107.88 188 108 193.9C108.006 198.706 108.36 203.505 109.06 208.26C109.06 208.26 112.4 228.2 138.44 222.85C142.941 222.045 147.269 220.465 151.23 218.18C153.253 217.031 155.027 215.491 156.45 213.65C156.917 212.921 157.191 212.085 157.247 211.221C157.303 210.357 157.139 209.493 156.77 208.71Z" fill="#EF7F6C"/>
<path d="M210.91 9.74023L204.24 12.6902L210.65 15.5102L212.19 12.2002" fill="#EF7F6C"/>
<path d="M271.68 205.69L216.27 173.4C214.038 172.101 212.185 170.239 210.897 168C209.609 165.761 208.931 163.223 208.93 160.64L207.15 14.0002C207.15 10.1502 213.15 8.19015 216.44 10.1502L273.76 44.0002C275.182 44.84 276.361 46.0361 277.18 47.4706C277.999 48.9051 278.43 50.5284 278.43 52.1802V201.81C278.43 202.6 278.222 203.376 277.826 204.059C277.431 204.742 276.862 205.31 276.177 205.703C275.493 206.097 274.717 206.303 273.927 206.3C273.137 206.298 272.362 206.088 271.68 205.69Z" fill="#EF7F6C"/>
<path d="M276.12 205.73L268.87 209.56L269.71 204.51L274.74 203.6" fill="#EF7F6C"/>
<path d="M264.73 209.37L209.32 177.08C207.09 175.777 205.24 173.913 203.956 171.672C202.672 169.431 201.997 166.893 202 164.31V16.2401C201.998 15.5474 202.181 14.8666 202.528 14.2671C202.875 13.6676 203.375 13.1708 203.976 12.8273C204.578 12.4838 205.26 12.3059 205.953 12.3117C206.645 12.3174 207.324 12.5067 207.92 12.8601L266.83 47.6501C268.252 48.4899 269.431 49.6861 270.25 51.1206C271.069 52.5551 271.5 54.1783 271.5 55.8301V205.49C271.502 206.283 271.294 207.062 270.898 207.748C270.501 208.434 269.93 209.004 269.243 209.398C268.555 209.792 267.775 209.997 266.983 209.992C266.19 209.987 265.413 209.773 264.73 209.37Z" fill="#F4F4F4"/>
<path d="M267.96 64.8699L204.84 28.6699V158.21L267.96 194.7V64.8699Z" fill="white"/>
<path d="M231.443 185.65C233.006 185.277 233.864 183.263 233.36 181.151C232.856 179.04 231.18 177.632 229.617 178.005C228.054 178.378 227.195 180.392 227.699 182.503C228.203 184.614 229.879 186.023 231.443 185.65Z" fill="#BABABC"/>
<path d="M228.16 34.9002C228.161 35.148 228.227 35.3912 228.352 35.6054C228.476 35.8196 228.655 35.9971 228.87 36.1202L241.07 43.1202C241.284 43.2426 241.527 43.3068 241.773 43.3062C242.02 43.3056 242.262 43.2403 242.476 43.1168C242.689 42.9934 242.867 42.816 242.99 42.6025C243.114 42.389 243.179 42.1468 243.18 41.9002V41.6002C243.179 41.3487 243.111 41.102 242.983 40.8857C242.854 40.6695 242.67 40.4914 242.45 40.3702L230.25 33.6602C230.035 33.5418 229.793 33.4816 229.547 33.4855C229.302 33.4895 229.062 33.5575 228.851 33.6827C228.64 33.808 228.465 33.9862 228.344 34.1997C228.223 34.4132 228.159 34.6547 228.16 34.9002Z" fill="#CCCCCC"/>
<path d="M223.205 32.9149C223.92 32.6504 224.207 31.6465 223.846 30.6728C223.486 29.6991 222.614 29.1241 221.9 29.3887C221.185 29.6532 220.898 30.657 221.258 31.6308C221.618 32.6045 222.49 33.1795 223.205 32.9149Z" fill="#CCCCCC"/>
<path d="M254.917 174.913C258.127 173.893 259.618 169.567 258.247 165.251C256.875 160.935 253.16 158.263 249.95 159.283C246.739 160.304 245.248 164.63 246.62 168.946C247.991 173.262 251.706 175.933 254.917 174.913Z" fill="#F2F2F2"/>
<path d="M252.764 168.204C253.952 167.946 254.61 166.337 254.234 164.61C253.858 162.883 252.591 161.692 251.404 161.95C250.217 162.209 249.559 163.818 249.934 165.545C250.31 167.272 251.577 168.462 252.764 168.204Z" fill="#C4B7B3"/>
<path d="M256.4 174.12C256.4 174.12 255.08 168.34 251.75 167.64C248.42 166.94 247.6 171.16 247.6 171.16C248.043 172.048 248.661 172.837 249.417 173.48C250.174 174.123 251.052 174.606 252 174.9C255.33 176 256.4 174.12 256.4 174.12Z" fill="#C4B7B3"/>
<path d="M235.599 164.197C239.078 163.091 240.694 158.406 239.209 153.732C237.724 149.058 233.699 146.165 230.22 147.271C226.741 148.377 225.125 153.062 226.61 157.736C228.095 162.41 232.12 165.302 235.599 164.197Z" fill="#EA7554"/>
<path d="M235.66 151.67C235.45 151.61 233.59 152.78 233.66 153.17C233.73 153.56 234.66 154.88 234.52 155.12C234.38 155.36 232.52 157.72 231.46 157.87C230.748 157.426 230.079 156.917 229.46 156.35C229.116 156.481 228.812 156.698 228.576 156.98C228.34 157.262 228.179 157.599 228.11 157.96C228.11 158.39 229.84 159.84 230.91 160.21C232.3 160.69 236.58 155.94 237.09 154.7C237.6 153.46 235.66 151.67 235.66 151.67Z" fill="white"/>
<path d="M219.87 144.19V152.38C219.869 152.674 219.792 152.963 219.646 153.218C219.501 153.474 219.291 153.687 219.038 153.837C218.785 153.987 218.497 154.069 218.203 154.075C217.909 154.081 217.619 154.01 217.36 153.87L209.79 149.71C209.524 149.563 209.301 149.347 209.146 149.085C208.992 148.823 208.91 148.524 208.91 148.22V139.84C208.912 139.543 208.991 139.252 209.139 138.995C209.288 138.739 209.502 138.525 209.759 138.377C210.015 138.228 210.307 138.149 210.604 138.148C210.9 138.147 211.192 138.223 211.45 138.37L219.02 142.72C219.278 142.869 219.493 143.083 219.642 143.341C219.791 143.599 219.87 143.892 219.87 144.19Z" fill="#FFAC99"/>
<path d="M215.144 149.572C216.341 149.057 216.737 147.303 216.028 145.654C215.319 144.005 213.773 143.085 212.576 143.6C211.378 144.115 210.983 145.869 211.692 147.518C212.401 149.167 213.946 150.087 215.144 149.572Z" fill="white"/>
<path d="M204.1 137.73C204.1 137.73 207 124.87 213.1 124.16C219.2 123.45 253.85 140.33 261.64 150.11C266.54 156.26 267.21 162.11 266.94 165.36C266.83 166.68 267.21 193.15 267.21 193.15L204.1 156.65V137.73Z" fill="#F43892"/>
<path d="M255 114.11C254.32 105.65 253.46 96.1899 248.46 89.8299C241.74 81.2899 228.21 78.5099 219.19 86.2099C217.28 87.8399 216.39 90.4699 215.84 93.1599C215.248 96.2525 215.036 99.4059 215.21 102.55C215.553 108.73 216.703 114.838 218.63 120.72C220.51 126.72 247.44 141.45 252.79 135.3C256.65 130.84 255.44 119.8 255 114.11Z" fill="#F7A500"/>
<path d="M243.14 117.48V136.48C243.14 136.48 234.48 139.57 228.14 136.48V117.48" fill="#FFD3C0"/>
<path d="M228.14 128.34V132.45C233.84 131.86 239.15 129.283 243.14 125.17V117.47L228.14 128.34Z" fill="#F7B29A"/>
<path d="M242.32 107.83C242.32 107.83 244.66 96.8301 239.32 94.5201C234.42 92.4601 231.03 99.3101 228.32 99.5201C227.347 100.27 226.209 100.778 225 101C224.124 101.16 223.224 101.129 222.362 100.91C221.499 100.691 220.693 100.288 220 99.7301C220.52 100.12 220.09 105.37 220.13 106.31C220.22 108.797 220.447 111.278 220.81 113.74C221.47 117.98 222.48 123.03 225.48 126.3C230.74 132.02 238.48 128.72 241.16 122.25C241.54 121.31 241.83 120.34 242.25 119.41L243.77 116.04C243.77 116.04 248.02 114.04 248.02 110.66C248.02 107.28 245.65 107 242.32 107.83Z" fill="#FFD3C0"/>
<path d="M244.16 107L239.08 108.89C238.857 107.7 238.245 106.617 237.34 105.811C236.435 105.006 235.288 104.524 234.08 104.44C231.52 104.44 229.38 106.6 228.91 109.44C228.28 109.37 227.65 109.28 227.03 109.17C227.03 109.1 227.03 109.03 227.03 108.95C227.03 105.95 224.93 103.47 222.34 103.47C219.75 103.47 217.65 105.92 217.65 108.95C217.65 111.98 219.75 114.43 222.34 114.43C223.476 114.36 224.552 113.897 225.385 113.123C226.218 112.348 226.757 111.308 226.91 110.18C227.54 110.29 228.18 110.38 228.82 110.44C228.82 110.5 228.82 110.57 228.82 110.63C228.82 114.07 231.18 116.86 234.09 116.86C237 116.86 239.36 114.07 239.36 110.63C239.374 110.37 239.374 110.11 239.36 109.85L244.53 107.93C245 107.73 244.76 106.76 244.16 107Z" stroke="black" stroke-miterlimit="10"/>
<path d="M227.09 118.55C226.94 118.608 226.781 118.639 226.62 118.64C226.378 118.633 226.143 118.56 225.941 118.428C225.738 118.295 225.576 118.11 225.473 117.892C225.369 117.673 225.328 117.43 225.354 117.19C225.38 116.95 225.472 116.721 225.62 116.53C225.73 116.29 225.86 116.06 225.92 115.91L227.02 113.07C227.25 112.47 226.29 112.21 226.02 112.8L224.83 115.86C224.489 116.473 224.301 117.159 224.28 117.86C224.45 119.22 225.93 119.49 227.04 119.54C227.73 119.58 227.73 118.58 227.09 118.55Z" fill="#E2886F"/>
<path d="M228.2 120.45L234.03 118.35C234.03 118.35 235.73 123.29 233.4 124.14C231.07 124.99 228.2 120.45 228.2 120.45Z" fill="white"/>
<defs>
<linearGradient id="paint0_linear" x1="193.33" y1="234.16" x2="218.8" y2="198.65" gradientUnits="userSpaceOnUse">
<stop stop-color="#FBAE17" stop-opacity="0"/>
<stop offset="1" stop-color="#C1272D"/>
</linearGradient>
<linearGradient id="paint1_linear" x1="118.56" y1="252.89" x2="151.7" y2="224.79" gradientUnits="userSpaceOnUse">
<stop stop-color="white" stop-opacity="0"/>
<stop offset="1" stop-color="#ED1C24"/>
</linearGradient>
</defs>
</svg>
