<svg width="81" height="111" viewBox="0 0 81 111" fill="none" xmlns="http://www.w3.org/2000/svg">
<g clip-path="url(#clip0)">
<path opacity="0.5" d="M72.4599 3.56C73.443 3.56 74.2399 2.76307 74.2399 1.78C74.2399 0.796933 73.443 0 72.4599 0C71.4769 0 70.6799 0.796933 70.6799 1.78C70.6799 2.76307 71.4769 3.56 72.4599 3.56Z" fill="white"/>
<path opacity="0.5" d="M72.4599 27.12C73.443 27.12 74.2399 26.3231 74.2399 25.34C74.2399 24.3569 73.443 23.56 72.4599 23.56C71.4769 23.56 70.6799 24.3569 70.6799 25.34C70.6799 26.3231 71.4769 27.12 72.4599 27.12Z" fill="white"/>
<path opacity="0.5" d="M72.4599 50.68C73.443 50.68 74.2399 49.8831 74.2399 48.9C74.2399 47.9169 73.443 47.12 72.4599 47.12C71.4769 47.12 70.6799 47.9169 70.6799 48.9C70.6799 49.8831 71.4769 50.68 72.4599 50.68Z" fill="white"/>
<path opacity="0.5" d="M72.4599 74.24C73.443 74.24 74.2399 73.4431 74.2399 72.46C74.2399 71.4769 73.443 70.68 72.4599 70.68C71.4769 70.68 70.6799 71.4769 70.6799 72.46C70.6799 73.4431 71.4769 74.24 72.4599 74.24Z" fill="white"/>
<path opacity="0.5" d="M72.4599 97.8C73.443 97.8 74.2399 97.0031 74.2399 96.02C74.2399 95.0369 73.443 94.24 72.4599 94.24C71.4769 94.24 70.6799 95.0369 70.6799 96.02C70.6799 97.0031 71.4769 97.8 72.4599 97.8Z" fill="white"/>
<path opacity="0.5" d="M48.9001 3.56C49.8832 3.56 50.6801 2.76307 50.6801 1.78C50.6801 0.796933 49.8832 0 48.9001 0C47.917 0 47.1201 0.796933 47.1201 1.78C47.1201 2.76307 47.917 3.56 48.9001 3.56Z" fill="white"/>
<path opacity="0.5" d="M48.9001 27.12C49.8832 27.12 50.6801 26.3231 50.6801 25.34C50.6801 24.3569 49.8832 23.56 48.9001 23.56C47.917 23.56 47.1201 24.3569 47.1201 25.34C47.1201 26.3231 47.917 27.12 48.9001 27.12Z" fill="white"/>
<path opacity="0.5" d="M48.9001 50.68C49.8832 50.68 50.6801 49.8831 50.6801 48.9C50.6801 47.9169 49.8832 47.12 48.9001 47.12C47.917 47.12 47.1201 47.9169 47.1201 48.9C47.1201 49.8831 47.917 50.68 48.9001 50.68Z" fill="white"/>
<path opacity="0.5" d="M48.9001 74.24C49.8832 74.24 50.6801 73.4431 50.6801 72.46C50.6801 71.4769 49.8832 70.68 48.9001 70.68C47.917 70.68 47.1201 71.4769 47.1201 72.46C47.1201 73.4431 47.917 74.24 48.9001 74.24Z" fill="white"/>
<path opacity="0.5" d="M48.9001 97.8C49.8832 97.8 50.6801 97.0031 50.6801 96.02C50.6801 95.0369 49.8832 94.24 48.9001 94.24C47.917 94.24 47.1201 95.0369 47.1201 96.02C47.1201 97.0031 47.917 97.8 48.9001 97.8Z" fill="white"/>
<path opacity="0.5" d="M25.3401 3.56C26.3231 3.56 27.1201 2.76307 27.1201 1.78C27.1201 0.796933 26.3231 0 25.3401 0C24.357 0 23.5601 0.796933 23.5601 1.78C23.5601 2.76307 24.357 3.56 25.3401 3.56Z" fill="white"/>
<path opacity="0.5" d="M25.3401 27.12C26.3231 27.12 27.1201 26.3231 27.1201 25.34C27.1201 24.3569 26.3231 23.56 25.3401 23.56C24.357 23.56 23.5601 24.3569 23.5601 25.34C23.5601 26.3231 24.357 27.12 25.3401 27.12Z" fill="white"/>
<path opacity="0.5" d="M25.3401 50.68C26.3231 50.68 27.1201 49.8831 27.1201 48.9C27.1201 47.9169 26.3231 47.12 25.3401 47.12C24.357 47.12 23.5601 47.9169 23.5601 48.9C23.5601 49.8831 24.357 50.68 25.3401 50.68Z" fill="white"/>
<path opacity="0.5" d="M25.3401 74.24C26.3231 74.24 27.1201 73.4431 27.1201 72.46C27.1201 71.4769 26.3231 70.68 25.3401 70.68C24.357 70.68 23.5601 71.4769 23.5601 72.46C23.5601 73.4431 24.357 74.24 25.3401 74.24Z" fill="white"/>
<path opacity="0.5" d="M25.3401 97.8C26.3231 97.8 27.1201 97.0031 27.1201 96.02C27.1201 95.0369 26.3231 94.24 25.3401 94.24C24.357 94.24 23.5601 95.0369 23.5601 96.02C23.5601 97.0031 24.357 97.8 25.3401 97.8Z" fill="white"/>
<path opacity="0.5" d="M1.78 3.56C2.76307 3.56 3.56 2.76307 3.56 1.78C3.56 0.796933 2.76307 0 1.78 0C0.796933 0 0 0.796933 0 1.78C0 2.76307 0.796933 3.56 1.78 3.56Z" fill="white"/>
<path opacity="0.5" d="M1.78 27.12C2.76307 27.12 3.56 26.3231 3.56 25.34C3.56 24.3569 2.76307 23.56 1.78 23.56C0.796933 23.56 0 24.3569 0 25.34C0 26.3231 0.796933 27.12 1.78 27.12Z" fill="white"/>
<path opacity="0.5" d="M1.78 50.68C2.76307 50.68 3.56 49.8831 3.56 48.9C3.56 47.9169 2.76307 47.12 1.78 47.12C0.796933 47.12 0 47.9169 0 48.9C0 49.8831 0.796933 50.68 1.78 50.68Z" fill="white"/>
<path opacity="0.5" d="M1.78 74.24C2.76307 74.24 3.56 73.4431 3.56 72.46C3.56 71.4769 2.76307 70.68 1.78 70.68C0.796933 70.68 0 71.4769 0 72.46C0 73.4431 0.796933 74.24 1.78 74.24Z" fill="white"/>
<path opacity="0.5" d="M1.78 97.8C2.76307 97.8 3.56 97.0031 3.56 96.02C3.56 95.0369 2.76307 94.24 1.78 94.24C0.796933 94.24 0 95.0369 0 96.02C0 97.0031 0.796933 97.8 1.78 97.8Z" fill="white"/>
</g>
<defs>
<clipPath id="clip0">
<rect width="80.08" height="110.69" fill="white"/>
</clipPath>
</defs>
</svg>
