<svg width="113" height="145" viewBox="0 0 113 145" fill="none" xmlns="http://www.w3.org/2000/svg">
<path d="M48.474 48.5787C48.1349 48.7276 47.7958 48.893 47.4568 49.075C47.3989 49.1081 47.341 49.1411 47.2748 49.1742C46.9853 49.3396 46.6876 49.5133 46.3981 49.6953C46.3237 49.7449 46.2493 49.7862 46.1748 49.8359C45.844 50.0509 45.5215 50.2742 45.1989 50.5223C45.1824 50.5388 45.1576 50.5471 45.1328 50.5636C45.0997 50.5885 45.0666 50.6215 45.0335 50.6464C44.6283 50.9524 44.2313 51.2749 43.8343 51.6223C43.8178 51.6388 43.7929 51.6553 43.7764 51.6719C43.3794 52.0192 42.9907 52.3914 42.6103 52.7801C42.5855 52.8049 42.5524 52.838 42.5276 52.8628C42.1554 53.2433 41.7915 53.6485 41.4276 54.062C41.378 54.1199 41.3284 54.1778 41.2787 54.2357C40.9314 54.641 40.5923 55.0628 40.2615 55.4928C40.2284 55.5342 40.2036 55.5673 40.1705 55.6086C40.1457 55.6417 40.1209 55.683 40.0878 55.7244C39.7818 56.1297 39.484 56.5514 39.1946 56.9815C39.145 57.0559 39.0953 57.1304 39.0457 57.2048C38.748 57.6597 38.4502 58.1146 38.1691 58.5942C38.1608 58.6025 38.1608 58.6108 38.1525 58.6191C37.8713 59.0905 37.6067 59.5702 37.342 60.0664C37.3007 60.1408 37.2593 60.2235 37.218 60.298C36.9698 60.7776 36.73 61.2573 36.4984 61.7536C36.4571 61.8528 36.4074 61.9438 36.3661 62.043C36.1345 62.5392 35.9195 63.0437 35.7127 63.5565C35.6879 63.6227 35.6548 63.6971 35.63 63.7715C35.4315 64.2843 35.233 64.7971 35.0594 65.3181C35.0428 65.3595 35.0263 65.4008 35.018 65.4422C34.8361 65.9797 34.6707 66.5256 34.5052 67.0714C34.4804 67.1707 34.4474 67.2699 34.4225 67.3609C34.2737 67.8985 34.1331 68.4361 34.009 68.9736C34.0007 69.015 33.9842 69.0564 33.9759 69.0977C33.9677 69.1556 33.9594 69.2052 33.9429 69.2631C33.8105 69.8503 33.6947 70.4375 33.5955 71.0247C33.5872 71.0909 33.5707 71.1653 33.5624 71.2315C33.4632 71.8518 33.3722 72.4803 33.306 73.1089C33.2399 73.7043 33.1985 74.2915 33.1737 74.8622C33.1654 75.0524 33.1654 75.2344 33.1572 75.4246C33.1489 75.805 33.1406 76.1855 33.1406 76.5576C33.1406 76.6238 33.1406 76.69 33.1406 76.7561C33.1406 76.9381 33.1572 77.1035 33.1654 77.2772C33.1737 77.5418 33.182 77.8147 33.2068 78.0711C33.2233 78.311 33.2481 78.5425 33.273 78.7824C33.2978 79.0388 33.3226 79.2951 33.3557 79.5433C33.3887 79.7748 33.4218 79.9981 33.4549 80.2214C33.4963 80.4613 33.5376 80.7094 33.579 80.941C33.6203 81.156 33.6699 81.371 33.7196 81.5861C33.7692 81.8176 33.8271 82.0409 33.885 82.2642C33.9098 82.3387 33.918 82.4296 33.9429 82.5041C34.0173 82.7605 34.0917 83.0168 34.1744 83.265C34.1827 83.2815 34.1827 83.2898 34.191 83.3063C34.3068 83.6537 34.4391 83.9928 34.5714 84.3236C34.5962 84.3815 34.621 84.4476 34.6458 84.5055C34.7864 84.8281 34.9353 85.1423 35.0842 85.4484C35.1173 85.5062 35.1503 85.5641 35.1752 85.622C35.3406 85.928 35.506 86.234 35.6879 86.5152C35.6962 86.5235 35.6962 86.5318 35.7045 86.5401C35.8864 86.8212 36.0684 87.0859 36.2668 87.3423C36.2999 87.3919 36.3413 87.4415 36.3744 87.4829C36.5729 87.731 36.7713 87.9708 36.9864 88.1941C37.0277 88.2355 37.0691 88.2768 37.1104 88.3265C37.3337 88.558 37.557 88.7731 37.7969 88.9716L37.8052 88.9798C38.0367 89.1783 38.2848 89.3603 38.533 89.534C38.5826 89.567 38.6239 89.6001 38.6735 89.6332C38.9217 89.7986 39.1698 89.9475 39.4262 90.0798C39.4758 90.1046 39.5254 90.1294 39.575 90.1542C39.8479 90.2866 40.1209 90.4189 40.4021 90.5264L56.6618 96.6052C56.3806 96.4977 56.0994 96.3736 55.8264 96.233C55.7768 96.2082 55.7272 96.1834 55.6776 96.1586C55.4212 96.0262 55.1648 95.8691 54.925 95.712C54.8753 95.6789 54.834 95.6458 54.7844 95.6127C54.5362 95.439 54.2881 95.2571 54.0566 95.0586L54.0483 95.0503C53.8084 94.8518 53.5851 94.6285 53.3618 94.4052C53.3205 94.3639 53.2791 94.3225 53.2378 94.2729C53.031 94.0496 52.8243 93.8098 52.6258 93.5616C52.5927 93.512 52.5513 93.4624 52.5183 93.4211C52.3198 93.1647 52.1295 92.9 51.9559 92.6188C51.9476 92.6105 51.9476 92.6023 51.9393 92.594C51.7574 92.3045 51.592 92.0068 51.4266 91.7008C51.3935 91.6429 51.3604 91.585 51.3356 91.5189C51.1784 91.2128 51.0296 90.8986 50.8973 90.576C50.8724 90.5181 50.8476 90.452 50.8228 90.3941C50.6905 90.0633 50.5582 89.7242 50.4424 89.3768C50.4341 89.3603 50.4341 89.352 50.4258 89.3355C50.3183 89.0129 50.2273 88.6821 50.1364 88.343C50.0785 88.1197 50.0206 87.8881 49.971 87.6648C49.9213 87.4498 49.8717 87.243 49.8304 87.0197C49.7807 86.7799 49.7477 86.5401 49.7063 86.3002C49.6732 86.0769 49.6319 85.8536 49.6071 85.622C49.574 85.3739 49.5492 85.1175 49.5244 84.8612C49.4995 84.6296 49.4747 84.398 49.4582 84.1582C49.4417 83.8935 49.4334 83.6289 49.4168 83.3642C49.4086 83.1244 49.4003 82.8845 49.392 82.6447C49.3838 82.2725 49.4003 81.8921 49.4086 81.5116C49.4168 81.3214 49.4168 81.1395 49.4251 80.9575C49.4499 80.3786 49.4913 79.7996 49.5574 79.2042C49.6236 78.5756 49.7063 77.9553 49.8138 77.3268C49.8221 77.2606 49.8304 77.1862 49.8469 77.12C49.9462 76.5328 50.0619 75.9456 50.1943 75.3584C50.2191 75.2592 50.2356 75.1682 50.2604 75.069C50.3845 74.5314 50.5251 73.9855 50.674 73.4562C50.6988 73.357 50.7318 73.2577 50.7567 73.1585C50.9138 72.6126 51.0792 72.0668 51.2694 71.5292C51.286 71.4879 51.3025 71.4465 51.3108 71.4051C51.4927 70.8841 51.6829 70.3631 51.8814 69.8586C51.9062 69.7841 51.9393 69.718 51.9641 69.6435C52.1709 69.1308 52.3942 68.6263 52.6175 68.1218C52.6589 68.0225 52.7002 67.9316 52.7498 67.8406C52.9814 67.3444 53.2212 66.8647 53.4694 66.385C53.5107 66.3106 53.5521 66.2279 53.5934 66.1534C53.8581 65.6655 54.1227 65.1775 54.4039 64.7061C54.4122 64.6978 54.4122 64.6896 54.4205 64.6813C54.7017 64.2099 54.9994 63.7467 55.2971 63.2919C55.3468 63.2174 55.3964 63.143 55.446 63.0686C55.7355 62.6385 56.0332 62.2167 56.3392 61.8114C56.3971 61.737 56.455 61.6626 56.5129 61.5881C56.8437 61.1581 57.1828 60.7363 57.5301 60.3228C57.5798 60.2649 57.6294 60.207 57.679 60.1491C58.0346 59.7356 58.4068 59.3303 58.779 58.9499C58.8038 58.9251 58.8369 58.892 58.8617 58.8672C59.2421 58.4785 59.6308 58.1063 60.0278 57.7589C60.0444 57.7424 60.0692 57.7258 60.0857 57.7093C60.4827 57.3619 60.8797 57.0394 61.2849 56.7334C61.3345 56.692 61.3924 56.6507 61.4421 56.6093C61.7646 56.3695 62.0872 56.1379 62.418 55.9229C62.4924 55.8733 62.5668 55.8319 62.633 55.7823C62.9225 55.6003 63.2119 55.4267 63.5097 55.2613C63.5676 55.2282 63.6255 55.1951 63.6916 55.162C64.0307 54.9801 64.3615 54.8147 64.7089 54.6658C64.7833 54.6327 64.866 54.5996 64.9405 54.5665C65.2465 54.4342 65.5525 54.3184 65.8585 54.2109C65.9164 54.1944 65.966 54.1696 66.0239 54.153C66.3051 54.062 66.578 53.9793 66.8592 53.9049C68.9433 53.3756 70.8621 53.4748 72.5493 54.1034L56.2896 48.0246C54.6024 47.3961 52.6754 47.2968 50.5995 47.8261C50.3183 47.9006 50.0454 47.9833 49.7642 48.0742C49.7477 48.0825 49.7311 48.0825 49.7146 48.0908C49.6732 48.1073 49.6401 48.1239 49.5988 48.1321C49.2928 48.2397 48.9868 48.3554 48.6808 48.4878C48.6312 48.5126 48.5485 48.5457 48.474 48.5787Z" fill="url(#paint0_linear)"/>
<path d="M49.5989 79.1794C49.6651 78.5508 49.7478 77.9305 49.8553 77.302C49.8636 77.2358 49.8719 77.1614 49.8884 77.0952C49.9877 76.508 50.1034 75.9208 50.2358 75.3336C50.2606 75.2344 50.2771 75.1434 50.3019 75.0441C50.426 74.5066 50.5666 73.9607 50.7155 73.4314C50.7403 73.3322 50.7733 73.2329 50.7982 73.1337C50.9553 72.5878 51.1207 72.042 51.3109 71.5044C51.3275 71.463 51.344 71.4217 51.3523 71.3803C51.5342 70.8593 51.7244 70.3383 51.9229 69.8338C51.9478 69.7593 51.9808 69.6932 52.0056 69.6187C52.2124 69.106 52.4357 68.6015 52.659 68.097C52.7004 67.9977 52.7417 67.9068 52.7913 67.8158C53.0229 67.3196 53.2627 66.8399 53.5109 66.3602C53.5522 66.2857 53.5936 66.203 53.6349 66.1286C53.8996 65.6407 54.1642 65.1527 54.4454 64.6813C54.4537 64.673 54.4537 64.6647 54.462 64.6565C54.7432 64.1851 55.0409 63.7219 55.3386 63.267C55.3883 63.1926 55.4379 63.1182 55.4875 63.0437C55.777 62.6137 56.0747 62.1919 56.3807 61.7866C56.4386 61.7122 56.4965 61.6378 56.5544 61.5633C56.8852 61.1333 57.2243 60.7115 57.5716 60.298C57.6213 60.2401 57.6709 60.1822 57.7205 60.1243C58.0761 59.7107 58.4483 59.3055 58.8205 58.9251C58.8453 58.9002 58.8784 58.8672 58.9032 58.8424C59.2836 58.4536 59.6723 58.0815 60.0693 57.7341C60.0859 57.7176 60.1107 57.701 60.1272 57.6845C60.5242 57.3371 60.9212 57.0146 61.3264 56.7086C61.3761 56.6672 61.4339 56.6259 61.4836 56.5845C61.8061 56.3447 62.1287 56.1131 62.4595 55.8981C62.5339 55.8485 62.6083 55.8071 62.6745 55.7575C62.964 55.5755 63.2534 55.4019 63.5512 55.2364C63.6091 55.2034 63.667 55.1703 63.7331 55.1372C64.0722 54.9552 64.403 54.7898 64.7504 54.641C64.8248 54.6079 64.9075 54.5748 64.982 54.5417C65.288 54.4094 65.594 54.2936 65.9 54.1861C65.9579 54.1696 66.0075 54.1447 66.0654 54.1282C66.3466 54.0372 66.6195 53.9545 66.9007 53.8801C68.8525 53.3839 70.6637 53.4418 72.2682 53.9711L72.2765 53.9628L56.3311 48.0081C54.6439 47.3795 52.7169 47.2803 50.641 47.8096C50.3598 47.884 50.0869 47.9667 49.8057 48.0577C49.7892 48.066 49.7726 48.066 49.7561 48.0742C49.7147 48.0908 49.6817 48.1073 49.6403 48.1156C49.3343 48.2231 49.0283 48.3389 48.7223 48.4712C48.6396 48.5043 48.5651 48.5374 48.4824 48.5705C48.1433 48.7193 47.8043 48.8847 47.4652 49.0667C47.4073 49.0998 47.3494 49.1329 47.2832 49.1659C46.9938 49.3314 46.696 49.505 46.4066 49.687C46.3321 49.7366 46.2577 49.778 46.1833 49.8276C45.8524 50.0426 45.5299 50.2659 45.2073 50.514C45.1908 50.5306 45.166 50.5388 45.1412 50.5554C45.1081 50.5802 45.075 50.6133 45.0419 50.6381C44.6367 50.9441 44.2397 51.2666 43.8427 51.614C43.8262 51.6305 43.8014 51.6471 43.7848 51.6636C43.3878 52.011 42.9991 52.3831 42.6187 52.7719C42.5939 52.7967 42.5608 52.8297 42.536 52.8546C42.1638 53.235 41.7999 53.6403 41.436 54.0538C41.3864 54.1117 41.3368 54.1696 41.2872 54.2275C40.9398 54.6327 40.6007 55.0545 40.2699 55.4846C40.2368 55.5259 40.212 55.559 40.1789 55.6003C40.1541 55.6334 40.1293 55.6748 40.0962 55.7161C39.7902 56.1214 39.4925 56.5432 39.203 56.9732C39.1534 57.0477 39.1038 57.1221 39.0541 57.1965C38.7564 57.6514 38.4587 58.1063 38.1775 58.586C38.1692 58.5942 38.1692 58.6025 38.1609 58.6108C37.8797 59.0822 37.6151 59.5619 37.3504 60.0581C37.3091 60.1325 37.2677 60.2153 37.2264 60.2897C36.9783 60.7694 36.7384 61.2491 36.5068 61.7453C36.4655 61.8445 36.4159 61.9355 36.3745 62.0347C36.1429 62.531 35.9279 63.0355 35.7212 63.5482C35.6963 63.6144 35.6633 63.6888 35.6384 63.7633C35.44 64.276 35.2415 64.7888 35.0678 65.3098C35.0512 65.3512 35.0347 65.3925 35.0264 65.4339C34.8445 65.9715 34.6791 66.5173 34.5137 67.0632C34.4889 67.1624 34.4558 67.2617 34.431 67.3526C34.2821 67.8902 34.1415 68.4278 34.0174 68.9654C34.0092 69.0067 33.9926 69.0481 33.9844 69.0894C33.9761 69.1473 33.9678 69.1969 33.9513 69.2548C33.819 69.842 33.7032 70.4292 33.6039 71.0164C33.5956 71.0826 33.5791 71.157 33.5708 71.2232C33.4716 71.8435 33.3806 72.472 33.3145 73.1006L49.5328 79.7914C49.5659 79.5846 49.5741 79.3861 49.5989 79.1794Z" fill="url(#paint1_linear)"/>
<path d="M0.530292 81.4376C4.45875 43.7823 29.0633 7.80593 55.4956 1.09034C81.9197 -5.62525 100.156 19.4507 96.2358 57.1143C92.3073 94.7696 67.7111 130.738 41.287 137.462C14.8464 144.177 -3.3899 119.093 0.530292 81.4376ZM63.4352 65.4426C64.6675 53.5993 58.9279 45.7093 50.6243 47.8183C42.3043 49.9355 34.5714 61.2578 33.3308 73.101C32.0986 84.9443 37.8382 92.8343 46.15 90.7171C54.4618 88.5998 62.2029 77.2859 63.4352 65.4426Z" fill="url(#paint2_linear)"/>
<path d="M55.4953 1.08989C29.063 7.80549 4.45846 43.7819 0.529999 81.4372C0.529999 81.4703 0.521729 81.5034 0.521729 81.5447L33.3223 73.2081C33.3223 73.175 33.3306 73.1419 33.3306 73.1006C34.5628 61.2573 42.304 49.9351 50.6158 47.8261C58.9276 45.7172 64.6672 53.5989 63.4267 65.4504C63.4267 65.4835 63.4184 65.5249 63.4101 65.558L96.2107 57.2214C96.2107 57.1883 96.219 57.1469 96.219 57.1138C100.156 19.4503 81.9194 -5.63397 55.4953 1.08989Z" fill="url(#paint3_linear)"/>
<path d="M102.141 16.7872C101.876 16.4646 101.612 16.1504 101.339 15.8444C101.182 15.6707 101.025 15.497 100.867 15.3233C100.578 15.009 100.28 14.703 99.9824 14.4053C99.8418 14.2647 99.7012 14.1158 99.5524 13.9752C99.1306 13.57 98.7005 13.173 98.2622 12.8008C98.2374 12.776 98.2126 12.7512 98.1877 12.7347C97.7246 12.3377 97.2449 11.9655 96.7652 11.6016C96.6164 11.4858 96.4592 11.3783 96.3021 11.2708C95.963 11.0227 95.6239 10.7911 95.2765 10.5595C95.0946 10.4355 94.9044 10.3197 94.7142 10.2039C94.3833 9.99715 94.0525 9.79866 93.7134 9.60844C93.5232 9.50093 93.333 9.39341 93.1345 9.28589C92.7706 9.09567 92.4067 8.91372 92.0428 8.74005C91.8691 8.65734 91.7037 8.57464 91.53 8.49193C90.9842 8.24382 90.4383 8.01225 89.876 7.80549L73.5997 1.72672C74.1621 1.93348 74.708 2.16505 75.2538 2.41316C75.4275 2.49587 75.6012 2.57857 75.7666 2.66127C76.1388 2.83495 76.5027 3.0169 76.8583 3.20712C77.0568 3.31464 77.247 3.42215 77.4372 3.52967C77.7763 3.71989 78.1071 3.91838 78.4379 4.12514C78.6282 4.24093 78.8101 4.35671 79.0003 4.48077C79.3477 4.71234 79.6868 4.94392 80.0259 5.19203C80.183 5.29954 80.3319 5.40706 80.489 5.52285C80.977 5.88675 81.4484 6.25891 81.9115 6.6559C81.9363 6.68071 81.9611 6.69725 81.986 6.72206C82.4243 7.1025 82.8544 7.49121 83.2761 7.89646C83.425 8.03706 83.5656 8.18593 83.7062 8.32652C84.0039 8.62426 84.3017 8.93027 84.5994 9.24454C84.7566 9.41822 84.9137 9.5919 85.0708 9.76558C85.3438 10.0716 85.6167 10.3859 85.8813 10.7084C86.0302 10.8904 86.1791 11.0723 86.3279 11.2543C86.6091 11.6099 86.8821 11.9738 87.1467 12.3377C87.2625 12.4948 87.3866 12.652 87.5023 12.8174C87.8828 13.3549 88.2549 13.9008 88.6106 14.4632C88.6437 14.5211 88.6767 14.579 88.7098 14.6369C89.0324 15.1496 89.3466 15.6707 89.6444 16.2083C89.7602 16.4067 89.8594 16.6052 89.9752 16.8037C90.1985 17.209 90.4218 17.6225 90.6286 18.0443C90.7443 18.2759 90.8601 18.5074 90.9759 18.7473C91.1744 19.1608 91.3729 19.5743 91.5631 19.9961C91.6706 20.236 91.7782 20.4675 91.8774 20.7156C92.0759 21.1788 92.2661 21.6585 92.4563 22.1299C92.539 22.3366 92.6217 22.5351 92.6962 22.7419C92.9526 23.4283 93.2089 24.1231 93.4405 24.8343C93.4736 24.9336 93.4984 25.0328 93.5315 25.1321C93.73 25.7523 93.9285 26.3809 94.1104 27.0177C94.2014 27.332 94.2841 27.6463 94.3668 27.9605C94.466 28.3162 94.5653 28.6801 94.6563 29.044C94.739 29.3748 94.8134 29.7056 94.8961 30.0447C94.9788 30.4086 95.0698 30.7808 95.1442 31.1529C95.2187 31.492 95.2848 31.8394 95.351 32.1867C95.4254 32.5672 95.4999 32.9393 95.566 33.3198C95.6322 33.6671 95.6901 34.0228 95.748 34.3784C95.8141 34.7671 95.872 35.1558 95.9299 35.5445C95.9795 35.9002 96.0292 36.2641 96.0788 36.628C96.1284 37.0249 96.178 37.4219 96.2276 37.8189C96.269 38.1911 96.3103 38.5632 96.3434 38.9354C96.3848 39.3407 96.4261 39.7459 96.4592 40.1512C96.4923 40.5316 96.5171 40.912 96.5419 41.2925C96.5667 41.706 96.5998 42.1195 96.6164 42.5413C96.6412 42.93 96.6577 43.3187 96.666 43.7075C96.6825 44.1292 96.6991 44.551 96.7073 44.9728C96.7156 45.345 96.7239 45.7172 96.7239 46.0893C96.7321 46.6187 96.7321 47.1562 96.7321 47.6938C96.7321 48.0577 96.7239 48.4133 96.7239 48.7772C96.7156 49.3314 96.6991 49.8937 96.6743 50.4561C96.6577 50.8118 96.6494 51.1591 96.6329 51.5148C96.5998 52.135 96.5667 52.7553 96.5254 53.3756C96.5088 53.6816 96.4923 53.9793 96.4675 54.2853C96.3931 55.2199 96.3103 56.1545 96.2194 57.1056C96.1119 58.098 95.9961 59.0987 95.8638 60.0912C95.8472 60.1987 95.8389 60.3145 95.8224 60.422C95.6901 61.3648 95.5495 62.3077 95.4006 63.2422C95.3758 63.3911 95.351 63.5482 95.3262 63.6971C95.169 64.6151 95.0036 65.5331 94.8299 66.4512C94.7969 66.6083 94.7638 66.7654 94.739 66.9308C94.557 67.8489 94.3585 68.7669 94.1518 69.6849C94.1187 69.8255 94.0856 69.9661 94.0525 70.1067C93.8458 71.0082 93.6307 71.9097 93.3992 72.8029V72.8111C93.1676 73.7126 92.9277 74.6058 92.6714 75.4908C92.63 75.6313 92.5969 75.7719 92.5556 75.9125C92.3157 76.7644 92.0593 77.608 91.7947 78.4516C91.7451 78.617 91.6954 78.7741 91.6458 78.9395C91.3812 79.7914 91.1 80.635 90.8188 81.4703C90.7857 81.5778 90.7443 81.6853 90.703 81.7928C90.4218 82.6199 90.1241 83.4469 89.8263 84.2574C89.8015 84.3318 89.7684 84.4063 89.7436 84.489C89.4294 85.3243 89.1068 86.1596 88.776 86.9867C88.7181 87.1355 88.6519 87.2927 88.594 87.4415C88.2715 88.252 87.9324 89.0543 87.5933 89.8482C87.5354 89.9888 87.4693 90.1377 87.4031 90.2783C87.0475 91.0971 86.6836 91.9076 86.3114 92.7181C86.2866 92.776 86.2618 92.8256 86.237 92.8835C85.8731 93.6692 85.5009 94.4466 85.1204 95.224C85.0626 95.3315 85.0129 95.4473 84.955 95.5548C84.5746 96.3323 84.1776 97.0931 83.7806 97.8623C83.7062 98.0112 83.6235 98.1517 83.5491 98.3006C83.1521 99.0615 82.7386 99.8058 82.325 100.55C82.2589 100.666 82.1927 100.782 82.1266 100.898C81.6965 101.658 81.2664 102.411 80.8281 103.155C80.8116 103.18 80.8033 103.197 80.7867 103.222C80.3401 103.974 79.8853 104.718 79.4221 105.446C79.3477 105.57 79.2733 105.686 79.1905 105.81C78.7439 106.513 78.2891 107.208 77.8342 107.894C77.7432 108.027 77.6605 108.151 77.5695 108.283C77.0981 108.978 76.6267 109.664 76.147 110.342C76.0891 110.417 76.0395 110.491 75.9816 110.574C75.5102 111.236 75.0305 111.889 74.5426 112.534C74.4929 112.6 74.4433 112.675 74.3854 112.741C73.8478 113.452 73.302 114.147 72.7561 114.833C72.6734 114.932 72.599 115.032 72.5163 115.131C71.9787 115.793 71.4329 116.446 70.887 117.091C70.7961 117.199 70.7051 117.306 70.6058 117.414C70.06 118.05 69.5059 118.679 68.9435 119.291C68.8525 119.39 68.7615 119.489 68.6705 119.589C68.0999 120.209 67.521 120.813 66.942 121.408C66.8676 121.483 66.8014 121.557 66.727 121.623C66.1233 122.244 65.5112 122.847 64.891 123.434C64.8661 123.451 64.8496 123.476 64.8248 123.492C64.2045 124.08 63.576 124.65 62.9474 125.213C62.8978 125.262 62.8399 125.304 62.7903 125.353C62.1783 125.899 61.558 126.42 60.9294 126.933C60.8384 127.007 60.7557 127.082 60.6648 127.156C60.0527 127.652 59.4407 128.132 58.8287 128.595C58.7129 128.678 58.6054 128.769 58.4896 128.852C57.9686 129.24 57.4558 129.621 56.9265 129.985C56.8769 130.018 56.8273 130.051 56.7777 130.084C56.2897 130.423 55.8017 130.746 55.3138 131.068C55.1897 131.151 55.0574 131.234 54.9333 131.316C54.404 131.655 53.8747 131.986 53.3454 132.3C53.271 132.342 53.2048 132.383 53.1304 132.424C52.6507 132.706 52.171 132.979 51.6913 133.243C51.5673 133.309 51.4432 133.384 51.3192 133.45C50.7816 133.739 50.244 134.012 49.7064 134.285C49.6155 134.327 49.5328 134.368 49.4418 134.409C48.9621 134.641 48.4907 134.864 48.011 135.071C47.8869 135.129 47.7629 135.178 47.6471 135.236C47.1095 135.468 46.5637 135.7 46.0178 135.906C45.9186 135.948 45.8111 135.981 45.7118 136.022C45.2321 136.204 44.7607 136.378 44.281 136.535C44.157 136.576 44.0246 136.626 43.9006 136.667C43.6029 136.766 43.3051 136.857 42.9991 136.948C42.8585 136.99 42.7096 137.039 42.569 137.081C42.1307 137.213 41.6841 137.329 41.2375 137.445C37.094 138.495 33.1573 138.768 29.4687 138.338C27.2605 138.081 25.135 137.56 23.1252 136.808L39.3849 142.887C44.7607 144.896 50.8726 145.211 57.4972 143.523C57.9438 143.408 58.3821 143.292 58.8287 143.159C58.9776 143.118 59.1182 143.068 59.2671 143.027C59.5648 142.936 59.8625 142.845 60.1603 142.746C60.2099 142.729 60.2595 142.713 60.3174 142.696C60.3918 142.672 60.4663 142.638 60.549 142.614C61.0287 142.448 61.5001 142.283 61.9715 142.101C62.0707 142.06 62.1783 142.026 62.2775 141.985C62.8234 141.77 63.3609 141.547 63.9068 141.315C64.0308 141.266 64.1549 141.208 64.2707 141.15C64.7504 140.935 65.2218 140.72 65.7015 140.488C65.7924 140.447 65.8751 140.405 65.9661 140.364C66.5037 140.099 67.0413 139.818 67.5706 139.537C67.6946 139.471 67.8187 139.396 67.9428 139.33C68.4224 139.066 68.9021 138.793 69.3818 138.511C69.4562 138.47 69.5224 138.429 69.5968 138.387C70.1261 138.073 70.6555 137.742 71.1848 137.403C71.3088 137.321 71.4411 137.238 71.5652 137.155C72.0532 136.833 72.5411 136.51 73.0291 136.171C73.0787 136.138 73.1283 136.105 73.1779 136.072C73.699 135.708 74.22 135.327 74.7411 134.939C74.7989 134.897 74.8568 134.856 74.9147 134.806C74.9726 134.765 75.0222 134.715 75.0801 134.674C75.6922 134.211 76.3042 133.731 76.9162 133.235C77.0071 133.161 77.0981 133.086 77.1891 133.012C77.8094 132.499 78.4297 131.978 79.0499 131.432C79.0996 131.382 79.1575 131.341 79.2071 131.291C79.8356 130.729 80.4642 130.158 81.0845 129.571C81.1093 129.555 81.1258 129.53 81.1506 129.513C81.7709 128.926 82.3829 128.322 82.9867 127.702C83.0611 127.628 83.1273 127.561 83.2017 127.487C83.7806 126.892 84.3596 126.288 84.9302 125.667C85.0212 125.568 85.1122 125.469 85.2032 125.37C85.7655 124.758 86.3197 124.129 86.8655 123.492C86.9565 123.385 87.0557 123.277 87.1467 123.17C87.6926 122.525 88.2384 121.871 88.776 121.21C88.8587 121.11 88.9331 121.011 89.0158 120.912C89.5617 120.226 90.1075 119.531 90.6451 118.82C90.6616 118.803 90.6699 118.786 90.6865 118.762C90.7195 118.712 90.7609 118.662 90.794 118.613C91.2819 117.968 91.7616 117.314 92.233 116.653C92.2909 116.578 92.3405 116.504 92.3984 116.421C92.8781 115.743 93.3495 115.057 93.821 114.362C93.9119 114.229 93.9946 114.105 94.0856 113.973C94.5405 113.287 94.9954 112.592 95.442 111.889C95.5164 111.765 95.5991 111.641 95.6735 111.525C96.1367 110.789 96.5916 110.045 97.0382 109.3C97.0464 109.275 97.063 109.259 97.0712 109.234C97.5096 108.49 97.9479 107.737 98.3697 106.976C98.4359 106.861 98.502 106.745 98.5682 106.621C98.9817 105.876 99.387 105.132 99.7839 104.379C99.8584 104.231 99.9411 104.082 100.016 103.933C100.412 103.172 100.809 102.403 101.19 101.625C101.24 101.518 101.297 101.41 101.347 101.295C101.727 100.517 102.1 99.7314 102.472 98.9457C102.497 98.8961 102.521 98.8382 102.546 98.7886C102.918 97.9781 103.282 97.1676 103.638 96.3488C103.704 96.2082 103.762 96.0593 103.828 95.9187C104.167 95.1248 104.506 94.3225 104.829 93.512C104.887 93.3632 104.953 93.2143 105.011 93.0572C105.342 92.2301 105.664 91.3948 105.978 90.5512C106.003 90.4768 106.028 90.4024 106.061 90.3279C106.367 89.5091 106.657 88.6821 106.938 87.8551C106.979 87.7475 107.012 87.64 107.054 87.5325C107.343 86.6972 107.616 85.8453 107.881 85.0018C107.93 84.8363 107.98 84.6792 108.03 84.5138C108.294 83.6702 108.542 82.8266 108.79 81.9748C108.832 81.8342 108.873 81.6936 108.906 81.553C109.154 80.6598 109.402 79.7666 109.634 78.8734C109.866 77.9719 110.081 77.0704 110.287 76.1689C110.304 76.0779 110.329 75.987 110.354 75.896C110.362 75.8464 110.378 75.7968 110.387 75.7471C110.593 74.8291 110.784 73.9111 110.974 72.9931C111.007 72.8359 111.04 72.6788 111.065 72.5134C111.247 71.5954 111.412 70.6774 111.561 69.7593C111.586 69.6105 111.611 69.4533 111.635 69.3045C111.793 68.3616 111.933 67.4271 112.057 66.4842C112.074 66.3767 112.082 66.2609 112.099 66.1534C112.231 65.161 112.355 64.1685 112.454 63.1678C112.553 62.2167 112.636 61.2821 112.702 60.3476C112.727 60.0416 112.744 59.7356 112.76 59.4378C112.802 58.8176 112.843 58.189 112.868 57.577C112.884 57.2214 112.893 56.874 112.909 56.5184C112.926 55.956 112.95 55.4019 112.959 54.8477C112.967 54.4838 112.967 54.1199 112.967 53.756C112.967 53.2185 112.967 52.6892 112.959 52.1516C112.959 51.9531 112.959 51.7546 112.959 51.5561C112.959 51.3824 112.942 51.2087 112.942 51.0268C112.934 50.605 112.917 50.1749 112.901 49.7614C112.884 49.3727 112.868 48.984 112.851 48.5953C112.826 48.1818 112.802 47.7682 112.777 47.3547C112.752 46.9743 112.719 46.5856 112.694 46.2134C112.661 45.8081 112.62 45.4029 112.578 44.9976C112.537 44.6255 112.504 44.2533 112.463 43.8811C112.413 43.4842 112.363 43.0872 112.314 42.6902C112.264 42.3263 112.214 41.9624 112.165 41.6068C112.107 41.2181 112.041 40.8293 111.983 40.4406C111.925 40.085 111.867 39.7294 111.801 39.382C111.735 39.0016 111.66 38.6211 111.586 38.249C111.52 37.9016 111.454 37.5625 111.379 37.2234C111.296 36.8513 111.214 36.4791 111.123 36.1152C111.048 35.7844 110.966 35.4453 110.883 35.1227C110.792 34.7588 110.693 34.4032 110.593 34.0393C110.527 33.7995 110.469 33.5514 110.403 33.3115C110.387 33.2371 110.362 33.1709 110.337 33.1048C110.155 32.4679 109.957 31.8394 109.758 31.2191C109.725 31.1199 109.7 31.0206 109.667 30.9214C109.427 30.2101 109.179 29.5071 108.923 28.8207C108.848 28.6139 108.766 28.4154 108.683 28.2169C108.493 27.7372 108.302 27.2658 108.104 26.7944C107.996 26.5546 107.889 26.3147 107.79 26.0749C107.6 25.6531 107.409 25.2313 107.203 24.826C107.087 24.5945 106.971 24.3546 106.855 24.1231C106.64 23.7013 106.425 23.296 106.202 22.8825C106.094 22.684 105.987 22.4772 105.871 22.2788C105.565 21.7412 105.259 21.2201 104.936 20.7156C104.903 20.6577 104.87 20.5999 104.829 20.542C104.473 19.9796 104.101 19.4337 103.721 18.8961C103.605 18.7307 103.481 18.5736 103.365 18.4165C103.092 18.0526 102.819 17.6887 102.546 17.333C102.439 17.1511 102.29 16.9691 102.141 16.7872Z" fill="url(#paint4_linear)"/>
<path d="M112.09 66.4925C112.107 66.385 112.115 66.2692 112.132 66.1617C112.264 65.1692 112.388 64.1768 112.487 63.1761C112.586 62.225 112.669 61.2904 112.735 60.3559C112.76 60.0498 112.777 59.7438 112.793 59.4461C112.835 58.8258 112.876 58.1973 112.901 57.5852C112.917 57.2296 112.926 56.8823 112.942 56.5266C112.959 55.9642 112.983 55.4101 112.992 54.856C113 54.4921 113 54.1282 113 53.7643C113 53.2267 113 52.6974 112.992 52.1598C112.992 51.9613 112.992 51.7629 112.992 51.5644C112.992 51.3907 112.975 51.217 112.975 51.0351C112.967 50.6133 112.95 50.1832 112.934 49.7697C112.917 49.381 112.901 48.9923 112.884 48.6036C112.859 48.19 112.835 47.7765 112.81 47.363C112.785 46.9825 112.752 46.5938 112.727 46.2217C112.694 45.8164 112.653 45.4112 112.611 45.0059C112.57 44.6337 112.537 44.2616 112.495 43.8894C112.446 43.4924 112.396 43.0954 112.347 42.6985C112.297 42.3346 112.247 41.9707 112.198 41.615C112.14 41.2263 112.074 40.8376 112.016 40.4489C111.958 40.0933 111.9 39.7376 111.834 39.3903C111.768 39.0098 111.693 38.6294 111.619 38.2572C111.553 37.9099 111.486 37.5708 111.412 37.2317C111.329 36.8595 111.247 36.4874 111.156 36.1235C111.081 35.7926 110.999 35.4536 110.916 35.131C110.825 34.7671 110.726 34.4115 110.626 34.0476C110.56 33.8077 110.502 33.5596 110.436 33.3198C110.42 33.2454 110.395 33.1792 110.37 33.113C110.188 32.4762 109.99 31.8476 109.791 31.2274C109.758 31.1281 109.733 31.0289 109.7 30.9296C109.46 30.2184 109.212 29.5154 108.956 28.8289C108.881 28.6222 108.799 28.4237 108.716 28.2252C108.526 27.7455 108.335 27.2741 108.137 26.8027C108.029 26.5628 107.922 26.323 107.823 26.0832C107.632 25.6614 107.442 25.2396 107.235 24.8343C107.12 24.6027 107.004 24.3629 106.888 24.1313C106.673 23.7095 106.458 23.3043 106.235 22.8908C106.127 22.6923 106.02 22.4855 105.904 22.287C105.598 21.7494 105.292 21.2284 104.969 20.7239C104.936 20.666 104.903 20.6081 104.862 20.5502C104.506 19.9878 104.134 19.442 103.754 18.9044C103.638 18.739 103.514 18.5819 103.398 18.4247C103.125 18.0608 102.852 17.6969 102.579 17.3413C102.43 17.1594 102.281 16.9774 102.133 16.7955C101.868 16.4729 101.603 16.1586 101.33 15.8526C101.173 15.6789 101.016 15.5053 100.859 15.3316C100.57 15.0173 100.272 14.7113 99.974 14.4136C99.8334 14.273 99.6928 14.1241 99.544 13.9835C99.1222 13.5783 98.6921 13.1813 98.2538 12.8091C98.229 12.7843 98.2042 12.7595 98.1794 12.7429C97.7162 12.346 97.2365 11.9738 96.7568 11.6099C96.608 11.4941 96.4508 11.3866 96.2937 11.2791C95.9546 11.031 95.6155 10.7994 95.2682 10.5678C95.0862 10.4438 94.896 10.328 94.7058 10.2122C94.375 10.0054 94.0441 9.80693 93.705 9.61671C93.5148 9.5092 93.3246 9.40168 93.1261 9.29416C92.7622 9.10394 92.3983 8.922 92.0344 8.74832C91.8607 8.66561 91.6953 8.58291 91.5217 8.5002C90.9758 8.25209 90.43 8.02052 89.8676 7.81376L73.5996 1.72672C74.162 1.93348 74.7078 2.16505 75.2537 2.41316C75.4274 2.49587 75.6011 2.57857 75.7665 2.66127C76.1386 2.83495 76.5025 3.0169 76.8582 3.20712C77.0567 3.31464 77.2469 3.42215 77.4371 3.52967C77.7762 3.71989 78.107 3.91838 78.4378 4.12514C78.628 4.24093 78.81 4.35671 79.0002 4.48077C79.3476 4.71234 79.6867 4.94392 80.0257 5.19203C80.1829 5.29954 80.3317 5.40706 80.4889 5.52285C80.9768 5.88674 81.4483 6.25891 81.9114 6.6559C81.9362 6.68071 81.961 6.69725 81.9858 6.72206C82.4242 7.1025 82.8542 7.49121 83.276 7.89646C83.4249 8.03706 83.5655 8.18593 83.7061 8.32652C84.0038 8.62426 84.3016 8.93027 84.5993 9.24454C84.7564 9.41822 84.9136 9.5919 85.0707 9.76558C85.3436 10.0716 85.6166 10.3859 85.8812 10.7084C86.0301 10.8904 86.1789 11.0723 86.3278 11.2543C86.609 11.6099 86.8819 11.9738 87.1466 12.3377C87.2624 12.4948 87.3864 12.652 87.5022 12.8174C87.8827 13.3549 88.2548 13.9008 88.6105 14.4632C88.6435 14.5211 88.6766 14.579 88.7097 14.6369C89.0322 15.1496 89.3465 15.6707 89.6443 16.2083C89.76 16.4067 89.8593 16.6052 89.9751 16.8037C90.1984 17.209 90.4217 17.6225 90.6284 18.0443C90.7442 18.2759 90.86 18.5074 90.9758 18.7473C91.1743 19.1608 91.3728 19.5743 91.563 19.9961C91.6705 20.236 91.778 20.4675 91.8773 20.7156C92.0758 21.1788 92.266 21.6585 92.4562 22.1299C92.5389 22.3366 92.6216 22.5351 92.6961 22.7419C92.9524 23.4283 93.2088 24.1231 93.4404 24.8343C93.4735 24.9336 93.4983 25.0328 93.5314 25.1321C93.7299 25.7523 93.9283 26.3809 94.1103 27.0177C94.2013 27.332 94.284 27.6463 94.3667 27.9605C94.4659 28.3162 94.5652 28.6801 94.6561 29.044C94.7388 29.3748 94.8133 29.7056 94.896 30.0447C94.9787 30.4086 95.0697 30.7808 95.1441 31.1529C95.2185 31.492 95.2847 31.8394 95.3509 32.1867C95.4253 32.5672 95.4997 32.9393 95.5659 33.3198C95.6321 33.6671 95.6899 34.0228 95.7478 34.3784C95.814 34.7671 95.8719 35.1558 95.9298 35.5445C95.9794 35.9002 96.029 36.2641 96.0787 36.628C96.1283 37.0249 96.1779 37.4219 96.2275 37.8189C96.2689 38.1911 96.3102 38.5632 96.3433 38.9354C96.3847 39.3407 96.426 39.7459 96.4591 40.1512C96.4922 40.5316 96.517 40.912 96.5418 41.2925C96.5666 41.706 96.5997 42.1195 96.6162 42.5413C96.6411 42.93 96.6576 43.3187 96.6659 43.7075C96.6824 44.1292 96.6989 44.551 96.7072 44.9728C96.7155 45.345 96.7238 45.7172 96.7238 46.0893C96.732 46.6186 96.732 47.1562 96.732 47.6938C96.732 48.0577 96.7238 48.4133 96.7238 48.7772C96.7155 49.3314 96.6989 49.8937 96.6741 50.4561C96.6576 50.8118 96.6493 51.1591 96.6328 51.5147C96.5997 52.135 96.5666 52.7553 96.5253 53.3756C96.5087 53.6816 96.4922 53.9793 96.4674 54.2853C96.3929 55.2199 96.3102 56.1545 96.2193 57.1056L111.95 67.3692C112.008 67.0797 112.057 66.7902 112.09 66.4925Z" fill="url(#paint5_linear)"/>
<path opacity="0.5" d="M32.752 73.0427C32.1648 78.6914 33.1159 83.695 35.4399 87.1355C37.9707 90.882 41.9322 92.3955 46.2907 91.2873C54.8093 89.1204 62.7572 77.5584 64.0143 65.5083C64.6015 59.8596 63.6504 54.8477 61.3264 51.4155C58.7957 47.669 54.8424 46.1555 50.4756 47.2637C41.957 49.4223 34.0091 60.9927 32.752 73.0427ZM50.6245 47.8261C58.9362 45.7172 64.6759 53.5989 63.4354 65.4504C62.2031 77.2937 54.4619 88.6077 46.1502 90.7166C37.8384 92.8339 32.0987 84.9439 33.331 73.1006C34.5715 61.2573 42.3044 49.9351 50.6245 47.8261Z" fill="url(#paint6_linear)"/>
<path opacity="0.5" d="M0.530298 81.4372C-3.38989 119.092 14.8464 144.177 41.2787 137.453C67.7028 130.737 92.3073 94.7609 96.2275 57.1056C100.156 19.4503 81.9197 -5.63398 55.4956 1.08989C29.0633 7.80548 4.45876 43.7819 0.530298 81.4372ZM55.6362 1.65228C68.6374 -1.6559 79.9596 2.67781 87.5105 13.8512C94.5734 24.305 97.4681 39.6384 95.6486 57.0477C91.7532 94.4218 67.2975 130.233 41.1299 136.89C28.1205 140.199 16.7982 135.865 9.24734 124.692C2.18439 114.238 -0.701997 98.9044 1.10923 81.5116C5.01288 44.1292 29.4686 8.30998 55.6362 1.65228Z" fill="url(#paint7_linear)"/>
<defs>
<linearGradient id="paint0_linear" x1="53.2688" y1="80.0263" x2="53.709" y2="96.3165" gradientUnits="userSpaceOnUse">
<stop offset="0.0411" stop-color="#92C0FF"/>
<stop offset="0.3363" stop-color="#95C3FF"/>
<stop offset="0.5969" stop-color="#A0CBFF"/>
<stop offset="0.8436" stop-color="#B2D8FF"/>
<stop offset="0.8946" stop-color="#B7DCFF"/>
</linearGradient>
<linearGradient id="paint1_linear" x1="42.0586" y1="84.2276" x2="64.5126" y2="36.2377" gradientUnits="userSpaceOnUse">
<stop offset="0.0647" stop-color="#00338E"/>
<stop offset="1" stop-color="#00B2F1"/>
</linearGradient>
<linearGradient id="paint2_linear" x1="-5.9376" y1="73.8266" x2="96.4289" y2="65.241" gradientUnits="userSpaceOnUse">
<stop offset="0.00150876" stop-color="white"/>
<stop offset="1" stop-color="#AFD8FF"/>
</linearGradient>
<linearGradient id="paint3_linear" x1="95.5003" y1="28.8987" x2="16.2508" y2="43.4279" gradientUnits="userSpaceOnUse">
<stop stop-color="#0081F1"/>
<stop offset="1" stop-color="#00B2F1"/>
</linearGradient>
<linearGradient id="paint4_linear" x1="83.8988" y1="61.0584" x2="52.325" y2="140.61" gradientUnits="userSpaceOnUse">
<stop offset="0.0411" stop-color="#92C0FF"/>
<stop offset="0.3363" stop-color="#95C3FF"/>
<stop offset="0.5969" stop-color="#A0CBFF"/>
<stop offset="0.8436" stop-color="#B2D8FF"/>
<stop offset="0.8946" stop-color="#B7DCFF"/>
</linearGradient>
<linearGradient id="paint5_linear" x1="84.0467" y1="81.831" x2="96.8146" y2="12.708" gradientUnits="userSpaceOnUse">
<stop offset="0.0647" stop-color="#00338E"/>
<stop offset="1" stop-color="#00B2F1"/>
</linearGradient>
<linearGradient id="paint6_linear" x1="97.3006" y1="79.428" x2="11.6756" y2="61.6466" gradientUnits="userSpaceOnUse">
<stop stop-color="#8CB6F0"/>
<stop offset="0.1773" stop-color="#A1C4F3"/>
<stop offset="0.5239" stop-color="#C3DBF8"/>
<stop offset="0.8089" stop-color="#D9E9FB"/>
<stop offset="0.995" stop-color="#E0EEFC"/>
</linearGradient>
<linearGradient id="paint7_linear" x1="97.0115" y1="79.3682" x2="11.8869" y2="61.6907" gradientUnits="userSpaceOnUse">
<stop stop-color="#8CB6F0"/>
<stop offset="0.1773" stop-color="#A1C4F3"/>
<stop offset="0.5239" stop-color="#C3DBF8"/>
<stop offset="0.8089" stop-color="#D9E9FB"/>
<stop offset="0.995" stop-color="#E0EEFC"/>
</linearGradient>
</defs>
</svg>
