<svg width="95" height="93" viewBox="0 0 95 93" fill="none" xmlns="http://www.w3.org/2000/svg">
<g clip-path="url(#clip0)">
<path d="M56.2481 7.79887C37.7445 -3.66722 24.9419 -2.32258 27.6449 10.8304C30.348 23.9834 47.5492 43.9574 66.0529 55.4235C84.5319 66.8896 97.3345 65.5205 94.6315 52.3675C91.9284 39.2389 74.7518 19.265 56.2481 7.79887Z" fill="url(#paint0_linear)"/>
<path opacity="0.3" d="M56.2482 7.79888C74.7518 19.265 91.9285 39.2389 94.6315 52.3675C97.3346 65.5205 84.5319 66.8651 66.0283 55.399C47.5492 43.933 30.348 23.959 27.645 10.8304C24.9173 -2.32257 37.7445 -3.69165 56.2482 7.79888ZM28.6033 10.6348C31.2572 23.5434 48.2864 43.2484 66.5689 54.5923C74.5061 59.5307 81.7306 62.2445 86.8664 62.2445C89.5694 62.2445 91.5107 61.511 92.7148 60.0686C94.0418 58.455 94.3858 55.8636 93.6977 52.5875C91.0193 39.679 73.99 19.9495 55.7076 8.63011C47.7704 3.69163 40.5459 0.977906 35.4101 0.977906C32.7316 0.977906 30.7658 1.71134 29.5617 3.15377C28.2593 4.76734 27.9153 7.35882 28.6033 10.6348Z" fill="url(#paint1_linear)"/>
<path d="M0.393227 34.5205C0.466949 34.2516 0.565239 34.0071 0.688103 33.7626C0.7864 33.5182 0.909264 33.2737 1.05671 33.0536C1.20415 32.8092 1.35159 32.5891 1.5236 32.3936C1.62189 32.2713 1.72018 32.1735 1.81848 32.0513L29.0456 2.27368C28.9473 2.37147 28.849 2.49371 28.7507 2.61595C28.5787 2.83598 28.4313 3.05602 28.2838 3.27605C28.1609 3.49608 28.0381 3.74056 27.9152 3.98504C27.8169 4.22952 27.7186 4.474 27.6203 4.74292C27.5466 5.01185 27.4729 5.28078 27.4238 5.54971C27.3746 5.84308 27.3255 6.13646 27.3009 6.42983C27.2763 6.72321 27.2517 7.04103 27.2517 7.3833C27.2517 7.72557 27.2517 8.06785 27.2763 8.43456C27.3009 8.80128 27.3255 9.19245 27.3992 9.58362C27.4483 9.99923 27.522 10.4148 27.6203 10.8305C27.6203 10.8305 27.6203 10.8305 27.6203 10.8549C27.7186 11.3194 27.8415 11.8084 27.9644 12.2973C28.1118 12.8352 28.2838 13.3731 28.4804 13.9354C28.7016 14.571 28.9473 15.2066 29.2176 15.8667C29.537 16.6735 29.9056 17.4803 30.3234 18.3115C30.8394 19.3872 31.4292 20.4874 32.0681 21.5876C32.9527 23.0789 33.9111 24.6191 34.9923 26.1593C36.5404 28.4085 38.3097 30.6822 40.2264 32.9559C40.9636 33.8115 41.7008 34.6917 42.4871 35.5473C43.0032 36.1096 43.5192 36.6719 44.0352 37.2342C44.5021 37.7232 44.969 38.2122 45.4359 38.7011C45.8537 39.1167 46.2714 39.5568 46.6891 39.9724C47.1069 40.388 47.5246 40.8036 47.967 41.2193C48.3847 41.6104 48.8024 42.026 49.2202 42.4172C49.6379 42.8084 50.0802 43.224 50.5226 43.6152C50.9649 44.0308 51.4072 44.4219 51.8741 44.8131C52.341 45.2287 52.8079 45.6199 53.2748 46.0355C53.7662 46.4511 54.2331 46.8423 54.7246 47.2579C55.2161 47.6735 55.7321 48.0647 56.2236 48.4803C56.7396 48.8959 57.2311 49.2871 57.7471 49.6783C58.2631 50.0939 58.8037 50.485 59.3443 50.8762C59.885 51.2674 60.4256 51.6585 60.9662 52.0497C61.5314 52.4409 62.072 52.832 62.6372 53.2232C63.2269 53.6144 63.8167 54.0055 64.4064 54.3967C64.9716 54.7634 65.5122 55.1057 66.0774 55.4724C66.1266 55.4969 66.1757 55.5458 66.2248 55.5702C66.8883 55.9858 67.5518 56.377 68.2153 56.7682C68.9279 57.1838 69.6405 57.5749 70.3531 57.9661C71.1641 58.4062 71.9504 58.8218 72.7367 59.1885C73.7442 59.6775 74.7026 60.1175 75.661 60.5331C84.0158 64.0536 90.3557 64.1759 93.2554 61.0221L66.0037 90.8242C63.0795 93.9779 56.7642 93.8801 48.4093 90.3352C47.4509 89.944 46.4926 89.4795 45.4851 88.9906C44.6987 88.5994 43.9124 88.2082 43.1015 87.7682C42.3888 87.4014 41.6762 86.9858 40.9636 86.5702C40.3001 86.2035 39.6612 85.7879 38.9732 85.3723C38.924 85.3478 38.8749 85.2989 38.8257 85.2745C38.2605 84.9322 37.6954 84.5655 37.1547 84.1988C36.565 83.8076 35.9752 83.4164 35.3855 83.0253C34.8203 82.6341 34.2551 82.2429 33.7145 81.8518C33.1739 81.4606 32.6333 81.0694 32.0927 80.6783C31.5521 80.2871 31.036 79.8959 30.4954 79.4803C29.9794 79.0891 29.4633 78.6735 28.9719 78.2824C28.4804 77.8912 27.9644 77.4756 27.4729 77.06C26.9814 76.6688 26.5145 76.2532 26.0231 75.8376C25.5562 75.4464 25.0893 75.0308 24.6224 74.6152C24.1801 74.224 23.7132 73.8084 23.2709 73.4172C22.8286 73.026 22.4108 72.6104 21.9685 72.2193C21.5508 71.8281 21.133 71.4125 20.7153 71.0213C20.2975 70.6057 19.8552 70.1901 19.4375 69.7745C19.0197 69.3589 18.602 68.9432 18.1842 68.5032C17.7173 68.0142 17.2505 67.5253 16.7836 67.0363C16.2675 66.474 15.7515 65.9117 15.2354 65.3494C14.4737 64.4937 13.7119 63.638 12.9747 62.7579C11.058 60.4842 9.31331 58.2106 7.74062 55.9614C6.6594 54.4212 5.70104 52.8809 4.81641 51.3896C4.1775 50.2895 3.58775 49.1893 3.07171 48.1136C2.67854 47.2824 2.30994 46.4756 1.96591 45.6688C1.69561 45.0087 1.44987 44.373 1.22872 43.7374C1.03214 43.1751 0.860123 42.6372 0.712685 42.0994C0.589821 41.6104 0.466949 41.1459 0.36866 40.657C0.36866 40.657 0.36866 40.657 0.36866 40.6325C0.27037 40.1925 0.221222 39.7768 0.147499 39.3857C0.0983505 38.9945 0.049202 38.6033 0.0246277 38.2366C5.34058e-05 37.8699 6.10352e-05 37.5276 6.10352e-05 37.1854C6.10352e-05 36.8675 0.0246353 36.5497 0.049202 36.2319C0.0737762 35.9385 0.122925 35.6451 0.172073 35.3518C0.245789 35.0584 0.319511 34.7895 0.393227 34.5205Z" fill="url(#paint2_linear)"/>
<path d="M49.6379 73.2949C31.1343 61.8288 13.933 41.8548 11.23 28.7018C10.419 24.8146 10.9842 21.9542 12.6552 20.1451L19.8306 12.3706C18.1596 14.1798 17.619 17.0157 18.4053 20.9274C21.1084 34.0804 38.3096 54.0544 56.8133 65.5204C69.837 73.5883 80.0349 75.3241 83.9912 71.0457L76.8158 78.8201C72.8841 83.0985 62.6617 81.3872 49.6379 73.2949Z" fill="url(#paint3_linear)"/>
</g>
<defs>
<linearGradient id="paint0_linear" x1="32.0679" y1="69.3745" x2="74.2132" y2="14.0455" gradientUnits="userSpaceOnUse">
<stop stop-color="#0081F1"/>
<stop offset="1" stop-color="#00B2F1"/>
</linearGradient>
<linearGradient id="paint1_linear" x1="75.606" y1="11.5494" x2="58.6406" y2="35.3009" gradientUnits="userSpaceOnUse">
<stop offset="0.009695" stop-color="#F8F4FF"/>
<stop offset="1" stop-color="#F8F4FF" stop-opacity="0"/>
</linearGradient>
<linearGradient id="paint2_linear" x1="74.3037" y1="81.6462" x2="10.0473" y2="22.5765" gradientUnits="userSpaceOnUse">
<stop stop-color="#008CF1"/>
<stop offset="0.0399" stop-color="#0080DE"/>
<stop offset="0.0973" stop-color="#0172C8"/>
<stop offset="0.1531" stop-color="#016ABB"/>
<stop offset="0.2052" stop-color="#0167B7"/>
<stop offset="0.3053" stop-color="#016ABD"/>
<stop offset="0.4396" stop-color="#0171CE"/>
<stop offset="0.5928" stop-color="#007EEA"/>
<stop offset="0.6257" stop-color="#0081F1"/>
<stop offset="0.7509" stop-color="#0085F1"/>
<stop offset="0.8352" stop-color="#008CF1"/>
<stop offset="0.9524" stop-color="#00A6F1"/>
<stop offset="1" stop-color="#00B2F1"/>
</linearGradient>
<linearGradient id="paint3_linear" x1="74.247" y1="82.1281" x2="14.2407" y2="19.4175" gradientUnits="userSpaceOnUse">
<stop stop-color="#B7DCFF"/>
<stop offset="0.0672" stop-color="#A5CFFF"/>
<stop offset="0.1473" stop-color="#97C4FF"/>
<stop offset="0.2153" stop-color="#92C0FF"/>
<stop offset="0.4174" stop-color="#95C3FF"/>
<stop offset="0.5957" stop-color="#A0CBFF"/>
<stop offset="0.7646" stop-color="#B2D8FF"/>
<stop offset="0.7996" stop-color="#B7DCFF"/>
<stop offset="0.9584" stop-color="#EAF5FF"/>
</linearGradient>
<clipPath id="clip0">
<rect width="95" height="93" transform="matrix(-1 0 0 1 95 0)" fill="white"/>
</clipPath>
</defs>
</svg>
