<svg width="31" height="31" viewBox="0 0 31 31" fill="none" xmlns="http://www.w3.org/2000/svg">
<g clip-path="url(#clip0)">
<path d="M29.8795 7.84679C29.5336 6.56162 28.5204 5.5486 27.2354 5.20253C24.8878 4.56006 15.4973 4.56006 15.4973 4.56006C15.4973 4.56006 6.10697 4.56006 3.75934 5.17804C2.49912 5.52388 1.46115 6.56185 1.11531 7.84679C0.497559 10.1942 0.497559 15.0625 0.497559 15.0625C0.497559 15.0625 0.497559 19.9553 1.11531 22.2782C1.46138 23.5631 2.4744 24.5764 3.75957 24.9224C6.13169 25.5649 15.4975 25.5649 15.4975 25.5649C15.4975 25.5649 24.8878 25.5649 27.2354 24.9469C28.5206 24.6011 29.5336 23.5878 29.8797 22.3029C30.4974 19.9553 30.4974 15.0872 30.4974 15.0872C30.4974 15.0872 30.5222 10.1942 29.8795 7.84679Z" fill="#FF0000"/>
<path d="M12.5075 19.56L20.3163 15.0625L12.5075 10.5649V19.56Z" fill="white"/>
</g>
<defs>
<clipPath id="clip0">
<rect x="0.497559" y="0.0483398" width="30" height="30" fill="white"/>
</clipPath>
</defs>
</svg>
